<?xml version="1.0" encoding="utf-8"?>
<!-- Generator: Adobe Illustrator 22.1.0, SVG Export Plug-In . SVG Version: 6.00 Build 0)  -->
<svg version="1.1" id="Layer_1" xmlns="http://www.w3.org/2000/svg" xmlns:xlink="http://www.w3.org/1999/xlink" x="0px" y="0px"
	 viewBox="0 0 500 300" style="enable-background:new 0 0 500 300;" xml:space="preserve">
<style type="text/css">
	.st0{fill:#5249FF;}
</style>
<path class="st0" d="M151.285,139.785c-18.439-0.123-24.828-7.386-24.739-20.693l14.004,0.094c0.223,5.655,2.372,9.41,10.461,9.464
	c7.219,0.048,8.979-2.897,8.998-5.68c0.072-10.785-32.509-3.262-32.379-22.746c0.065-9.742,5.252-17.796,22.734-17.679
	c17.743,0.119,22.645,8.502,22.831,19.81l-13.917-0.093c-0.229-4.699-1.595-8.535-9.423-8.587c-6.524-0.044-8.192,2.381-8.211,5.251
	c-0.063,9.307,32.17,1.955,32.027,23.352C173.615,130.454,168.767,139.902,151.285,139.785z M185.753,124.885v-19.139l-7.105-0.048
	l0.05-7.393l7.055-5.145V82.545h13.483l-0.076,12.417l11.308,0.076v10.872l-11.233-0.075v17.694
	c-0.023,3.392,1.049,6.156,11.233,5.181v11.075C190.319,140.376,185.673,136.974,185.753,124.885z M252.15,139.785l-3.151-5.955
	c-2.459,3.463-6.985,6.013-15.682,5.955c-14.7-0.099-17.19-7.979-17.111-19.807V95.077l13.568,0.091v25.484
	c-0.04,6.002,0.991,8.533,7.165,8.574c6.175,0.042,7.928-2.737,7.969-8.825V95.27l13.463,0.089v44.426H252.15z M301.813,139.785
	l-3.146-6.74c-2.371,3.55-7.84,6.797-16.451,6.74c-14.7-0.098-18.748-10.977-18.672-22.284c0.077-11.394,4.067-22.849,17.985-22.756
	c6.871,0.046,11.204,2.424,13.1,5.133l0.017-17.333h13.368v57.24H301.813z M286.151,105.823c-7.394-0.05-8.73,4.812-8.777,11.771
	s1.225,11.838,8.531,11.887c7.48,0.05,8.817-4.725,8.864-11.77C294.815,110.926,293.892,105.875,286.151,105.823z M392.823,139.785
	v-25.049c0.04-6.001-0.916-8.884-7.178-8.926c-5.913-0.04-8.064,2.972-8.102,8.8v25.175h-13.223V95.143l6.176,0.041l3.176,6.11
	c2.2-3.639,7.266-6.823,15.702-6.767c14.613,0.098,17.339,8.814,17.258,20.817l-0.164,24.44H392.823z M158.255,215.017H140.73
	l-16.622-48.312l11.822-8.659l13.668,44.68l14.206-43.221l14.787,0.099L158.255,215.017z M196.172,215.016
	c-17.658-0.118-22.102-11.717-22.025-23.198c0.078-11.568,4.85-22.844,22.419-22.726c17.483,0.117,22.191,11.456,22.113,23.024
	C218.601,203.858,213.742,215.134,196.172,215.016z M196.491,180.399c-6.959-0.046-9.163,4.462-9.21,11.507
	c-0.048,7.132,2.184,11.671,8.968,11.716c7.046,0.047,9.336-4.461,9.385-11.593C205.68,185.071,203.711,180.447,196.491,180.399z
	 M231.423,166.855c-5.219-0.034-9.038-1.278-8.997-7.366c0.041-6.175,3.875-7.28,9.095-7.246c5.131,0.034,8.777,1.19,8.736,7.365
	C240.215,165.609,236.554,166.889,231.423,166.855z M224.521,215.017v-43.772l13.656,0.092v43.681H224.521z M287.924,196.363
	c-0.08,11.742-6.648,18.751-20.912,18.654c-18.178-0.121-22.8-11.461-22.722-23.116c0.078-11.655,4.937-22.93,22.768-22.81
	c14.265,0.095,20.904,8.051,20.904,18.061h-13.76c0-4.178-2.435-6.722-7.48-6.756c-6.957-0.046-8.9,4.115-8.949,11.508
	c-0.049,7.394,1.662,11.754,8.793,11.802c5.219,0.035,7.11-2.128,7.667-7.343H287.924z M115.249,186.233H95.833l19.415-14.221
	V82.544h0c-6.375,0-11.543,5.168-11.543,11.543v72.071l-43.166,31.617h43.166v5.698c0,6.375,5.168,11.543,11.543,11.543h0V186.233z
	 M336.684,139.784c-18.613-0.125-22.972-11.462-22.894-23.118c0.077-11.481,4.676-22.931,22.942-22.809
	c17.047,0.115,21.462,11.885,21.384,23.54c-0.008,1.305-0.017,2.609-0.2,3.913h-30.351c0.048,5.915,2.66,8.862,8.575,8.902
	c4.959,0.033,7.059-2.04,7.599-4.559h14.177C357.077,133.823,350.166,139.874,336.684,139.784z M335.969,103.768
	c-5.392-0.036-7.939,3.426-8.405,8.121l16.266,0.109C343.86,107.387,341.71,103.806,335.969,103.768z M418.853,124.853v-19.139
	l-7.105-0.048l0.05-7.393l7.055-5.145V82.513h13.483l-0.076,12.417l11.308,0.076v10.872l-11.233-0.075v17.694
	c-0.023,3.392,1.049,6.156,11.233,5.181v11.075C423.419,140.344,418.772,136.942,418.853,124.853z M316.314,215.017
	c-18.613-0.125-22.972-11.462-22.894-23.118c0.077-11.481,4.676-22.931,22.942-22.809c17.047,0.115,21.462,11.885,21.384,23.54
	c-0.008,1.305-0.017,2.609-0.2,3.913h-30.351c0.048,5.915,2.66,8.862,8.575,8.902c4.959,0.033,7.059-2.04,7.599-4.559h14.177
	C336.706,209.057,329.796,215.108,316.314,215.017z M315.599,179.001c-5.392-0.036-7.939,3.426-8.405,8.121l16.266,0.109
	C323.49,182.62,321.34,179.04,315.599,179.001z"/>
</svg>
