<?xml version="1.0" encoding="utf-8"?>
<!-- Generator: Adobe Illustrator 21.0.2, SVG Export Plug-In . SVG Version: 6.00 Build 0)  -->
<svg version="1.1" id="Layer_1" xmlns="http://www.w3.org/2000/svg" xmlns:xlink="http://www.w3.org/1999/xlink" x="0px" y="0px"
	 viewBox="0 0 200 150" style="enable-background:new 0 0 200 150;" xml:space="preserve">
<style type="text/css">
	.st0{fill:#FFCD05;}
	.st1{fill:#FFCE09;}
	.st2{fill:#FFFFFF;}
</style>
<g id="Layer_3">
</g>
<g>
	<g id="Layer_1_1_">
		<g>
			<g>
				<g>
					<path class="st0" d="M67.6,61.8c-3,13.4-9.6,36-20.7,36c-5.1,0-6.1-6.1-5.5-13.8c-2,6.3-6.5,13.8-12,13.8
						c-13,0-3.1-23.5-0.5-31.9c1.4-4.6,3.3-9.2,0.7-9.2c-3.9,0-9.1,10.7-9.1,16c0,2.6-5.2,1.9-5.2-3.6c0-4.8,5.6-15.5,14.2-15.5
						c6.9,0,9.2,6.1,6.7,13.7C34,74.4,27.4,92,31.5,92c3.3,0,8.6-11.6,11.8-19.6c0.7-3,1.4-5.8,2.1-8.4c0.3-1.1,7.8-1.3,7,1.7
						C50.3,73.7,45.9,92,49,92c3.2,0,9.2-19.8,10.2-30.2C59.8,56.8,68.5,57.4,67.6,61.8z"/>
					<path class="st1" d="M46.9,100.7c-2.2,0-4.2-0.9-5.7-2.4c-0.9-0.9-1.5-2-2-3.5c-2.6,3.4-6,5.9-9.9,5.9c-4.2,0-6.4-1.9-7.6-3.6
						c-3.4-4.8-1.9-13,0.9-21.8C21.8,76.3,20.5,77,19,77c-1.7,0-3.4-0.8-4.6-2.2c-0.9-1.1-2-2.9-2-5.8c0-3.3,1.7-7.7,4.4-11.3
						c3.5-4.6,8-7.1,12.8-7.1c4.7,0,7.2,2.2,8.6,4c2.4,3.3,2.8,8.1,1,13.6c-0.3,1.1-0.8,2.4-1.3,3.9c-1,3-3.1,9.3-4.1,13.8
						c1.7-2.7,3.9-7.2,6.7-14.3c0.6-2.8,1.3-5.6,2.1-8.3c1.1-3.8,7.3-3,8.8-2.5c3.5,1,4.5,3.6,3.9,5.8c-1.5,5.7-2.5,10.1-3.2,13.6
						c1.9-5.6,3.6-12.8,4.2-18.6c0.3-2.6,1.9-4.6,4.3-5.6c2.7-1.1,6-0.7,8,1.1c1.6,1.4,2.2,3.4,1.8,5.5
						C64.8,87.8,56.8,100.7,46.9,100.7z M42.8,81.3c1.1,0.5,1.7,1.7,1.6,2.9c-0.6,7.3,0.7,9.5,1.2,10.1c0.3,0.3,0.5,0.5,1.3,0.5
						c0.3,0,0.5,0,0.8-0.1c-0.6-0.3-1.2-0.7-1.6-1.2c-1.1-1.3-3-3.8,3.1-27.2c-0.4-0.1-0.9-0.1-1.3-0.1c-0.6,2.2-1.2,4.6-1.7,6.8
						c-0.1,0.1-0.1,0.3-0.1,0.5C44.9,76.4,43.8,79,42.8,81.3z M33.8,59.2c-0.2,1.7-0.8,3.5-1.5,5.6c-0.2,0.7-0.4,1.3-0.6,1.9
						c-0.3,1.1-0.7,2.2-1.3,3.7c-2.2,6.3-6.7,19.3-3.9,23.3c0.2,0.3,0.7,1.1,2.7,1.1c0.2,0,0.5,0,0.7-0.1c-0.7-0.3-1.4-0.8-1.9-1.5
						c-2.2-3.1-0.7-9.3,3.9-23.1c0.5-1.5,0.9-2.8,1.3-3.8C34.3,63.5,34.4,61,33.8,59.2z M63.8,61.2c-0.3,0-0.6,0.1-0.9,0.2
						c-0.5,0.2-0.6,0.5-0.6,0.7c-0.5,5.2-2.2,13-4.4,19.6c-0.5,1.7-1.1,3-1.5,4.4c3.1-5.8,6-14.2,8.3-24.7
						C64.4,61.3,64.1,61.2,63.8,61.2z M26.4,63.7c-1.6,2.8-3,6.4-3,9c0.5-1.4,0.9-2.8,1.4-4.2S25.7,66,26,65
						C26.2,64.5,26.3,64.1,26.4,63.7z"/>
				</g>
				<g>
					<path class="st0" d="M88.2,84.5c-2,3.4-7.8,13.2-15.9,13.2c-4.9,0-9.4-3.2-9.4-10.1c0-11.3,7.6-21,14.9-21c3.4,0,7.1,3,7.1,7.6
						c0,7.6-7.7,13.7-14.6,11.3c-0.1,0.7-0.1,1.3-0.1,2c0,3.2,1.5,5.6,4,5.6c5.6,0,11.1-7.1,12.6-9.9c0.3-0.7,1.2-0.5,1.5,0.2
						C88.4,83.7,88.3,84.2,88.2,84.5z M70.8,82.4c3.6,0.5,8.4-5.2,8.4-9.7c0-0.9-0.5-1.6-1.3-1.6C76,71.2,72.3,76.4,70.8,82.4z"/>
					<path class="st1" d="M72.2,100.7c-8.5,0-12.4-6.7-12.4-13c0-12.6,8.5-24,17.9-24c4.8,0,10.1,4,10.1,10.6c0,2-0.4,3.9-1.2,5.7
						c0.2-0.1,0.5-0.1,0.7-0.1c1.5,0,2.8,0.9,3.6,2.2c0.6,1.3,0.4,2.8-0.1,3.7c0,0.1-0.1,0.1-0.1,0.2l-0.1,0.1
						C88.3,90.1,82,100.7,72.2,100.7z M72.4,71.9c-3.6,3.1-6.6,9-6.6,15.7c0,4.1,1.9,5.8,3.8,6.5c-1.5-1.5-2.4-3.8-2.4-6.7
						c0-0.8,0.1-1.6,0.1-2.2c0.1-0.7,0.3-1.2,0.7-1.7c-0.3-0.6-0.3-1.3-0.1-1.9C68.7,78.7,70.3,74.8,72.4,71.9z M73.3,89.1
						c0.1,0.5,0.4,1.1,0.9,1.1c1.5,0,3.3-1,5-2.3C77.3,88.7,75.3,89.1,73.3,89.1z M89.4,84.6L89.4,84.6L89.4,84.6z M88.2,84.5
						L88.2,84.5L88.2,84.5z M81.8,75.4c-0.5,1.7-1.3,3.4-2.3,4.8C80.8,78.9,81.6,77.2,81.8,75.4z"/>
				</g>
				<g>
					<path class="st0" d="M108.5,56.5c-3.6,0-15,15.4-15,29.4c0,5,1.5,7.4,3.9,7.4c3.1,0,7.7-5.3,10.1-12.6c0.8-2.4,5,0.1,4,3.9
						c-1.3,5.3-6.5,13.2-14.7,13.2c-5.1,0-10.8-3.4-10.8-12.7c0-15.3,12.3-31.3,21-31.3c9.1,0,9.7,9.5,6.1,16.9
						c-1.5,3.2-7.6,1.7-6.9-1.9C107.2,63.2,110.7,56.5,108.5,56.5z"/>
					<path class="st1" d="M96.6,100.7c-6.9,0-13.8-4.8-13.8-15.7c0-16.1,12.8-34.3,24-34.3c5.3,0,7.9,2.5,9.3,4.6
						c3.1,4.9,1.8,11.7-0.5,16.5c-1.4,2.9-4.8,4.2-8.2,3.1c-3.1-1.1-4.9-3.8-4.3-6.8c0.3-1.3,0.6-2.6,1-3.8
						c-3.6,5.1-7.7,13.4-7.7,21.5c0,3.6,0.9,4.4,0.9,4.4c1.1-0.1,4.9-3.4,7.2-10.5c0.7-2.3,3-3.5,5.4-2.8c2.9,0.9,5.4,4.3,4.3,8.4
						C112.8,91.2,106.8,100.7,96.6,100.7z M99.6,60.4C94.1,65.5,88.8,75.2,88.8,85c0,4.8,1.7,7.3,3.6,8.5c-1.1-1.5-1.9-4-1.9-7.7
						c0-9,4.1-17.3,6.5-21.4C98,62.9,98.8,61.6,99.6,60.4z M110.3,81.6L110.3,81.6L110.3,81.6z M109,69.2c0.3,0.2,1.1,0.3,1.3,0.1
						c1.5-3.3,2-6.9,1.5-9.3c-0.3,1-0.6,2.1-1.1,3.4C110.1,65.3,109.4,67.4,109,69.2z"/>
				</g>
				<g>
					<path class="st0" d="M141.9,77c-1.4,1.1-4.6,3.4-8.5,4.6c-0.1,0.5-0.3,1-0.5,1.5c-3.4,10.2-8.9,14.7-13.5,14.7
						c-4.7,0-7.3-3.2-7.3-9.3c0-8.7,4.6-18.4,8.7-20.3c1.2-0.5,2.4,0.4,3.2,1.7c1.3-1.8,3.2-3.1,5.7-3.1c4,0,6,4.7,4.4,12.3
						c2.9-1,5.4-2.8,6.7-3.8c0.5-0.4,1.2-0.2,1.5,0.5C142.5,76,142.3,76.6,141.9,77z M126.9,81.6c-2.6-1.1-4.1-3.4-4.4-5.8
						c-0.7,1.3-1.4,2.9-2,4.6c-2,5.2-2.8,11.5-1.1,12.4c1.9,0.9,5-3.8,7.1-10C126.6,82.4,126.7,82,126.9,81.6z M124.7,73.7
						c0,2.3,0.9,4.4,2.8,5.4c0.9-4,0.5-7.2-0.5-7.7C125.7,70.7,124.7,72.1,124.7,73.7z"/>
					<path class="st1" d="M119.5,100.7c-6.5,0-10.3-4.6-10.3-12.3c0-9.6,5-20.6,10.4-23c0.1,0,0.1-0.1,0.1-0.1
						c1.4-0.5,2.8-0.4,4.2,0.3c1.7-1.3,3.6-2,5.8-2c2.2,0,4.2,1,5.7,2.7c1.5,1.8,2.2,4.3,2.2,7.4c0.5-0.3,0.9-0.7,1.2-0.9
						c0.9-0.8,2.2-1.1,3.4-0.8c1.3,0.3,2.2,1.2,2.7,2.4c0.7,1.7,0.2,3.6-1.2,4.8c-0.1,0-0.1,0.1-0.1,0.1c-1.1,0.8-4,3.1-7.9,4.5
						c0,0.1-0.1,0.1-0.1,0.2C132.3,94.5,126.2,100.7,119.5,100.7z M121.5,71.2c-1.1,0.9-2.5,2.8-3.8,5.7c-1.7,3.7-2.6,7.9-2.6,11.5
						c0,1.1,0.1,2,0.3,2.8c-0.6-4.8,2-11.5,2.2-11.8c0.7-1.9,1.5-3.6,2.2-4.9c0.4-0.8,1.1-1.3,1.9-1.5c0.1-0.4,0.1-0.7,0.2-1.1
						C121.8,71.7,121.6,71.5,121.5,71.2C121.5,71.3,121.5,71.2,121.5,71.2z M129.2,84c-0.5,1.5-1.2,3.2-2.1,5c1.1-1.8,2.2-4,3.2-6.9
						c0,0,0-0.1,0.1-0.1c0.1-0.3,0.2-0.6,0.3-1l0.1-0.3c0.1-0.4,0.3-0.8,0.6-1.1c-0.1-0.4-0.1-0.9,0-1.3c1-4.4,0.4-7.1-0.5-8.2
						c-0.3-0.3-0.6-0.5-1.1-0.5c-0.1,0-0.2,0-0.3,0c2.2,2.5,1.4,7.7,0.9,10.1c-0.1,0.5-0.3,0.9-0.6,1.3c0.1,0.5,0.1,1.1-0.1,1.6
						l-0.1,0.2C129.5,83.1,129.4,83.6,129.2,84z M122.8,82.5c-0.5,1.3-0.8,2.6-1.1,3.8c0.5-0.9,1-2,1.5-3.4
						C123.1,82.8,123,82.6,122.8,82.5z M142.7,77.4C142.7,77.4,142.7,77.4,142.7,77.4C142.7,77.4,142.7,77.4,142.7,77.4z M141.9,77
						L141.9,77L141.9,77z"/>
				</g>
				<g>
					<path class="st0" d="M165,77c-1.4,1.1-4.6,3.4-8.5,4.6c-0.1,0.5-0.3,1-0.5,1.5c-3.4,10.2-8.9,14.7-13.5,14.7
						c-4.7,0-7.3-3.2-7.3-9.3c0-8.7,4.6-18.4,8.7-20.3c1.2-0.5,2.4,0.4,3.2,1.7c1.3-1.8,3.2-3.1,5.7-3.1c4,0,6,4.7,4.4,12.3
						c2.9-1,5.4-2.8,6.7-3.8c0.5-0.4,1.2-0.2,1.5,0.5C165.5,76,165.4,76.6,165,77z M149.9,81.6c-2.6-1.1-4.1-3.4-4.4-5.8
						c-0.7,1.3-1.4,2.9-2,4.6c-2,5.2-2.8,11.5-1.1,12.4c1.9,0.9,5-3.8,7.1-10C149.7,82.4,149.8,82,149.9,81.6z M147.8,73.7
						c0,2.3,0.9,4.4,2.8,5.4c0.9-4,0.5-7.2-0.5-7.7C148.8,70.7,147.8,72.1,147.8,73.7z"/>
					<path class="st1" d="M142.6,100.7c-6.5,0-10.3-4.6-10.3-12.3c0-9.6,5-20.6,10.4-23c0.1,0,0.1-0.1,0.1-0.1
						c1.4-0.5,2.8-0.4,4.2,0.3c1.7-1.3,3.6-2,5.8-2c2.2,0,4.2,1,5.7,2.7c1.5,1.8,2.2,4.3,2.2,7.4c0.5-0.3,0.9-0.7,1.2-0.9
						c0.9-0.8,2.2-1.1,3.4-0.8c1.3,0.3,2.2,1.2,2.7,2.4c0.7,1.7,0.2,3.6-1.2,4.8c-0.1,0-0.1,0.1-0.1,0.1c-1.1,0.8-4,3.1-7.9,4.5
						c0,0.1-0.1,0.1-0.1,0.2C155.4,94.5,149.3,100.7,142.6,100.7z M144.6,71.2c-1.1,0.9-2.5,2.8-3.8,5.7c-1.7,3.7-2.6,7.9-2.6,11.5
						c0,1.1,0.1,2,0.3,2.8c-0.6-4.8,2-11.5,2.2-11.8c0.7-1.9,1.5-3.6,2.2-4.9c0.4-0.8,1.1-1.3,1.9-1.5c0.1-0.4,0.1-0.7,0.2-1.1
						C144.9,71.7,144.7,71.5,144.6,71.2C144.6,71.3,144.6,71.2,144.6,71.2z M152.2,84c-0.5,1.5-1.2,3.2-2.1,5c1.1-1.8,2.2-4,3.2-6.9
						c0,0,0-0.1,0.1-0.1c0.1-0.3,0.2-0.6,0.3-1l0.1-0.3c0.1-0.4,0.3-0.8,0.6-1.1c-0.1-0.4-0.1-0.9,0-1.3c1-4.4,0.4-7.1-0.5-8.2
						c-0.3-0.3-0.6-0.5-1.1-0.5c-0.1,0-0.2,0-0.3,0c2.2,2.5,1.4,7.7,0.9,10.1c-0.1,0.5-0.3,0.9-0.6,1.3c0.1,0.5,0.1,1.1-0.1,1.6
						l-0.1,0.2C152.6,83.1,152.4,83.6,152.2,84z M145.8,82.5c-0.5,1.3-0.8,2.6-1.1,3.8c0.5-0.9,1-2,1.5-3.4
						C146.1,82.8,146,82.6,145.8,82.5z M165.8,77.4C165.8,77.4,165.8,77.4,165.8,77.4C165.8,77.4,165.8,77.4,165.8,77.4z M165,77
						L165,77L165,77z"/>
				</g>
				<g>
					<path class="st0" d="M184.4,84.4c-1.5,2.5-7.3,13.4-11.6,13.4c-3.2,0-5.8-5.1-7.1-10.9c-0.1,0.1-0.1,0.1-0.1,0.1
						c-1,4.4-1.7,7.8-2,9.4c-0.5,2.9-6,1.3-6-3c0-3.6,5.4-25.9,11-39.1c1.6-3.8,7.4-1.3,6.3,1.5c-2,5.2-4.1,11.4-5.8,17.5
						c2.6-4.6,5.6-6.5,8.7-6.5c2.3,0,4.2,1.9,4.2,4.2c0,4-5.1,8.7-10.1,12.2c0.7,3.8,1.9,7.1,3.6,7.7c2.4,0.9,5.8-5,7.2-7.3
						c0.4-0.6,1.2-0.5,1.5,0.1C184.5,83.7,184.6,84.1,184.4,84.4z M166.7,82.2c-0.1,0.2-0.1,0.4-0.1,0.6c4.4-4,8.5-8.9,8.5-11.2
						c0-0.8-0.3-1.1-0.7-1.1c-1.6,0-6.1,6-7.5,11.7L166.7,82.2z"/>
					<path class="st1" d="M161.8,100.7c-0.1,0-0.3,0-0.5,0c-3.2-0.3-6.6-3.2-6.6-7.4c0-4.4,5.6-27.1,11.2-40.3
						c1.4-3.2,4.9-4.6,8.3-3.2c3,1.3,4.6,4.2,3.6,6.9c-0.9,2.2-1.8,4.7-2.6,7.3c1-0.3,1.9-0.4,2.7-0.4c4,0,7.2,3.2,7.2,7.1
						c0,4-3.2,8.6-9.7,13.4c0.4,1.7,0.8,2.6,1.1,3.1c1.2-1.1,2.8-3.8,3.4-4.8c0.2-0.3,0.3-0.6,0.5-0.9c0,0,0-0.1,0.1-0.1
						c0.8-1.2,2-1.8,3.4-1.7c1.4,0.1,2.6,0.9,3.2,2.2c0.7,1.3,0.7,2.8-0.1,3.8c-0.1,0.3-0.3,0.6-0.6,1c-4.8,8.3-8.9,13.8-13.5,13.8
						c-2.4,0-4.6-1.4-6.3-3.9C166.1,99.1,164.2,100.7,161.8,100.7z M160.7,95.8L160.7,95.8L160.7,95.8z M168.3,85.3
						c0.1,0.3,0.3,0.6,0.3,0.9c1.5,6.5,3.8,8.6,4.2,8.6c0.3-0.1,0.9-0.3,1.8-1.3h-0.1c-2.5-0.9-4.2-3.8-5.4-9.1
						c-0.2,0.2-0.4,0.4-0.6,0.5C168.5,85.1,168.4,85.2,168.3,85.3z M171.4,55.3C171.4,55.3,171.4,55.3,171.4,55.3
						c-5.8,13.4-10.8,35-10.8,38c0,0.4,0.1,0.7,0.3,0.9c0.4-1.9,1-4.7,1.7-8c0.2-0.9,0.7-1.5,1.4-1.9c-0.3-0.5-0.4-1-0.4-1.5
						c0-0.7,0.2-1.2,0.3-1.5c0.1-0.3,0.3-0.6,0.5-0.9c0.5-1.7,1.3-3.6,2.3-5.4c-0.5-0.7-0.7-1.7-0.5-2.6c1.7-6.2,3.7-12.2,5.6-17.1
						C171.7,55.3,171.5,55.3,171.4,55.3z M182,82.6L182,82.6L182,82.6z M177.7,69.6c0.3,0.5,0.4,1.2,0.4,2c0,0.7-0.2,1.5-0.5,2.3
						c1-1.3,1.5-2.4,1.5-3.1C179,70.1,178.4,69.6,177.7,69.6C177.8,69.6,177.7,69.6,177.7,69.6z"/>
				</g>
			</g>
			<g>
				<g>
					<path class="st0" d="M145.1,85.3c0.9-0.3,1.5-1.2,1.6-2.1c-0.6,0.1-0.9,1-0.5,1.5"/>
				</g>
				<g>
					<g>
						<path class="st1" d="M145.6,86.9c1.7-0.7,2.6-2,2.8-3.7c0.1-1.1-1.1-1.9-2.1-1.6c-0.9,0.2-1.5,0.9-1.8,1.8
							c-0.3,0.9,0,1.8,0.6,2.4c0.6,0.7,1.8,0.7,2.3,0c0.7-0.7,0.6-1.7,0-2.3c0.2,0.2,0.3,0.4,0.3,0.7c0-0.3-0.1,0.4,0,0.1
							c0,0.1-0.1,0.1-0.1,0.2c0.1-0.1,0.1-0.1-0.1,0.1c-0.1,0.1-0.6,0.3-0.3,0.2c-0.7-0.5-1.4-1.1-2.1-1.6c0-0.1,0.1-0.3,0-0.1
							c0,0-0.1,0.4,0,0.1c0.1-0.2,0,0-0.1,0.1l-0.1,0.3c0,0,0.2-0.3,0-0.1l-0.2,0.2c0,0,0.3-0.2,0,0c-0.1,0.1-0.3,0.1,0,0
							c-0.8,0.3-1.5,1.1-1.1,2C143.8,86.5,144.7,87.2,145.6,86.9L145.6,86.9z"/>
					</g>
				</g>
			</g>
			<g>
				<g>
					<path class="st0" d="M122.9,86.4c-0.3-1.2,0.1-2.4,0.9-3.4c-0.1-0.1-0.3-0.3-0.4-0.4"/>
				</g>
				<g>
					<g>
						<path class="st1" d="M124.5,86c-0.1-0.6,0.1-1.3,0.4-1.8c0.6-0.7,0.7-1.6,0-2.3c-0.1-0.1-0.3-0.3-0.4-0.4
							c-1.5-1.6-3.8,0.8-2.3,2.3c0.1,0.1,0.3,0.3,0.4,0.4c0-0.8,0-1.6,0-2.3c-1.2,1.5-1.6,3.1-1.3,5c0.1,0.9,1.3,1.4,2,1.1
							C124.2,87.7,124.6,86.8,124.5,86L124.5,86z"/>
					</g>
				</g>
			</g>
			<g>
				<g>
					<path class="st0" d="M75.9,89.5c-0.8-0.1-1.6-0.1-2.3-0.3c1.7-0.4,3.4-0.7,5-1.1"/>
				</g>
				<g>
					<g>
						<path class="st1" d="M75.9,87.9c-0.8-0.1-1.6-0.1-2.3-0.3c0.1,1.1,0.3,2.2,0.5,3.2c1.7-0.4,3.4-0.7,5-1.1
							c2-0.5,1.2-3.6-0.9-3.2c-1.7,0.4-3.4,0.7-5,1.1c-0.8,0.2-1.3,1.1-1.2,1.8c0.1,0.9,0.8,1.3,1.7,1.5c0.8,0.1,1.6,0.1,2.3,0.3
							c0.9,0.1,1.7-0.8,1.7-1.7C77.5,88.5,76.8,87.9,75.9,87.9L75.9,87.9z"/>
					</g>
				</g>
			</g>
			<g>
				<g>
					<path class="st0" d="M112.5,75.2c-2,1.4-5,1.2-6.7-0.5c-2.2-2.2-1.9-5.8-1.5-8.9c-1.3,3-2.7,6-4,9c0.2-1.7,0.3-3.4,0.5-5.2
						c0.6,4.5-0.1,9.1-2,13.2c-1.1-2.7-0.9-5.9,0.6-8.4c-0.7,4.2-1.5,8.3-2.2,12.4c-0.1,0.6-0.1,1.3,0.3,1.6c0.7,0.5,1.5-0.3,2-1
						c2.5-4.2,4-9,4.2-13.9c0.3,1.9,0.7,3.6,1.1,5.5c0.1-0.2,0.3-0.4,0.5-0.7"/>
				</g>
				<g>
					<g>
						<path class="st1" d="M111.7,73.9c-5.8,3.2-6.1-4.4-5.7-7.9c0.2-1.6-2.4-2.3-3.1-0.9c-1.3,3-2.7,6-4,9c1.1,0.3,2,0.5,3.1,0.9
							c0.2-1.7,0.3-3.4,0.5-5.2c-1.1,0-2.2,0-3.3,0c0.5,4.3,0,8.4-1.7,12.4c1,0.1,2,0.3,3,0.4c-0.9-2.5-0.8-4.8,0.4-7.1
							c-1-0.4-2-0.9-3-1.3c-0.7,4.1-1.7,8.3-2.2,12.4c-0.3,1.9,0.5,4.2,2.8,3.8c2.5-0.4,3.8-4.2,4.6-6.1c1.4-3.4,2.1-6.9,2.4-10.5
							c-1.1,0.1-2.2,0.3-3.2,0.5c0.3,1.9,0.7,3.6,1.1,5.5c0.3,1.5,2.2,1.4,3,0.4c0.1-0.2,0.3-0.4,0.5-0.7c1.3-1.7-1.6-3.4-2.8-1.7
							c-0.1,0.2-0.3,0.4-0.5,0.7c1,0.1,2,0.3,3,0.4c-0.3-1.9-0.7-3.6-1.1-5.5c-0.4-1.9-3.1-1.3-3.2,0.5c-0.1,2.1-0.5,4.2-1.1,6.2
							c-0.6,2-1.9,3.9-2.4,5.8c0.1,0.1,0.3,0.3,0.4,0.4c0.1-0.4,0.1-0.9,0.2-1.3c0.3-1,0.4-2.1,0.5-3.1c0.4-2.2,0.8-4.6,1.2-6.8
							c0.3-1.7-2.1-3.1-3-1.3c-1.6,3.2-1.9,6.3-0.7,9.7c0.4,1.2,2.4,1.8,3,0.4c1.9-4.5,2.7-9.1,2.2-14c-0.3-2.1-3.1-2.1-3.3,0
							c-0.2,1.7-0.3,3.4-0.5,5.2c-0.2,1.6,2.4,2.3,3.1,0.9c1.3-3,2.7-6,4-9c-1.1-0.3-2-0.5-3.1-0.9c-0.5,3.4-0.7,7.4,2,10
							c2.4,2.4,6,2.4,8.7,0.8C115.2,75.6,113.6,72.8,111.7,73.9L111.7,73.9z"/>
					</g>
				</g>
			</g>
			<g>
				<g>
					<path class="st0" d="M52.9,78.2c0.9-4,1.7-7.9,2.6-11.8"/>
				</g>
				<g>
					<g>
						<path class="st1" d="M54.5,78.7c0.9-4,1.7-7.9,2.6-11.8c0.5-2-2.7-3-3.2-0.9c-0.9,4-1.7,7.9-2.6,11.8
							C50.9,79.9,54.1,80.7,54.5,78.7L54.5,78.7z"/>
					</g>
				</g>
			</g>
			<g>
				<g>
					<path class="st0" d="M33.8,84.2c1.3-2.6,2.6-5.3,3.8-7.9c0.9-1.8,1.8-3.8,1.7-5.8"/>
				</g>
				<g>
					<g>
						<path class="st1" d="M35.2,85c2.1-4.4,5.7-9.5,5.7-14.5c0-2.1-3.3-2.1-3.3,0c0,4.2-3.4,9.1-5.2,12.8
							C31.4,85.2,34.3,86.9,35.2,85L35.2,85z"/>
					</g>
				</g>
			</g>
			<g>
				<g>
					<path class="st0" d="M40.8,72.4c-0.8-1.6-1.6-3.2-2.4-4.8c1,0.1,2,0.1,3,0.1"/>
				</g>
				<g>
					<g>
						<path class="st1" d="M42.3,71.6c-0.8-1.6-1.6-3.2-2.4-4.8c-0.5,0.9-0.9,1.7-1.5,2.5c1,0.1,2,0.1,3,0.1c2.1,0.1,2.1-3.2,0-3.3
							c-1-0.1-2-0.1-3-0.1c-1.3-0.1-1.9,1.5-1.5,2.5c0.8,1.6,1.6,3.2,2.4,4.8C40.3,75.2,43.2,73.5,42.3,71.6L42.3,71.6z"/>
					</g>
				</g>
			</g>
			<g>
				<g>
					<path class="st0" d="M42.2,66.6c-1.1-0.5-2.5-0.3-3.3,0.6"/>
				</g>
				<g>
					<g>
						<path class="st1" d="M43,65.1c-1.8-0.9-3.9-0.6-5.3,0.9c-1.5,1.5,0.9,3.9,2.3,2.3c0.3-0.3,0.4-0.3,0.7-0.4c0.1,0,0.1,0,0,0
							c0.1,0,0.3,0,0.3,0c-0.3,0,0.5,0.2,0.2,0.1c0.8,0.4,1.8,0.2,2.2-0.6C44,66.7,43.8,65.5,43,65.1L43,65.1z"/>
					</g>
				</g>
			</g>
			<g>
				<g>
					<path class="st0" d="M23.6,70.5c0.9-2.2,1.8-4.6,2.7-6.8c-1.1,3-2.2,6-3.4,9"/>
				</g>
				<g>
					<g>
						<path class="st1" d="M25.3,70.9c0.9-2.2,1.8-4.6,2.7-6.8c-1.1-0.3-2.1-0.6-3.2-0.9c-1.1,3-2.2,6-3.4,9c-0.7,2,2.4,2.8,3.2,0.9
							c1.1-3,2.2-6,3.4-9c0.8-2-2.4-2.8-3.2-0.9c-0.9,2.2-1.8,4.6-2.7,6.8C21.3,72.1,24.5,72.9,25.3,70.9L25.3,70.9z"/>
					</g>
				</g>
			</g>
			<g>
				<g>
					<g>
						<path class="st1" d="M38.2,74.4c2.1,0,2.1-3.3,0-3.3C36.1,71.1,36.1,74.4,38.2,74.4L38.2,74.4z"/>
					</g>
				</g>
			</g>
			<g>
				<g>
					<path class="st0" d="M40.8,67.9c0.8-0.1,1.3-1.1,0.9-1.8s-1.4-0.9-2-0.4c1.1,0.1,2.2,0.1,3.3,0.1c-0.9-0.2-1.9-0.4-2.8-0.7
						c0.8,0.1,1.5,0.3,2.3,0.5"/>
				</g>
				<g>
					<g>
						<path class="st1" d="M41.2,69.5c1.8-0.4,2.8-2.6,1.9-4.2c-0.8-1.5-2.9-2-4.2-1c-0.6,0.5-1,1.1-0.7,1.9
							c0.2,0.7,0.9,1.2,1.6,1.2c1.1,0.1,2.2,0.1,3.3,0.1c1.9,0.1,2.2-2.8,0.5-3.2c-0.9-0.2-1.9-0.4-2.8-0.7
							c-0.3,1.1-0.6,2.1-0.9,3.2c0.8,0.1,1.5,0.3,2.3,0.5c0.9,0.2,1.8-0.3,2-1.1c0.2-0.8-0.3-1.9-1.1-2c-0.8-0.1-1.5-0.3-2.3-0.5
							c-0.9-0.2-1.8,0.3-2,1.1c-0.2,0.9,0.3,1.9,1.1,2c0.9,0.2,1.9,0.4,2.8,0.7c0.1-1.1,0.3-2.2,0.5-3.2C42,64.1,41,64.1,39.8,64
							c0.3,1.1,0.5,2,0.9,3.1c0.1-0.1,0.2-0.1,0-0.1c-0.2,0-0.2,0,0,0c-0.2-0.1-0.3-0.1-0.4-0.3c-0.1-0.1-0.1-0.3,0-0.4
							c0.1-0.1,0.1-0.1-0.1,0.1c0.4-0.2,0.4-0.2,0.1-0.1c-0.9,0.2-1.4,1.2-1.1,2C39.5,69.2,40.4,69.7,41.2,69.5L41.2,69.5z"/>
					</g>
				</g>
			</g>
			<g>
				<g>
					<path class="st0" d="M177.9,85.8c-0.5,0.4-1.2,0.5-1.7,0.1c-0.5-0.4-0.5-1.2-0.2-1.7c0.3-0.4,0.8-0.6,1.3-0.7
						c0.5-0.1,1.1-0.3,1.4-0.6c0.4-0.3,0.6-1,0.3-1.4c0.5,0.3,1,0.5,1.5,0.7c-0.5-0.7-1-1.3-1.5-1.9c0.8,0.8,1.6,1.5,2.4,2.3
						c-0.3-0.8-0.7-1.5-1-2.3c0.5,0.5,0.9,1,1.3,1.5"/>
				</g>
				<g>
					<g>
						<path class="st1" d="M177.1,84.4c-0.2,0.1-0.2,0.3,0.1,0.5c0.1,0.3,0.1,0.5,0.3,0.3c0.2,0,0.6-0.1,0.7-0.2
							c0.6-0.2,1.2-0.5,1.7-0.9c0.9-0.9,1.1-2.3,0.5-3.4c-0.7,0.7-1.5,1.5-2.2,2.2c0.5,0.3,1,0.5,1.5,0.7c1.3,0.7,3.4-0.9,2.2-2.2
							c-0.5-0.7-1-1.3-1.5-1.9c-0.9,0.7-1.7,1.3-2.6,2c0.8,0.8,1.6,1.5,2.4,2.3c1.4,1.4,3.3-0.3,2.6-2c-0.3-0.8-0.7-1.5-1-2.3
							c-0.9,0.7-1.7,1.3-2.6,2c0.5,0.5,0.9,1,1.3,1.5c1.5,1.6,3.8-0.8,2.3-2.3c-0.5-0.5-0.9-1-1.3-1.5c-1.4-1.5-3.3,0.4-2.6,2
							c0.3,0.8,0.7,1.5,1,2.3c0.9-0.7,1.7-1.3,2.6-2c-0.8-0.8-1.6-1.5-2.4-2.3c-1.3-1.3-3.8,0.5-2.6,2c0.5,0.7,1,1.3,1.5,1.9
							c0.7-0.7,1.5-1.5,2.2-2.2c-0.5-0.3-1-0.5-1.5-0.7c-1.5-0.7-3.2,0.8-2.2,2.2c0.1-0.3,0.1-0.5,0.1-0.7c-0.1,0-0.1,0.1-0.2,0.1
							c-0.1,0-0.5,0.1-0.6,0.2c-0.5,0.1-1,0.3-1.4,0.6c-0.9,0.6-1.4,1.5-1.3,2.6c0.1,2.2,2.8,3.5,4.6,2.2c0.7-0.5,1.1-1.5,0.6-2.2
							C178.9,84.3,177.8,83.9,177.1,84.4L177.1,84.4z"/>
					</g>
				</g>
			</g>
			<g>
				<g>
					<g>
						<path class="st1" d="M107,78c2.1,0,2.1-3.3,0-3.3S104.8,78,107,78L107,78z"/>
					</g>
				</g>
			</g>
			<g>
				<g>
					<path class="st0" d="M107.2,76.8c-0.7-0.6-1.5-1.3-2.2-1.9c0.5,0.3,1.1,0.6,1.6,0.9"/>
				</g>
				<g>
					<g>
						<path class="st1" d="M108.3,75.6c-0.7-0.6-1.5-1.3-2.2-1.9c-0.7,0.9-1.3,1.7-2,2.6c0.5,0.3,1.1,0.6,1.6,0.9
							c0.7,0.4,1.9,0.2,2.2-0.6c0.4-0.8,0.2-1.8-0.6-2.2c-0.5-0.3-1.1-0.6-1.6-0.9c-0.7-0.4-1.7-0.2-2.1,0.4
							c-0.5,0.6-0.5,1.7,0.1,2.2c0.7,0.6,1.5,1.3,2.2,1.9c0.7,0.5,1.7,0.7,2.3,0C108.9,77.4,109,76.2,108.3,75.6L108.3,75.6z"/>
					</g>
				</g>
			</g>
		</g>
	</g>
	<g id="Layer_2">
		<path class="st2" d="M67.6,61.8c-3,13.4-9.6,36-20.7,36c-5.1,0-6.1-6.1-5.5-13.8c-2,6.3-6.5,13.8-12,13.8c-13,0-3.1-23.5-0.5-31.9
			c1.4-4.6,3.3-9.2,0.7-9.2c-3.9,0-9.1,10.7-9.1,16c0,2.6-5.2,1.9-5.2-3.6c0-4.8,5.6-15.5,14.2-15.5c6.9,0,9.2,6.1,6.7,13.7
			C34,74.4,27.4,92,31.5,92c3.3,0,8.6-11.6,11.8-19.6c0.7-3,1.4-5.8,2.1-8.4c0.3-1.1,7.8-1.3,7,1.7C50.3,73.7,45.9,92,49,92
			c3.2,0,9.2-19.8,10.2-30.2C59.8,56.8,68.5,57.4,67.6,61.8z"/>
		<path class="st2" d="M88.2,84.5c-2,3.4-7.8,13.2-15.9,13.2c-4.9,0-9.4-3.2-9.4-10.1c0-11.3,7.6-21,14.9-21c3.4,0,7.1,3,7.1,7.6
			c0,7.6-7.7,13.7-14.6,11.3c-0.1,0.7-0.1,1.3-0.1,2c0,3.2,1.5,5.6,4,5.6c5.6,0,11.1-7.1,12.6-9.9c0.3-0.7,1.2-0.5,1.5,0.2
			C88.4,83.7,88.3,84.2,88.2,84.5z M70.8,82.4c3.6,0.5,8.4-5.2,8.4-9.7c0-0.9-0.5-1.6-1.3-1.6C76,71.2,72.3,76.4,70.8,82.4z"/>
		<path class="st2" d="M108.5,56.5c-3.6,0-15,15.4-15,29.4c0,5,1.5,7.4,3.9,7.4c3.1,0,7.7-5.3,10.1-12.6c0.8-2.4,5,0.1,4,3.9
			c-1.3,5.3-6.5,13.2-14.7,13.2c-5.1,0-10.8-3.4-10.8-12.7c0-15.3,12.3-31.3,21-31.3c9.1,0,9.7,9.5,6.1,16.9
			c-1.5,3.2-7.6,1.7-6.9-1.9C107.2,63.2,110.7,56.5,108.5,56.5z"/>
		<path class="st2" d="M141.9,77c-1.4,1.1-4.6,3.4-8.5,4.6c-0.1,0.5-0.3,1-0.5,1.5c-3.4,10.2-8.9,14.7-13.5,14.7
			c-4.7,0-7.3-3.2-7.3-9.3c0-8.7,4.6-18.4,8.7-20.3c1.2-0.5,2.4,0.4,3.2,1.7c1.3-1.8,3.2-3.1,5.7-3.1c4,0,6,4.7,4.4,12.3
			c2.9-1,5.4-2.8,6.7-3.8c0.5-0.4,1.2-0.2,1.5,0.5C142.5,76,142.3,76.6,141.9,77z M126.9,81.6c-2.6-1.1-4.1-3.4-4.4-5.8
			c-0.7,1.3-1.4,2.9-2,4.6c-2,5.2-2.8,11.5-1.1,12.4c1.9,0.9,5-3.8,7.1-10C126.6,82.4,126.7,82,126.9,81.6z M124.7,73.7
			c0,2.3,0.9,4.4,2.8,5.4c0.9-4,0.5-7.2-0.5-7.7C125.7,70.7,124.7,72.1,124.7,73.7z"/>
		<path class="st2" d="M165,77c-1.4,1.1-4.6,3.4-8.5,4.6c-0.1,0.5-0.3,1-0.5,1.5c-3.4,10.2-8.9,14.7-13.5,14.7
			c-4.7,0-7.3-3.2-7.3-9.3c0-8.7,4.6-18.4,8.7-20.3c1.2-0.5,2.4,0.4,3.2,1.7c1.3-1.8,3.2-3.1,5.7-3.1c4,0,6,4.7,4.4,12.3
			c2.9-1,5.4-2.8,6.7-3.8c0.5-0.4,1.2-0.2,1.5,0.5C165.5,76,165.4,76.6,165,77z M149.9,81.6c-2.6-1.1-4.1-3.4-4.4-5.8
			c-0.7,1.3-1.4,2.9-2,4.6c-2,5.2-2.8,11.5-1.1,12.4c1.9,0.9,5-3.8,7.1-10C149.7,82.4,149.8,82,149.9,81.6z M147.8,73.7
			c0,2.3,0.9,4.4,2.8,5.4c0.9-4,0.5-7.2-0.5-7.7C148.8,70.7,147.8,72.1,147.8,73.7z"/>
		<path class="st2" d="M184.4,84.4c-1.5,2.5-7.3,13.4-11.6,13.4c-3.2,0-5.8-5.1-7.1-10.9c-0.1,0.1-0.1,0.1-0.1,0.1
			c-1,4.4-1.7,7.8-2,9.4c-0.5,2.9-6,1.3-6-3c0-3.6,5.4-25.9,11-39.1c1.6-3.8,7.4-1.3,6.3,1.5c-2,5.2-4.1,11.4-5.8,17.5
			c2.6-4.6,5.6-6.5,8.7-6.5c2.3,0,4.2,1.9,4.2,4.2c0,4-5.1,8.7-10.1,12.2c0.7,3.8,1.9,7.1,3.6,7.7c2.4,0.9,5.8-5,7.2-7.3
			c0.4-0.6,1.2-0.5,1.5,0.1C184.5,83.7,184.6,84.1,184.4,84.4z M166.7,82.2c-0.1,0.2-0.1,0.4-0.1,0.6c4.4-4,8.5-8.9,8.5-11.2
			c0-0.8-0.3-1.1-0.7-1.1c-1.6,0-6.1,6-7.5,11.7L166.7,82.2z"/>
	</g>
</g>
</svg>
