<?xml version="1.0" encoding="utf-8"?>
<!-- Generator: Adobe Illustrator 22.0.1, SVG Export Plug-In . SVG Version: 6.00 Build 0)  -->
<svg version="1.1" id="Layer_1" xmlns="http://www.w3.org/2000/svg" xmlns:xlink="http://www.w3.org/1999/xlink" x="0px" y="0px"
	 viewBox="0 0 140 105" style="enable-background:new 0 0 140 105;" xml:space="preserve">
<style type="text/css">
	.st0{fill:#FFFFFF;}
	.st1{fill:#00657B;}
	.st2{fill:#FF7800;}
</style>
<g id="Layer_2_1_">
	<g id="Layer_3">
		<path class="st0" d="M15.9,63.8c-5.2-1.5-8.3-6.8-6.2-14s8.5-13.9,13.8-12.4c5.2,1.5,7.2,10.5,5.1,17.8S21.1,65.2,15.9,63.8z"/>
		<path class="st1" d="M46.5,66.2c-2.4,0-4.3-0.7-5.6-2c-1.3-1.4-1.9-3.3-1.9-5.8c0-1.1,0.2-2.3,0.6-3.3c0.4-0.9,0.9-1.8,1.6-2.5
			c0.7-0.7,1.5-1.2,2.4-1.5c1-0.4,2-0.5,3-0.5c0.6,0,1.2,0,1.7,0.1c0.5,0.1,0.9,0.2,1.4,0.3c0.3,0.1,0.7,0.2,1,0.4l0,0
			c0.3,0.2,0.5,0.5,0.3,0.9l-0.5,1.4c-0.1,0.4-0.5,0.6-0.9,0.4c0,0,0,0,0,0c-0.3-0.1-0.6-0.2-0.9-0.3c-0.7-0.2-1.4-0.3-2.1-0.3
			c-0.5,0-1,0.1-1.5,0.3c-0.5,0.2-0.9,0.4-1.3,0.8c-0.4,0.4-0.7,0.9-0.9,1.5c-0.2,0.7-0.4,1.5-0.3,2.2c0,0.7,0.1,1.3,0.2,1.9
			c0.1,0.6,0.4,1.1,0.7,1.5c0.3,0.5,0.8,0.8,1.3,1.1c0.6,0.3,1.3,0.4,2,0.4c0.4,0,0.9,0,1.3-0.1c0.3,0,0.7-0.1,1-0.2
			c0.3-0.1,0.6-0.2,0.8-0.3l0,0c0.3-0.1,0.7,0,0.8,0.3c0,0,0,0,0,0l0.5,1.5c0.1,0.3,0,0.6-0.3,0.8c-0.5,0.2-1,0.4-1.5,0.5
			C48.5,66.1,47.5,66.2,46.5,66.2z"/>
		<path class="st1" d="M63.8,60.1c0,0.8-0.1,1.7-0.4,2.5c-0.2,0.7-0.6,1.4-1.1,1.9c-0.5,0.5-1.1,0.9-1.8,1.2
			c-0.7,0.3-1.5,0.4-2.3,0.4c-0.8,0-1.6-0.1-2.3-0.4c-0.7-0.3-1.3-0.7-1.8-1.2c-0.5-0.5-0.9-1.2-1.1-1.9c-0.3-0.8-0.4-1.6-0.4-2.4
			c0-0.8,0.1-1.7,0.4-2.4c0.3-0.7,0.6-1.3,1.1-1.9c0.5-0.5,1.1-0.9,1.8-1.2c0.7-0.3,1.5-0.4,2.2-0.4c0.8,0,1.5,0.1,2.3,0.4
			c0.7,0.3,1.3,0.7,1.8,1.2c0.5,0.5,0.9,1.2,1.1,1.9C63.7,58.5,63.8,59.3,63.8,60.1z M60.5,60.1c0.1-0.8-0.1-1.6-0.6-2.3
			c-0.4-0.6-1-0.9-1.7-0.9c-0.7,0-1.3,0.3-1.7,0.9c-0.4,0.7-0.6,1.5-0.6,2.3c0,0.8,0.2,1.7,0.6,2.4c0.4,0.6,1,0.9,1.7,0.9
			c0.7,0,1.3-0.3,1.7-0.9C60.4,61.8,60.6,61,60.5,60.1z"/>
		<path class="st1" d="M66.3,55.7c0-0.5,0.3-0.9,0.8-1c0.4-0.1,0.8-0.2,1.3-0.2c0.9-0.1,1.8-0.2,2.7-0.2c0.8,0,1.6,0.1,2.4,0.4
			c0.6,0.2,1.1,0.6,1.5,1.1c0.4,0.5,0.7,1,0.8,1.6c0.2,0.7,0.2,1.4,0.2,2.1v5.4c0,0.6-0.5,1-1,1l0,0h-1.1c-0.6,0-1-0.5-1-1v-5
			c0.1-0.8-0.1-1.5-0.4-2.2c-0.4-0.5-0.9-0.7-1.5-0.6c-0.2,0-0.5,0-0.7,0l0,0c-0.4,0-0.7,0.4-0.7,0.8v7.1c0,0.6-0.5,1-1,1l0,0h-1.1
			c-0.6,0-1-0.5-1-1l0,0L66.3,55.7z"/>
		<path class="st1" d="M79.8,51.5l1.2-0.2c0.5-0.1,1.1,0.3,1.1,0.8c0,0,0,0.1,0,0.1V54c0,0.3,0.2,0.5,0.5,0.5l0,0h1.9
			c0.6,0,1,0.5,1,1c0,0.1,0,0.3-0.1,0.4l-0.3,0.7c-0.2,0.4-0.5,0.6-0.9,0.6h-1.6c-0.3,0-0.5,0.2-0.5,0.5c0,0,0,0,0,0v3.5
			c0,0.6,0.1,1.1,0.4,1.6c0.3,0.4,0.9,0.7,1.4,0.6c0.4,0,0.7,0,1.1-0.1l0,0c0.5-0.1,1.1,0.2,1.2,0.8c0,0,0,0,0,0l0.1,0.6
			c0.1,0.5-0.2,1-0.7,1.1l-0.4,0.1c-0.6,0.1-1.2,0.2-1.7,0.2c-0.7,0-1.5-0.1-2.2-0.4c-0.5-0.2-1-0.6-1.4-1c-0.4-0.5-0.6-1-0.7-1.5
			c-0.1-0.7-0.2-1.3-0.2-2v-8.7C78.9,52,79.3,51.6,79.8,51.5z"/>
		<path class="st1" d="M92.1,51.2c0,0.5-0.2,1-0.6,1.4c-0.8,0.7-1.9,0.7-2.7,0c-0.4-0.4-0.6-0.9-0.6-1.4c0-0.5,0.2-1,0.6-1.4
			c0.8-0.7,1.9-0.7,2.7,0C91.9,50.2,92.1,50.7,92.1,51.2z M90.8,65.8h-1.2c-0.6,0-1-0.5-1-1l0,0v-9.3c0-0.6,0.5-1,1-1l0,0h1.2
			c0.6,0,1,0.4,1,1c0,0,0,0,0,0v9.3C91.8,65.4,91.4,65.8,90.8,65.8C90.8,65.8,90.8,65.8,90.8,65.8L90.8,65.8z"/>
		<path class="st1" d="M104.6,64.4c0,1.9-0.5,3.2-1.4,4.1s-2.4,1.3-4.4,1.3c-0.7,0-1.4-0.1-2.1-0.2c-0.3-0.1-0.7-0.1-1-0.2
			c-0.5-0.1-0.8-0.6-0.7-1.2l0.1-0.7c0.1-0.6,0.7-0.9,1.2-0.8c0,0,0,0,0.1,0L97,67c0.6,0.1,1.3,0.2,1.9,0.2c0.7,0.1,1.4-0.1,2-0.6
			c0.4-0.4,0.6-1,0.6-1.6v-0.4c-0.3,0.2-0.7,0.3-1.1,0.4c-0.4,0.1-0.8,0.1-1.2,0.1c-1.3,0.1-2.7-0.4-3.6-1.4
			c-0.9-1.1-1.3-2.5-1.2-3.9c0-0.8,0.1-1.6,0.4-2.3c0.2-0.7,0.6-1.3,1.1-1.8c0.5-0.5,1.1-0.9,1.8-1.1c0.8-0.3,1.6-0.4,2.4-0.4
			c0.4,0,0.8,0,1.2,0.1c0.4,0,0.8,0.1,1.2,0.1c0.4,0.1,0.8,0.1,1.1,0.2l0,0c0.6,0.1,1,0.6,1,1.2L104.6,64.4z M97.6,59.8
			c0,1.8,0.7,2.7,2.2,2.7c0.3,0,0.6,0,0.9-0.1l0.3-0.1c0.2-0.1,0.4-0.3,0.4-0.6v-4.2c0-0.3-0.2-0.6-0.6-0.6l0,0c-0.2,0-0.5,0-0.8,0
			c-0.7-0.1-1.4,0.3-1.9,0.8C97.7,58.3,97.5,59,97.6,59.8z"/>
		<path class="st1" d="M118.3,60.1c0,0.8-0.1,1.7-0.4,2.4c-0.2,0.7-0.6,1.4-1.1,1.9c-0.5,0.5-1.1,0.9-1.8,1.2
			c-0.7,0.3-1.5,0.4-2.3,0.4c-0.8,0-1.6-0.1-2.3-0.4c-0.7-0.3-1.3-0.7-1.8-1.2c-0.5-0.5-0.9-1.2-1.1-1.9c-0.3-0.8-0.4-1.6-0.4-2.4
			c0-0.8,0.1-1.7,0.4-2.4c0.3-0.7,0.6-1.3,1.1-1.9c0.5-0.5,1.1-0.9,1.8-1.2c0.7-0.3,1.5-0.4,2.2-0.4c0.8,0,1.5,0.1,2.3,0.4
			c0.7,0.3,1.3,0.7,1.8,1.2c0.5,0.5,0.9,1.2,1.1,1.9C118.1,58.5,118.3,59.3,118.3,60.1z M115,60.1c0.1-0.8-0.1-1.6-0.6-2.3
			c-0.4-0.6-1-0.9-1.7-0.9c-0.7,0-1.3,0.3-1.7,0.9c-0.4,0.7-0.6,1.5-0.6,2.3c0,0.8,0.2,1.7,0.6,2.4c0.4,0.6,1,0.9,1.7,0.9
			c0.7,0,1.3-0.3,1.7-0.9C114.8,61.8,115,61,115,60.1L115,60.1z"/>
		<path class="st2" d="M126.8,66.2c-0.9,0-1.8-0.1-2.7-0.4c-0.7-0.3-1.4-0.7-1.9-1.2c-0.5-0.5-0.9-1.2-1.1-1.9
			c-0.2-0.8-0.4-1.6-0.4-2.4v-7.7c0-0.6,0.5-1,1-1c0.1,0,0.3,0,0.4,0.1l1.3,0.6c0.4,0.2,0.6,0.5,0.6,0.9v6.8c0,0.5,0.1,1,0.2,1.5
			c0.1,0.4,0.3,0.7,0.6,1c0.2,0.3,0.5,0.5,0.9,0.6c0.4,0.1,0.7,0.2,1.1,0.2c0.7,0,1.5-0.2,2-0.8c0.5-0.5,0.8-1.4,0.8-2.6v-6.8
			c0-0.4,0.2-0.8,0.6-0.9l1.3-0.6c0.5-0.2,1.1,0,1.4,0.5c0.1,0.1,0.1,0.3,0.1,0.4v7.7c0,0.8-0.1,1.6-0.4,2.4
			c-0.2,0.7-0.6,1.4-1.1,1.9c-0.5,0.5-1.2,1-1.9,1.2C128.7,66,127.8,66.2,126.8,66.2z"/>
		<g id="_68-food_-_egg">
			<path class="st1" d="M23.9,35.4c-6.2-1.8-13.8,5.4-16.2,13.7S9,63.8,15.3,65.5s12.7-1.6,15.1-9.9S30.2,37.2,23.9,35.4z
				 M15.8,63.7c-5.2-1.5-8.3-6.7-6.2-14s8.5-13.9,13.8-12.4c5.2,1.5,7.2,10.5,5.1,17.8S21,65.2,15.8,63.7z"/>
		</g>
		<circle class="st1" cx="17.8" cy="44.8" r="1.4"/>
		<circle class="st1" cx="24.1" cy="46.6" r="1.4"/>
		<path class="st2" d="M19,59.7L17.7,60c-0.6,0.2-1.2,0-1.6-0.5l-0.9-1c-0.3-0.3-0.8-0.3-1.1,0c-0.1,0.1-0.2,0.2-0.2,0.3l-0.3,1
			c-0.1,0.4,0.1,0.8,0.5,0.9c0.1,0,0.3,0,0.4,0l1.3-0.3c0.6-0.2,1.2,0,1.6,0.5l1,1c0.3,0.3,0.8,0.3,1.1,0c0.1-0.1,0.2-0.2,0.2-0.3
			l0.3-1c0.1-0.4-0.1-0.8-0.5-0.9C19.3,59.7,19.2,59.7,19,59.7z"/>
		<ellipse class="st1" cx="18.2" cy="65.9" rx="9.5" ry="1"/>
		<path class="st1" d="M19.7,54.8c-0.4,0-0.9-0.1-1.3-0.2c-1.6-0.5-2.8-1.7-3.4-3.2v-0.1c-0.2-0.4,0-0.8,0.4-1
			c0.3-0.1,0.7,0,0.9,0.3v0.1c0.5,1.1,1.4,2,2.5,2.4c1.5,0.4,2.9-0.4,3.4-0.7l0.1-0.1c0.3-0.2,0.8-0.1,1,0.2s0.1,0.8-0.2,1
			c0,0-0.1,0-0.1,0.1L23,53.8C22,54.4,20.9,54.7,19.7,54.8z"/>
	</g>
</g>
</svg>
