<?xml version="1.0" encoding="utf-8"?>
<!-- Generator: Adobe Illustrator 21.0.2, SVG Export Plug-In . SVG Version: 6.00 Build 0)  -->
<svg version="1.1" id="Layer_1" xmlns="http://www.w3.org/2000/svg" xmlns:xlink="http://www.w3.org/1999/xlink" x="0px" y="0px"
	 viewBox="0 0 200 150" style="enable-background:new 0 0 200 150;" xml:space="preserve">
<style type="text/css">
	.st0{fill:#D6192F;}
</style>
<title>Artboard</title>
<desc>Created with Sketch.</desc>
<g id="Page-1">
	<g id="Artboard">
		<path id="umd.io" class="st0" d="M63.2,85.7c-0.8,0.6-1.8,0.8-2.9,0.8h-0.5c-2,0-3.4-0.5-4.4-1.4c-1-0.9-1.4-2.4-1.4-4.4V68.4h3.1
			v13.1c0,0.7,0.2,1.3,0.6,1.7s1,0.6,1.7,0.6h1.2c0.8,0,1.4-0.2,1.7-0.6c0.4-0.4,0.6-0.8,0.6-1.3V68.4h3.1v18.2h-2.9V85.7z M72,68.4
			h2.9v0.9c0.8-0.6,1.7-0.9,2.9-0.9H78c2.2,0,3.8,0.6,4.7,1.7c0.9-1.1,2.1-1.7,3.7-1.7h0.2c2,0,3.4,0.5,4.4,1.4
			c1,0.9,1.4,2.4,1.4,4.4v12.4h-3.1V73.5c0-0.7-0.2-1.3-0.6-1.7s-1-0.6-1.7-0.6h-0.9c-0.8,0-1.3,0.2-1.7,0.7
			c-0.4,0.4-0.6,0.9-0.6,1.4v13.4h-3.1V73.5c0-0.7-0.2-1.3-0.6-1.7s-1-0.6-1.7-0.6h-0.9c-0.8,0-1.4,0.2-1.8,0.6
			c-0.4,0.4-0.6,0.8-0.6,1.3v13.6H72V68.4z M107.7,85.7c-0.8,0.6-1.8,0.8-2.9,0.8H104c-2.1,0-3.7-0.5-4.7-1.4
			c-1-0.9-1.5-2.4-1.5-4.5v-6.5c0-2,0.5-3.5,1.5-4.4c1-0.9,2.6-1.4,4.7-1.4h3.5v-7.3h3.1v25.5h-2.9V85.7z M106.9,83.2
			c0.4-0.4,0.6-0.9,0.6-1.4V71.1h-3.9c-0.9,0-1.6,0.2-2,0.6c-0.5,0.4-0.7,1-0.7,1.7v8c0,0.8,0.2,1.3,0.7,1.7c0.5,0.4,1.1,0.6,2,0.6
			h1.5C105.9,83.8,106.5,83.6,106.9,83.2z M115.9,86.6v-3.6h3.6v3.6H115.9z M124.6,64.4v-3.3h3.5v3.3H124.6z M124.8,86.6V68.4h3.1
			v18.2H124.8z M144.7,85.2c-1,0.9-2.6,1.4-4.7,1.4h-0.5c-2.1,0-3.7-0.5-4.7-1.4c-1-0.9-1.5-2.4-1.5-4.4v-6.5c0-2,0.5-3.5,1.5-4.4
			c1-0.9,2.6-1.4,4.7-1.4h0.5c2.1,0,3.7,0.5,4.7,1.4c1,0.9,1.5,2.4,1.5,4.4v6.5C146.2,82.8,145.7,84.3,144.7,85.2z M142.4,71.7
			c-0.5-0.4-1.1-0.6-2-0.6h-1.2c-0.9,0-1.6,0.2-2,0.6c-0.5,0.4-0.7,1-0.7,1.7v8c0,0.8,0.2,1.3,0.7,1.7c0.5,0.4,1.1,0.6,2,0.6h1.2
			c0.9,0,1.6-0.2,2-0.6c0.5-0.4,0.7-1,0.7-1.7v-8C143.1,72.7,142.9,72.1,142.4,71.7z"/>
		<polygon id="_x5B_" class="st0" points="39.6,38.3 39.6,42.9 27.9,42.9 27.9,107.1 39.6,107.1 39.6,111.7 22.8,111.7 22.8,38.3 		
			"/>
		<polygon id="_x5D_" class="st0" points="160.4,42.9 160.4,38.3 177.2,38.3 177.2,111.7 160.4,111.7 160.4,107.1 172.1,107.1 
			172.1,42.9 		"/>
	</g>
</g>
</svg>
