<?xml version="1.0" encoding="utf-8"?>
<!-- Generator: Adobe Illustrator 24.0.0, SVG Export Plug-In . SVG Version: 6.00 Build 0)  -->
<svg version="1.1" id="Layer_1" xmlns="http://www.w3.org/2000/svg" xmlns:xlink="http://www.w3.org/1999/xlink" x="0px" y="0px"
	 viewBox="0 0 200 150" style="enable-background:new 0 0 200 150;" xml:space="preserve">
<style type="text/css">
	.st0{fill:#5DC0AE;}
	.st1{fill:#2A2946;}
	.st2{font-family:'AvenirNext-Bold';}
	.st3{font-size:45.8744px;}
</style>
<title>Asset 11</title>
<g id="Layer_2_1_">
	<g id="Layer_1-2">
		<path class="st0" d="M96.3,40.1H82.7c-2.5,0-4.4-1.6-4.4-3.6V10.6c0-2,2-3.6,4.4-3.6h26c2.5,0,4.4,1.6,4.4,3.6v9
			c0,1.1-0.9,1.8-2.2,1.8h-10.3c-1.2,0-2.2,0.9-2.2,1.8v15C98.5,39.3,97.5,40.1,96.3,40.1z"/>
		<path class="st0" d="M117,47.7v9.7c0,2-2,3.6-4.3,3.6h-9.7c-2.5,0-4.4,1.6-4.4,3.6v8.7c0,2-2,3.6-4.3,3.6H82.7
			c-2.5,0-4.3-1.6-4.3-3.6V47.7c0-2,2-3.6,4.3-3.6h29.9C115,44,117,45.7,117,47.7z"/>
		<path class="st0" d="M137,10.6v25.8c0,2-2,3.6-4.3,3.6h-27.9c-1.2,0-2.2-0.9-2.2-1.8V27.4c0-1.1,0.9-1.8,2.2-1.8h10.4
			c1-0.1,1.9-0.9,2-1.9V10.5c0.2-1.9,2.2-3.5,4.5-3.5h10.9C135,7,137,8.6,137,10.6z"/>
		<text transform="matrix(0.9848 0 0 1 10.1571 127.7061)" class="st1 st2 st3">F</text>
		<text transform="matrix(0.9848 0 0 1 35.4583 127.7061)" class="st1 st2 st3">o</text>
		<text transform="matrix(0.9848 0 0 1 63.8309 127.7061)" class="st1 st2 st3">r</text>
		<text transform="matrix(0.9848 0 0 1 83.0301 127.7061)" class="st1 st2 st3">m</text>
		<text transform="matrix(0.9848 0 0 1 124.9569 127.7061)" class="st1 st2 st3">i</text>
		<text transform="matrix(0.9848 0 0 1 138.8719 127.7061)" class="st1 st2 st3">co</text>
	</g>
</g>
</svg>
