<?xml version="1.0" encoding="utf-8"?>
<!-- Generator: Adobe Illustrator 21.0.2, SVG Export Plug-In . SVG Version: 6.00 Build 0)  -->
<svg version="1.1" id="Layer_1" xmlns="http://www.w3.org/2000/svg" xmlns:xlink="http://www.w3.org/1999/xlink" x="0px" y="0px"
	 viewBox="0 0 200 150" style="enable-background:new 0 0 200 150;" xml:space="preserve">
<style type="text/css">
	.st0{fill-rule:evenodd;clip-rule:evenodd;fill:#019DE1;}
	.st1{fill:#019DE1;}
	.st2{fill-rule:evenodd;clip-rule:evenodd;fill:#02293B;}
</style>
<g>
	<path class="st0" d="M37.5,54.5C26.9,55.3,18.4,64.2,18.4,75s8.4,19.7,19.1,20.5v12.7h2.9V95.5c6.2-0.4,11.7-3.6,15.2-8.4l-2.1-2.1
		c-2.9,4.2-7.6,7.1-13,7.6v-35c5.4,0.4,10.1,3.3,13,7.6l2.1-2.1c-3.5-4.8-8.9-8-15.2-8.4V41.9h-2.9V54.5L37.5,54.5z M37.5,92.5
		c-9-0.7-16.1-8.3-16.1-17.5s7.1-16.8,16.1-17.5V92.5z"/>
	<path class="st1" d="M107.7,67.9l-1.7,1.3c-1-1.3-2.1-2.2-3.5-2.8c-1.3-0.6-2.8-1-4.4-1c-1.8,0-3.4,0.4-4.9,1.3
		c-1.5,0.8-2.7,2-3.5,3.4c-0.8,1.4-1.2,3-1.2,4.8c0,2.7,0.9,4.9,2.8,6.8c1.8,1.8,4.2,2.7,7,2.7c3.1,0,5.7-1.2,7.8-3.6l1.7,1.3
		c-1.1,1.4-2.5,2.5-4.1,3.3c-1.6,0.8-3.5,1.1-5.5,1.1c-3.9,0-6.9-1.3-9.2-3.9c-1.9-2.2-2.8-4.8-2.8-7.9c0-3.2,1.1-6,3.4-8.2
		c2.3-2.2,5.1-3.3,8.5-3.3c2.1,0,3.9,0.4,5.6,1.2C105.3,65.2,106.7,66.4,107.7,67.9L107.7,67.9z M120.5,63.8h2.2v13.4
		c0,1.6,0,2.6,0.1,3c0.1,0.9,0.4,1.6,0.8,2.2c0.4,0.6,1,1.1,1.8,1.5c0.8,0.4,1.7,0.6,2.5,0.6c0.7,0,1.4-0.2,2.1-0.5
		c0.7-0.3,1.2-0.7,1.7-1.3c0.5-0.5,0.8-1.2,1-2c0.1-0.6,0.2-1.7,0.2-3.5V63.8h2.2v13.4c0,2-0.2,3.6-0.6,4.8
		c-0.4,1.2-1.2,2.3-2.3,3.2c-1.2,0.9-2.6,1.3-4.2,1.3c-1.8,0-3.3-0.4-4.6-1.3c-1.3-0.9-2.1-2-2.6-3.4c-0.3-0.9-0.4-2.4-0.4-4.7V63.8
		L120.5,63.8z M148.9,63.8h4.4c2.5,0,4.1,0.1,5,0.3c1.3,0.3,2.4,0.9,3.2,1.9c0.8,1,1.2,2.2,1.2,3.6c0,1.2-0.3,2.3-0.8,3.2
		c-0.6,0.9-1.4,1.6-2.4,2.1c-1.1,0.5-2.5,0.7-4.4,0.7l8,10.3h-2.7l-7.9-10.3h-1.3v10.3h-2.2V63.8L148.9,63.8z M151.1,65.9v7.5l3.8,0
		c1.5,0,2.6-0.1,3.3-0.4c0.7-0.3,1.3-0.7,1.7-1.3c0.4-0.6,0.6-1.3,0.6-2.1c0-0.7-0.2-1.4-0.6-2c-0.4-0.6-0.9-1-1.6-1.3
		c-0.7-0.3-1.7-0.4-3.2-0.4H151.1L151.1,65.9z M175.8,63.8h2.2v13.4c0,1.6,0,2.6,0.1,3c0.1,0.9,0.4,1.6,0.8,2.2
		c0.4,0.6,1,1.1,1.8,1.5c0.8,0.4,1.7,0.6,2.5,0.6c0.7,0,1.4-0.2,2.1-0.5c0.7-0.3,1.2-0.7,1.7-1.3c0.5-0.5,0.8-1.2,1-2
		c0.1-0.6,0.2-1.7,0.2-3.5V63.8h2.2v13.4c0,2-0.2,3.6-0.6,4.8c-0.4,1.2-1.2,2.3-2.3,3.2c-1.2,0.9-2.6,1.3-4.2,1.3
		c-1.8,0-3.3-0.4-4.6-1.3c-1.3-0.9-2.1-2-2.6-3.4c-0.3-0.9-0.4-2.4-0.4-4.7V63.8z"/>
	<path class="st2" d="M12.5,75c0-13.6,10.3-24.8,23.6-26.3v-3C21.2,47.2,9.6,59.7,9.6,75s11.6,27.8,26.5,29.2v-3
		C22.8,99.8,12.5,88.6,12.5,75L12.5,75z M41.8,48.7C55.1,50.2,65.4,61.4,65.4,75s-10.3,24.8-23.6,26.3v3c14.9-1.4,26.5-14,26.5-29.2
		S56.7,47.2,41.8,45.8V48.7z"/>
</g>
</svg>
