<?xml version="1.0" encoding="utf-8"?>
<!-- Generator: Adobe Illustrator 22.1.0, SVG Export Plug-In . SVG Version: 6.00 Build 0)  -->
<svg version="1.1" id="Layer_1" xmlns="http://www.w3.org/2000/svg" xmlns:xlink="http://www.w3.org/1999/xlink" x="0px" y="0px"
	 viewBox="0 0 140 105" style="enable-background:new 0 0 140 105;" xml:space="preserve">
<style type="text/css">
	.st0{fill:#222222;}
	.st1{fill:#13BB64;}
</style>
<g transform="scale(18.98946967711677) translate(10, 10)">
	<g id="SvgjsG1275" transform="translate(81.46754831172692,-21.041187286376953)" xmlns:name="mainText_mainfill">
		<path class="st0" d="M-87.6,13.6L-87.6,13.6c0.1,0,0.2,0,0.3,0c0.2,0,0.3-0.1,0.3-0.2c0-0.1-0.1-0.1-0.2-0.1h-0.1
			c-0.2,0-0.3-0.1-0.3-0.2c0-0.2,0.1-0.2,0.3-0.2c0.1,0,0.2,0,0.3,0v0.1c-0.1,0-0.2,0-0.3,0c-0.2,0-0.3,0.1-0.3,0.2
			c0,0.1,0.1,0.1,0.2,0.1h0.1c0.2,0,0.3,0.1,0.3,0.2c0,0.2-0.1,0.2-0.3,0.2C-87.4,13.6-87.5,13.6-87.6,13.6L-87.6,13.6z M-86.4,13.5
			c0.2,0,0.3-0.1,0.3-0.4c0-0.2-0.1-0.3-0.3-0.3c-0.2,0-0.3,0.1-0.3,0.3C-86.7,13.4-86.6,13.5-86.4,13.5L-86.4,13.5z M-86.8,13.2
			c0-0.3,0.1-0.4,0.4-0.4s0.4,0.1,0.4,0.4c0,0.3-0.1,0.4-0.4,0.4C-86.7,13.6-86.8,13.5-86.8,13.2L-86.8,13.2z M-85.7,12.5v1.1h-0.1
			L-85.7,12.5L-85.7,12.5z M-85.5,13.6v-0.8h0.1l0,0.1c0.1-0.1,0.2-0.1,0.3-0.1v0.1c-0.1,0-0.2,0-0.3,0.1L-85.5,13.6L-85.5,13.6
			L-85.5,13.6z"/>
	</g>
	<g id="SvgjsG1276" transform="translate(80.44222897388207,18.46930694580078)" xmlns:name="mainText2_mainfill">
		<path class="st0" d="M-86.6-25.3L-86.6-25.3l0.1,0.1h0.2v0.1h-0.2v0.5c0,0.1,0,0.2,0.1,0.2h0.1v0.1h-0.1c-0.1,0-0.2-0.1-0.2-0.2
			V-25.3L-86.6-25.3z M-85.8-25.2c0.2,0,0.3,0.1,0.3,0.4c0,0,0,0,0,0.1h-0.6c0,0.2,0.1,0.3,0.3,0.3c0.1,0,0.2,0,0.3,0v0.1
			c-0.1,0-0.2,0-0.3,0c-0.3,0-0.4-0.1-0.4-0.4C-86.1-25.1-86-25.2-85.8-25.2L-85.8-25.2z M-86.1-24.9h0.5c0-0.2-0.1-0.3-0.3-0.3
			C-85.9-25.1-86-25-86.1-24.9L-86.1-24.9z M-84.6-24.4c-0.1,0-0.1,0-0.2,0c-0.3,0-0.4-0.1-0.4-0.4c0-0.3,0.1-0.4,0.4-0.4
			c0.1,0,0.2,0,0.2,0v0.1c-0.1,0-0.1,0-0.2,0c-0.2,0-0.3,0.1-0.3,0.3c0,0.2,0.1,0.4,0.3,0.4C-84.8-24.5-84.7-24.5-84.6-24.4
			L-84.6-24.4L-84.6-24.4z M-84.4-24.4v-1.1h0.1v0.4c0.1-0.1,0.2-0.1,0.3-0.1c0.2,0,0.3,0.1,0.3,0.3v0.5h-0.1v-0.6
			c0-0.1-0.1-0.2-0.2-0.2c-0.1,0-0.2,0-0.3,0.1L-84.4-24.4L-84.4-24.4L-84.4-24.4z"/>
	</g>
	
		<g id="SvgjsG1277" transform="translate(-3.506681550925149,-1.692501133263741) scale(0.7461024879218947)" xmlns:name="symbol_mainfill">
		<path class="st1" d="M-4.4-7.6c-0.1-0.9-1-1.6-1.9-1.4c-0.4,0.1-0.8,0.3-1.1,0.7C-7.7-8-7.9-7.5-7.8-7.1c0,0.2,0.1,0.4,0.2,0.6
			c-0.1,0.1-0.1,0.3,0,0.4l0,0l0,0c0,0,0,0.1,0,0.1c0,0,0.1,0,0.1,0L-7.5-6l0.1,0.2c0,0,0,0,0.1,0c0,0,0,0,0-0.1L-7.4-6l0.2-0.1
			L-7.1-6C-7-6-7-6-7-6c0,0,0,0,0-0.1l-0.1-0.2L-7-6.3c0,0,0-0.1,0-0.1c0,0-0.1,0-0.1,0l0,0l0,0c0-0.1-0.1-0.1-0.2-0.2
			c-0.1,0-0.1,0-0.2,0c-0.1-0.2-0.1-0.3-0.2-0.5c-0.1-0.4,0-0.8,0.3-1.1c0.2-0.3,0.6-0.5,1-0.6C-5.5-9-4.7-8.4-4.6-7.6
			c0.1,0.7-0.3,1.4-1,1.7c0,0-0.3,0.1-0.6,0c-0.2-0.1-0.3-0.4-0.3-0.7l0,0c0-0.1,0-0.4,0.1-0.7c0,0,0,0,0,0c-0.1,0.2-0.1,0.5,0,0.7
			c0.1,0,0.1,0,0.2,0c0.2-0.1,0.4-0.3,0.3-0.5c-0.1-0.5,0.2-1,0.2-1c0,0,0,0,0,0c-0.1,0-0.7,0.1-1.1,0.5c-0.3,0.3-0.2,0.8,0.1,1l0,0
			c0,0.4,0.1,0.7,0.3,0.9c0.1,0.1,0.3,0.1,0.4,0.1c0.2,0,0.3,0,0.3-0.1C-4.8-6-4.3-6.8-4.4-7.6z"/>
	</g>
</g>
</svg>
