<?xml version="1.0" encoding="utf-8"?>
<!-- Generator: Adobe Illustrator 22.0.1, SVG Export Plug-In . SVG Version: 6.00 Build 0)  -->
<svg version="1.1" id="Layer_1" xmlns="http://www.w3.org/2000/svg" xmlns:xlink="http://www.w3.org/1999/xlink" x="0px" y="0px"
	 viewBox="0 0 140 105" style="enable-background:new 0 0 140 105;" xml:space="preserve">
<style type="text/css">
	.st0{fill:#7F0000;}
</style>
<g>
	<g>
		<path class="st0" d="M19.5,49.7c-1-0.2-1.8-0.5-2.4-0.8l0.3-3c2,1,3.7,1.4,5.2,1.4c0.8,0,1.4-0.2,1.9-0.5s0.7-0.8,0.7-1.4
			c0-0.4-0.1-0.8-0.4-1.1c-0.2-0.3-0.6-0.5-1.1-0.7c-0.5-0.2-1.2-0.5-2.2-0.8c-1-0.3-1.7-0.7-2.4-1c-0.6-0.4-1.1-0.8-1.5-1.4
			c-0.4-0.6-0.5-1.3-0.5-2.1c0-1.3,0.5-2.4,1.5-3.2c1-0.8,2.4-1.2,4.2-1.2c0.9,0,1.7,0.1,2.6,0.3c0.9,0.2,1.6,0.4,2.4,0.7l-0.3,2.9
			c-0.9-0.4-1.8-0.7-2.5-0.9c-0.8-0.2-1.5-0.3-2.3-0.3c-0.9,0-1.5,0.1-1.9,0.4s-0.7,0.7-0.7,1.2c0,0.4,0.1,0.8,0.4,1
			c0.2,0.3,0.6,0.5,1,0.7c0.4,0.2,1,0.4,1.8,0.6c1.8,0.6,3.1,1.2,4,2c0.8,0.7,1.2,1.8,1.2,3c0,1.2-0.4,2.3-1.3,3.2
			c-0.9,0.9-2.4,1.4-4.8,1.4C21.5,50,20.5,49.9,19.5,49.7z"/>
		<path class="st0" d="M36.1,36.8h-4.4V34h11.7v2.8h-4.4v12.9h-2.9V36.8z"/>
		<path class="st0" d="M54.6,46h-5.7l-1.3,3.7h-2.8L50.4,34h2.7l5.6,15.7h-2.8L54.6,46z M53.7,43.5l-1.9-5.6l-2,5.6H53.7z"/>
		<path class="st0" d="M62.7,34h5.7c1.7,0,3,0.4,4,1.2c1,0.8,1.4,2,1.4,3.5c0,1.1-0.2,2-0.7,2.7c-0.5,0.7-1.1,1.3-2,1.7l3.5,6.6
			h-3.2l-3-5.8h-0.1h-2.8v5.8h-2.9V34z M67.7,41.5c2.1,0,3.2-0.9,3.2-2.6c0-0.8-0.2-1.4-0.7-1.9c-0.5-0.4-1.3-0.6-2.3-0.6h-2.2v5.1
			H67.7z"/>
		<path class="st0" d="M81.9,36.8h-4.4V34h11.7v2.8h-4.4v12.9h-2.9V36.8z"/>
		<path class="st0" d="M94.9,48.2c-1.1-1.2-1.6-3-1.6-5.2v-9h2.9v8.2c0,1.1,0.1,2,0.3,2.7c0.2,0.7,0.6,1.3,1.1,1.7
			c0.5,0.4,1.3,0.6,2.3,0.6c1,0,1.7-0.2,2.3-0.6c0.5-0.4,0.9-1,1.1-1.7c0.2-0.7,0.3-1.6,0.3-2.7V34h2.9v9c0,2.2-0.5,3.9-1.6,5.2
			S102,50,99.8,50C97.7,50,96,49.4,94.9,48.2z"/>
		<path class="st0" d="M111.8,34h5.6c3.7,0,5.6,1.7,5.6,5.1c0,1.7-0.5,3-1.4,3.9c-0.9,0.9-2.3,1.3-4.1,1.3h-2.8v5.4h-2.9V34z
			 M117.1,41.9c1,0,1.7-0.2,2.2-0.7c0.5-0.4,0.7-1.1,0.7-2.1s-0.2-1.6-0.7-2c-0.5-0.4-1.2-0.7-2.3-0.7h-2.4v5.4H117.1z"/>
	</g>
	<path class="st0" d="M30.7,55.4L25.2,71h-2.7L17,55.4h2.9l4,11.4l4-11.4H30.7z"/>
	<path class="st0" d="M36.4,55.4h2.8V71h-2.8V55.4z"/>
	<path class="st0" d="M46.5,55.4h2.8v13h6.4V71h-9.2V55.4z"/>
	<path class="st0" d="M61.6,55.4h2.8v13h6.4V71h-9.2V55.4z"/>
	<path class="st0" d="M96.9,70.3c-1.2-0.7-2.1-1.6-2.7-2.8c-0.6-1.2-0.9-2.6-0.9-4.3c0-1.6,0.3-3,1-4.2c0.7-1.2,1.6-2.2,2.9-2.8
		c1.2-0.7,2.6-1,4.2-1c0.8,0,1.6,0.1,2.3,0.2c0.8,0.2,1.4,0.4,2,0.7l-0.3,2.7c-1.3-0.6-2.6-0.9-4-0.9c-1.7,0-2.9,0.5-3.8,1.5
		c-0.8,1-1.3,2.2-1.3,3.8c0,1.6,0.4,3,1.2,3.9c0.8,1,2,1.5,3.6,1.5c0.6,0,1.3-0.1,2.1-0.2v-2.8h-2.1v-2.4h5v6.9
		c-0.6,0.3-1.3,0.6-2.2,0.8c-0.9,0.2-1.9,0.3-2.9,0.3C99.5,71.3,98.1,70.9,96.9,70.3z"/>
	<path class="st0" d="M112.9,55.4h9.9v2.8h-7v3.3h5.5v2.8h-5.5v4h7.3V71h-10.2V55.4z"/>
	<path class="st0" d="M90.9,63c-3.1-2.8-6.3-5.6-9.4-8.4c-0.1-0.1-0.2-0.1-0.2,0c-3.1,2.8-6.3,5.6-9.4,8.5c0.1,0.1,0.1,0.2,0.1,0.3
		h2.3c0.1,0,0.2,0.1,0.2,0.2V71c0,0.1,0.1,0.2,0.2,0.2h3.9h0.7h0.9c0-1.6,0-3.1,0-4.7c-0.7,0-1.4,0-2.1,0c1.1-1.3,2.2-2.6,3.3-3.9
		c1.1,1.3,2.2,2.6,3.3,3.9c-0.7,0-1.4,0-2.1,0c0,1.6,0,3.1,0,4.7h2.6v0h2.9c0.1,0,0.2-0.1,0.2-0.2v-7.5c0-0.1,0.1-0.2,0.2-0.2h2.3
		C91,63.3,91,63.1,90.9,63z"/>
</g>
</svg>
