<svg viewBox="0 0 1491.71 1152.74" xmlns="http://www.w3.org/2000/svg"><path d="m446.86 186.5v186.5h76v-74h74v-75h75v-75h-75v-75h-74v-74h-76z"/><path d="m745.86 112v38h298v521h-596v-224h-75v299h746v-672h-373z"/><path d="m223 872.1a24.22 24.22 0 0 0 -14.7 20.4c-1.2 11.4 4.3 22.2 13.4 26.6 7 3.4 16.9 3.2 24.1-.5 11.9-6.1 16.4-21.8 10.1-35.1-5.4-11.5-20.8-16.9-32.9-11.4z"/><path d="m0 1020.5v130.5h45v-107h118v-40h-118v-74h131v-40h-176z"/><path d="m986.1 892.7c-1.6 3.6-109.8 248.4-112.2 254.1l-1.8 4.2 23.6-.2 23.6-.3 12.3-29 12.3-29 65.3-.3 65.4-.2 12.4 29.5 12.4 29.5h48.3l-57-130.5-57.1-130.5h-46.3zm47.8 104.1 23.8 56.2h-48.3c-26.6 0-48.4-.3-48.4-.6 0-.6 46.9-111.3 47.8-112.9.3-.5.7-.5.9.1s11.1 26.3 24.2 57.2z"/><path d="m648 932.5v27.5h-28v32h28v56.4c0 61.3.3 65 5.6 76.2 5.7 12.1 15.8 21 29.1 25.6 5.9 2 8.7 2.3 21.3 2.3 12-.1 15.9-.4 22.5-2.3 7-2.1 21.6-8.3 25.4-11 1.1-.8.4-3.8-3.9-16.8-2.9-8.8-5.5-16.2-5.9-16.6s-3.7.6-7.4 2.2a93.47 93.47 0 0 1 -14.7 4.6c-13.6 2.7-22.6-.6-26.6-9.8-1.8-4-1.9-8.2-2.2-57.6l-.3-53.2h59.1v-32h-59v-55h-43z"/><path d="m1387 932.5v27.5h-28v32h27.9l.3 58.2c.3 51.7.6 59 2.1 64.3 5.4 18.5 16.3 29.9 34.7 36.1 4.4 1.5 8.3 1.9 20 1.8 12.7-.1 15.6-.4 23.3-2.8 9.7-2.9 23.7-9.4 24.4-11.3.4-.9-9.1-31.7-10.2-33 0-.2-3.4 1.1-7.4 2.8-17.6 7.4-30.7 7.3-37.8-.3-5.2-5.5-5.3-7-5.3-63.4v-52.4h58v-32h-58v-55h-44z"/><path d="m510.7 951c-32.1 3.7-53.6 20.2-58.8 44.9-1.5 7.1-.6 23.9 1.5 30.7 3.9 12.3 14 23 29.1 30.3 7.8 3.9 12.5 5.6 39 14.2 15.2 4.9 21.7 7.9 26.3 12.3 10.4 9.8 8.6 24.3-3.8 30.5-19.2 9.7-60.4 1.4-82.7-16.5a26.82 26.82 0 0 0 -4.7-3.4c-.7 0-15.6 29.6-15.6 30.9s10.5 8.7 17.5 12.6c20.6 11.3 49.5 17.1 73.3 14.7 14.5-1.5 24-3.9 33.4-8.6 14.3-7.1 23.8-17 28.9-30.4 2.7-7.2 3.7-23.4 1.9-32.4-4.2-22-21.2-36.2-56-46.8-30.5-9.4-39.2-13.4-44.3-20.3a16 16 0 0 1 1.9-21.3c11.8-11.2 43.8-8.2 72.9 6.7a66.71 66.71 0 0 0 8 3.7c1.8-1.9 15.5-32.2 14.9-32.8-2-1.9-16.5-9.1-23.9-11.8-16.9-6.2-41.2-9.2-58.8-7.2z"/><path d="m409.1 952.9a67.33 67.33 0 0 0 -33.7 18.6 87.13 87.13 0 0 0 -11.3 13.5l-3.1 5.5v-38.5h-43v199h42.9l.3-54.8.3-54.7 2.8-8c3.8-10.7 8.5-18.2 15.7-24.9 9.4-8.6 25.7-15.6 36.6-15.6 2.3 0 6.2-.3 8.8-.6l4.6-.7v-40.7l-6.2.1a96 96 0 0 0 -14.7 1.8z"/><path d="m1225.4 953.5c-30.9 7.1-52.6 24.4-65.4 51.9-15.2 32.4-12.2 77.3 7.1 106.1 5.7 8.4 16.1 19.1 23.7 24.1s22.5 11.9 30.2 13.8c22.8 5.8 54.8 3.8 75.8-4.6a89.47 89.47 0 0 0 30-19.5c4.5-4.5 8.2-8.7 8.2-9.5s-5.3-6.5-11.7-13l-11.6-11.7-5.1 4.5c-10.7 9.7-21.6 15-36.5 17.8-30.6 5.8-55.8-4.7-67.9-28.2-5.6-10.9-7.6-19.4-7.6-33.2-.1-18.2 5-32.7 15.2-44.1 12.2-13.6 28.6-19.8 48.7-18.4 17.7 1.2 31.1 6.3 44.3 16.7 5.4 4.4 6.5 4.8 7.9 3.7 2.8-2.4 22.3-25.7 22.3-26.7 0-1.6-11-11.2-18-15.7-18.2-11.5-37.9-16.5-64.5-16.4-12 0-17 .5-25.1 2.4z"/><path d="m212 1051.5v99.5h43v-199h-43z"/></svg>