<svg id="Layer_1" data-name="Layer 1" xmlns="http://www.w3.org/2000/svg" viewBox="0 0 200 150"><defs><style>.cls-1{fill:#fff;}</style></defs><title>logo_cbd</title><path d="M92.35,72.11H80.57A17,17,0,0,1,63.51,55.06,17,17,0,0,1,80.57,38H92.35V48.4H80.57A6.29,6.29,0,0,0,76,50.34a6.7,6.7,0,0,0,0,9.43,6.29,6.29,0,0,0,4.58,1.94H92.35v10.4Z"/><path d="M148.52,127.17H50.06V23.71h98.46Zm-92.64-6h86.68V29.68H55.88Z"/><path d="M132.57,60.33a11.37,11.37,0,0,1-11.51,11.51h-20V48.12H97.49V37.72h23.58a11.37,11.37,0,0,1,11.51,11.51c0,1.39-.69,3.19-1.94,5.55C131.88,57.14,132.57,58.94,132.57,60.33ZM122,49.23c0-1.8-1.11-2.63-3.19-2.63h-7.35v5.27h7.35C120.92,51.87,122,51,122,49.23Zm0,11.09c0-1.8-1.11-2.63-3.19-2.63h-7.35V63h7.35C120.92,63,122,62,122,60.33Z"/><path d="M134.65,95.27a17,17,0,0,1-17.06,17.06H103V88.62H99.43V78.22h18.17a17,17,0,0,1,17.06,17.06Zm-10.54,0a6.6,6.6,0,0,0-1.94-4.72,6.29,6.29,0,0,0-4.58-1.94h-3.88v13.31h3.88a6.29,6.29,0,0,0,4.58-1.94A6.85,6.85,0,0,0,124.11,95.27Z"/><path d="M68.5,94.58l10.68,16.5c-.42.14-.83.42-1.53.69a17.19,17.19,0,0,1-4.3.42,26.48,26.48,0,0,1-3.88-.28,6.65,6.65,0,0,1-4.58-2.5,10,10,0,0,1-1.66-2.91,9.32,9.32,0,0,1-.55-3.33,9.56,9.56,0,0,1,2.5-6.8,4.35,4.35,0,0,1,1.39-1.11A10.87,10.87,0,0,0,68.5,94.58Zm8-16.23,21.91,33.7H82.37c-1.53-2.08-3.05-4.3-4.85-6.93-.42-.69-1-1.39-1.53-2.22a16.43,16.43,0,0,0-1.11-1.66c-.14-.28-.69-1.11-1.53-2.36-1-1.53-2.08-3.33-3.19-5.27a17.25,17.25,0,0,1-1.66-3.33,7.33,7.33,0,0,1-.14-1.8,11.82,11.82,0,0,1,1.11-4.85,11.46,11.46,0,0,1,2.91-3.88A13.34,13.34,0,0,1,76.55,78.36ZM87.22,90.84l-7.9-12.48h5.55a5.13,5.13,0,0,1,2.91.83,5.29,5.29,0,0,1,2.08,2.22,6.08,6.08,0,0,1,.83,3.19A7.34,7.34,0,0,1,87.22,90.84Zm7.21,11.23-6.1-9.71H99.15Z"/><path class="cls-1" d="M147.13,122.73v-.83h.14q1,0,1.25.42a3.71,3.71,0,0,1,.28,1.53q0,1.46-.42,1.66c-.28.28-1.11.28-2.5.28a2,2,0,0,1-1.53-.42,2.6,2.6,0,0,1-.42-1.8,3,3,0,0,1,.28-1.39c.14-.28.55-.28,1.25-.28h.14v.83h-.14c-.28,0-.55,0-.55.14s-.14.42-.14.83,0,.83.14,1,.55.14,1.25.14a4.35,4.35,0,0,0,1.66-.14,1.33,1.33,0,0,0,.28-1c0-.42,0-.69-.14-.83s-.28-.14-.55-.14Z"/><path class="cls-1" d="M144.08,118.3v-.83h3.19q1,0,1.25.42c.28.28.28.83.28,1.53a4,4,0,0,1-.28,1.66q-.21.42-1.25.42h-3.19v-.83h3.19c.42,0,.55,0,.69-.14s.14-.42.14-.83,0-.83-.14-.83-.28-.14-.69-.14h-3.19Z"/><path class="cls-1" d="M145.47,113v.83h-.14c-.28,0-.42.14-.55.14a2.82,2.82,0,0,0-.14.69c0,.42,0,.69.14.83s.28.14.55.14.42,0,.55-.14a5.25,5.25,0,0,0,.14-1.11,3,3,0,0,1,.28-1.39,1.62,1.62,0,0,1,1-.28,1.5,1.5,0,0,1,1.25.42,4,4,0,0,1,.28,1.66,3.71,3.71,0,0,1-.28,1.53c-.14.28-.55.42-1.11.42h-.14v-.83h.14c.28,0,.55,0,.55-.14s.14-.42.14-1,0-.69-.14-.83-.28-.14-.55-.14-.42,0-.42.14-.14.28-.14.55v.55a2.57,2.57,0,0,1-.28,1.39,1.79,1.79,0,0,1-1.11.28c-.55,0-1-.14-1.11-.42a3.23,3.23,0,0,1-.28-1.53,2.57,2.57,0,0,1,.28-1.39,1.59,1.59,0,0,1,1-.42Z"/><path class="cls-1" d="M144.92,110.39h3.88v.83h-3.88v1.39h-.83V109h.83Z"/><path class="cls-1" d="M143.94,106.65a2.41,2.41,0,0,1,.42-1.66,3.07,3.07,0,0,1,1.94-.42,3.29,3.29,0,0,1,2.08.42,2.6,2.6,0,0,1,.42,1.8,2.41,2.41,0,0,1-.42,1.66,2.6,2.6,0,0,1-1.8.42,3.29,3.29,0,0,1-2.08-.42C144.08,108.17,143.94,107.62,143.94,106.65Zm.83,0a1.79,1.79,0,0,0,.28,1.11c.14.14.69.14,1.66.14.69,0,1.11,0,1.25-.14s.14-.42.14-1.11a1.33,1.33,0,0,0-.28-1,3.11,3.11,0,0,0-1.39-.14c-.83,0-1.25,0-1.39.14A1.33,1.33,0,0,0,144.78,106.65Z"/><path class="cls-1" d="M144.08,98.46h4.72v.83h-4.16l.28.14.28.14c.28.14.55.14.69.28l2.63,1v.83l-2.63,1.11a2.34,2.34,0,0,0-.69.28l-.28.14-.28.14h3.88v.83h-4.72v-1.66l2.22-.83a2.34,2.34,0,0,0,.69-.28l.28-.14.28-.14h0L147,101l-.28-.14c-.28-.14-.55-.14-.69-.28l-2.22-.83.28-1.25Z"/><path class="cls-1" d="M148.8,95.83h-4.72V93.47a1.79,1.79,0,0,1,.28-1.11,1.62,1.62,0,0,1,1-.28c.55,0,1,.28,1,.69h0a1,1,0,0,1,1.11-.83,1.62,1.62,0,0,1,1,.28,1.79,1.79,0,0,1,.28,1.11l.14,2.5ZM146,95V93.89c0-.42,0-.55-.14-.69s-.28-.14-.55-.14-.55.28-.55.69V95ZM148,95V93.75c0-.28,0-.55-.14-.55s-.28-.14-.55-.14-.42,0-.55.14a1,1,0,0,0-.14.69V95Z"/><path class="cls-1" d="M148.8,91.39h-4.72V89a2.77,2.77,0,0,1,.28-1.25c.14-.28.55-.28,1.11-.28s.83,0,1,.14a1.48,1.48,0,0,1,.42.69h0c0-.55.28-.83,1-.83h1v.83H148c-.55,0-.69.28-.69.69v1.25h1.53v1.11Zm-2.36-1V89.17c0-.28,0-.55-.14-.55s-.28-.14-.69-.14a1,1,0,0,0-.69.14c-.14.14-.14.28-.14.55v1.39l1.66-.14Z"/><path class="cls-1" d="M147.83,83.9V86l1,.28v1l-4.72-1.53V84.32l4.72-1.53v1Zm-.69.28-2.5.83,2.5.83Z"/><path class="cls-1" d="M147.13,79.47v-.83h.14q1,0,1.25.42a3.71,3.71,0,0,1,.28,1.53q0,1.46-.42,1.66c-.28.28-1.11.28-2.5.28a2,2,0,0,1-1.53-.42,2.6,2.6,0,0,1-.42-1.8,3,3,0,0,1,.28-1.39c.14-.28.55-.28,1.25-.28h.14v.83h-.14c-.28,0-.55,0-.55.14s-.14.42-.14.83,0,.83.14,1,.55.14,1.25.14a4.35,4.35,0,0,0,1.66-.14,1.33,1.33,0,0,0,.28-1c0-.42,0-.69-.14-.83s-.28-.14-.55-.14Z"/><path class="cls-1" d="M144.08,77.11H146v-.42l-1.94-1.53V74.06L146.44,76l2.36-2.08V75l-2.08,1.66v.42h2.08v.83h-4.72v-.83Z"/><path class="cls-1" d="M144.78,72.67H146V70.45h.69v2.22h1.39V70.31h.69V73.5h-4.72V70.31h.69Z"/><path class="cls-1" d="M144.92,67.68h3.88v.83h-3.88V69.9h-.83V66.29h.83Z"/><path class="cls-1" d="M145.47,62.41v.83h-.14c-.28,0-.42.14-.55.14a2.82,2.82,0,0,0-.14.69c0,.42,0,.69.14.83s.28.14.55.14.42,0,.55-.14a5.25,5.25,0,0,0,.14-1.11,3,3,0,0,1,.28-1.39,1.62,1.62,0,0,1,1-.28,1.5,1.5,0,0,1,1.25.42,4,4,0,0,1,.28,1.66,3.71,3.71,0,0,1-.28,1.53c-.14.28-.55.42-1.11.42h-.14v-.83h.14c.28,0,.55,0,.55-.14s.14-.42.14-1,0-.69-.14-.83-.28-.14-.55-.14-.42,0-.42.14-.14.28-.14.55v.55a2.57,2.57,0,0,1-.28,1.39,1.79,1.79,0,0,1-1.11.28c-.55,0-1-.14-1.11-.42a3.23,3.23,0,0,1-.28-1.53,2.57,2.57,0,0,1,.28-1.39,1.59,1.59,0,0,1,1-.42Z"/><path class="cls-1" d="M146.44,56.72v-.83H147a1.51,1.51,0,0,1,.69.14l.55-.69.55.42-.42.55a1.85,1.85,0,0,1,.55,1.39,4,4,0,0,1-.28,1.66q-.21.42-1.25.42a1.12,1.12,0,0,1-1.25-.83,1.2,1.2,0,0,1-.83.42,1.17,1.17,0,0,1-.83-.28,2.15,2.15,0,0,1-.28-1.11,2.77,2.77,0,0,1,.28-1.25c.14-.28.55-.28,1-.28h.28v.83h-.14c-.28,0-.42,0-.55.14s-.14.28-.14.55.14.69.55.69.42-.14.69-.28L147.41,57h-.28C146.72,56.72,146.58,56.72,146.44,56.72Zm0,1.8c0,.42.28.55.83.55s.55,0,.69-.14.14-.42.14-.83v-.69c0-.14-.14-.28-.28-.42Z"/><path class="cls-1" d="M148.8,53.12h-4.72V50.76a1.84,1.84,0,0,1,.42-1.39A2.23,2.23,0,0,1,146,49a6.46,6.46,0,0,1,2.22.28,1.85,1.85,0,0,1,.55,1.39v2.5Zm-.83-.83V51a1.17,1.17,0,0,0-.28-.83,2.74,2.74,0,0,0-1.25-.14,3.48,3.48,0,0,0-1.39.14,1.17,1.17,0,0,0-.28.83v1.39l3.19-.14Z"/><path class="cls-1" d="M144.78,47.57H146V45.35h.69v2.22h1.39V45.21h.69V48.4h-4.72V45.21h.69Z"/><path class="cls-1" d="M145.47,41.05v.83h-.14c-.28,0-.42.14-.55.14a2.82,2.82,0,0,0-.14.69c0,.42,0,.69.14.83s.28.14.55.14.42,0,.55-.14a5.25,5.25,0,0,0,.14-1.11,3,3,0,0,1,.28-1.39,1.62,1.62,0,0,1,1-.28,1.5,1.5,0,0,1,1.25.42,4,4,0,0,1,.28,1.66,3.71,3.71,0,0,1-.28,1.53c-.14.28-.55.42-1.11.42h-.14V44h.14c.28,0,.55,0,.55-.14s.14-.42.14-1,0-.69-.14-.83-.28-.14-.55-.14-.42,0-.42.14-.14.28-.14.55v.55a2.57,2.57,0,0,1-.28,1.39,1.79,1.79,0,0,1-1.11.28c-.55,0-1-.14-1.11-.42a3.23,3.23,0,0,1-.28-1.53,2.57,2.57,0,0,1,.28-1.39,1.59,1.59,0,0,1,1-.42Z"/><path class="cls-1" d="M144.08,39.52h4.72v.83h-4.72Z"/><path class="cls-1" d="M146.3,36.75V34.67h1q1,0,1.25.42a4,4,0,0,1,.28,1.66,2.41,2.41,0,0,1-.42,1.66,2.41,2.41,0,0,1-1.66.42,6.3,6.3,0,0,1-1.94-.14,1.38,1.38,0,0,1-.69-.55,3.48,3.48,0,0,1-.14-1.39,4,4,0,0,1,.28-1.66q.21-.42,1.25-.42v1a1.43,1.43,0,0,0-.55.14c-.14.14-.14.42-.14.83s0,.83.14,1a1.33,1.33,0,0,0,1,.28h1c.42,0,.83,0,.83-.14s.14-.42.14-1,0-.83-.14-1-.42-.14-.83-.14h-.14v1.25h-.42Z"/><path class="cls-1" d="M144.08,29.68h4.72V31.2l-2.63,1.39a2.34,2.34,0,0,0-.69.28l-.28.14-.28.14h3.74V34h-4.72V32.45l2.36-1.25a4.62,4.62,0,0,1,.83-.42l.42-.14.42-.14h-3.88v-.83Z"/><path class="cls-1" d="M145.47,25.38v.83h-.14c-.28,0-.42.14-.55.14a2.82,2.82,0,0,0-.14.69c0,.42,0,.69.14.83s.28.14.55.14.42,0,.55-.14a5.25,5.25,0,0,0,.14-1.11,3,3,0,0,1,.28-1.39,1.62,1.62,0,0,1,1-.28,1.5,1.5,0,0,1,1.25.42c.28.28.28.83.28,1.66a3.71,3.71,0,0,1-.28,1.53c-.14.28-.55.42-1.11.42h-.14v-.83h.14c.28,0,.55,0,.55-.14s.14-.42.14-1,0-.69-.14-.83-.28-.14-.55-.14-.42,0-.42.14-.14.28-.14.55v.55a2.57,2.57,0,0,1-.28,1.39,1.79,1.79,0,0,1-1.11.28c-.55,0-1-.14-1.11-.42a3.23,3.23,0,0,1-.28-1.53,2.57,2.57,0,0,1,.28-1.39,1.59,1.59,0,0,1,1-.42Z"/></svg>