<svg id="Layer_1" data-name="Layer 1" xmlns="http://www.w3.org/2000/svg" viewBox="0 0 200 150"><title>logo_door</title><path d="M20.45,116.84V104.33h9.9a9.83,9.83,0,0,1,2.32.23,3.33,3.33,0,0,1,1.48.73,2.77,2.77,0,0,1,.78,1.33,7.56,7.56,0,0,1,.23,2v3.92a7.55,7.55,0,0,1-.23,2,2.78,2.78,0,0,1-.78,1.32,3.35,3.35,0,0,1-1.48.73,9.92,9.92,0,0,1-2.32.23Zm11.92-8.09a4,4,0,0,0-.1-1,1.26,1.26,0,0,0-.35-.62,1.47,1.47,0,0,0-.65-.33,4.38,4.38,0,0,0-1-.1h-7v7.72h7a4.44,4.44,0,0,0,1-.09,1.48,1.48,0,0,0,.66-.32,1.35,1.35,0,0,0,.38-.62,3.33,3.33,0,0,0,.12-1Z"/><path d="M41.9,116.84a9.71,9.71,0,0,1-2.29-.23,3.33,3.33,0,0,1-1.47-.73,2.75,2.75,0,0,1-.78-1.32,7.51,7.51,0,0,1-.23-2v-1.34a7.62,7.62,0,0,1,.23-2,2.75,2.75,0,0,1,.78-1.33,3.34,3.34,0,0,1,1.47-.73,9.7,9.7,0,0,1,2.29-.23h3.32a9.79,9.79,0,0,1,2.31.23,3.27,3.27,0,0,1,1.47.74,2.81,2.81,0,0,1,.78,1.34,7.61,7.61,0,0,1,.23,2v1.32a7.5,7.5,0,0,1-.23,2,2.76,2.76,0,0,1-.78,1.32,3.32,3.32,0,0,1-1.47.73,9.8,9.8,0,0,1-2.31.23Zm5.37-5.54a4.41,4.41,0,0,0-.1-1,1.2,1.2,0,0,0-.37-.63,1.51,1.51,0,0,0-.74-.31,7.33,7.33,0,0,0-1.21-.08H42.27a7.15,7.15,0,0,0-1.2.08,1.51,1.51,0,0,0-.73.31,1.19,1.19,0,0,0-.37.63,4.28,4.28,0,0,0-.1,1v1.17a4.13,4.13,0,0,0,.1,1,1.18,1.18,0,0,0,.37.62,1.54,1.54,0,0,0,.73.32,6.3,6.3,0,0,0,1.2.09h2.59a6.46,6.46,0,0,0,1.21-.09,1.55,1.55,0,0,0,.74-.32,1.18,1.18,0,0,0,.37-.62,4.25,4.25,0,0,0,.1-1Z"/><path d="M56.75,116.84a9.7,9.7,0,0,1-2.29-.23,3.31,3.31,0,0,1-1.47-.73,2.74,2.74,0,0,1-.78-1.32,7.51,7.51,0,0,1-.23-2v-1.34a7.62,7.62,0,0,1,.23-2,2.75,2.75,0,0,1,.78-1.33,3.32,3.32,0,0,1,1.47-.73,9.69,9.69,0,0,1,2.29-.23h3.32a9.78,9.78,0,0,1,2.31.23,3.25,3.25,0,0,1,1.47.74,2.8,2.8,0,0,1,.78,1.34,7.68,7.68,0,0,1,.23,2v1.32a7.56,7.56,0,0,1-.23,2,2.74,2.74,0,0,1-.78,1.32,3.3,3.3,0,0,1-1.47.73,9.79,9.79,0,0,1-2.31.23Zm5.37-5.54a4.31,4.31,0,0,0-.1-1,1.19,1.19,0,0,0-.37-.63,1.51,1.51,0,0,0-.74-.31,7.34,7.34,0,0,0-1.21-.08H57.12a7.16,7.16,0,0,0-1.2.08,1.51,1.51,0,0,0-.73.31,1.19,1.19,0,0,0-.37.63,4.28,4.28,0,0,0-.1,1v1.17a4.13,4.13,0,0,0,.1,1,1.17,1.17,0,0,0,.37.62,1.54,1.54,0,0,0,.73.32,6.3,6.3,0,0,0,1.2.09H59.7a6.47,6.47,0,0,0,1.21-.09,1.55,1.55,0,0,0,.74-.32,1.17,1.17,0,0,0,.37-.62,4.16,4.16,0,0,0,.1-1Z"/><path d="M66.84,116.84v-5.76a6.24,6.24,0,0,1,.26-1.91,2.91,2.91,0,0,1,.82-1.29,3.45,3.45,0,0,1,1.44-.74,8.28,8.28,0,0,1,2.15-.24h1.78v2.22H71.57a4.16,4.16,0,0,0-1,.09,1.28,1.28,0,0,0-.61.31,1.26,1.26,0,0,0-.33.61,4,4,0,0,0-.1,1v5.74Z"/><path d="M92.25,116.84l-7.32-4.55v4.55H82.17V104.35H92a13.3,13.3,0,0,1,2.25.16,3.75,3.75,0,0,1,1.53.59,2.41,2.41,0,0,1,.87,1.15,5.29,5.29,0,0,1,.28,1.85V109a4.73,4.73,0,0,1-.29,1.78,2.47,2.47,0,0,1-.91,1.12,4,4,0,0,1-1.55.58,13,13,0,0,1-2.22.16h-2.2l7.34,4.24Zm1.85-8.6a2.42,2.42,0,0,0-.11-.81.91.91,0,0,0-.37-.48,1.73,1.73,0,0,0-.72-.22,10,10,0,0,0-1.14-.05H84.94v3.81h6.84a9.35,9.35,0,0,0,1.13-.05,1.8,1.8,0,0,0,.71-.22.89.89,0,0,0,.38-.48,2.5,2.5,0,0,0,.11-.83Z"/><path d="M103.15,116.84a9.72,9.72,0,0,1-2.29-.23,3.33,3.33,0,0,1-1.47-.73,2.75,2.75,0,0,1-.78-1.32,7.41,7.41,0,0,1-.23-2v-1.34a7.52,7.52,0,0,1,.23-2,2.75,2.75,0,0,1,.78-1.33,3.35,3.35,0,0,1,1.47-.73,9.71,9.71,0,0,1,2.29-.23h3.32a9.78,9.78,0,0,1,2.31.23,3.27,3.27,0,0,1,1.47.74,2.81,2.81,0,0,1,.78,1.34,7.6,7.6,0,0,1,.23,2v1.32a7.49,7.49,0,0,1-.23,2,2.76,2.76,0,0,1-.78,1.32,3.32,3.32,0,0,1-1.47.73,9.79,9.79,0,0,1-2.31.23Zm5.37-5.54a4.41,4.41,0,0,0-.1-1,1.19,1.19,0,0,0-.37-.63,1.51,1.51,0,0,0-.74-.31,7.27,7.27,0,0,0-1.21-.08h-2.59a7.15,7.15,0,0,0-1.2.08,1.52,1.52,0,0,0-.73.31,1.18,1.18,0,0,0-.37.63,4.27,4.27,0,0,0-.1,1v1.17a4.12,4.12,0,0,0,.1,1,1.16,1.16,0,0,0,.37.62,1.56,1.56,0,0,0,.73.32,6.3,6.3,0,0,0,1.2.09h2.59a6.4,6.4,0,0,0,1.21-.09,1.54,1.54,0,0,0,.74-.32,1.17,1.17,0,0,0,.37-.62,4.26,4.26,0,0,0,.1-1Z"/><path d="M118,116.84a9.71,9.71,0,0,1-2.29-.23,3.33,3.33,0,0,1-1.47-.73,2.76,2.76,0,0,1-.78-1.32,7.57,7.57,0,0,1-.23-2v-8.86H116v3.23h5.52a9.82,9.82,0,0,1,2.31.23,3.32,3.32,0,0,1,1.46.73,2.75,2.75,0,0,1,.78,1.33,7.64,7.64,0,0,1,.23,2v1.34a7.53,7.53,0,0,1-.23,2,2.75,2.75,0,0,1-.78,1.32,3.3,3.3,0,0,1-1.46.73,9.84,9.84,0,0,1-2.31.23Zm5.54-5.54a4.82,4.82,0,0,0-.09-1,1.21,1.21,0,0,0-.33-.62,1.36,1.36,0,0,0-.66-.3,5.71,5.71,0,0,0-1.06-.08H116v3.23a4.44,4.44,0,0,0,.09,1,1.22,1.22,0,0,0,.33.62,1.31,1.31,0,0,0,.65.32,4.9,4.9,0,0,0,1.06.09h3.3a5,5,0,0,0,1.06-.09,1.33,1.33,0,0,0,.66-.32,1.23,1.23,0,0,0,.33-.62,4.56,4.56,0,0,0,.09-1Z"/><path d="M133.05,116.84a9.67,9.67,0,0,1-2.29-.23,3.3,3.3,0,0,1-1.47-.73,2.77,2.77,0,0,1-.78-1.32,7.56,7.56,0,0,1-.23-2v-1.34a7.66,7.66,0,0,1,.23-2,2.77,2.77,0,0,1,.78-1.33,3.32,3.32,0,0,1,1.47-.73,9.66,9.66,0,0,1,2.29-.23h3.32a9.82,9.82,0,0,1,2.31.23,3.3,3.3,0,0,1,1.47.74,2.82,2.82,0,0,1,.78,1.34,7.7,7.7,0,0,1,.23,2v1.32a7.59,7.59,0,0,1-.23,2,2.77,2.77,0,0,1-.78,1.32,3.35,3.35,0,0,1-1.47.73,9.83,9.83,0,0,1-2.31.23Zm5.37-5.54a4.26,4.26,0,0,0-.1-1,1.19,1.19,0,0,0-.37-.63,1.53,1.53,0,0,0-.74-.31,7.32,7.32,0,0,0-1.21-.08h-2.58a7.16,7.16,0,0,0-1.2.08,1.5,1.5,0,0,0-.73.31,1.19,1.19,0,0,0-.37.63,4.49,4.49,0,0,0-.1,1v1.17a4.33,4.33,0,0,0,.1,1,1.18,1.18,0,0,0,.37.62,1.53,1.53,0,0,0,.73.32,6.31,6.31,0,0,0,1.2.09H136a6.45,6.45,0,0,0,1.21-.09,1.57,1.57,0,0,0,.74-.32,1.17,1.17,0,0,0,.37-.62,4.11,4.11,0,0,0,.1-1Z"/><path d="M143.8,116.84v-7.72h-1.39V106.9h1.39v-2.8h2.79v2.8h3.14v2.22h-3.14v7.72Z"/><path d="M152,106.33a1,1,0,0,1-.73-.2.86.86,0,0,1-.21-.64v-1.06a.82.82,0,0,1,.21-.63,1.07,1.07,0,0,1,.73-.19h.9a1.1,1.1,0,0,1,.74.19.82.82,0,0,1,.21.63v1.06a.86.86,0,0,1-.21.64,1.07,1.07,0,0,1-.74.2ZM151,116.84v-9.68h2.79v9.68Z"/><path d="M160.67,116.84a9.7,9.7,0,0,1-2.29-.23,3.3,3.3,0,0,1-1.47-.73,2.76,2.76,0,0,1-.78-1.32,7.48,7.48,0,0,1-.23-2v-1.34a7.59,7.59,0,0,1,.23-2,2.76,2.76,0,0,1,.78-1.33,3.32,3.32,0,0,1,1.47-.73,9.69,9.69,0,0,1,2.29-.23h7.19v2.33h-7.1a4.89,4.89,0,0,0-1.05.09,1.31,1.31,0,0,0-.65.32,1.2,1.2,0,0,0-.33.63,4.41,4.41,0,0,0-.09,1v1.17a4.17,4.17,0,0,0,.09,1,1.26,1.26,0,0,0,.33.63,1.35,1.35,0,0,0,.65.34,4.57,4.57,0,0,0,1.05.1h7.12v2.33Z"/><path d="M181.55,114.2a5,5,0,0,1-.13,1.24,1.51,1.51,0,0,1-.51.82,2.34,2.34,0,0,1-1,.45,8.53,8.53,0,0,1-1.7.14h-8.56v-2.15h8.19a1.24,1.24,0,0,0,.77-.18.89.89,0,0,0,.22-.7v-.33c0-.37-.07-.6-.21-.69a1.36,1.36,0,0,0-.71-.14h-5.57a4.68,4.68,0,0,1-1.37-.16,1.77,1.77,0,0,1-.82-.5,1.74,1.74,0,0,1-.4-.82,5.6,5.6,0,0,1-.1-1.15v-.75a3.89,3.89,0,0,1,.14-1.1,1.59,1.59,0,0,1,.45-.74,1.86,1.86,0,0,1,.84-.41,5.81,5.81,0,0,1,1.34-.13h3.78V109h-3.12a.89.89,0,0,0-.58.15.67.67,0,0,0-.18.53v.46a.74.74,0,0,0,.17.57.77.77,0,0,0,.53.15h5.4A6.48,6.48,0,0,1,180,111a2.09,2.09,0,0,1,1,.49,1.76,1.76,0,0,1,.48.88,5.8,5.8,0,0,1,.13,1.33Z"/><path d="M104.89,80.16V78.83H80.4V44h24.47V42.53l23.5-6a16.4,16.4,0,0,0-5.4-2.32,44.58,44.58,0,0,0-10.47-1H67.83V89.58H112.5a44.32,44.32,0,0,0,10.47-1,16.36,16.36,0,0,0,5.4-2.31Z"/><path d="M133.14,43.5a12.87,12.87,0,0,0-2.7-5.15v46a12.83,12.83,0,0,0,2.7-5.11,34,34,0,0,0,1-9.06V52.52A34.12,34.12,0,0,0,133.14,43.5Z"/><path d="M128.54,78.05a.82.82,0,0,0,.12-.43,1.1,1.1,0,0,0-.17-.64,1,1,0,0,0-.37-.33.44.44,0,0,0-.41,0,.54.54,0,0,0-.27.39.61.61,0,0,0,0,.34.92.92,0,0,1,0,.35l0,.05L126,77.44c0-.12,0-.25,0-.38a3.39,3.39,0,0,1,0-.84,1,1,0,0,1,.37-.58,1.21,1.21,0,0,0,.41-.63,3.25,3.25,0,0,0,.05-.78q0-.45,0-.89V70.94l2.08,6.23V38l-22.49,5.61v5.14l1-.24a.29.29,0,0,0,.19.31.57.57,0,0,0,.41,0,1.52,1.52,0,0,0,.41-.24.79.79,0,0,0,.25-.35l3.33-.81a.75.75,0,0,0-.14.58c0,.25,0,.52,0,.81v3.64q0,3.87,0,7.59v7.44a9,9,0,0,0,.7,1c.26.33.53.67.8,1V71l-1-1.27q-.48-.62-1-1.24a2.36,2.36,0,0,1-.48-.75,2.58,2.58,0,0,1-.07-.62v-.72q0-3.92,0-7.69t0-8v-.46a2,2,0,0,0-.07-.52,1,1,0,0,0-.46,0,2.76,2.76,0,0,0-.53.13l-.56.19a1.44,1.44,0,0,1-.56.08.45.45,0,0,1-.34-.17.34.34,0,0,0-.31-.13.57.57,0,0,0-.53.24,1,1,0,0,1-.39.38,3.26,3.26,0,0,1-.59.14l-.28.05V51l.31-.08a1.44,1.44,0,0,1,.56-.07.41.41,0,0,1,.14.1.37.37,0,0,0,.14.1.44.44,0,0,0,.43.08,1.07,1.07,0,0,0,.46-.25l.12-.15a1,1,0,0,1,.19-.16,1.83,1.83,0,0,1,.71-.14,4.36,4.36,0,0,0,.78-.08c0,.05,0,.08,0,.08s.07,0,.07.06a.48.48,0,0,1,.09.34c0,.14,0,.27,0,.4q0,.75,0,1.58t0,1.73q0,3.51,0,6.85t0,6.59q.71,1,1.44,2t1.51,2V73.8a.4.4,0,0,0-.17-.08.62.62,0,0,1-.17-.08.85.85,0,0,1-.22-.23q-.12-.16-.26-.39l-1.12-1.52L110.38,70a5.05,5.05,0,0,0-.47-.59,1.74,1.74,0,0,1-.41-.6,1,1,0,0,1-.05-.45c0-.19,0-.39,0-.59q0-.89,0-1.65c0-.5,0-1,0-1.46q0-1.7,0-3.24t0-3q0-1.5,0-3.08T109.47,52a2.54,2.54,0,0,0-1,0l-1.14.21-.94.16V53l1-.16a10.27,10.27,0,0,1,1.34-.16.39.39,0,0,0,.08.12.26.26,0,0,1,.05.19.75.75,0,0,1,0,.27,2.1,2.1,0,0,0,0,.28q0,3.33,0,6.64t0,6.83c0,.12,0,.28,0,.47s0,.4,0,.62,0,.38,0,.57a1.3,1.3,0,0,0,.08.43,1.38,1.38,0,0,0,.41.62l1.19,1.53q.54.72,1.15,1.62c.11.15.28.37.51.64a2,2,0,0,1,.41.66v.08L111,73.8q-.54-.77-1.1-1.52t-1.14-1.43a4.79,4.79,0,0,0-.41-.51,1.66,1.66,0,0,1-.3-.42,1.12,1.12,0,0,1-.05-.46c0-.18,0-.35,0-.52,0-.48,0-.94,0-1.4s0-.91,0-1.37q0-1.29,0-2.41t0-2.16V57.14c0-.29,0-.61,0-1a4.14,4.14,0,0,0,0-.93.37.37,0,0,0-.15-.25.51.51,0,0,1-.19-.28.63.63,0,0,1-.05-.32.48.48,0,0,0-.05-.28.49.49,0,0,0-.39-.21.85.85,0,0,0-.48.1.93.93,0,0,0-.28.24V71.1l.64.81.9,1.17-1.54-.37v6.41l22.46,5.65V78.14Zm-1.75-28.91a14.16,14.16,0,0,1,.48,4,15,15,0,0,1-.48,3.94Q126.83,53,126.79,49.14Zm-18,24.14-.78-1-.75-1c-.11-.14-.26-.3-.43-.48a1.25,1.25,0,0,1-.32-.48c0-.26,0-3.81,0-3.81V56.13q0-.31,0-.56c0-.16,0-.26.09-.29a.36.36,0,0,1,.24-.1l.17,0,.2.14c.07.05.1.09.1.11a1.68,1.68,0,0,1,.12.82q0,.59,0,.94v11q0,.5,0,1a3.79,3.79,0,0,0,.05.86,1.47,1.47,0,0,0,.31.5l.41.49,1,1.26,1,1.3Zm13-23.91a2.43,2.43,0,0,0,.1-1q0-.73,0-1.18V45.23a6.85,6.85,0,0,1,.75,0,5,5,0,0,1,.71.14,4.16,4.16,0,0,1,2.82,2.37.64.64,0,0,0,.1.18,2.58,2.58,0,0,0-.81.2,2,2,0,0,1-.85.16.46.46,0,0,1-.34-.27q-.1-.22-.48-.1a.83.83,0,0,0-.44.41,1.44,1.44,0,0,0-.19.62,1.06,1.06,0,0,0,.12.56.46.46,0,0,0,.44.25.55.55,0,0,0,.37-.23c.09-.12.17-.23.24-.3a.88.88,0,0,1,.77-.32,3,3,0,0,0,.9-.11c0,.14,0,.2,0,.19s.08,0,.1.08a1.33,1.33,0,0,1,.07.52v9q-.2.4-.42.76l-.46.76v-8a2.65,2.65,0,0,0-.07-.62,2.78,2.78,0,0,0-1.31,0c-.49.1-.93.18-1.34.23a2.91,2.91,0,0,0-.51.12.71.71,0,0,1-.44,0,.34.34,0,0,1-.2-.11l-.14-.16a.61.61,0,0,0-.8.09,1.06,1.06,0,0,0-.29,1.09.51.51,0,0,0,.22.35.5.5,0,0,0,.36.11.68.68,0,0,0,.41-.3.92.92,0,0,1,.37-.34,1.89,1.89,0,0,1,.71-.13,7,7,0,0,0,.78-.05l.82-.1a3.85,3.85,0,0,1,.64,0c0,.07,0,.11,0,.12s.06,0,.09.11a1,1,0,0,1,.05.45c0,.21,0,.39,0,.55v7.3a1.74,1.74,0,0,0-.22.26,1,1,0,0,1-.26.26,4.87,4.87,0,0,1-.56.42A3.22,3.22,0,0,1,123,62h-.37a3.09,3.09,0,0,0-.53,0,.76.76,0,0,1-.46-.06.75.75,0,0,1-.32-.28.48.48,0,0,0-.43-.19.55.55,0,0,0-.41.13.15.15,0,0,0-.07.13s0,.06-.07.09a.82.82,0,0,1-.44.08h-.54L119,62a.61.61,0,0,1-.36-.07,3.9,3.9,0,0,1-.12-1.11c0-.39,0-.77,0-1.15,0-.14,0-.29,0-.43a1.1,1.1,0,0,0,0-.35,1.5,1.5,0,0,0-.27-.47l-.37-.46-.12-.14-.12-.14.37-.08a1.44,1.44,0,0,0,.41-.13,1.27,1.27,0,0,0,.44-.2,2.23,2.23,0,0,0,.37-.33l.58.72a.39.39,0,0,0,.2.23.42.42,0,0,1,.2.28,2.16,2.16,0,0,1,.07.53.35.35,0,0,0,.17.35.48.48,0,0,0,.53.1.87.87,0,0,0,.41-.42,1.2,1.2,0,0,0,.14-.62.57.57,0,0,0-.32-.49.44.44,0,0,0-.24-.1h-.27l-.53-.6-.53-.63a3.41,3.41,0,0,0,.27-.68,2.83,2.83,0,0,0,.1-.76,1.12,1.12,0,0,0,.12.19.59.59,0,0,1,.09.15,1.29,1.29,0,0,1,.05.47.5.5,0,0,0,.15.41.55.55,0,0,0,.37.11.7.7,0,0,0,.39-.16,1,1,0,0,0,.29-.41,1.08,1.08,0,0,0,.07-.53c-.07-.45-.35-.62-.85-.51l-.36-.41-.43-.44a2.08,2.08,0,0,0-.61-1.2s0,0-.07,0a7.43,7.43,0,0,1,0-1.23,5.64,5.64,0,0,0,0-1.23l1.43-.25.65-.09A.6.6,0,0,0,121.83,49.36Zm-2.28-2.07a1,1,0,0,0,.1-.79,2.67,2.67,0,0,1,0-.94,10.05,10.05,0,0,1,1.67-.27q0,1.05,0,1.88a14.89,14.89,0,0,1,0,1.71,4.08,4.08,0,0,1-.61.16l-.68.12a6.24,6.24,0,0,1-.66.08.7.7,0,0,0-.56.28.58.58,0,0,0-.12.37,4.68,4.68,0,0,0,0,.54l0,.58c0,.2,0,.36,0,.48v.61a3.68,3.68,0,0,0-1.29-.12V48a.78.78,0,0,1,.41-.13,2.28,2.28,0,0,0,.47-.06l.71-.15A.86.86,0,0,0,119.56,47.29Zm-3.7-.87,2.34-.57.82-.2a3.08,3.08,0,0,0,0,.63,1.13,1.13,0,0,1-.07.56,2.61,2.61,0,0,1-1,.27,2.16,2.16,0,0,0-1.05.36,2.25,2.25,0,0,0-.12.81q0,.4,0,.82v1.43c0,.48,0,1,0,1.47l-.17,0-.78.11q0-1.45,0-2.87T115.85,46.42ZM114,49.68q0-1.41,0-2.82l1.22-.3q0,1.24,0,2.72t0,3l-1.26.18Zm-.58,14.76q0,.44,0,.89a8.51,8.51,0,0,0,0,.94v2.11l-.12-.15-.12-.15-.41-.47a1.42,1.42,0,0,1-.27-.45,1.72,1.72,0,0,1-.05-.55c0-.21,0-.43,0-.66v-6.5q0-1.14,0-2.21t0-2.21V47.74c0-.26,0-.42-.1-.48l1-.24q0,4.21.05,8.71T113.44,64.45Zm6.37,6.2a.77.77,0,0,0-.39.53,2,2,0,0,0,0,.39V72l-.75-2a1.38,1.38,0,0,1,.17-.3.59.59,0,0,0,.1-.36,1,1,0,0,0-.31-.63.62.62,0,0,0-.51-.13l-.54-1.35,2.11.23a.28.28,0,0,0,.17,0s.1,0,.17.06v.09a.48.48,0,0,1,.19.4c0,.19,0,.44,0,.74a7.35,7.35,0,0,0,0,.74,1.7,1.7,0,0,1,0,.6A.79.79,0,0,1,119.81,70.65Zm1.53,1a.78.78,0,0,0-.36.57,3.4,3.4,0,0,0-.05.78q0,.43,0,.88V76L120,73.59q0-.36,0-.71c0-.24,0-.46,0-.67v-.44a1.71,1.71,0,0,1,0-.39.89.89,0,0,1,.39-.52.76.76,0,0,0,.36-.53,3.66,3.66,0,0,0,0-.85q0-.41,0-.86v-.76a4.26,4.26,0,0,0-.07-.77.54.54,0,0,0-.37-.15l-.44,0-2.62-.26-.1-.31-.24-.53a4.56,4.56,0,0,0-.24-.44l3.4.26a4,4,0,0,0,.76,0,.79.79,0,0,1,.66.14c0,.06,0,.09.07.1a.59.59,0,0,1,.12.44q0,.3,0,.66v4.2A.76.76,0,0,1,121.34,71.68Zm1.48,1.18a.8.8,0,0,0-.34.54,2,2,0,0,0,0,.66q0,.45,0,.91v1.62l-1-.23V73.94q0-.36,0-.84a1.84,1.84,0,0,1,.05-.65,1,1,0,0,1,.34-.53,1,1,0,0,0,.34-.54,1.5,1.5,0,0,0,.05-.71,7.24,7.24,0,0,1-.05-.81V68.29q0-.83.05-1.63a6,6,0,0,0-.09-1.5,10.84,10.84,0,0,0-1.43-.19l-1.53-.1L117,64.72h-.37a.44.44,0,0,1-.34-.13q0-.71,0-1.59t0-1.67a5.83,5.83,0,0,0,0-.63,1.45,1.45,0,0,1,0-.54.3.3,0,0,1,.05-.19,1.27,1.27,0,0,0,.12-.19.88.88,0,0,0,.09-.74.55.55,0,0,0-.63-.38.74.74,0,0,0-.42.28.86.86,0,0,0-.19.56.65.65,0,0,0,.17.49.88.88,0,0,1,.24.41,6.54,6.54,0,0,1,0,1.16q0,.62,0,1.28v1.08a2.81,2.81,0,0,0-1.63-.65H114V58l2.45-.11.44,0a1.51,1.51,0,0,1,.22.22l.22.27.36.44a1.42,1.42,0,0,1,.26.44,3,3,0,0,1,0,.8c0,.3,0,.58,0,.84v.82a4.47,4.47,0,0,0,.07.78,2.41,2.41,0,0,0,1,.12,7.26,7.26,0,0,1,1.12,0,1.89,1.89,0,0,0,.54.47c.18.1.36,0,.54-.21l.15-.13a.57.57,0,0,1,.19-.09.91.91,0,0,1,.34,0,4.37,4.37,0,0,1,1.33.83,4,4,0,0,1,0,.91q0,.49,0,.77v3.87q0,1.87,0,3.35A.77.77,0,0,1,122.82,72.86Zm1.32,1.5a.74.74,0,0,0-.17.27,2.11,2.11,0,0,0,0,.54,2.71,2.71,0,0,1,0,.59v1.19l-1-.23V73.55a1,1,0,0,1,.41-.46.7.7,0,0,0,.34-.48,1.87,1.87,0,0,0,0-.63c0-.24,0-.48,0-.73V64.09l.39.59.49.79c0,.06,0,.1,0,.1l0,0v2.77q0,1.34,0,2.68c0,.19,0,.4,0,.62s0,.44,0,.67,0,.5,0,.72a1.21,1.21,0,0,1,0,.52,1.12,1.12,0,0,1-.17.3l-.2.25Zm1.49,1.34a1,1,0,0,0-.17.35,2.45,2.45,0,0,0,0,.74c0,.17,0,.35,0,.52l-.94-.23V74.83a.81.81,0,0,1,.39-.52.83.83,0,0,0,.39-.57,3.78,3.78,0,0,0,0-.62q0-.34,0-.73V66.72c.07.2.14.37.2.53a3.2,3.2,0,0,1,.17.48l.54,1.52v4c0,.29,0,.57,0,.84a3,3,0,0,1,0,.77,1.51,1.51,0,0,1-.41.55A1.06,1.06,0,0,1,125.64,75.7Z"/></svg>