<?xml version="1.0" encoding="utf-8"?>
<!-- Generator: Adobe Illustrator 21.0.2, SVG Export Plug-In . SVG Version: 6.00 Build 0)  -->
<svg version="1.1" id="Layer_1" xmlns="http://www.w3.org/2000/svg" xmlns:xlink="http://www.w3.org/1999/xlink" x="0px" y="0px"
	 viewBox="0 0 200 150" style="enable-background:new 0 0 200 150;" xml:space="preserve">
<g transform="translate(0.000000,534.000000) scale(0.100000,-0.100000)">
	<path d="M386.9,4741.5c-14.2-4.4-24.1-19-22.8-33.5c0.3-4.7,2-10.5,3-10.5c0.4,0,0.6-0.3,0.3-0.8c-0.8-1.2,4.2-8.2,8.1-11.3
		c2-1.6,52.3-31.3,111.6-65.9s108.8-63.8,109.8-64.7c6.3-5.5,5.5-14.7-1.6-18.6c-2.7-1.4-11.6-1.5-228-1.5
		c-149.6,0-226.7-0.3-229.7-0.9c-13.7-2.6-24.9-12.3-29.8-26.1c-1.7-4.5-1.9-6.8-1.9-21.7c0-15,0.2-17.1,1.8-21.7
		c5.1-13.8,16.2-23.4,29.9-26.1c3.1-0.6,124.7-0.9,369.1-0.9c301.3,0,365.2,0.3,368.7,1.2c13,3.5,22,13.3,24.4,26.8
		c1.9,10.4-2.1,22.3-9.8,29.6c-2.2,2-44.2,27.1-107.7,64.2c-57.2,33.4-105,61.8-106.2,63.1c-8.4,8.9-5.4,23.4,6.1,28.4
		c3.7,1.6,11.9,1.6,317.5,1.6c220.2,0,314.8-0.3,317.2-0.9c4.9-1.4,10.2-7.2,11.5-12.5c1.6-6.6-0.9-14.5-5.7-18.1
		c-1.3-0.9-48.5-28.7-105-61.7c-66.7-39-104.2-61.4-107.1-64c-11.9-10.7-13.9-29.8-4.5-43.6c3.4-4.9,7.1-7.8,13.6-10.9l5.5-2.6
		l366.8-0.3c326.9-0.2,367.5,0,372.4,1.1c10.9,2.6,20.5,9.9,25.6,19.6c4,7.8,4.7,12.4,4.3,30.3c-0.3,14-0.5,16.4-2.3,20.6
		c-4.2,10.7-13.7,19.9-24.3,23.4c-4.1,1.4-17.6,1.5-232.8,2c-186.5,0.3-228.8,0.6-230.4,1.5c-4.9,2.8-6.8,10.9-3.8,15.9
		c1.6,2.6,2.3,3,167.7,99.6c37.4,21.8,55.7,33,58.3,35.5c2,2,4.9,6.2,6.4,9.3c2.4,4.9,2.6,6.4,2.6,13.6c0,7.3-0.3,8.6-2.7,13.8
		c-3.2,6.9-8.7,12.4-15.4,15.8l-4.9,2.4l-611.2,0.2C512,4742.5,389.6,4742.4,386.9,4741.5z"/>
</g>
</svg>
