<?xml version="1.0" encoding="utf-8"?>
<!-- Generator: Adobe Illustrator 21.0.2, SVG Export Plug-In . SVG Version: 6.00 Build 0)  -->
<svg version="1.1" xmlns="http://www.w3.org/2000/svg" xmlns:xlink="http://www.w3.org/1999/xlink" x="0px" y="0px"
	 viewBox="0 0 200 150" style="enable-background:new 0 0 200 150;" xml:space="preserve">
<style type="text/css">
	.st0{fill:#831619;}
	.st1{fill:#C92027;}
	.st2{fill:#504E53;}
</style>
<g id="Layer_x0020_1">
</g>
<g id="Layer_x0020_2">
</g>
<g id="Layer_x0020_3">
</g>
<g id="Layer_x0020_4">
</g>
<g id="Layer_x0020_5">
</g>
<g id="Layer_x0020_6">
	<g>
		<polygon class="st0" points="36.6,47.3 52.9,80.3 84.6,16.1 52,16.1 		"/>
		<polygon class="st0" points="83.7,80.3 116.3,80.3 148,16.1 115.4,16.1 		"/>
		<polygon class="st1" points="116.3,80.3 83.7,80.3 52,16.1 84.6,16.1 		"/>
		<polygon class="st1" points="163.4,47.3 147.1,80.3 115.4,16.1 148,16.1 		"/>
		<path class="st2" d="M53.2,133.3V99.4h-6l-10.5,26.1L26.1,99.4h-6v33.9h4.2v-28.5l11.5,28.5h1.7L49,104.8v28.5H53.2z M83.3,133.3
			v-3.8h-18v-11.7h17.6v-3.8H65.3v-10.9h18v-3.8H61.1v33.9H83.3z M114.6,133.3l-9.1-13.8c4.6-0.4,8.8-3.8,8.8-9.8
			c0-6.2-4.5-10.2-10.7-10.2H90v33.9h4.2v-13.4h6.8l8.6,13.4H114.6z M103.1,116.1h-8.9v-12.9h8.9c4,0,6.8,2.6,6.8,6.4
			C109.9,113.4,107.1,116.1,103.1,116.1L103.1,116.1z M134.7,133.9c9.2,0,13.9-5.4,13.9-13.8V99.4h-4.3V120c0,6.2-3.3,10.1-9.6,10.1
			c-6.2,0-9.5-3.9-9.5-10.1V99.4h-4.3v20.7C120.9,128.4,125.6,133.9,134.7,133.9z M167.5,133.9c9.1,0,12.5-5.1,12.5-10
			c0-12.6-20-8.3-20-15.9c0-3.2,2.9-5.4,7-5.4c3.7,0,7.3,1.2,9.8,4.1l2.5-3.1c-2.8-3-6.9-4.8-12-4.8c-6.7,0-11.7,3.9-11.7,9.4
			c0,12.1,20,7.2,20,15.9c0,2.6-1.9,5.9-8,5.9c-4.8,0-8.4-2.3-10.6-4.9l-2.5,3.2C157.3,131.6,161.6,133.9,167.5,133.9L167.5,133.9z"
			/>
	</g>
</g>
<g id="Layer_x0020_7">
</g>
</svg>
