<svg id="Layer_1" data-name="Layer 1" xmlns="http://www.w3.org/2000/svg" viewBox="0 0 200 150"><defs><style>.cls-1{fill:#0a2052;}.cls-2{fill:#31c7c3;}</style></defs><title>logo_gladius</title><g id="Symbols"><g id="icon_logo_about_us" data-name="icon/logo_about_us"><g id="logo"><path class="cls-1" d="M157.14,41.44a109.29,109.29,0,0,1-2.25,12.07A113.37,113.37,0,0,1,151.47,65a93.67,93.67,0,0,0-10.27-5.88,91.72,91.72,0,0,0-10.76-4.48,90.41,90.41,0,0,0-11.2-3.09l-.19,0a90,90,0,0,0-11.53-1.64c-.86-.07-1.74-.14-2.6-.18-1.63-.07-3.28-.12-4.93-.12s-3.3,0-4.93.12c-.86,0-1.74.12-2.6.18a90,90,0,0,0-11.53,1.64l-.19,0a90.41,90.41,0,0,0-11.2,3.09A91.72,91.72,0,0,0,58.8,59.16,89.6,89.6,0,0,0,48.55,65a111.29,111.29,0,0,1-3.44-11.49,116.55,116.55,0,0,1-2.25-12.09A111.59,111.59,0,0,1,53.94,36a109.66,109.66,0,0,1,11.34-4.2c3.76-1.15,7.6-2.15,11.5-2.93s7.64-1.34,11.57-1.73h0a116.83,116.83,0,0,1,23.19,0h0q5.89.59,11.57,1.73c3.9.78,7.74,1.78,11.5,2.93a117.37,117.37,0,0,1,11.34,4.18,111.76,111.76,0,0,1,11.08,5.49"/><path id="Path" class="cls-2" d="M148.44,77c-1,2.23-2.15,4.41-3.34,6.57h0c-.7,1.31-1.45,2.61-2.2,3.87-1.36,2.21-2.76,4.37-4.23,6.48-.75,1.11-1.54,2.19-2.34,3.24-1.66,2.25-3.44,4.44-5.26,6.55-.72.85-1.47,1.67-2.22,2.49-2.1,2.3-4.3,4.51-6.57,6.6a111.42,111.42,0,0,1-9.94,8.29,115.61,115.61,0,0,1-11.08,7.33,112.42,112.42,0,0,1-11.06-7.33,108.49,108.49,0,0,1-10-8.29c-2.27-2.09-4.44-4.3-6.55-6.6-.75-.82-1.5-1.64-2.22-2.49-1.82-2.11-3.6-4.29-5.26-6.55-.82-1.06-1.59-2.14-2.34-3.24-1.5-2.11-2.9-4.27-4.23-6.5-.77-1.27-1.5-2.56-2.22-3.85C56.21,81.38,55.09,79.19,54,77a78.1,78.1,0,0,1,10.05-6.11,79.76,79.76,0,0,1,10.78-4.58c1.1,2.35,2.29,4.67,3.55,6.93.7,1.2,1.43,2.4,2.15,3.57,1.36,2.16,2.81,4.25,4.3,6.27,1,1.31,2,2.63,3.09,3.9,1.45,1.74,2.95,3.4,4.54,5A73.7,73.7,0,0,0,98,97.25q1.58,1.44,3.23,2.75,1.65-1.31,3.23-2.75A73.7,73.7,0,0,0,110,92c1.59-1.62,3.09-3.29,4.54-5,1.05-1.27,2.08-2.59,3.09-3.9,1.5-2,2.95-4.11,4.3-6.27.75-1.17,1.45-2.37,2.15-3.59,1.29-2.25,2.45-4.56,3.55-6.91a79.76,79.76,0,0,1,10.78,4.58A78.1,78.1,0,0,1,148.44,77"/></g></g></g></svg>