<?xml version="1.0" encoding="utf-8"?>
<!-- Generator: Adobe Illustrator 22.1.0, SVG Export Plug-In . SVG Version: 6.00 Build 0)  -->
<svg version="1.1" id="Layer_1" xmlns="http://www.w3.org/2000/svg" xmlns:xlink="http://www.w3.org/1999/xlink" x="0px" y="0px"
	 viewBox="0 0 140 105" style="enable-background:new 0 0 140 105;" xml:space="preserve">
<style type="text/css">
	.st0{fill:#222222;}
	.st1{fill:#13BB64;}
</style>
<g id="SvgjsG1275" transform="translate(81.46754831172692,-21.041187286376953)" xmlns:name="mainText_mainfill">
	<path class="st0" d="M-7.9,69.1v-1.5c1.7,0.6,3.5,0.9,5.1,0.9c3.3,0,5-1,5-3.1c0-1.7-1.2-2.5-3.7-2.5h-2c-3.3,0-4.9-1.4-4.9-4.2
		c0-3,2.2-4.5,6.5-4.5c1.7,0,3.4,0.2,5.1,0.7v1.5c-1.7-0.6-3.5-0.9-5.1-0.9c-3.3,0-5,1-5,3.1c0,1.8,1.1,2.7,3.4,2.7h2
		c3.5,0,5.2,1.3,5.2,4c0,3-2.2,4.5-6.5,4.5C-4.5,69.8-6.2,69.6-7.9,69.1L-7.9,69.1z M14.4,68.6c3.8,0,5.8-2.2,5.8-6.7
		c0-4.4-1.9-6.6-5.8-6.6s-5.8,2.2-5.8,6.6C8.6,66.4,10.5,68.6,14.4,68.6L14.4,68.6z M7,62c0-5.3,2.4-8,7.3-8s7.3,2.7,7.3,8
		c0,5.3-2.4,8-7.3,8C9.5,70,7.1,67.3,7,62L7,62z M27.6,48.4v21.4h-1.6V48.4H27.6z M32.7,69.8V54.1h1.1l0.2,2.6
		c1.6-1.7,3.3-2.6,5.3-2.6v1.3c-1.9,0-3.5,0.9-5,2.7v11.7L32.7,69.8L32.7,69.8z"/>
</g>
<g id="SvgjsG1276" transform="translate(80.44222897388207,18.46930694580078)" xmlns:name="mainText2_mainfill">
	<path class="st0" d="M-7.4,40.9h1.1l0.3,2.5h4.7v1.3h-4.6v9.9c0,2.1,0.8,3.1,2.3,3.1h2.3v1.3h-2.3c-2.6,0-3.8-1.4-3.8-4.2
		L-7.4,40.9L-7.4,40.9z M8.4,43.4c4.3,0,6.4,2.4,6.4,7.1c0,0.3,0,0.7,0,1.1H2.9c0,4.1,2.2,6.2,6.5,6.2c1.8,0,3.4-0.2,4.8-0.7v1.3
		c-1.4,0.5-3,0.7-4.8,0.7c-5.4,0-8.1-2.7-8.1-8C1.3,46,3.7,43.4,8.4,43.4L8.4,43.4z M2.9,50.2h10.4c-0.1-3.7-1.7-5.5-4.9-5.5
		C4.9,44.7,3,46.6,2.9,50.2L2.9,50.2z M30.2,58.7c-1.3,0.3-2.7,0.4-4.2,0.4c-5.3,0-7.9-2.7-7.9-8.2c0-5,2.6-7.6,7.9-7.6
		c1.5,0,2.9,0.1,4.2,0.4v1.3c-1.4-0.3-2.7-0.4-4-0.4c-4.2,0-6.4,2.1-6.4,6.2c0,4.5,2.1,6.8,6.4,6.8c1.3,0,2.6-0.1,4-0.4V58.7
		L30.2,58.7z M33.9,59.1V37.7h1.6v7.4c1.8-1.1,3.7-1.7,5.6-1.7c3.8,0,5.7,1.9,5.7,5.8v9.9h-1.6V48.6c0-2.5-1.4-3.8-4.2-3.8
		c-1.9,0-3.7,0.7-5.6,2v12.3L33.9,59.1L33.9,59.1z"/>
</g>
<g id="SvgjsG1277" transform="translate(-3.506681550925149,-1.692501133263741) scale(0.7461024879218947)" xmlns:name="symbol_mainfill">
	<path class="st1" d="M85.7,69.4C82.9,51.9,66.5,39.9,49,42.6c-8.5,1.3-16,5.8-21,12.8c-5.1,6.9-7.1,15.4-5.8,23.9
		c0.6,3.8,1.8,7.4,3.6,10.7c-2,2-2.5,5.4-0.9,8.2l0.4,0.8L25,99.1c-0.6,0.4-0.8,1.2-0.5,1.8c0.4,0.6,1.2,0.8,1.8,0.5l1.9-1.1
		l1.8,3.2c0.3,0.5,0.9,0.7,1.4,0.4c0.5-0.3,0.7-0.9,0.4-1.4l-1.8-3.2l4.4-2.6l1.8,3.2c0.3,0.5,0.9,0.7,1.4,0.4
		c0.5-0.3,0.7-0.9,0.4-1.4L36,95.7l1.9-1.1c0.6-0.4,0.8-1.2,0.5-1.8c-0.4-0.6-1.2-0.8-1.8-0.5l-0.3,0.2l-0.4-0.8
		c-0.9-1.6-2.3-2.7-4-3.2c-1.2-0.4-2.5-0.4-3.6-0.1c-1.6-3-2.8-6.2-3.3-9.6c-1.2-7.7,0.7-15.5,5.3-21.7c4.6-6.3,11.4-10.4,19.1-11.6
		C65.3,43,80.4,54,82.8,69.9c2.1,13.5-5.6,26.8-18.3,31.7c-0.1,0-6.1,2.3-10.5-0.9c-3.2-2.3-5-7-5.2-13.9l0,0
		c-0.1-2.8,0.7-8.3,2.8-12.7c0.1-0.1,0.3-0.1,0.2,0.1c-1.4,4.5-1.2,10.4-0.5,13.2c1,0.1,2.3,0,3.4-0.3c3.7-1.1,7-5,6.1-9
		c-2.3-10.3,3.6-18.2,4.7-19.9c0.1-0.2,0-0.5-0.3-0.5c-2.1-0.1-14,2.8-20.9,9.9c-6.1,6.4-4.2,15.2,1.2,18.2l0.1,0.1
		c0.1,8.4,2.3,14.2,6.5,17.2c2.5,1.8,5.2,2.3,7.5,2.3c3.1,0,5.6-0.9,5.8-1C79.5,99,87.9,84.3,85.7,69.4z"/>
</g>
</svg>
