<svg xmlns="http://www.w3.org/2000/svg" viewBox="0 0 603 420.82"><defs><style>.cls-1{fill:#5dc0ae;}.cls-2{font-size:135px;fill:#2a2946;font-family:AvenirNext-Bold, Avenir Next;font-weight:700;letter-spacing:-0.02em;}.cls-3{letter-spacing:0em;}.cls-4{letter-spacing:0.03em;}.cls-5{letter-spacing:0em;}.cls-6{letter-spacing:0.01em;}.cls-7{letter-spacing:0.02em;}</style></defs><title>Asset 11</title><g id="Layer_2" data-name="Layer 2"><g id="Layer_1-2" data-name="Layer 1"><path class="cls-1" d="M288.62,97.41H248.21c-7.29,0-13.2-4.84-13.2-10.82V10.82c0-6,5.91-10.82,13.2-10.82h77.52c7.29,0,13.19,4.85,13.19,10.82V37.21c0,3-2.95,5.41-6.59,5.41H301.81c-3.64,0-6.6,2.42-6.6,5.41V92C295.21,95,292.26,97.41,288.62,97.41Z"/><path class="cls-1" d="M350.61,119.82v28.42c0,6-5.87,10.82-13.11,10.82H308.42c-7.25,0-13.12,4.84-13.12,10.82v25.71c0,6-5.87,10.82-13.11,10.82H248c-7.24,0-13.11-4.84-13.11-10.82V119.82c0-5.95,5.9-10.82,13.11-10.82h89.5C344.74,109,350.61,113.85,350.61,119.82Z"/><path class="cls-1" d="M410.2,10.82V86.59c0,6-5.87,10.82-13.11,10.82H313.48c-3.62,0-6.56-2.42-6.56-5.41V60.21c0-3,2.94-5.42,6.56-5.42h31.15a6.48,6.48,0,0,0,6-5.67V10.56C351.19,4.85,357.06,0,364.3,0h32.79C404.33,0,410.2,4.85,410.2,10.82Z"/><text class="cls-2" transform="translate(31.24 355.21)">F<tspan class="cls-3" x="75.6" y="0">o</tspan><tspan class="cls-4" x="160.38" y="0">r</tspan><tspan class="cls-5" x="217.75" y="0">m</tspan><tspan class="cls-6" x="343.03" y="0">i</tspan><tspan class="cls-7" x="384.61" y="0">co</tspan></text></g></g></svg>