<svg id="Layer_1" data-name="Layer 1" xmlns="http://www.w3.org/2000/svg" viewBox="0 0 140 105"><defs><style>.cls-1{fill:#0a75bc;}</style></defs><title>logo_kanga</title><path class="cls-1" d="M26.72,61V56l-.44-.33.28-1.76-.32-.32-.44.41-.1-.64-1.28.28A4.13,4.13,0,0,0,23,55.75a.34.34,0,0,1-.09.16,8,8,0,0,0-1.38,2.74c-.26.67-.59,1.32-.81,2a13.67,13.67,0,0,1-1.23,2.42,2.66,2.66,0,0,1-.37.53c-.36.38-.76.72-1.09,1.11a5.49,5.49,0,0,1-1.86,1.41,2.8,2.8,0,0,1-2.54.36c-.36-.17-.82-.19-1.2-.38a18.83,18.83,0,0,1-2.22-1.24,2.34,2.34,0,0,1-.22-.18v-2c.84.29,1,1.19,1.57,1.56a8.41,8.41,0,0,0,2.89.24c.36-.19.65-.36,1-.49a5.35,5.35,0,0,0,2.74-3.22,6.5,6.5,0,0,1,.48-1c.55-1.2,1.08-2.41,1.51-3.66a8.42,8.42,0,0,0,.47-1.65,8.33,8.33,0,0,1,.55-2,13.45,13.45,0,0,1,1.13-1.58,10.6,10.6,0,0,1,3.41-2.8,9.43,9.43,0,0,0,1-.59V43.08h4.46v2A6.76,6.76,0,0,0,32,44.8a12.19,12.19,0,0,1,3-1c1.06-.21,2.14-.31,3.16-.59a9.88,9.88,0,0,0,3.85-1.76,2.58,2.58,0,0,1,.41-.23L44,37.85A4.23,4.23,0,0,1,42.49,35c.24-.28.46-.45.83-.2a5.9,5.9,0,0,0,.87.43l.32-.92h.84l.86,1c-.09.41.19,1-.14,1.44l.23.69.16-.13.72.43a.94.94,0,0,0,.25.1.48.48,0,0,0,.15,0l2.11,2.11.18.54-.42.85-1,.27-.14-.4c-.66.29-1.36.06-2.13.18l-.43,1.28a2.58,2.58,0,0,1,.65,1.86,5.07,5.07,0,0,1-.57.71c-.22.2-.56.28-.76.49a10.88,10.88,0,0,0-.82,1.08,2.22,2.22,0,0,0,.53,1.39c.37.63.82,1.22,1.23,1.83a1.84,1.84,0,0,1,0,.58,1.26,1.26,0,0,1-.64.92,4.45,4.45,0,0,1-2.58.74l-.3-.32.31-1L43,51l.76-.49-.94-1.41-.32,0c-.35.46-.63,1-1.24,1.19a7.34,7.34,0,0,1-2.84,2.07c-.25.1-.48.25-.8.42.88,1.35,1.76,2.73,2.66,4.1S42.07,59.62,43,61l2.82,4.16a2.16,2.16,0,0,0,.38-.58c.49-2,1.33-3.94,2-5.9.51-1.5,1.06-3,1.59-4.5.65-1.81,1.27-3.63,1.91-5.44.53-1.5,1-3,1.61-4.49.15-.36.24-.74.37-1.15h5.47l1.08,3.06c.32.91.68,1.8,1,2.72.47,1.46,1,2.9,1.49,4.35s1,3.22,1.65,4.77c.71,1.72,1,3.58,1.93,5.24a17.63,17.63,0,0,0,.58,2h-5l-1.41-4.63h-8l-1.58,4.65H40.2c-1.9-2.64-3.58-5.48-5.49-8.28-.58.58-1.1,1.13-1.67,1.66a7.68,7.68,0,0,0-1.89,2.63,16,16,0,0,1-1.49,2.31.25.25,0,0,1-.07.07,4.51,4.51,0,0,0-1.51,1.82,6.35,6.35,0,0,1,.74,1.6c.15,1,1,1.72.77,2.82l-.31.11-.09.56L29,70.34l-.14.14c-.52-.19-.57-.73-.92-1.27l.09.91-.8.57c-.17,0,0-.49-.36-.36-.17-.62-.69-1.09-.85-1.68a3.2,3.2,0,0,0-.68-1.18,9.94,9.94,0,0,1-1.22-2,4.24,4.24,0,0,1-.2-.9l.2-.62c.42-.42.91-.89,1.38-1.38A5.15,5.15,0,0,0,26.7,61ZM53.6,56.86h5.47l-2.66-8.59a2.39,2.39,0,0,0-.26.51c-.12.53-.48,1-.4,1.58a45.64,45.64,0,0,0-1.5,4.43l-.65,2.07Zm18.54-6V65.23H67.85V43.09h4.93c2.84,4.66,5.65,9.36,8.66,14.17V43.06h4.29V65.22H81.4L72.27,50.85l-.14,0Zm35.29-.85h-4.88v-.54a6.6,6.6,0,0,0-1.41-1.89c-.53-.48-1.25-.61-1.86-1.06a3.38,3.38,0,0,1-1.14-.17,1.48,1.48,0,0,0-1.05,0c-.62.28-1.32.15-1.92.54a5.79,5.79,0,0,0-1.95,1.61,6.12,6.12,0,0,0-1.1,2.08A8.17,8.17,0,0,0,91.79,52c0,.37-.14.72-.18,1.09s0,.72,0,1.07a8.39,8.39,0,0,0,.24,2.64,7.38,7.38,0,0,0,1.11,2.65,6.61,6.61,0,0,0,1.92,1.92,3.27,3.27,0,0,0,1.53.55c.27,0,.53.15.8.18a3.51,3.51,0,0,0,.88,0c.42-.06.84-.17,1.29-.26a5.53,5.53,0,0,0,3-2.44,3.47,3.47,0,0,0,.56-2.31H98.16l-.09-.1a.17.17,0,0,1,0-.08c0-1.1,0-2.2,0-3.22.19-.35.45-.33.71-.33h8.6V65.25h-3.83c-.09-.57.13-1.21-.36-1.76l-.56.63a6.66,6.66,0,0,1-3.66,1.76,11.87,11.87,0,0,1-3.33.14,7.91,7.91,0,0,1-3.18-1A5.4,5.4,0,0,1,91,64a14,14,0,0,1-2.34-2.73A12.16,12.16,0,0,1,87.32,58a7.23,7.23,0,0,1-.38-2.47,3.12,3.12,0,0,1-.16-2.06,18.54,18.54,0,0,1,.53-3.18,12.35,12.35,0,0,1,1.16-2.83,8.92,8.92,0,0,1,2.31-2.75,15.93,15.93,0,0,1,2.5-1.5,9.68,9.68,0,0,1,1.82-.55,14.18,14.18,0,0,1,4-.18,9.47,9.47,0,0,1,2.64.65,7.72,7.72,0,0,1,3.17,2,7.18,7.18,0,0,1,1.77,2.39,5.36,5.36,0,0,1,.52,1.83,2.57,2.57,0,0,0,.22.69Zm9.36-7h5.49l1.79,5.08c.68,1.93,1.38,3.84,2,5.78.27.83.57,1.65.85,2.47a7.48,7.48,0,0,0,.92,2.34,32.39,32.39,0,0,0,1.17,3.6l1,2.8-.07.08a.14.14,0,0,1-.08,0H125l-1.42-4.65h-8L114,65.24H109c.35-1.07.63-2.19,1.09-3.24.59-1.32.88-2.74,1.5-4a22.76,22.76,0,0,0,.78-2.31c.26-.74.57-1.46.8-2.2s.47-1.42.76-2.12.5-1.54.78-2.31.56-1.46.8-2.2a12.67,12.67,0,0,1,.77-2.12,7.94,7.94,0,0,0,.46-1.64Zm5.41,13.8-2.64-8.53c-.06.06-.17.11-.19.19-.88,2.77-1.75,5.53-2.64,8.34Z"/></svg>