<svg id="Layer_1" data-name="Layer 1" xmlns="http://www.w3.org/2000/svg" viewBox="0 0 200 150"><defs><style>.cls-1{fill:#010101;}.cls-2{opacity:0.8;}.cls-3{fill:#ee2725;}.cls-4{opacity:0.6;}.cls-5{opacity:0.4;}.cls-6{opacity:0.2;}</style></defs><title>logo_bithero</title><g id="Final-Final"><g id="Artboard-1"><g id="BHG_Full" data-name="BHG Full"><g id="Group"><path id="GAMES" class="cls-1" d="M106.58,115.51a9.83,9.83,0,0,1-2.23.82,10,10,0,0,1-2.69.35,7.09,7.09,0,0,1-2.81-.47,7.2,7.2,0,0,1-2.23-1.41,6.65,6.65,0,0,1-1.41-2.11,7.77,7.77,0,0,1,.12-5.62A5.42,5.42,0,0,1,96.86,105a5.31,5.31,0,0,1,2.23-1.29,6.87,6.87,0,0,1,2.69-.47,7.09,7.09,0,0,1,2.81.47A6.38,6.38,0,0,1,106.7,105l-2,2.23a4.21,4.21,0,0,0-1.17-.82,3.74,3.74,0,0,0-1.64-.35,3.24,3.24,0,0,0-1.52.35,4.21,4.21,0,0,0-1.17.82,4.84,4.84,0,0,0-.82,1.29,3.72,3.72,0,0,0-.23,1.64,6.91,6.91,0,0,0,.23,1.64,4.55,4.55,0,0,0,.7,1.29,4.21,4.21,0,0,0,1.17.82,3.74,3.74,0,0,0,1.64.35,3.24,3.24,0,0,0,1.05-.12,2.76,2.76,0,0,0,.94-.23v-2.34h-2.46v-2.46h5.27v6.44Zm11.25.82-1.05-2.58h-4.92l-.94,2.46h-3.4l5.39-12.77h3l5.27,12.77h-3.4ZM114.31,107l-1.64,4.33h3.16Zm19.56,9.37.12-9h0l-3.28,9h-2.34l-3.28-9h0l.12,9h-2.93V103.44h4.33l2.93,8.2h.12l2.81-8.2h4.45v12.77h-3Zm5.62,0V103.44h8.55V106h-5.62v2.46h5.27v2.46h-5.27v2.69h6v2.69Zm17.8-9.49a2.55,2.55,0,0,0-1.05-.82,2.67,2.67,0,0,0-1.29-.35h-.59c-.23,0-.35.12-.59.23s-.35.23-.47.35a.88.88,0,0,0-.12.59,1.06,1.06,0,0,0,.12.59l.35.35a2.56,2.56,0,0,0,.59.35,1.69,1.69,0,0,0,.82.23c.47.12.94.35,1.41.47a2.79,2.79,0,0,1,1.29.7,4,4,0,0,1,.94,1.05,3.4,3.4,0,0,1,.35,1.64,4.46,4.46,0,0,1-.35,1.87,2.86,2.86,0,0,1-1.05,1.29,6.31,6.31,0,0,1-1.52.82,9.1,9.1,0,0,1-1.87.23,7.26,7.26,0,0,1-2.69-.47,6.65,6.65,0,0,1-2.11-1.41l2-2.11a3.67,3.67,0,0,0,1.29.94,3.61,3.61,0,0,0,1.52.35,1.49,1.49,0,0,0,.7-.12c.23,0,.35-.12.59-.23a1.62,1.62,0,0,0,.35-.47,1.27,1.27,0,0,0,.12-.7.89.89,0,0,0-.23-.59c-.12-.12-.23-.35-.47-.47a5.71,5.71,0,0,0-.82-.35c-.35-.12-.7-.23-1.17-.35a4.9,4.9,0,0,1-1.17-.47l-1.05-.7a1.71,1.71,0,0,1-.7-1.05,3,3,0,0,1-.23-1.52,3.44,3.44,0,0,1,.47-1.87,4.05,4.05,0,0,1,1.17-1.29,4.11,4.11,0,0,1,1.64-.7,9,9,0,0,1,1.76-.23,8,8,0,0,1,2.23.35,6.86,6.86,0,0,1,2,1.17Z"/><g id="Group-2"><path id="BIT-" class="cls-1" d="M67.81,57.64a8.83,8.83,0,0,1-.94,4.1,8.08,8.08,0,0,1-2.58,2.69,9.06,9.06,0,0,1-3.63,1.41,24.43,24.43,0,0,1-4.1.47H44.85V36.67H56.57a17.88,17.88,0,0,1,3.51.35,11,11,0,0,1,3.28,1.17,6.42,6.42,0,0,1,2.34,2.34,7.09,7.09,0,0,1,.94,3.75,6.59,6.59,0,0,1-1.29,4.1,7.47,7.47,0,0,1-3.51,2.34v.12a5.61,5.61,0,0,1,2.34.82,7.84,7.84,0,0,1,1.87,1.41,7.25,7.25,0,0,1,1.29,2,6,6,0,0,1,.47,2.58ZM59.73,45.23A2.3,2.3,0,0,0,58.56,43a6.68,6.68,0,0,0-3.4-.7H51.65v6.09h3.87a5.3,5.3,0,0,0,3.16-.82,2.65,2.65,0,0,0,1.05-2.34Zm.94,11.71a2.69,2.69,0,0,0-1.41-2.58,8,8,0,0,0-3.63-.7h-4v6.79h4.1a8.87,8.87,0,0,0,1.76-.12,6.71,6.71,0,0,0,1.64-.47,2.56,2.56,0,0,0,1.17-1.05,4.11,4.11,0,0,0,.35-1.87ZM72.5,66.19V36.67h7.15V66.19ZM98.38,42.77V66.19H91.24V42.77H82.92V36.67H106.7v6.09Z"/><path id="HERO" class="cls-1" d="M63.48,99.58V87.28H52v12.3H44.85V70.06H52V81.19H63.48V70.06h7.15V99.58Zm13.24,0V70.06h19.8v6.09h-13v5.51h12.3V87.4H83.51v6.09H97.21v6.09Zm41.12,0L111.5,87.86H109V99.58h-7V70.06h11.25a15.73,15.73,0,0,1,4.1.47A9.2,9.2,0,0,1,121,72.05a9.42,9.42,0,0,1,2.58,2.69,9.33,9.33,0,0,1,.94,4.22,8.12,8.12,0,0,1-1.64,5,8.54,8.54,0,0,1-4.45,2.93l7.73,12.65Zm-.35-20.5a2.29,2.29,0,0,0-.47-1.64,2.56,2.56,0,0,0-1.17-1.05,5.8,5.8,0,0,0-1.52-.47,8.3,8.3,0,0,0-1.64-.12h-3.75v6.91h3.4a8.87,8.87,0,0,0,1.76-.12,6.71,6.71,0,0,0,1.64-.47A3.66,3.66,0,0,0,117,81.07a3.59,3.59,0,0,0,.47-2Zm42.87,5.62a16.59,16.59,0,0,1-1.17,6.44,13.25,13.25,0,0,1-3.4,4.92,13.63,13.63,0,0,1-5.15,3.16,19.08,19.08,0,0,1-6.44,1.17,16.59,16.59,0,0,1-6.44-1.17,13.17,13.17,0,0,1-5-3.16,14.87,14.87,0,0,1-4.57-11.36,16.59,16.59,0,0,1,1.17-6.44,12.82,12.82,0,0,1,3.4-4.8,15.67,15.67,0,0,1,5-3,20.21,20.21,0,0,1,12.89,0,16.22,16.22,0,0,1,5.15,3,14.28,14.28,0,0,1,3.4,4.8,16.59,16.59,0,0,1,1.17,6.44Zm-7.61,0a12.4,12.4,0,0,0-.59-3.63,7.65,7.65,0,0,0-1.76-2.81,7.43,7.43,0,0,0-2.69-1.87,8.56,8.56,0,0,0-6.79,0,8.58,8.58,0,0,0-2.69,1.87,11.41,11.41,0,0,0-1.76,2.81,9.11,9.11,0,0,0-.59,3.63,13.2,13.2,0,0,0,.59,3.75,8.15,8.15,0,0,0,1.76,2.93,7.43,7.43,0,0,0,2.69,1.87,8.56,8.56,0,0,0,6.79,0,8.58,8.58,0,0,0,2.69-1.87,10.24,10.24,0,0,0,1.76-2.93,12.57,12.57,0,0,0,.59-3.75Z"/></g></g><g id="Group-8"><rect id="Rectangle-32" class="cls-1" x="76.48" y="103.09" width="13.94" height="13.94"/><g id="Group-7"><g id="Group-6" class="cls-2"><rect id="Rectangle-33" class="cls-3" x="64.67" y="104.76" width="3.51" height="3.51" transform="translate(-55.86 78.17) rotate(-45)"/><rect id="Rectangle-33-2" data-name="Rectangle-33" class="cls-3" x="64.65" y="111.74" width="3.51" height="3.51" transform="translate(-60.8 80.2) rotate(-45)"/></g><g id="Group-6-2" data-name="Group-6"><rect id="Rectangle-33-3" data-name="Rectangle-33" class="cls-3" x="70.96" y="104.79" width="3.51" height="3.51" transform="translate(-54.04 82.63) rotate(-45)"/><rect id="Rectangle-33-4" data-name="Rectangle-33" class="cls-3" x="70.93" y="111.77" width="3.51" height="3.51" transform="translate(-58.99 84.65) rotate(-45)"/></g><g id="Group-5" class="cls-4"><rect id="Rectangle-33-5" data-name="Rectangle-33" class="cls-3" x="58.44" y="111.79" width="3.51" height="3.51" transform="translate(-62.66 75.82) rotate(-45)"/><rect id="Rectangle-33-6" data-name="Rectangle-33" class="cls-3" x="58.47" y="104.81" width="3.51" height="3.51" transform="translate(-57.72 73.8) rotate(-45)"/></g><g id="Group-4" class="cls-5"><rect id="Rectangle-33-7" data-name="Rectangle-33" class="cls-3" x="52.15" y="111.76" width="3.51" height="3.51" transform="translate(-64.48 71.37) rotate(-45)"/><rect id="Rectangle-33-8" data-name="Rectangle-33" class="cls-3" x="52.18" y="104.78" width="3.51" height="3.51" transform="translate(-59.53 69.34) rotate(-45)"/></g><g id="Group-3" class="cls-6"><rect id="Rectangle-33-9" data-name="Rectangle-33" class="cls-3" x="45.95" y="111.81" width="3.51" height="3.51" transform="translate(-66.33 67) rotate(-45)"/><rect id="Rectangle-33-10" data-name="Rectangle-33" class="cls-3" x="45.98" y="104.83" width="3.51" height="3.51" transform="translate(-61.39 64.97) rotate(-45)"/></g></g></g></g></g></g></svg>