<?xml version="1.0" encoding="utf-8"?>
<!-- Generator: Adobe Illustrator 21.0.2, SVG Export Plug-In . SVG Version: 6.00 Build 0)  -->
<svg version="1.1" id="Layer_1" xmlns:sketch="http://www.bohemiancoding.com/sketch/ns"
	 xmlns="http://www.w3.org/2000/svg" xmlns:xlink="http://www.w3.org/1999/xlink" x="0px" y="0px" viewBox="0 0 200 150"
	 style="enable-background:new 0 0 200 150;" xml:space="preserve">
<style type="text/css">
	.st0{fill:#FFB21C;stroke:#FFB21C;stroke-linejoin:round;}
	.st1{fill:#FF8800;stroke:#FF8800;stroke-linejoin:round;}
	.st2{fill:#F57600;stroke:#F57600;stroke-linejoin:round;}
	.st3{fill:#FF8800;}
</style>
<title>Artboard 13</title>
<desc>Created with Sketch.</desc>
<g id="Page-1" sketch:type="MSPage">
	<g id="Artboard-13" sketch:type="MSArtboardGroup">
		<g id="Layer_1-2" transform="translate(545.000000, 392.000000)" sketch:type="MSLayerGroup">
			<path id="Shape-2" sketch:type="MSShapeGroup" class="st0" d="M-508.6-347.9v4.3l-13.5,7.8l0,26.9l-3.7-2.1V-338L-508.6-347.9"/>
			<path id="Shape-3" sketch:type="MSShapeGroup" class="st1" d="M-508.6-347.9l3.7,2.1v4.2l-3.7-2.1V-347.9z"/>
			<path id="Shape" sketch:type="MSShapeGroup" class="st1" d="M-508.6-332.4l3.7,2.1v11.3l-3.7,2.1V-332.4z"/>
			<path id="Shape-4" sketch:type="MSShapeGroup" class="st0" d="M-525.7-337.1v-5.2l3.7-2.1v5.1L-525.7-337.1z"/>
			<path id="Shape-5" sketch:type="MSShapeGroup" class="st1" d="M-522-344.4l3.7,2.1l-3.7,2.1V-344.4z"/>
			<path id="Shape_1_" sketch:type="MSShapeGroup" class="st2" d="M-504.9-296.7v4.2l9.8-5.7l-3.7-2.1L-504.9-296.7z"/>
			<path id="Shape_2_" sketch:type="MSShapeGroup" class="st0" d="M-495.1-324.6l-13.5,7.8v-15.6l-3.7,2.1l0,42l3.7,2.1v-26.5
				l9.8-5.7v18l3.7,2.1v0L-495.1-324.6z"/>
			<path id="Shape_3_" sketch:type="MSShapeGroup" class="st2" d="M-498.8-314v-4.2l-9.8,5.7l3.7,2.1L-498.8-314z"/>
			<path id="Shape_4_" sketch:type="MSShapeGroup" class="st1" d="M-491.4-322.5l-3.7-2.1l0,26.5l-9.8,5.7l0-17.9l-3.7-2.1v26.5
				l17.2-9.9V-322.5z"/>
			<path id="Shape-6" sketch:type="MSShapeGroup" class="st1" d="M-522.1-335.9v26.9l3.7-2.1v-22.6L-522.1-335.9L-522.1-335.9z"/>
			<path id="Shape-7" sketch:type="MSShapeGroup" class="st2" d="M-508.6-343.7l-13.5,7.8l3.7,2.1l13.5-7.8L-508.6-343.7z"/>
		</g>
		<path id="readybox" sketch:type="MSShapeGroup" class="st3" d="M74.3,71.7c-0.4-0.2-0.8-0.3-1.4-0.3c-0.6,0-1.2,0.2-1.8,0.5
			c-0.6,0.3-1.2,0.7-1.8,1.3v9h-3.4V68.3h3.4v2c0.6-0.6,1.2-1.2,1.9-1.6s1.4-0.6,2.3-0.6c0.7,0,1.2,0.1,1.5,0.3L74.3,71.7z
			 M79.3,76.2c0.1,1.2,0.4,2.1,0.9,2.7s1.4,0.8,2.5,0.8c0.7,0,1.3-0.1,1.8-0.3c0.5-0.2,1-0.5,1.3-1l2.5,1.8
			c-0.6,0.8-1.3,1.4-2.2,1.8s-2.1,0.6-3.6,0.6c-2.3,0-4-0.6-5.1-1.8c-1.1-1.2-1.7-3-1.7-5.4c0-5,2.2-7.5,6.7-7.5
			c2,0,3.5,0.6,4.5,1.7c1,1.1,1.6,2.7,1.6,4.9v1.7H79.3z M85.1,73.8c0-2.1-0.9-3.2-2.8-3.2c-0.6,0-1.1,0.1-1.5,0.3
			c-0.4,0.2-0.7,0.5-0.9,0.9c-0.2,0.4-0.4,1.1-0.6,1.9H85.1z M99.8,82.3v-1.4c-1.4,1.2-2.8,1.9-4.3,1.9c-1.5,0-2.7-0.4-3.5-1.2
			c-0.8-0.8-1.2-1.8-1.2-3.1c0-1,0.2-1.8,0.6-2.5s1-1.2,1.8-1.5c0.8-0.4,1.9-0.6,3.4-0.8l2.9-0.3v-0.6c0-0.8-0.2-1.3-0.7-1.6
			c-0.5-0.3-1.2-0.4-2.1-0.4c-0.7,0-1.4,0.1-1.9,0.4c-0.5,0.2-0.9,0.6-1.2,1.1L91,70.4c0.5-0.8,1.2-1.4,2.2-1.8s2.2-0.6,3.6-0.6
			c2.2,0,3.7,0.4,4.7,1.1s1.4,2,1.4,3.7v9.5H99.8z M99.6,75.8L97.8,76c-1.2,0.1-2.1,0.3-2.7,0.7c-0.5,0.4-0.8,0.9-0.8,1.6
			c0,0.6,0.2,1.1,0.5,1.3c0.4,0.2,0.8,0.4,1.4,0.4c0.4,0,0.9-0.1,1.5-0.4s1.2-0.6,1.8-1.1V75.8z M115.9,82.3v-1.4
			c-0.6,0.5-1.3,1-2,1.3c-0.7,0.3-1.5,0.5-2.4,0.5c-1.7,0-3.1-0.6-4-1.9c-0.9-1.3-1.4-3-1.4-5.4c0-2.4,0.5-4.2,1.5-5.5
			c1-1.3,2.5-2,4.3-2c0.7,0,1.3,0.1,2,0.4c0.7,0.3,1.3,0.6,1.7,1v-6.9h3.4v19.7H115.9z M115.6,72.2c-0.4-0.3-0.8-0.6-1.3-0.9
			c-0.5-0.3-1.1-0.4-1.6-0.4c-0.9,0-1.7,0.4-2.2,1.2c-0.6,0.8-0.8,1.9-0.8,3.2c0,1.3,0.2,2.4,0.7,3.1c0.5,0.8,1.2,1.1,2.1,1.1
			c0.6,0,1.1-0.1,1.7-0.4c0.6-0.3,1.1-0.6,1.5-1V72.2z M121.4,84.1c0.7,0.3,1.4,0.4,2,0.4c0.5,0,1-0.2,1.4-0.5
			c0.4-0.3,0.8-1,1.2-1.9l0.4-0.8l-5-13h3.6l3.3,8.9l3.4-8.9h3.5l-6,14.9c-0.5,1.2-1,2.1-1.4,2.7s-1,1-1.6,1.2s-1.4,0.4-2.3,0.4
			c-1,0-2-0.1-3-0.4L121.4,84.1z M150.2,75.2c0,2.3-0.5,4.1-1.5,5.5c-1,1.3-2.3,2-4.1,2c-0.7,0-1.5-0.2-2.3-0.5s-1.5-0.7-2-1.2
			l-0.5,1.3h-2.6V62.5h3.4v6.9c1.3-1,2.6-1.5,4.2-1.5c1.9,0,3.2,0.6,4.1,1.9C149.8,71.2,150.2,72.9,150.2,75.2L150.2,75.2z
			 M146.7,75.3c0-1.4-0.2-2.5-0.7-3.2c-0.5-0.7-1.2-1.1-2.2-1.1c-0.6,0-1.1,0.1-1.7,0.4c-0.6,0.3-1.1,0.6-1.5,1v6.1
			c0.4,0.3,0.8,0.6,1.4,0.9c0.5,0.3,1.1,0.4,1.6,0.4c1,0,1.7-0.4,2.3-1.1C146.4,77.8,146.7,76.7,146.7,75.3L146.7,75.3z M166,75.3
			c0,2.3-0.5,4.1-1.6,5.4c-1.1,1.3-2.8,1.9-5.1,1.9c-4.5,0-6.7-2.4-6.7-7.3c0-2.4,0.5-4.2,1.6-5.5c1.1-1.3,2.8-1.9,5.1-1.9
			c2.3,0,4,0.6,5.1,1.9C165.5,71.2,166,73,166,75.3L166,75.3z M162.5,75.3c0-1.5-0.2-2.6-0.7-3.3s-1.3-1.1-2.4-1.1
			c-1.1,0-1.9,0.4-2.4,1.1c-0.5,0.7-0.7,1.8-0.7,3.3c0,1.5,0.2,2.6,0.7,3.3c0.5,0.7,1.3,1.1,2.4,1.1c1.1,0,1.9-0.3,2.4-1
			C162.2,77.9,162.5,76.8,162.5,75.3L162.5,75.3z M176.7,82.3l-2.8-4.4l-2.9,4.4h-3.8l4.8-6.9l-4.7-7h4l2.8,4.4l2.9-4.4h3.8
			l-4.8,6.9l4.8,7.1H176.7z"/>
	</g>
</g>
</svg>
