<?xml version="1.0" encoding="utf-8"?>
<!-- Generator: Adobe Illustrator 21.0.2, SVG Export Plug-In . SVG Version: 6.00 Build 0)  -->
<svg version="1.1" id="Layer_1" xmlns="http://www.w3.org/2000/svg" xmlns:xlink="http://www.w3.org/1999/xlink" x="0px" y="0px"
	 viewBox="0 0 200 150" style="enable-background:new 0 0 200 150;" xml:space="preserve">
<style type="text/css">
	.st0{clip-path:url(#SVGID_2_);}
	.st1{fill:#EC1E27;}
	.st2{fill:#FFFFFF;}
	.st3{fill:#37373B;}
	.st4{fill:#2DA14B;}
	.st5{fill:#00ADEE;}
	.st6{fill:#FFDC1A;}
	.st7{fill:#E64D3C;}
	.st8{fill:#009955;}
	.st9{fill:#EFB41D;}
	.st10{fill:#4D75B9;}
	.st11{enable-background:new    ;}
</style>
<title>Type_Light</title>
<g>
	<g>
		<defs>
			<path id="SVGID_1_" d="M51.5,89c-0.5-0.7-1.3-1.1-2.1-1.2c-0.8-0.1-1.7,0.1-2.3,0.6c-1.8,1.4-3.5,2-5.2,2.1
				c-1.6,0-3.5-0.6-5.8-1.8C46.5,84.9,51.9,73.4,48,63c-1.6-4.3-4.6-7.9-8.6-10.3c-2.8-1.9-6-2.8-9.6-2.8c-0.1,0-0.1,0-0.2,0
				c-0.1,0-0.3,0-0.4,0c-11.1,0-20.1,9-20.1,20.1c0,8.1,4.9,15.4,12.3,18.5c-0.5,0.4-0.9,0.9-1.1,1.6c-0.3,0.9-0.2,2.4,1.4,3.6
				c0.9,0.8,2,0.8,3.1,0.2c0.5-0.2,1-0.4,1.5-0.6c0.9-0.2,1.8-0.4,2.7-0.4c1,0,2,0.3,2.9,0.8c3.6,2.2,6.9,3.2,9.9,3.2H42
				c3,0,6-1.1,8.9-3.4c0.7-0.6,1.1-1.3,1.2-2.2C52.3,90.5,52.1,89.7,51.5,89z"/>
		</defs>
		<clipPath id="SVGID_2_">
			<use xlink:href="#SVGID_1_"  style="overflow:visible;"/>
		</clipPath>
		<g class="st0">
			<path class="st1" d="M5.3,76.3l1.1-1.4c0,0.1,0,0.3,0,0.4c0,8.7,0,17.4,0,26c-0.1,0-0.2,0-0.3,0c-0.3,0-0.4-0.1-0.4-0.4
				c-0.1-4.3-0.2-8.5-0.3-12.8c-0.1-3.5-0.2-6.9-0.3-10.4c0-0.1,0.1-0.3-0.1-0.3v-0.9C5.3,76.5,5.3,76.4,5.3,76.3z"/>
			<path class="st2" d="M5.3,76.3c0,0.1,0,0.3-0.2,0.3v-7c0.2,0.1,0.1,0.3,0.1,0.5C5.2,72.1,5.3,74.2,5.3,76.3z"/>
			<path class="st3" d="M6.5,101.4c0-8.7,0-17.4,0-26c0-0.1,0-0.3,0-0.4l0-0.1c0.9-1,1.8-1.9,2.7-2.8l0.1,0c2.1,2.5,4.6,4.5,7.7,5.6
				c3.9,1.4,7.5,0.9,11-1.3c0.9-0.6,1.7-1.2,2.6-1.9c0.1,0.1,0.2,0.1,0.3,0.2c1.8,1.5,3.6,3,5.5,4.3c4,2.6,8.2,3,12.7,1.3
				c3.1-1.2,5.7-3.2,7.8-5.6c0.6-0.7,1.2-1.5,1.8-2.3c0,9.7,0,19.4,0,29.2c-0.1,0-0.3,0-0.4,0H6.9C6.8,101.4,6.6,101.4,6.5,101.4z"
				/>
			<path class="st4" d="M58.6,72.2c-0.6,0.8-1.2,1.6-1.8,2.3c-2.2,2.5-4.7,4.5-7.8,5.6c-4.4,1.7-8.7,1.2-12.7-1.3
				c-2-1.3-3.8-2.8-5.5-4.3c-0.1-0.1-0.2-0.1-0.3-0.2c0,0,0,0,0-0.1c1.6-1.3,3-2.7,4.4-4.1H35c1.4,1.4,2.9,2.6,4.7,3.4
				c1,0.5,2.2,0.8,3.3,0.9c3.1,0.2,5.7-0.9,8.2-2.7c1.6-1.2,3-2.7,4.3-4.2c1.2,1.1,2.2,2.3,3.1,3.6l0.1,0.2L58.6,72.2z"/>
			<path class="st5" d="M58.6,72.2l0-1c0.4,0.5,0.8,1.1,1.1,1.7c0.1,0.2,0.1,0.4,0.1,0.7c-0.1,2.7-0.1,5.4-0.2,8
				c-0.1,3.6-0.1,7.3-0.2,10.9c-0.1,2.7-0.1,5.5-0.2,8.2c0,0.7,0,0.7-0.7,0.7C58.6,91.6,58.6,81.9,58.6,72.2z"/>
			<path class="st6" d="M55.5,67.5C55.5,67.5,55.5,67.4,55.5,67.5c1.1-1.4,2-2.8,2.8-4.3c0.1-0.2,0.2-0.4,0.4-0.6c0,0.2,0,0.3,0,0.5
				c0,2.5,0,5,0,7.5c0,0.2,0,0.4,0,0.5C57.6,69.8,56.7,68.6,55.5,67.5z"/>
			<path class="st7" d="M30.5,74.2C30.5,74.2,30.5,74.3,30.5,74.2c-0.8,0.7-1.7,1.4-2.6,2c-3.4,2.3-7.1,2.7-11,1.3
				c-3.1-1.1-5.7-3.1-7.8-5.6c3-2.7,6.4-4.4,10.5-4.1c1.4,0.1,2.6,0.6,3.8,1.2c2.4,1.2,4.4,3,6.4,4.7C30.1,73.9,30.3,74.1,30.5,74.2
				z"/>
			<path class="st8" d="M9.2,71.9c-1,0.9-1.9,1.8-2.7,2.8c0-2.2,0-4.3,0-6.7C7.3,69.5,8.2,70.7,9.2,71.9z"/>
		</g>
	</g>
	<path class="st9" d="M9.2,71.9c0,0-0.2-3.6,0.6-7.3c0.6-2.4,1.4-4.4,3.4-6.1c3.5-3.1,6.9-2.7,9.9-1C25.4,58.8,35,70.1,35,70.1
		s-1.6,1.6-2.1,2.1c-0.6,0.6-2.4,2.2-2.4,2.2s-5.9-5.8-11.4-6C13.6,68.2,9.2,71.9,9.2,71.9z"/>
	<path class="st10" d="M35,70.1c0,0,2.5,3.5,7.3,4.3s6.7-1.3,6.7-1.3s0.7-7.9-1.2-9.5c-2.3-2-6.9,1.2-8.4,2.4
		C38,67.2,35,70.1,35,70.1z"/>
	<g class="st11">
		<path class="st3" d="M73.8,89.1v-4.1c-1,1.4-2.3,2.6-3.9,3.4c-1.6,0.8-3.3,1.3-5.1,1.3c-1.8,0-3.5-0.4-4.9-1.2
			c-1.4-0.8-2.5-1.9-3.1-3.4c-0.6-1.4-1-3.4-1-6V62H63v12.5c0,3.8,0.1,6.1,0.4,7c0.3,0.9,0.7,1.5,1.4,2c0.7,0.5,1.6,0.8,2.7,0.8
			c1.2,0,2.3-0.3,3.3-1c1-0.7,1.6-1.5,2-2.5c0.4-1,0.5-3.4,0.5-7.3V62h7.2v27.1H73.8z"/>
		<path class="st3" d="M93.3,70.3l-6.5-1.2c0.7-2.6,2-4.6,3.8-5.8c1.8-1.3,4.4-1.9,8-1.9c3.2,0,5.6,0.4,7.1,1.1
			c1.6,0.8,2.7,1.7,3.3,2.9c0.6,1.2,1,3.3,1,6.4l-0.1,8.4c0,2.4,0.1,4.1,0.3,5.3c0.2,1.1,0.7,2.3,1.3,3.6h-7.1
			c-0.2-0.5-0.4-1.2-0.7-2.1c-0.1-0.4-0.2-0.7-0.3-0.8c-1.2,1.2-2.5,2.1-3.9,2.7c-1.4,0.6-2.9,0.9-4.5,0.9c-2.8,0-5-0.8-6.6-2.3
			C86.8,86,86,84.1,86,81.7c0-1.5,0.4-2.9,1.1-4.1c0.7-1.2,1.8-2.1,3.1-2.8c1.3-0.6,3.2-1.2,5.7-1.7c3.4-0.6,5.7-1.2,7-1.8v-0.7
			c0-1.4-0.3-2.4-1-2.9c-0.7-0.6-2-0.9-3.9-0.9c-1.3,0-2.3,0.3-3,0.8C94.3,68.2,93.7,69,93.3,70.3z M102.9,76.1
			c-0.9,0.3-2.4,0.7-4.4,1.1c-2,0.4-3.3,0.8-3.9,1.3c-0.9,0.7-1.4,1.5-1.4,2.5c0,1,0.4,1.9,1.1,2.6c0.7,0.7,1.7,1.1,2.9,1.1
			c1.3,0,2.5-0.4,3.7-1.3c0.9-0.6,1.4-1.4,1.7-2.4c0.2-0.6,0.3-1.8,0.3-3.5V76.1z"/>
		<path class="st3" d="M123.8,89.1h-7.2V62h6.7v3.9c1.1-1.8,2.2-3,3.1-3.6c0.9-0.6,1.9-0.9,3.1-0.9c1.6,0,3.2,0.5,4.7,1.4L132,69
			c-1.2-0.8-2.3-1.2-3.4-1.2c-1,0-1.9,0.3-2.6,0.8c-0.7,0.6-1.2,1.6-1.6,3c-0.4,1.4-0.6,4.5-0.6,9.1V89.1z"/>
		<path class="st3" d="M137.1,89.1V51.7h7.2v19.9l8.4-9.5h8.8l-9.3,9.9l9.9,17.2h-7.7L147.6,77l-3.3,3.5v8.7H137.1z"/>
		<path class="st3" d="M163,62h7.6l6.5,19.2l6.3-19.2h7.4l-9.6,26.1l-1.7,4.7c-0.6,1.6-1.2,2.8-1.8,3.6c-0.6,0.8-1.2,1.5-2,2
			c-0.7,0.5-1.7,0.9-2.7,1.2c-1.1,0.3-2.3,0.4-3.7,0.4c-1.4,0-2.7-0.1-4.1-0.4l-0.6-5.6c1.1,0.2,2.1,0.3,3,0.3
			c1.7,0,2.9-0.5,3.7-1.5c0.8-1,1.4-2.2,1.8-3.7L163,62z"/>
	</g>
</g>
</svg>
