<?xml version="1.0" encoding="utf-8"?>
<!-- Generator: Adobe Illustrator 24.0.0, SVG Export Plug-In . SVG Version: 6.00 Build 0)  -->
<svg version="1.1" id="Layer_1" xmlns="http://www.w3.org/2000/svg" xmlns:xlink="http://www.w3.org/1999/xlink" x="0px" y="0px"
	 viewBox="0 0 200 150" style="enable-background:new 0 0 200 150;" xml:space="preserve">
<g id="Layer_2">
	<path d="M36.6,133.7v12.5h5.1v-24.9h-5.1V133.7z"/>
	<path d="M64.5,25.4v23.4h9v-9.3h8.8v-9.4h8.9v-9.4h-8.9v-9.4h-8.8V2h-9V25.4z"/>
	<path d="M99.9,16v4.8h35.3v65.3H64.6V58h-8.9v37.4h88.4V11.3H99.9V16z"/>
	<path d="M37.9,111.2c-1,0.4-1.7,1.4-1.7,2.6c-0.1,1.4,0.5,2.8,1.6,3.3c0.8,0.4,2,0.4,2.9-0.1c1.4-0.8,1.9-2.7,1.2-4.4
		C41.2,111.2,39.4,110.6,37.9,111.2z"/>
	<path d="M11.5,129.8v16.3h5.3v-13.4h14v-5h-14v-9.3h15.5v-5H11.5V129.8z"/>
	<path d="M128.4,113.8c-0.2,0.5-13,31.1-13.3,31.8l-0.2,0.5l2.8,0l2.8,0l1.5-3.6l1.5-3.6l7.7,0l7.8,0l1.5,3.7l1.5,3.7h5.7l-6.8-16.3
		l-6.8-16.3h-5.5L128.4,113.8z M134,126.9l2.8,7h-5.7c-3.2,0-5.7,0-5.7-0.1c0-0.1,5.6-13.9,5.7-14.1c0-0.1,0.1-0.1,0.1,0
		C131.2,119.8,132.5,123,134,126.9z"/>
	<path d="M88.3,118.8v3.4H85v4h3.3v7.1c0,7.7,0,8.1,0.7,9.5c0.7,1.5,1.9,2.6,3.4,3.2c0.7,0.3,1,0.3,2.5,0.3c1.4,0,1.9-0.1,2.7-0.3
		c0.8-0.3,2.6-1,3-1.4c0.1-0.1,0-0.5-0.5-2.1c-0.3-1.1-0.7-2-0.7-2.1c0-0.1-0.4,0.1-0.9,0.3c-0.6,0.2-1.1,0.4-1.7,0.6
		c-1.6,0.3-2.7-0.1-3.2-1.2c-0.2-0.5-0.2-1-0.3-7.2l0-6.7h7v-4h-7v-6.9h-5.1L88.3,118.8z"/>
	<path d="M175.9,118.8v3.4h-3.3v4h3.3l0,7.3c0,6.5,0.1,7.4,0.2,8.1c0.6,2.3,1.9,3.7,4.1,4.5c0.5,0.2,1,0.2,2.4,0.2
		c1.5,0,1.8-0.1,2.8-0.4c1.1-0.4,2.8-1.2,2.9-1.4c0-0.1-1.1-4-1.2-4.1c0,0-0.4,0.1-0.9,0.4c-2.1,0.9-3.6,0.9-4.5,0
		c-0.6-0.7-0.6-0.9-0.6-7.9v-6.6h6.9v-4h-6.9v-6.9h-5.2V118.8z"/>
	<path d="M72,121.1c-3.8,0.5-6.4,2.5-7,5.6c-0.2,0.9-0.1,3,0.2,3.8c0.5,1.5,1.7,2.9,3.4,3.8c0.9,0.5,1.5,0.7,4.6,1.8
		c1.8,0.6,2.6,1,3.1,1.5c1.2,1.2,1,3-0.5,3.8c-2.3,1.2-7.2,0.2-9.8-2.1c-0.2-0.2-0.4-0.3-0.6-0.4c-0.1,0-1.8,3.7-1.8,3.9
		s1.2,1.1,2.1,1.6c2.4,1.4,5.9,2.1,8.7,1.8c1.7-0.2,2.8-0.5,4-1.1c1.7-0.9,2.8-2.1,3.4-3.8c0.3-0.9,0.4-2.9,0.2-4.1
		c-0.5-2.8-2.5-4.5-6.6-5.9c-3.6-1.2-4.6-1.7-5.3-2.5c-0.6-0.8-0.5-2,0.2-2.7c1.4-1.4,5.2-1,8.6,0.8c0.3,0.2,0.6,0.3,0.9,0.5
		c0.2-0.2,1.8-4,1.8-4.1c-0.2-0.2-2-1.1-2.8-1.5C77,121.3,74.1,120.9,72,121.1L72,121.1z"/>
	<path d="M60,121.4c-1.5,0.3-2.9,1.2-4,2.3c-0.5,0.5-0.9,1.1-1.3,1.7l-0.4,0.7v-4.8h-5.1v24.9h5.1l0-6.9l0-6.9l0.3-1
		c0.5-1.3,1-2.3,1.9-3.1c1.1-1.1,3-2,4.3-2c0.3,0,0.7,0,1-0.1l0.5-0.1v-5.1l-0.7,0C61.1,121.2,60.6,121.2,60,121.4L60,121.4z"/>
	<path d="M156.7,121.4c-3.7,0.9-6.2,3.1-7.8,6.5c-1.8,4.1-1.4,9.7,0.8,13.3c0.7,1.1,1.9,2.4,2.8,3s2.7,1.5,3.6,1.7
		c2.7,0.7,6.5,0.5,9-0.6c1.3-0.6,2.5-1.4,3.6-2.4c0.5-0.6,1-1.1,1-1.2c0-0.1-0.6-0.8-1.4-1.6l-1.4-1.5l-0.6,0.6
		c-1.3,1.2-2.6,1.9-4.3,2.2c-3.6,0.7-6.6-0.6-8-3.5c-0.7-1.4-0.9-2.4-0.9-4.2c0-2.3,0.6-4.1,1.8-5.5c1.4-1.7,3.4-2.5,5.8-2.3
		c2.1,0.2,3.7,0.8,5.3,2.1c0.6,0.6,0.8,0.6,0.9,0.5c0.3-0.3,2.6-3.2,2.6-3.3c0-0.2-1.3-1.4-2.1-2c-2.2-1.4-4.5-2.1-7.6-2.1
		C158.3,121.1,157.7,121.2,156.7,121.4L156.7,121.4z"/>
</g>
</svg>
