<?xml version="1.0" encoding="utf-8"?>
<!-- Generator: Adobe Illustrator 18.1.1, SVG Export Plug-In . SVG Version: 6.00 Build 0)  -->
<svg version="1.1" id="Layer_1" xmlns="http://www.w3.org/2000/svg" xmlns:xlink="http://www.w3.org/1999/xlink" x="0px" y="0px"
	 viewBox="0 0 200 150" enable-background="new 0 0 200 150" xml:space="preserve">
<g>
	<g>
		<path d="M22.4,93.4v-2.7l1.1-0.1c0.6-0.1,1-0.3,1-0.9V73.9l-1.9-0.1v-2.9H38v5.6l-3.4,0.2v-1.3c0-0.6-0.1-1-1-1h-5v5.8h7.8v3.4
			h-7.8v6.3H34c0.9,0,0.9-0.4,0.9-1.1v-1.7l3.4,0.2v6H22.4z"/>
		<path d="M53.7,88.5h0.2l4.7-14.6l-2.1-0.1v-2.9h7.8v2.7l-1.1,0.1c-0.6,0.1-0.8,0.3-1,1l-6.4,18.6h-4.4l-6.9-19.5l-1.9-0.1v-2.9
			h8.7v2.7l-1.1,0.1c-0.7,0.1-1.2,0.4-1,1.2L53.7,88.5z"/>
		<path d="M69,93.4v-2.7l1.1-0.1c0.6-0.1,1-0.3,1-0.9V73.9l-1.9-0.1v-2.9h15.4v5.6l-3.4,0.2v-1.3c0-0.6-0.1-1-1-1h-5v5.8H83v3.4
			h-7.8v6.3h5.4c0.9,0,0.9-0.4,0.9-1.1v-1.7l3.4,0.2v6H69z"/>
		<path d="M90.8,90.6l1.1-0.1c0.6-0.1,1-0.3,1-0.9V73.9L91,73.8v-2.9h9.2c5,0,8.1,1.6,8.1,6.2c0,3.4-2.2,5.2-4,5.9
			c0.9,0.3,1.4,0.9,1.9,2.1l2.4,5.3l1.9,0.1v2.9h-8.3v-2.7l1-0.1c0.8-0.1,0.9-0.4,0.6-1.1l-1.6-3.4c-0.5-1-0.9-1.6-2.1-1.6H97v5.9
			l2.2,0.1v2.9h-8.4V90.6z M100,81.3c2.9,0,4.1-1.3,4.1-3.7c0-3-1.8-3.4-4.6-3.4H97v7.1H100z"/>
		<path d="M115.4,93.4v-2.7l1.1-0.1c0.6-0.1,1-0.3,1-0.9V73.9l-1.9-0.1v-2.9H131v5.6l-3.4,0.2v-1.3c0-0.6-0.1-1-1-1h-5v5.8h7.8v3.4
			h-7.8v6.3h5.4c0.9,0,0.9-0.4,0.9-1.1v-1.7l3.4,0.2v6H115.4z"/>
		<path d="M148.3,87.1c0-2.1-1.9-2.7-4.3-3.4c-3.3-0.9-6.4-2.3-6.4-6.6c0-4.1,3.2-6.6,7.8-6.6c2.2,0,4.3,0.4,6.3,1.4V77l-3.4,0.2v-2
			c0-0.6-0.1-0.9-0.7-1.1c-0.6-0.2-1.5-0.3-2.2-0.3c-2,0-3.5,0.8-3.5,2.9c0,2.1,2,2.7,4.5,3.4c3.1,1,6.3,2.4,6.3,6.7
			c0,4.5-3.5,6.9-8.2,6.9c-2.7,0-4.8-0.4-6.8-1.4v-5.3l3.4-0.2v2.1c0,0.6,0.1,0.9,0.7,1.1c0.6,0.2,1.5,0.3,2.4,0.3
			C146.5,90.3,148.3,89.6,148.3,87.1z"/>
		<path d="M164.5,74.3h-2.6c-0.7,0-0.8,0.5-0.8,1v1.6l-3.4-0.2v-5.7h17.6v5.7l-3.4,0.2v-1.6c0-0.6-0.1-1-1-1h-2.3v16.1l2.7,0.1v2.9
			h-9.5v-2.7l1.8-0.1c0.6-0.1,1-0.3,1-0.9V74.3z"/>
	</g>
	<g>
		<path d="M178.2,70.7h1.5l0,0.1h-0.7v2.2h-0.1v-2.2h-0.7V70.7z"/>
		<path d="M181.5,71.1l-0.6,1.1l-0.1,0l-0.6-1.1v2h-0.1v-2.4h0.1l0.7,1.3l0.7-1.3h0.1v2.4h-0.1V71.1z"/>
	</g>
	<g>
		<g>
			<path d="M72.5,62.6l-0.1-1.7c0.1,0,9.6-0.9,15.7-8.7l0.7-0.9l3.7,5.2l-1.4,1l-2.4-3.4C82.1,61.7,72.9,62.6,72.5,62.6z"/>
		</g>
		<g>
			<path fill="none" stroke="#000000" stroke-width="2" stroke-miterlimit="10" d="M108.1,59.8"/>
		</g>
		<g>
			<path d="M127.8,62.6c-0.4,0-9.6-0.9-16.2-8.5l-2.4,3.4l-1.4-1l3.7-5.2l0.7,0.9c6.1,7.8,15.6,8.7,15.7,8.7L127.8,62.6z"/>
		</g>
		<g>
			<rect x="93.7" y="46.3" transform="matrix(0.7071 0.7071 -0.7071 0.7071 66.5451 -50.7609)" width="1.7" height="17.3"/>
		</g>
		<g>
			<rect x="97" y="54.1" transform="matrix(0.7071 0.7071 -0.7071 0.7071 69.8323 -58.5852)" width="17.3" height="1.7"/>
		</g>
		<g>
			<path d="M99.9,55.8c-3.4,0-5-1.9-5.1-1.9l1.3-1.1l-0.6,0.6l0.6-0.6c0,0.1,1.2,1.4,3.8,1.4c2.6,0,3.8-1.3,3.8-1.3l1.3,1.1
				C104.9,53.9,103.3,55.8,99.9,55.8z"/>
		</g>
	</g>
</g>
</svg>
