<?xml version="1.0" encoding="utf-8"?>
<!-- Generator: Adobe Illustrator 21.0.2, SVG Export Plug-In . SVG Version: 6.00 Build 0)  -->
<svg version="1.1" id="Layer_1" xmlns="http://www.w3.org/2000/svg" xmlns:xlink="http://www.w3.org/1999/xlink" x="0px" y="0px"
	 viewBox="0 0 200 150" style="enable-background:new 0 0 200 150;" xml:space="preserve">
<style type="text/css">
	.st0{fill-rule:evenodd;clip-rule:evenodd;fill:url(#SVGID_1_);}
</style>
<g>
	<linearGradient id="SVGID_1_" gradientUnits="userSpaceOnUse" x1="65.0331" y1="38.3374" x2="150.2848" y2="123.5892">
		<stop  offset="3.425180e-03" style="stop-color:#B24592"/>
		<stop  offset="0.5604" style="stop-color:#D85583"/>
		<stop  offset="1" style="stop-color:#F15F79"/>
	</linearGradient>
	<path class="st0" d="M76.9,77.2c-2.3,0.5-4.6,0.9-6.9,1.4c-3,0.6-6,1-9,0.8c-0.4,0-0.8,0-1.1-0.1c-1.9-0.4-2.1-1.1-1.4-2.9
		c0.8-1.9,1.5-3.8,2-5.8c1.3-5.7,4.8-9.2,10-11.3c1.7-0.6,3.3-1.3,4.9-2c3.9-1.7,7.2-4.2,9.9-7.6c2.1-2.7,4.9-4.4,8.1-5.3
		c1.7-0.5,1.7-0.5,0.7-2c-2.5-3.8-5-7.6-7.4-11.4c-1.5-2.3-2.7-4.8-3.3-7.6c-0.2-0.7-0.2-1.4-0.2-2.1c0-1.5,0.9-2.2,2.3-1.7
		c1,0.4,2.1,0.9,2.9,1.7c2.3,2.4,4.6,4.8,6.7,7.4c2.2,2.7,4.1,5.6,6,8.5c0.5,0.7,1.1,1.2,1.9,1.4c0.9,0.2,1.8,0.7,2.7,1
		c0.4,0.1,0.8,0.1,1.2,0.2c0-0.4,0.1-0.8,0-1.2c-0.8-3-1.7-6-2.5-9.1c-0.9-3.4-1.7-6.8-1.5-10.4c0.1-1,0.3-1.9,0.6-2.9
		c0.4-1,1.3-1.4,2.2-0.8c0.9,0.6,1.7,1.3,2.3,2.1c1.9,2.6,3.1,5.6,4.1,8.7c1.7,5.7,3.3,11.5,5,17.2c0.2,0.5,0.3,1.1,0.6,1.6
		c5.2,7.6,18.1,39.4,16.5,43.3c-0.5,0.9-1.1,0.8-1.5,1.3c-0.6,1.2,9.4,21.8,8.7,27.1c-0.1,0.7-1.6,1.3-1.8,1.8
		c-0.3,1.4,2.8,12.2,2.3,13.6c-0.5,1.4-3.8,1.4-4.8,1.4c-15.5,0-15.8,1.7-26.3,1.7c-10.5,0-15.8-2-16.1-3.2c-0.8-4-3-19.2-3.5-20.1
		c-0.5-0.9-0.5,0.5-2-1.2c-1.5-1.7-1.1-14.4,0.7-27.1c0.1-0.7,0.2-1-0.6-1.1c-4.8-0.1-4.5-0.2-9.1,1.3c-2.8,0.9-5,2.5-6.6,5
		c-0.2,0.3-0.4,0.6-0.6,0.9c-0.8,1.1-1.8,1.5-3.1,1c-1.3-0.5-2.6-1-3.9-1.6c-1.9-1-3.8-2.2-5.7-3.3c-1.1-0.6-1.1-1,0-1.7
		c1.6-1,3.2-1.9,4.9-2.6c3.2-1.2,6.5-2.3,9.7-3.4C75.7,77.7,76.3,77.4,76.9,77.2c0.1,0,0.2-0.1,0.2-0.1c0,0-0.1,0-0.1,0
		C77,77.1,77,77.2,76.9,77.2z"/>
</g>
<g>
</g>
<g>
</g>
<g>
</g>
<g>
</g>
<g>
</g>
<g>
</g>
<g>
</g>
<g>
</g>
<g>
</g>
<g>
</g>
<g>
</g>
<g>
</g>
<g>
</g>
<g>
</g>
<g>
</g>
</svg>
