<?xml version="1.0" standalone="no"?>
<!DOCTYPE svg PUBLIC "-//W3C//DTD SVG 20010904//EN"
 "http://www.w3.org/TR/2001/REC-SVG-20010904/DTD/svg10.dtd">
<svg version="1.0" xmlns="http://www.w3.org/2000/svg"
 width="400.000000pt" height="400.000000pt" viewBox="0 0 400.000000 400.000000"
 preserveAspectRatio="xMidYMid meet">
<metadata>
Created by potrace 1.11, written by Peter Selinger 2001-2013
</metadata>
<g transform="translate(0.000000,400.000000) scale(0.100000,-0.100000)"
fill="#000000" stroke="none">
<path d="M1498 2803 c-8 -10 -50 -86 -92 -170 -103 -201 -91 -187 -157 -175
-125 24 -217 36 -269 36 -57 -1 -72 -3 -230 -35 -52 -11 -111 -22 -130 -25
-19 -3 -43 -7 -52 -10 -10 -3 -30 -7 -45 -10 -186 -31 -252 -51 -253 -76 0 -4
40 -55 88 -115 77 -95 185 -237 205 -269 4 -6 -5 -51 -19 -100 -14 -49 -28
-96 -30 -104 -2 -8 -22 -66 -44 -129 -22 -63 -40 -120 -40 -128 0 -28 34 -24
118 15 48 22 123 57 167 77 44 21 127 60 185 87 129 62 259 118 271 118 8 0 5
-63 -6 -120 -3 -13 -14 -88 -25 -165 -12 -77 -23 -151 -26 -165 -2 -14 -7 -50
-10 -81 -7 -67 5 -77 64 -54 103 39 491 175 500 175 10 0 214 -139 281 -191
22 -18 47 -19 333 -19 l309 0 82 65 c45 36 202 161 349 278 l267 212 221 269
c121 147 219 273 217 279 -9 29 -38 27 -234 -16 l-202 -44 -138 43 c-95 28
-169 59 -233 95 -52 29 -116 64 -142 78 l-48 26 -41 130 c-23 72 -45 135 -50
141 -7 9 -108 28 -206 40 -12 1 -34 5 -50 8 -15 3 -48 8 -74 11 -49 7 -45 9
-228 -143 -64 -53 -67 -55 -156 -59 l-80 -4 -160 120 c-88 66 -163 121 -166
121 -3 0 -13 -8 -21 -17z m256 -242 c-7 -7 -364 -99 -364 -94 0 3 125 246 136
265 3 4 56 -32 120 -79 63 -47 112 -89 108 -92z m687 144 c13 -3 44 -8 69 -11
25 -3 47 -8 48 -9 2 -2 -47 -75 -110 -163 -62 -88 -114 -160 -114 -159 -3 3
-12 121 -20 246 l-7 113 55 -6 c31 -4 66 -9 79 -11z m-188 -85 c4 -41 9 -118
13 -170 l6 -95 -101 99 c-55 55 -99 101 -98 102 26 24 172 142 173 141 1 -1 4
-36 7 -77z m391 -97 l23 -71 -131 -55 c-72 -30 -132 -53 -134 -52 -2 2 43 68
100 147 89 126 104 142 111 124 5 -12 19 -53 31 -93z m-653 -7 c4 -4 5 -25 4
-45 -2 -20 -4 -87 -5 -149 -1 -63 -4 -112 -6 -109 -3 3 -27 72 -54 154 l-49
148 42 6 c53 6 61 6 68 -5z m-25 -463 c-2 -3 -229 -11 -471 -18 -178 -5 -198
-4 -181 9 10 8 33 28 50 43 17 15 65 57 106 93 41 36 77 67 80 70 3 3 25 23
50 45 122 107 177 155 200 173 l25 21 72 -217 c39 -119 71 -218 69 -219z
m-256 424 c0 -4 -275 -249 -342 -305 l-27 -23 5 63 c10 147 13 180 16 182 6 3
324 84 336 85 6 0 12 -1 12 -2z m424 -73 c6 -6 37 -38 69 -71 l59 -60 -94 -78
c-51 -43 -100 -85 -109 -92 -15 -13 -16 -7 -14 64 2 43 4 131 5 196 l2 119 36
-34 c20 -18 41 -38 46 -44z m-1380 -188 c-81 -113 -150 -206 -154 -206 -3 0
-13 12 -22 28 -9 15 -62 83 -116 152 -82 102 -97 126 -84 132 15 6 365 75 472
93 19 3 36 8 39 11 2 2 6 2 8 0 2 -2 -62 -97 -143 -210z m399 197 c21 -3 46
-6 55 -8 9 -2 26 -4 37 -4 44 -2 45 -12 16 -114 -16 -54 -30 -101 -30 -105
-10 -48 -25 -92 -30 -92 -6 0 -72 131 -153 304 l-18 39 42 -7 c24 -4 60 -10
81 -13z m-88 -194 c53 -105 95 -193 93 -195 -4 -4 -176 -17 -387 -30 l-104 -6
49 69 c27 38 94 133 149 211 55 78 101 142 102 142 1 0 46 -86 98 -191z m1529
5 c-31 -82 -60 -152 -64 -157 -3 -4 -38 30 -76 75 -38 46 -75 89 -82 97 -7 7
-11 15 -8 18 6 7 281 121 284 118 1 -1 -23 -69 -54 -151z m309 -242 c11 -13
-11 -13 -88 2 -11 2 -42 7 -70 10 -107 14 -165 26 -165 32 0 2 4 12 10 22 5 9
28 67 50 127 22 61 48 126 56 146 l16 37 90 -182 c49 -99 95 -187 101 -194z
m20 298 l47 -24 -5 -55 c-3 -31 -7 -65 -9 -76 -3 -11 -5 -32 -5 -47 -1 -16 -4
-28 -9 -28 -6 0 -132 238 -154 292 -5 13 4 11 40 -11 26 -15 68 -38 95 -51z
m245 -91 c23 -6 42 -14 42 -18 0 -7 -195 -161 -204 -161 -4 0 -4 12 -2 28 3
15 8 52 11 82 3 30 8 64 10 75 2 11 4 23 4 27 1 4 22 0 49 -8 26 -8 66 -19 90
-25z m442 24 c0 -2 -35 -46 -77 -97 -43 -51 -112 -134 -153 -184 -41 -51 -76
-92 -78 -92 -2 0 0 62 4 138 4 75 7 147 6 158 -1 19 11 24 136 51 136 29 162
33 162 26z m-1333 -30 c-3 -5 -8 -71 -12 -148 -4 -77 -10 -143 -13 -147 -9 -9
-185 126 -181 138 5 16 183 163 197 164 7 0 11 -3 9 -7z m157 -113 c32 -39 57
-72 55 -74 -2 -2 -33 -23 -67 -47 -35 -24 -72 -50 -83 -58 -17 -12 -19 -11
-20 5 -1 23 3 107 7 149 1 17 3 57 3 90 l1 60 23 -27 c12 -15 48 -59 81 -98z
m811 -102 c-4 -79 -8 -149 -8 -155 0 -7 -3 -13 -6 -13 -15 2 -201 126 -202
135 0 10 199 173 214 174 5 1 6 -63 2 -141z m-1340 13 c-6 -5 -91 -70 -190
-146 l-180 -137 -100 105 c-55 57 -113 118 -129 136 l-30 31 25 -1 c27 -2 413
11 416 14 1 1 46 3 99 5 58 1 94 -2 89 -7z m-717 -63 c3 -36 2 -37 -25 -32
-15 3 -37 7 -48 9 -80 11 -244 39 -241 42 1 2 43 6 92 9 49 4 90 7 91 8 1 1
30 1 64 1 l63 0 4 -37z m946 -28 c47 -36 86 -68 86 -72 0 -6 -202 -118 -215
-118 -3 0 -4 3 -2 8 3 4 8 39 12 77 4 39 9 79 10 90 1 11 3 35 4 53 0 19 5 32
11 30 5 -1 48 -32 94 -68z m594 44 c46 -7 87 -13 90 -12 12 3 92 -14 92 -19 0
-3 -26 -55 -59 -117 -32 -61 -94 -178 -137 -261 -43 -82 -86 -163 -96 -180
l-18 -30 -1 75 c-1 41 -2 89 -4 105 -1 17 -5 95 -9 175 -4 80 -9 177 -12 217
l-6 72 39 -5 c21 -3 76 -12 121 -20z m-762 -41 c-15 -143 -19 -179 -22 -193
-1 -8 -3 -18 -3 -23 -1 -4 -38 -5 -83 -3 -46 2 -118 5 -161 5 -64 1 -76 3 -65
14 18 18 331 257 336 257 2 0 2 -26 -2 -57z m545 25 c0 -7 2 -35 4 -63 5 -71
14 -250 20 -385 5 -114 5 -115 -12 -80 -10 19 -59 120 -109 223 l-91 188 26
20 c57 45 146 108 154 108 4 1 7 -5 8 -11z m-1610 -48 c101 -17 189 -32 194
-34 6 -2 -8 -11 -30 -21 -56 -23 -104 -45 -146 -66 l-35 -18 -95 90 c-52 50
-89 88 -83 85 6 -3 94 -19 195 -36z m439 -58 c0 -7 -75 41 -87 56 -7 8 -10 19
-7 24 5 8 94 -68 94 -80z m-615 -16 c97 -92 99 -95 75 -104 -14 -5 -83 -37
-153 -71 -70 -33 -129 -61 -131 -61 -1 0 14 48 34 108 21 59 43 133 50 165 7
31 16 57 19 57 3 0 51 -43 106 -94z m2448 -33 l38 -24 -88 -69 c-48 -38 -167
-131 -263 -208 -96 -77 -176 -139 -178 -137 -2 1 8 22 21 46 13 24 69 132 125
239 55 107 111 214 123 236 l23 42 81 -51 c44 -27 97 -61 118 -74z m-1819 -35
c56 -33 106 -66 113 -72 9 -8 -4 -28 -54 -81 -36 -38 -104 -112 -151 -162 -47
-51 -87 -92 -88 -90 -1 1 1 22 6 47 5 25 11 70 15 100 4 30 11 74 16 97 5 24
8 46 7 50 -1 7 6 55 17 118 2 11 4 28 4 38 1 9 4 17 7 17 4 0 52 -28 108 -62z
m1000 -130 c46 -95 95 -197 110 -227 14 -30 26 -59 26 -63 0 -5 -33 16 -72 45
-40 30 -140 102 -223 162 -82 59 -154 111 -158 115 -6 6 213 138 231 140 1 0
40 -78 86 -172z m-599 18 c66 -3 121 -6 123 -6 5 0 -172 -132 -184 -137 -12
-5 -106 136 -98 148 2 4 12 6 22 4 9 -2 71 -6 137 -9z m-175 -97 c28 -45 50
-82 48 -84 -2 -1 -43 -17 -93 -35 -49 -17 -132 -47 -184 -66 -108 -39 -118
-41 -93 -16 9 10 60 65 112 122 116 127 148 160 154 160 2 0 27 -37 56 -81z
m369 -136 c1 -62 0 -113 -4 -113 -3 0 -53 33 -111 74 l-104 75 102 78 103 79
6 -40 c3 -21 7 -90 8 -153z m281 30 c113 -80 216 -154 229 -164 23 -19 20 -19
-207 -19 l-232 0 -4 23 c-3 12 -7 90 -10 174 -3 115 -1 150 7 142 7 -5 104
-75 217 -156z"/>
</g>
</svg>
