<svg xmlns="http://www.w3.org/2000/svg" viewBox="0 0 603.99 94.31"><defs><style>.cls-1{fill:#fff;}</style></defs><title>IWD--logo</title><g id="Layer_2" data-name="Layer 2"><g id="Layer_1-2" data-name="Layer 1"><path class="cls-1" d="M126,62.94a2,2,0,1,1-4,0V34.41a2,2,0,1,1,4,0Z"/><path class="cls-1" d="M130.36,42.56a2,2,0,1,1,4,0v.95l.09.1a8.24,8.24,0,0,1,6.66-3.17c3.71,0,8.37,2.35,8.37,9.14V62.94a2,2,0,1,1-4,0V49.81c0-4.21-3-5.93-5.57-5.93s-5.57,1.72-5.57,5.93V62.94a2,2,0,1,1-4,0Z"/><path class="cls-1" d="M155.09,35.5a2,2,0,1,1,4,0v5.21h1.63c1.31,0,2,.63,2,1.72s-.68,1.72-2,1.72h-1.63V62.94a2,2,0,1,1-4,0V44.15h-1.63c-1.32,0-2-.64-2-1.72s.68-1.72,2-1.72h1.63Z"/><path class="cls-1" d="M167.22,54.29c0,4.12,2.62,7.34,7.11,7.34,5.29,0,6.65-3.26,8.15-3.26a1.58,1.58,0,0,1,1.45,1.76c0,1.95-4.94,4.94-9.65,4.94-7.7,0-11.05-5.93-11.05-12.32s4.08-12.31,10.83-12.31c6.56,0,10.36,5.93,10.36,11.72,0,1.41-.49,2.13-2.21,2.13Zm13.22-3c0-3.44-2-7.42-6.38-7.42-4.94-.18-6.71,3.76-6.84,7.42Z"/><path class="cls-1" d="M187.32,42.56a2,2,0,1,1,4,0v2h.09c.91-1.86,3.13-4.16,5.44-4.16a2,2,0,0,1,2.22,2c0,1.14-.82,1.86-2.49,2.18-2.36.4-5.26,2.17-5.26,6.83V62.94a2,2,0,1,1-4,0Z"/><path class="cls-1" d="M200.68,42.56a2,2,0,1,1,4,0v.95l.09.1a8.24,8.24,0,0,1,6.66-3.17c3.71,0,8.37,2.35,8.37,9.14V62.94a2,2,0,1,1-4,0V49.81c0-4.21-2.94-5.93-5.57-5.93s-5.57,1.72-5.57,5.93V62.94a2,2,0,1,1-4,0Z"/><path class="cls-1" d="M244.05,63.12a1.85,1.85,0,0,1-1.86,1.95,1.83,1.83,0,0,1-1.85-1.95V61.44h-.09a7.8,7.8,0,0,1-6.57,3.63c-6.79,0-10.59-5.93-10.59-12.32s3.8-12.31,10.59-12.31a8.42,8.42,0,0,1,6.57,3.21h.09V42.38a1.82,1.82,0,0,1,1.85-1.94,1.85,1.85,0,0,1,1.86,1.94Zm-10.37-1.49c4.89,0,6.61-4.8,6.61-8.88s-1.72-8.87-6.61-8.87-6.61,4.8-6.61,8.87S228.79,61.63,233.68,61.63Z"/><path class="cls-1" d="M249.66,35.5a2,2,0,1,1,4,0v5.21h1.63c1.31,0,2,.63,2,1.72s-.68,1.72-2,1.72h-1.63V62.94a2,2,0,1,1-4,0V44.15H248c-1.31,0-2-.64-2-1.72s.68-1.72,2-1.72h1.63Z"/><path class="cls-1" d="M261.25,32.29a2.45,2.45,0,1,1-2.44,2.44A2.43,2.43,0,0,1,261.25,32.29Zm2,30.65a2,2,0,1,1-4,0V42.56a2,2,0,1,1,4,0Z"/><path class="cls-1" d="M277.15,40.44c6.79,0,10.59,5.93,10.59,12.31s-3.8,12.32-10.59,12.32-10.6-5.93-10.6-12.32S270.35,40.44,277.15,40.44Zm0,21.19c4.89,0,6.61-4.8,6.61-8.88s-1.72-8.87-6.61-8.87-6.62,4.8-6.62,8.87S272.25,61.63,277.15,61.63Z"/><path class="cls-1" d="M291,42.56a2,2,0,1,1,4,0v.95l.09.1a8.22,8.22,0,0,1,6.65-3.17c3.72,0,8.38,2.35,8.38,9.14V62.94a2,2,0,1,1-4,0V49.81c0-4.21-2.95-5.93-5.57-5.93S295,45.6,295,49.81V62.94a2,2,0,1,1-4,0Z"/><path class="cls-1" d="M334.42,63.12a1.85,1.85,0,0,1-1.86,1.95,1.83,1.83,0,0,1-1.85-1.95V61.44h-.09a7.82,7.82,0,0,1-6.57,3.63c-6.79,0-10.59-5.93-10.59-12.32s3.8-12.31,10.59-12.31a8.42,8.42,0,0,1,6.57,3.21h.09V42.38a1.82,1.82,0,0,1,1.85-1.94,1.85,1.85,0,0,1,1.86,1.94Zm-10.37-1.49c4.89,0,6.61-4.8,6.61-8.88s-1.72-8.87-6.61-8.87-6.61,4.8-6.61,8.87S319.16,61.63,324.05,61.63Z"/><path class="cls-1" d="M342.75,62.94a2,2,0,1,1-4,0V32a2,2,0,1,1,4,0Z"/><path class="cls-1" d="M371.72,33.87a2.11,2.11,0,0,1,4.08,0l7.42,26h.09l4.22-25.76a2,2,0,0,1,2.17-1.85,1.73,1.73,0,0,1,1.81,1.81,10.72,10.72,0,0,1-.23,2l-4.89,26.3c-.27,1.4-.86,2.63-2.85,2.63-1.54,0-2.49-.41-3.12-2.63l-6.61-23.63h-.09l-6.61,23.63c-.64,2.22-1.59,2.63-3.13,2.63-2,0-2.58-1.23-2.85-2.63l-4.89-26.3a10.72,10.72,0,0,1-.23-2,1.73,1.73,0,0,1,1.81-1.81A2,2,0,0,1,360,34.14l4.21,25.76h.09Z"/><path class="cls-1" d="M403.11,40.44c6.79,0,10.59,5.93,10.59,12.31s-3.8,12.32-10.59,12.32-10.6-5.93-10.6-12.32S396.32,40.44,403.11,40.44Zm0,21.19c4.89,0,6.61-4.8,6.61-8.88s-1.72-8.87-6.61-8.87-6.61,4.8-6.61,8.87S398.22,61.63,403.11,61.63Z"/><path class="cls-1" d="M431.27,49.45c0-3.45-1.9-5.57-5.16-5.57S421,46,421,49.45V62.94a2,2,0,1,1-4,0V42.56a2,2,0,1,1,4,0v.73l.09.09a6.87,6.87,0,0,1,6.07-2.94,7.38,7.38,0,0,1,6.61,4.07c1.77-2.53,3.89-4.07,7.38-4.07,3.71,0,8.38,2.35,8.38,9.14V62.94a2,2,0,1,1-4,0V49.45c0-3.45-1.9-5.57-5.16-5.57s-5.12,2.12-5.12,5.57V62.94a2,2,0,1,1-4,0Z"/><path class="cls-1" d="M456.4,54.29c0,4.12,2.62,7.34,7.11,7.34,5.29,0,6.65-3.26,8.15-3.26a1.57,1.57,0,0,1,1.44,1.76c0,1.95-4.93,4.94-9.64,4.94-7.7,0-11-5.93-11-12.32s4.08-12.31,10.82-12.31c6.57,0,10.37,5.93,10.37,11.72,0,1.41-.5,2.13-2.22,2.13Zm13.22-3c0-3.44-2-7.42-6.39-7.42-4.93-.18-6.7,3.76-6.83,7.42Z"/><path class="cls-1" d="M476.5,42.56a2,2,0,1,1,4,0v.95l.09.1a8.24,8.24,0,0,1,6.66-3.17c3.71,0,8.38,2.35,8.38,9.14V62.94a2,2,0,1,1-4,0V49.81c0-4.21-2.94-5.93-5.57-5.93s-5.57,1.72-5.57,5.93V62.94a2,2,0,1,1-4,0Z"/><path class="cls-1" d="M501.49,34c.45-.86.95-1.67,2.13-1.67A1.77,1.77,0,0,1,505.43,34a3.62,3.62,0,0,1-.5,1.67l-2.54,5c-.45.86-.95,1.68-2.12,1.68a1.77,1.77,0,0,1-1.81-1.72,3.62,3.62,0,0,1,.49-1.68Z"/><path class="cls-1" d="M513.45,40.44c3.3,0,8,1.76,8,4.25a1.62,1.62,0,0,1-1.81,1.63c-1.72,0-2.4-2.44-6.2-2.44-2.27,0-4.22,1-4.22,3,0,4.21,12.86,3.76,12.86,10.73,0,5-4.3,7.43-8.78,7.43-5.07,0-9.06-2.54-9.06-4.58a1.7,1.7,0,0,1,1.63-1.81c1.77,0,3.22,3,7.57,3,2.89,0,4.66-1.63,4.66-3.26,0-4.71-12.86-4.44-12.86-11.14C505.25,42.79,509.42,40.44,513.45,40.44Z"/><path class="cls-1" d="M535.63,34.73a2,2,0,0,1,2.13-2.17h7.83c9.6,0,14.31,7.42,14.31,15.94,0,9.64-5.12,16.3-13.77,16.3h-8.37a2,2,0,0,1-2.13-2.18Zm4,26.62h5.71c7.51,0,10.32-6.29,10.32-12.85s-3-12.5-10.59-12.5h-5.44Z"/><path class="cls-1" d="M582.94,63.12a1.85,1.85,0,0,1-1.85,1.95,1.83,1.83,0,0,1-1.86-1.95V61.44h-.09a7.8,7.8,0,0,1-6.57,3.63c-6.79,0-10.59-5.93-10.59-12.32s3.8-12.31,10.59-12.31a8.4,8.4,0,0,1,6.57,3.21h.09V42.38a1.82,1.82,0,0,1,1.86-1.94,1.84,1.84,0,0,1,1.85,1.94Zm-10.37-1.49c4.89,0,6.61-4.8,6.61-8.88s-1.72-8.87-6.61-8.87S566,48.68,566,52.75,567.68,61.63,572.57,61.63Z"/><path class="cls-1" d="M586,44.33a7.06,7.06,0,0,1-.54-2.22,1.76,1.76,0,0,1,1.81-1.67,2,2,0,0,1,2,1.49l5.53,16.53h.09l5.43-16.53a1.94,1.94,0,0,1,1.9-1.49A1.76,1.76,0,0,1,604,42.11a7.06,7.06,0,0,1-.54,2.22L593.4,73.08a2,2,0,0,1-1.95,1.49,1.76,1.76,0,0,1-1.81-1.67,6.34,6.34,0,0,1,.59-2.22l2.54-6.74Z"/><path class="cls-1" d="M25.78,67.57A29.55,29.55,0,0,1,62.55,21.94V11.59a1.83,1.83,0,0,1,1.82-1.81H75.88a47.15,47.15,0,0,0-62.82,70c.16.17.34.33.5.5L26,67.79C25.93,67.72,25.85,67.65,25.78,67.57ZM84.85,18.83l3.07-3.07a2,2,0,0,0,.4-1.39,1.9,1.9,0,0,0-1.9-1.73H67.23a1.84,1.84,0,0,0-1.82,1.81v19.2a2,2,0,0,0,1.74,1.89A1.9,1.9,0,0,0,68.57,35l3.58-3.58a29.48,29.48,0,0,1-1.21,33.27l3.36,2.79L77.16,64A1.86,1.86,0,0,1,80,66.39l-2.87,3.45L79,71.36a1.85,1.85,0,1,1-2.37,2.85l-1.82-1.52-2.59,3.12a1.86,1.86,0,0,1-2.86-2.37l2.59-3.12-3.36-2.8a29.52,29.52,0,0,1-39.8,2.76l-12.5,12.5A47.09,47.09,0,0,0,47.15,94.31h0A47.15,47.15,0,0,0,84.85,18.83Z"/></g></g></svg>