<?xml version="1.0" encoding="utf-8"?>
<!-- Generator: Adobe Illustrator 20.1.0, SVG Export Plug-In . SVG Version: 6.00 Build 0)  -->
<svg version="1.1" id="Layer_1" xmlns="http://www.w3.org/2000/svg" xmlns:xlink="http://www.w3.org/1999/xlink" x="0px" y="0px"
	 viewBox="0 0 140 105" style="enable-background:new 0 0 140 105;" xml:space="preserve">
<style type="text/css">
	.st0{fill:#0080FF;}
	.st1{fill-rule:evenodd;clip-rule:evenodd;fill:#0080FF;}
</style>
<g id="XMLID_2369_">
	<g id="XMLID_2638_">
		<g id="XMLID_2639_">
			<g>
				<g id="XMLID_20_">
					<g id="XMLID_21_">
						<path class="st0" d="M19.3,62.8l0-4c4.2,0,7.5-4.2,5.9-8.6c-0.6-1.6-1.9-3-3.6-3.6C17.2,45,13,48.3,13,52.5c0,0,0,0,0,0l-4,0
							c0-6.7,6.5-12,13.6-9.8c3.1,1,5.5,3.4,6.5,6.5C31.3,56.3,26,62.8,19.3,62.8z"/>
					</g>
					<polygon class="st1" points="19.3,58.8 15.3,58.8 15.3,54.8 15.3,54.8 19.3,54.8 19.3,54.8 					"/>
					<polygon class="st1" points="15.3,61.9 12.3,61.9 12.3,61.9 12.3,58.8 15.3,58.8 15.3,61.9 					"/>
					<polygon class="st1" points="12.3,58.8 9.7,58.8 9.7,58.8 9.7,56.3 9.7,56.2 12.3,56.2 12.3,56.3 					"/>
				</g>
			</g>
		</g>
	</g>
	<g id="XMLID_2370_">
		<path id="XMLID_2635_" class="st0" d="M45.6,48.2c-1.2-0.8-2.6-1.2-4.4-1.2h-3.7v11.8h3.7c1.7,0,3.2-0.4,4.4-1.3
			c0.6-0.5,1.1-1.1,1.5-1.9c0.4-0.8,0.5-1.7,0.5-2.8c0-1-0.2-2-0.5-2.8C46.8,49.2,46.3,48.6,45.6,48.2z M39.7,48.9h1.2
			c1.3,0,2.4,0.3,3.2,0.8c0.9,0.5,1.4,1.6,1.4,3.1c0,1.5-0.5,2.6-1.4,3.2h0c-0.8,0.5-1.8,0.8-3.2,0.8h-1.2V48.9z"/>
		<path id="XMLID_2634_" class="st0" d="M50.2,46.8c-0.4,0-0.7,0.1-0.9,0.4c-0.3,0.2-0.4,0.5-0.4,0.9c0,0.4,0.1,0.7,0.4,0.9
			c0.3,0.3,0.6,0.4,0.9,0.4c0.4,0,0.7-0.1,0.9-0.4c0.3-0.3,0.4-0.6,0.4-0.9c0-0.4-0.1-0.7-0.4-0.9C50.9,46.9,50.6,46.8,50.2,46.8z"
			/>
		<rect id="XMLID_2564_" x="49.2" y="50.4" class="st0" width="2.1" height="8.3"/>
		<path id="XMLID_2561_" class="st0" d="M58.9,51.1c-0.6-0.6-1.3-0.9-2.1-0.9c-1.2,0-2.1,0.4-2.9,1.2c-0.7,0.8-1.1,1.8-1.1,3
			c0,1.2,0.4,2.2,1.1,3c0.7,0.8,1.7,1.2,2.9,1.2c0.8,0,1.5-0.2,2.1-0.7v0.2c0,0.7-0.2,1.2-0.5,1.6c-0.4,0.4-0.9,0.6-1.5,0.6
			c-1,0-1.6-0.4-2.3-1.4l-1.4,1.4l0,0.1c0.3,0.4,0.8,0.9,1.4,1.3c0.6,0.4,1.4,0.6,2.3,0.6c1.2,0,2.2-0.4,3-1.1
			c0.7-0.8,1.1-1.8,1.1-3v-7.6h-2.1V51.1z M58.3,56c-0.4,0.4-0.8,0.6-1.4,0.6c-0.6,0-1.1-0.2-1.4-0.6c-0.4-0.4-0.5-1-0.5-1.6
			c0-0.7,0.2-1.2,0.5-1.6c0.4-0.4,0.8-0.6,1.4-0.6c0.6,0,1.1,0.2,1.4,0.6c0.4,0.4,0.5,1,0.5,1.6C58.9,55.1,58.7,55.6,58.3,56z"/>
		<rect id="XMLID_2560_" x="62.7" y="50.4" class="st0" width="2.1" height="8.3"/>
		<path id="XMLID_2552_" class="st0" d="M63.8,46.8c-0.4,0-0.7,0.1-0.9,0.4c-0.3,0.2-0.4,0.5-0.4,0.9c0,0.4,0.1,0.7,0.4,0.9
			c0.3,0.3,0.6,0.4,0.9,0.4c0.4,0,0.7-0.1,0.9-0.4c0.3-0.3,0.4-0.6,0.4-0.9c0-0.4-0.1-0.7-0.4-0.9C64.5,46.9,64.2,46.8,63.8,46.8z"
			/>
		<path id="XMLID_2509_" class="st0" d="M69.4,48.2h-2.1v2.2h-1.2v1.9h1.2v3.5c0,1.1,0.2,1.9,0.6,2.3c0.4,0.4,1.2,0.7,2.3,0.7
			c0.3,0,0.7,0,1,0l0.1,0v-1.9l-0.7,0c-0.5,0-0.8-0.1-1-0.3c-0.2-0.2-0.2-0.5-0.2-1.1v-3.2h1.9v-1.9h-1.9V48.2z"/>
		<rect id="XMLID_2508_" x="81.2" y="46.9" class="st0" width="2.1" height="11.8"/>
		<path id="XMLID_2470_" class="st0" d="M104.4,55.8c-0.4,0.4-0.8,0.8-1.1,1v0c-0.3,0.2-0.7,0.3-1.1,0.3c-0.6,0-1.1-0.2-1.5-0.7
			c-0.4-0.5-0.6-1.1-0.6-1.8s0.2-1.3,0.6-1.8c0.4-0.5,0.9-0.7,1.5-0.7c0.7,0,1.4,0.4,2,1.1l1.4-1.3l0,0c-0.9-1.2-2.1-1.7-3.4-1.7
			c-1.2,0-2.1,0.4-3,1.2c-0.8,0.8-1.2,1.9-1.2,3.1s0.4,2.3,1.2,3.1c0.8,0.8,1.8,1.2,3,1.2c1.5,0,2.7-0.7,3.6-1.9L104.4,55.8z"/>
		<path id="XMLID_2460_" class="st0" d="M113,51.6c-0.3-0.4-0.7-0.7-1.2-1c-0.5-0.2-1.1-0.4-1.7-0.4c-1.2,0-2.1,0.4-2.8,1.3
			c-0.7,0.8-1.1,1.9-1.1,3.1c0,1.3,0.4,2.3,1.2,3.1c0.8,0.8,1.8,1.2,3,1.2c1.4,0,2.6-0.6,3.4-1.7l0-0.1l-1.4-1.3l0,0
			c-0.1,0.2-0.3,0.3-0.5,0.5c-0.2,0.2-0.4,0.3-0.6,0.4c-0.3,0.2-0.7,0.2-1.1,0.2c-0.6,0-1.1-0.2-1.4-0.5c-0.3-0.3-0.5-0.7-0.6-1.3
			h5.5l0-0.8c0-0.5-0.1-1.1-0.2-1.5C113.5,52.5,113.3,52,113,51.6z M108.5,53.6c0.1-0.4,0.3-0.7,0.5-1c0.3-0.3,0.7-0.4,1.1-0.4
			c0.5,0,0.9,0.1,1.2,0.4c0.2,0.3,0.4,0.6,0.4,1H108.5z"/>
		<path id="XMLID_2456_" class="st0" d="M121.1,51.1L121.1,51.1c-0.6-0.5-1.5-0.8-2.6-0.8c-0.7,0-1.3,0.2-1.9,0.5
			c-0.5,0.3-1.1,0.7-1.4,1.3l0,0l1.3,1.3c0.6-0.9,1.2-1.2,2-1.2c0.4,0,0.8,0.1,1.1,0.3c0.3,0.2,0.4,0.5,0.4,0.9v0.4
			c-0.5-0.2-1-0.2-1.5-0.2c-1,0-1.9,0.2-2.5,0.7c-0.6,0.5-1,1.2-1,2.1c0,0.8,0.3,1.4,0.8,1.9c0.5,0.5,1.2,0.7,2,0.7
			c0.8,0,1.5-0.3,2.2-0.9v0.7h2.1v-5.4C122,52.4,121.7,51.6,121.1,51.1z M117.4,55.6c0.2-0.2,0.6-0.2,1-0.2c0.5,0,1,0.1,1.6,0.3v0.8
			c-0.5,0.4-1.1,0.6-1.8,0.6c-0.4,0-0.6-0.1-0.8-0.2c-0.2-0.2-0.3-0.4-0.3-0.6C117,55.9,117.1,55.7,117.4,55.6z"/>
		<path id="XMLID_2454_" class="st0" d="M130.1,51.2c-0.6-0.6-1.4-1-2.4-1c-0.8,0-1.5,0.2-2,0.7v-0.5h-2.1v8.3h2.1v-4.6
			c0-0.6,0.2-1.1,0.4-1.5c0.3-0.4,0.7-0.5,1.2-0.5c0.5,0,0.8,0.2,1.1,0.5c0.3,0.3,0.4,0.8,0.4,1.3v4.8h2.1v-4.8
			C131,52.8,130.7,51.9,130.1,51.2z"/>
		<path id="XMLID_2450_" class="st0" d="M78.6,51.1L78.6,51.1c-0.6-0.5-1.5-0.8-2.6-0.8c-0.7,0-1.3,0.2-1.9,0.5
			c-0.5,0.3-1.1,0.7-1.4,1.3l0,0l1.3,1.3c0.6-0.9,1.2-1.2,2-1.2c0.4,0,0.8,0.1,1.1,0.3c0.3,0.2,0.4,0.5,0.4,0.9v0.4
			c-0.5-0.2-1-0.2-1.5-0.2c-1,0-1.9,0.2-2.5,0.7c-0.6,0.5-1,1.2-1,2.1c0,0.8,0.3,1.4,0.8,1.9c0.5,0.5,1.2,0.7,2,0.7
			c0.8,0,1.5-0.3,2.2-0.9v0.7h2.1v-5.4C79.5,52.4,79.2,51.6,78.6,51.1z M74.8,55.6c0.2-0.2,0.6-0.2,1-0.2c0.5,0,1,0.1,1.6,0.3v0.8
			c-0.5,0.4-1.1,0.6-1.8,0.6c-0.4,0-0.6-0.1-0.8-0.2c-0.2-0.2-0.3-0.4-0.3-0.6C74.5,55.9,74.6,55.7,74.8,55.6z"/>
		<path id="XMLID_2371_" class="st0" d="M90.9,58.9c-3.4,0-6.1-2.7-6.1-6.1c0-3.4,2.7-6.1,6.1-6.1s6.1,2.7,6.1,6.1
			C97,56.2,94.2,58.9,90.9,58.9z M90.9,48.9c-2.2,0-3.9,1.8-3.9,3.9c0,2.2,1.8,3.9,3.9,3.9s3.9-1.8,3.9-3.9
			C94.8,50.7,93.1,48.9,90.9,48.9z"/>
	</g>
</g>
</svg>
