<?xml version="1.0" encoding="UTF-8"?>
<svg width="155px" height="153px" viewBox="0 0 155 153" version="1.1" xmlns="http://www.w3.org/2000/svg" xmlns:xlink="http://www.w3.org/1999/xlink">
    <!-- Generator: Sketch 41.2 (35397) - http://www.bohemiancoding.com/sketch -->
    <title>informal (1)</title>
    <desc>Created with Sketch.</desc>
    <defs></defs>
    <g id="Landing-Temp" stroke="none" stroke-width="1" fill="none" fill-rule="evenodd">
        <g id="Landing" transform="translate(-795.000000, -1224.000000)">
            <g id="informal-(1)" transform="translate(795.000000, 1224.000000)">
                <path d="M77.358,129.065 C106.872,129.065 131.036,105.138 131.036,75.623 C131.036,46.108 105.897,22.391 77.358,22.418 C47.843,22.446 23.519,46.108 23.519,75.623 C23.519,105.138 47.843,129.065 77.358,129.065" id="Fill-1" fill="#FFFFFF"></path>
                <path d="M102.377,41.778 C95.468,42.833 86.202,43.445 76.498,43.437 C76.622,32.818 76.801,25.147 77.008,22.828 C86.836,24.503 95.771,31.59 102.377,41.778" id="Fill-2" fill="#FFFFFF"></path>
                <path d="M113.91,79.934 C103.905,81.46 90.495,82.346 76.452,82.334 C76.436,67.865 76.506,53.907 76.633,43.037 C86.328,43.046 95.586,42.435 102.493,41.381 C109.251,51.809 113.569,65.487 113.91,79.934" id="Fill-3" fill="#BD252B"></path>
                <path d="M113.031,79.863 C110.256,79.425 107.918,74.791 109.143,70.006 C105.23,72.711 100.826,67.152 101.469,62.01 C101.81,59.284 103.595,56.864 106.708,57.988 C105.441,53.638 103.856,49.522 102.005,45.735 C99.242,46.085 96.212,46.377 92.997,46.603 C95.852,50.918 93.051,54.931 89.068,54.293 C86.178,53.829 83.482,50.799 84.232,47.192 C81.887,48.818 77.063,48.176 76.628,43.023 C85.485,42.978 93.276,42.68 102.51,41.377 C102.511,41.377 102.511,41.378 102.511,41.378 C109.972,53.687 113.177,64.478 113.946,79.865 C113.671,79.865 113.302,79.906 113.031,79.863" id="Fill-4" fill="#FFFFFF"></path>
                <path d="M48.887,115.914 C43.373,114.989 39.709,113.804 38.472,112.522 C37.109,110.99 35.325,108.915 34.062,107.299 C30.999,102.817 30.94,102.732 29.591,100.154 C27.243,95.188 27.198,95.093 26.277,92.334 C24.727,86.97 24.697,86.867 24.226,83.951 C23.924,81.419 23.648,78.026 23.547,75.478 L23.592,73.161 C23.499,75.429 28.974,77.581 38.447,79.17 C38.425,79.923 38.415,80.677 38.416,81.434 C38.438,95.386 42.411,107.462 48.887,115.914" id="Fill-5" fill="#FFFFFF"></path>
                <path d="M77.182,129.061 C76.933,129.059 76.601,129.058 76.352,129.054 C75.86,129.043 75.369,129.023 74.877,129.01 C71.651,128.831 69.541,128.522 66.774,128.016 C59.812,126.424 53.638,122.12 48.848,115.82 C53.574,116.611 59.651,117.211 66.716,117.518 C70.056,117.663 73.414,117.734 76.725,117.736 C76.85,124.894 77.009,129.056 77.182,129.061" id="Fill-6" fill="#FFFFFF"></path>
                <path d="M76.723,117.736 C73.413,117.733 70.055,117.662 66.716,117.517 C59.659,117.21 53.589,116.611 48.865,115.822 C42.447,107.376 38.513,95.342 38.491,81.446 C38.49,80.838 38.497,80.231 38.511,79.625 C44.946,80.7 53.215,81.517 62.829,81.934 C67.378,82.132 71.953,82.228 76.462,82.232 C76.463,82.839 76.464,83.446 76.465,84.055 C76.487,97.951 76.583,109.721 76.723,117.736" id="Fill-7" fill="#BD252B"></path>
                <path d="M76.641,118.472 C76.181,120.324 73.587,122.093 69.912,120.596 C71.629,122.861 70.142,124.818 67.121,124.27 C64.773,123.844 61.985,121.955 61.767,120.064 C58.863,119.844 56.209,119.565 53.847,119.238 C56.088,121.842 58.587,123.97 61.288,125.55 C61.611,125.418 62.111,125.451 63.711,126.011 C65.759,126.728 67.672,127.774 69.716,128.501 C69.715,128.504 69.715,128.507 69.715,128.51 C68.112,128.263 67.906,128.231 66.77,128.015 C62.914,126.905 55.735,124.841 48.847,115.82 C48.847,115.82 48.847,115.819 48.846,115.819 L48.847,115.819 L48.848,115.82 C57.146,117.101 65.223,117.653 76.728,117.726 C76.702,117.95 76.696,118.253 76.641,118.472" id="Fill-8" fill="#BD252B"></path>
                <path d="M48.848,115.82 L48.848,115.82 C41.459,105.238 38.55,95.106 38.473,79.682 C42.65,81.06 43.798,87.161 42.724,90.591 C46.698,89.059 51.689,95.923 49.941,100.515 C49.136,102.631 47.044,103.218 44.855,101.945 C46.037,105.954 47.573,109.617 49.406,112.861 C52.214,113.249 55.369,113.581 58.823,113.843 C56.05,110.43 58.274,107.634 61.972,107.824 C65.146,107.987 69.349,110.626 68.45,114.233 C71.314,112.941 76.162,114.001 76.729,117.746 C73.249,117.72 67.99,117.68 61.254,117.215 C57.098,116.928 53,116.142 48.848,115.82" id="Fill-9" fill="#FFFFFF"></path>
                <polyline id="Fill-10" fill="#BD252B" points="48.848 115.82 48.847 115.819 48.848 115.82"></polyline>
                <path d="M48.847,115.819 L48.848,115.819 L48.847,115.819" id="Fill-11" fill="#BD252B"></path>
                <path d="M48.847,115.819 C42.734,114.716 40.091,113.857 38.371,112.416 C37.132,111.016 35.493,109.136 34.337,107.667 C34.548,107.933 34.687,108.108 35.256,108.772 C34.697,108.072 31.901,104.502 31.699,102.929 C33.218,102.685 38.113,110.32 38.161,110.397 C39.646,110.951 41.58,111.471 43.911,111.942 C41.718,108.637 39.881,104.923 38.466,100.876 C35.133,102.559 30.88,93.75 32.228,90.034 C32.503,89.276 33.386,87.698 35.644,89.406 C33.942,85.485 34.39,79.675 38.496,79.684 C38.589,92.672 40.385,103.787 48.847,115.819" id="Fill-12" fill="#BD252B"></path>
                <path d="M113.672,89.132 L113.606,89.035 C113.839,86.643 113.958,84.178 113.954,81.65 C113.953,81.059 113.946,80.469 113.931,79.88 C113.957,79.876 113.983,79.872 114.01,79.868 C114.024,80.457 114.032,81.047 114.033,81.638 C114.037,84.204 113.914,86.706 113.672,89.132" id="Fill-13" fill="#000000"></path>
                <path d="M85.464,128.428 L85.432,128.433 C100.158,126.145 111.507,110.518 113.606,89.035 L113.672,89.132 C111.543,110.553 100.189,126.132 85.463,128.428" id="Fill-14" fill="#000000"></path>
                <path d="M103.236,122.336 C99.6,124.206 98.843,124.595 94.952,126.056 C93.807,126.428 92.275,126.91 91.116,127.239 C98.608,125.22 105.258,120.938 110.515,114.98 C109.397,117.461 108.631,118.877 104.715,121.478 C104.227,121.773 103.734,122.059 103.236,122.336" id="Fill-15" fill="#1A1918"></path>
                <path d="M104.715,121.478 C107.937,119.25 109.298,117.934 110.515,114.98 C118.215,106.254 122.923,93.934 122.901,79.87 C122.9,79.279 122.891,78.689 122.873,78.101 C125.306,77.46 127.261,76.759 128.639,76.006 C128.658,76.594 128.669,77.183 128.67,77.775 C128.699,96.647 119.136,112.768 104.715,121.478" id="Fill-16" fill="#EDC235"></path>
                <path d="M88.63,107.641 C85.065,104.068 85.065,104.068 76.499,95.953 C76.479,92.208 76.466,88.227 76.46,84.055 C76.459,83.463 76.458,82.873 76.457,82.283 C81.101,82.287 85.676,82.193 90.081,82.01 C90.087,82.599 90.09,83.19 90.091,83.781 C90.105,92.757 89.576,100.858 88.63,107.641" id="Fill-17" fill="#1A1918"></path>
                <path d="M79.464,129.015 L79.125,129.028 C78.386,129.049 78.049,129.059 77.74,129.059 L77.181,129.061 C76.87,129.051 76.601,115.82 76.499,95.953 C84.513,103.537 85.35,104.33 88.63,107.641 C86.812,120.673 83.457,128.842 79.464,129.015" id="Fill-18" fill="#EDC235"></path>
                <path d="M82,128.849 C81.575,128.884 81.008,128.927 80.583,128.956 C80.247,128.975 79.8,129 79.464,129.015 C83.454,128.843 86.807,120.687 88.625,107.673 C92.492,111.738 94.199,113.723 96.069,116.769 C92.427,123.959 87.53,128.355 82,128.849" id="Fill-19" fill="#1A1918"></path>
                <path d="M96.069,116.769 C94.226,113.873 93.107,112.339 88.625,107.673 C89.574,100.884 90.105,92.772 90.091,83.781 C90.09,83.19 90.087,82.599 90.081,82.009 C94.49,81.826 98.729,81.554 102.698,81.202 C102.708,81.791 102.714,82.382 102.715,82.973 C102.736,96.772 100.216,108.582 96.069,116.769" id="Fill-20" fill="#EDC235"></path>
                <path d="M97.148,123.337 C97.821,121.217 97.762,119.966 96.086,116.736 C100.223,108.55 102.736,96.753 102.715,82.973 C102.714,82.382 102.708,81.791 102.698,81.202 C104.187,81.07 105.638,80.927 107.046,80.773 C109.015,83.094 111.465,85.983 113.606,89.035 C112.11,104.347 105.915,116.684 97.147,123.337" id="Fill-21" fill="#1A1918"></path>
                <path d="M85.432,128.433 C85.034,128.49 84.504,128.569 84.105,128.621 C82.85,128.771 82.85,128.771 82.201,128.831 L82,128.849 C87.539,128.354 92.442,123.946 96.085,116.736 C97.531,119.623 97.998,120.94 97.148,123.337 C93.614,126.018 89.663,127.776 85.432,128.433" id="Fill-22" fill="#EDC235"></path>
                <path d="M91.116,127.239 L89.823,127.568 C87.672,128.051 87.672,128.051 86.508,128.256 L85.464,128.428 C95.911,126.799 104.661,118.484 109.624,106.14 C110.995,109.796 111.427,111.506 110.508,114.988 C105.252,120.941 98.604,125.221 91.117,127.239" id="Fill-23" fill="#EDC235"></path>
                <path d="M89.823,127.568 C87.672,128.051 87.672,128.051 86.508,128.256 L85.464,128.428 C89.672,127.772 93.604,126.031 97.125,123.379 C95.896,125.208 95.059,126.015 91.115,127.239 L89.823,127.568" id="Fill-24" fill="#1A1918"></path>
                <path d="M110.508,114.988 C111.241,111.926 111.216,110.218 109.624,106.14 C112.449,99.114 114.047,90.784 114.033,81.638 C114.032,81.047 114.024,80.457 114.01,79.868 C117.392,79.349 120.383,78.757 122.873,78.101 C122.891,78.689 122.9,79.279 122.901,79.87 C122.923,93.939 118.211,106.262 110.508,114.988" id="Fill-25" fill="#1A1918"></path>
                <path d="M103.236,122.336 C103.717,122.068 104.194,121.792 104.665,121.508 L104.122,121.833 L103.236,122.336" id="Fill-26" fill="#EDC235"></path>
                <path d="M128.919,77.634 C128.949,96.809 119.028,113.171 104.146,121.819 L104.122,121.833 L104.665,121.508 C119.114,112.805 128.699,96.668 128.67,77.775 C128.669,77.183 128.658,76.594 128.639,76.006 C128.724,75.96 128.807,75.913 128.888,75.866 C128.908,76.454 128.918,77.043 128.919,77.634" id="Fill-27" fill="#1A1918"></path>
                <path d="M109.562,106.135 C107.671,102.284 106.389,100.234 102.061,94.916 C102.495,91.147 102.721,87.152 102.715,82.973 C102.714,82.382 102.708,81.791 102.698,81.202 C106.762,80.841 110.542,80.397 113.931,79.88 C113.946,80.469 113.953,81.059 113.954,81.65 C113.969,90.789 112.376,99.114 109.562,106.135" id="Fill-28" fill="#EDC235"></path>
                <path d="M102.056,94.959 C98.961,91.406 97.407,89.622 90.081,82.009 C94.225,81.803 97.498,81.639 102.698,81.177 C102.708,81.774 102.714,82.373 102.715,82.973 C102.721,87.168 102.493,91.178 102.056,94.959" id="Fill-29" fill="#1A1918"></path>
                <path d="M38.489,79.672 C38.463,79.668 38.438,79.664 38.413,79.66 C38.484,76.516 38.754,73.411 39.206,70.368 L39.264,70.49 C38.822,73.498 38.558,76.567 38.489,79.672" id="Fill-30" fill="#1A1918"></path>
                <path d="M39.264,70.49 L39.206,70.368 C42.484,48.338 55.342,29.623 71.436,23.884 L71.367,23.915 C55.315,29.702 42.503,48.448 39.264,70.491" id="Fill-31" fill="#1A1918"></path>
                <path d="M71.367,23.915 L71.436,23.884 C73.298,23.221 75.203,22.73 77.141,22.429 C75.179,22.735 73.25,23.236 71.367,23.915" id="Fill-32" fill="#1A1918"></path>
                <path d="M45.026,39.643 C46.895,35.451 48.265,33.358 52.236,29.96 C59.628,25.522 68.114,22.815 77.141,22.429 C64.712,23.552 53.418,30.009 45.026,39.643" id="Fill-33" fill="#EDC235"></path>
                <path d="M30.237,77.87 C28.061,77.235 26.38,76.556 25.251,75.847 C25.842,56.511 36.587,39.355 52.236,29.96 C48.535,33.246 46.89,35.202 45.026,39.643 C36.242,49.726 30.637,63.292 30.237,77.87" id="Fill-34" fill="#1A1918"></path>
                <path d="M76.457,82.283 C71.949,82.279 67.376,82.182 62.829,81.985 L62.418,81.967 C62.491,72.426 63.262,63.123 64.557,54.795 C68.434,59.66 70.468,62.021 76.469,68.285 C76.456,72.835 76.452,77.531 76.457,82.283" id="Fill-35" fill="#EDC235"></path>
                <path d="M64.563,54.757 C60.932,49.707 59.376,47.084 57.875,42.418 C62.86,31.902 69.65,24.437 77.141,22.429 C71.806,25.436 67.146,38.158 64.563,54.757" id="Fill-36" fill="#EDC235"></path>
                <path d="M62.418,81.967 C57.749,81.758 53.402,81.454 49.432,81.073 C49.655,66.731 52.847,53.023 57.875,42.418 C59.409,46.893 60.65,49.431 64.563,54.757 C63.265,63.095 62.491,72.412 62.418,81.967" id="Fill-37" fill="#1A1918"></path>
                <path d="M49.432,81.073 C47.942,80.93 46.506,80.775 45.126,80.611 C43.335,77.867 41.107,74.453 39.264,70.49 C41.556,54.892 48.642,40.944 58.278,32.071 C56.994,35.614 56.737,37.715 57.856,42.458 C52.839,53.058 49.655,66.749 49.432,81.073" id="Fill-38" fill="#EDC235"></path>
                <path d="M57.856,42.458 C56.893,38.095 56.812,35.87 58.278,32.071 C63.856,26.935 70.289,23.499 77.141,22.429 C69.641,24.44 62.843,31.921 57.856,42.458" id="Fill-39" fill="#1A1918"></path>
                <path d="M44.268,52.396 C43.485,47.204 43.483,44.495 45.034,39.634 C53.425,30.004 64.716,23.552 77.141,22.429 C74.179,22.925 73.646,23.014 71.436,23.884 C59.976,27.971 50.156,38.638 44.268,52.396" id="Fill-40" fill="#1A1918"></path>
                <path d="M58.313,32 C60.113,28.88 61.296,27.374 65.817,25 C69.443,23.661 73.236,22.782 77.141,22.429 C70.305,23.492 63.885,26.901 58.313,32" id="Fill-41" fill="#EDC235"></path>
                <path d="M38.413,79.66 C35.21,79.122 32.464,78.519 30.237,77.87 C30.637,63.287 36.246,49.718 45.034,39.633 C43.668,44.152 43.347,46.76 44.268,52.396 C40.746,60.627 38.631,69.964 38.414,79.66" id="Fill-42" fill="#EDC235"></path>
                <path d="M52.286,29.93 C56.207,27.104 58.412,25.767 64.523,23.9 C68.569,22.938 72.794,22.428 77.141,22.429 C68.134,22.814 59.666,25.51 52.286,29.93" id="Fill-43" fill="#1A1918"></path>
                <path d="M25.251,75.847 C24.128,75.143 23.55,74.41 23.574,73.664 L23.665,71.806 C25.208,48.443 42.113,29.229 64.523,23.9 C59.466,25.504 56.648,26.697 52.286,29.93 C36.61,39.319 25.843,56.491 25.251,75.848" id="Fill-44" fill="#EDC235"></path>
                <path d="M49.432,81.073 C45.367,80.682 41.699,80.21 38.488,79.672 C38.705,69.983 40.813,60.652 44.324,52.425 C45.68,57.826 46.776,60.705 50.591,67.11 C49.906,71.635 49.506,76.319 49.432,81.073" id="Fill-45" fill="#1A1918"></path>
                <path d="M49.431,81.098 C49.505,76.32 49.908,71.612 50.598,67.065 C53.878,71.947 55.894,74.827 62.418,81.967 C57.946,81.742 54.715,81.579 49.431,81.098" id="Fill-46" fill="#EDC235"></path>
                <path d="M65.817,25 C68.797,23.795 71.371,22.754 77.141,22.429 C73.236,22.782 69.443,23.661 65.817,25" id="Fill-47" fill="#1A1918"></path>
                <path d="M130.901,75.3 C130.849,78.18 130.77,82.533 129.231,88.718 C127.84,94.305 125.412,99.221 124.594,100.644 C121.827,105.454 116.678,114.408 104.147,121.819" id="Stroke-48" stroke-linecap="round" stroke-linejoin="round"></path>
                <path d="M128.989,75.814 C130.357,75.019 130.996,74.219 130.969,73.435 C131.704,95.776 119.12,113.11 104.239,121.758 L104.184,121.79 L104.747,121.453 C119.191,112.753 128.773,96.618 128.744,77.724 C128.743,77.133 128.732,76.543 128.713,75.956 C128.805,75.906 128.894,75.855 128.98,75.805 C129,76.393 129.011,76.982 129.011,77.573" id="Fill-49" fill="#1A1918"></path>
                <path d="M128.989,75.814 C130.357,75.019 130.996,74.219 130.969,73.435 C131.704,95.776 119.12,113.11 104.239,121.758 L104.184,121.79 L104.747,121.453 C119.191,112.753 128.773,96.618 128.744,77.724 C128.743,77.133 128.732,76.543 128.713,75.956 C128.805,75.906 128.894,75.855 128.98,75.805 C129,76.393 129.011,76.982 129.011,77.573" id="Stroke-50" stroke-linecap="round" stroke-linejoin="round"></path>
                <path d="M102.567,41.356 L102.566,41.355 L102.567,41.355 C102.581,41.352 102.595,41.35 102.61,41.347 L102.608,41.347 C102.608,41.347 102.62,41.345 102.634,41.343 C103.154,41.257 103.642,41.173 104.112,41.09 C107.17,40.526 113.834,39.065 113.834,37.044 C113.834,37.044 116.802,39.756 118.794,43.457 C119.033,43.861 119.237,44.278 119.392,44.704 C119.565,45.128 119.688,45.521 119.752,45.873 C119.767,45.896 119.782,45.919 119.796,45.942 C119.806,46.112 119.805,46.263 119.799,46.403 C119.798,46.462 119.794,46.519 119.788,46.574 C119.675,47.724 118.966,47.747 118.202,47.406 C118.121,47.374 118.041,47.347 117.955,47.305 C115.207,46.069 114.312,43.552 113.776,42.512 C112.382,42.954 110.074,43.956 108.155,44.328 C107.932,44.373 107.523,44.468 107.294,44.512 C109.554,48.237 111.711,52.681 113.257,56.988 C115.949,54.222 120.162,59.353 120.365,64.31 C120.484,67.221 119.176,69.812 116.517,68.879 C118.646,72.823 117.963,78.605 113.922,79.87 C113.25,66.905 111.052,55.397 102.512,41.379 L102.51,41.378 L102.511,41.378" id="Fill-51" fill="#BD252B"></path>
                <path d="M103.051,31.412 C103.038,31.404 103.025,31.395 103.012,31.387 C103.023,31.387 103.034,31.389 103.044,31.389 C103.032,31.349 103.02,31.309 103.012,31.272 C103.051,31.221 103.103,31.152 103.142,31.101 C103.207,31.093 103.263,31.087 103.316,31.082 L103.305,31.068 C103.305,31.068 103.694,29.437 109.833,33.676 C99.399,25.533 88.815,23.218 82.544,22.605 C83.209,22.801 83.71,22.996 84.086,23.181 C84.414,23.343 84.647,23.498 84.812,23.64 C84.828,23.638 84.838,23.635 84.838,23.635 C85.6,23.72 86.289,23.852 86.905,24.005 L86.906,24.005 C87.128,24.082 87.353,24.164 87.578,24.248 C87.607,24.259 87.635,24.27 87.664,24.281 C87.859,24.355 88.055,24.432 88.253,24.512 C88.302,24.532 88.351,24.551 88.401,24.571 C88.583,24.646 88.766,24.724 88.95,24.804 C89.006,24.829 89.062,24.852 89.119,24.877 C89.353,24.981 89.587,25.088 89.823,25.201 L89.822,25.209 C91.708,26.131 93.232,27.165 93.242,27.957 C92.961,28.129 92.875,28.181 92.045,27.957 C95.207,30.212 99.739,34.457 102.417,37.583 C104.259,37.235 107.002,36.84 108.269,36.416 C108.176,36.509 103.601,33.069 103.051,31.412" id="Fill-52" fill="#BD252B"></path>
                <path d="M113.805,37.083 C112.489,35.848 111.162,34.714 109.833,33.676 C107.348,31.96 105.805,31.206 104.849,30.916 L104.861,30.904 C104.861,30.904 101.799,29.919 103.53,32.262 L103.538,32.254 C104.866,34.016 108.19,36.495 108.269,36.416 C107.002,36.84 104.259,37.235 102.417,37.583 C99.739,34.457 95.207,30.212 92.045,27.957 C92.875,28.181 92.961,28.129 93.242,27.957 C93.232,27.165 91.708,26.131 89.822,25.209 L89.823,25.201 C89.587,25.088 89.352,24.981 89.119,24.877 C89.062,24.852 89.006,24.829 88.95,24.804 C88.766,24.724 88.583,24.646 88.401,24.571 C88.351,24.551 88.302,24.532 88.253,24.512 C88.055,24.432 87.859,24.354 87.664,24.281 C87.635,24.27 87.607,24.259 87.578,24.248 C87.353,24.164 87.128,24.082 86.906,24.005 C86.906,24.005 86.906,24.005 86.905,24.005 C86.289,23.852 85.6,23.72 84.838,23.635 C84.838,23.635 84.828,23.638 84.812,23.64 C84.855,23.678 84.887,23.713 84.922,23.749 L84.719,23.65 C84.759,23.647 84.793,23.643 84.812,23.64 C84.647,23.498 84.414,23.343 84.086,23.181 C83.71,22.996 83.209,22.801 82.544,22.605 C81.019,22.455 79.752,22.406 78.802,22.399 C78.085,22.372 77.507,22.366 77.383,22.41 C77.374,22.414 77.371,22.419 77.371,22.424 C77.15,22.432 77.026,22.441 77.026,22.441 L77.264,22.517 C77.128,22.496 76.988,22.472 76.857,22.452 C77.191,22.508 77.524,22.571 77.857,22.638 C78.69,22.914 80.424,23.376 81.734,23.716 C89.759,26.542 96.987,32.867 102.567,41.356 C102.652,41.342 102.734,41.328 102.818,41.315 C107.787,40.48 110.539,39.56 112.511,38.65 C112.516,38.648 112.521,38.646 112.526,38.643 C113.945,37.858 113.788,37.087 113.788,37.087 L113.805,37.083" id="Fill-53" fill="#FFFFFF"></path>
                <path d="M102.511,41.378 L102.511,41.378 C102.511,41.378 102.51,41.378 102.511,41.378 C93.8,28.539 85.789,24.703 78.502,22.821 C78.691,22.875 78.879,22.934 79.068,22.995 C78.727,22.904 78.383,22.814 78.077,22.734 C77.989,22.705 77.908,22.678 77.835,22.654 C78.057,22.708 78.279,22.763 78.502,22.821 C78.249,22.748 77.992,22.68 77.728,22.617 C77.637,22.587 77.566,22.562 77.515,22.543 C77.537,22.555 77.561,22.568 77.589,22.585 C77.422,22.547 77.252,22.509 77.076,22.474 C78.637,24.197 80.819,24.926 81.347,25.083 C81.197,25.729 81.309,27.019 83.561,28.649 C83.911,28.902 84.248,29.101 84.573,29.262 C88.046,31.077 88.813,29.664 88.976,29.097 C88.996,29.081 89.017,29.068 89.036,29.052 C90.097,29.833 92.16,31.494 94.441,34.077 C95.755,35.654 96.994,37.03 97.927,38.408 C95.782,38.679 92.937,38.932 90.12,39.133 C89.96,35.725 87.503,34.024 85.955,33.449 C82.57,32.191 81.457,36.176 82.922,38.976 C80.243,37.527 77.074,38.819 76.628,43.05 C87.212,42.989 94.469,42.52 102.511,41.378 L102.511,41.378 L102.511,41.377" id="Fill-54" fill="#BD252B"></path>
                <path d="M76.469,68.285 C71.214,62.773 68.397,59.68 64.557,54.795 C67.139,38.177 71.802,25.438 77.141,22.429 C76.796,26.338 76.53,45.467 76.469,68.285" id="Fill-55" fill="#1A1918"></path>
                <path d="M12.823,35.882 L13.13,36.034 C12.61,37.122 12.853,37.725 13.885,38.237 L18.239,40.397 C20.239,41.389 21.751,43.726 20.016,47.225 C18.488,50.305 15.947,51.014 13.641,49.87 L8.932,47.534 C7.9,47.023 7.595,47.233 7.035,48.321 L6.729,48.169 L8.784,44.025 L9.091,44.177 L9.019,44.322 C8.579,45.209 8.629,45.716 9.564,46.18 L14.047,48.404 C16.223,49.483 18.162,48.858 19.353,46.455 C20.257,44.633 20.419,42.402 17.678,41.043 L13.921,39.179 C12.373,38.411 11.979,38.517 11.25,39.823 L10.944,39.671 L12.823,35.882" id="Fill-56" fill="#1A1918"></path>
                <path d="M31.458,30.544 L17.989,31.388 L23.894,36.364 C24.885,37.199 25.277,37.152 26.263,35.982 L26.525,36.203 L23.834,39.396 L23.572,39.176 L23.619,39.121 C24.338,38.267 24.281,37.749 23.648,37.215 L16.875,31.509 C16.388,31.64 15.976,31.905 15.557,32.375 L15.295,32.155 L17.116,29.993 L29.338,29.205 L23.859,24.589 C23.019,23.881 22.659,24.001 21.704,25.079 L21.442,24.859 L24.156,21.638 L24.418,21.858 C23.548,22.891 23.542,23.262 24.078,23.714 L31.759,30.186 L31.458,30.544" id="Fill-57" fill="#1A1918"></path>
                <path d="M38.009,24.751 L34.643,27.545 L34.425,27.281 C35.249,26.527 35.245,26.156 34.475,25.228 L29.577,19.328 C28.956,18.58 28.52,18.591 27.71,19.193 L27.492,18.93 L30.857,16.136 L31.076,16.399 C30.203,17.124 30.06,17.571 30.83,18.499 L35.705,24.371 C36.383,25.188 36.835,25.281 37.79,24.488 L38.009,24.751" id="Fill-58" fill="#1A1918"></path>
                <path d="M44.638,20.625 L36.345,14.198 C35.383,13.447 35.06,13.324 34.113,13.879 L33.94,13.584 L38.21,11.081 L38.383,11.376 C36.973,12.244 36.822,12.771 37.536,13.312 L44.409,18.631 L43.103,10.779 C43.02,10.244 42.931,9.879 42.803,9.662 C42.53,9.196 42.033,9.237 40.977,9.856 L40.804,9.561 L44.407,7.449 L44.58,7.745 C43.772,8.218 43.571,8.836 43.763,10.017 L45.415,20.169 L44.638,20.625" id="Fill-59" fill="#1A1918"></path>
                <path d="M57.861,10.068 L57.537,10.179 C56.984,9.018 56.614,8.994 55.917,9.234 L53.041,10.226 L54.291,13.85 C54.561,14.633 54.903,14.687 55.532,14.469 L58.153,13.566 C59.344,13.155 59.543,12.572 59.464,10.962 L59.77,10.857 L60.372,13.486 L51.336,16.602 L51.225,16.279 L51.701,16.114 C53.063,15.645 53.172,15.188 52.82,14.167 L50.343,6.986 C50.015,6.034 49.652,5.701 48.512,6.095 L48.138,6.224 L48.027,5.9 L56.194,3.083 L57.146,5.402 L56.84,5.508 C56.12,4.137 55.589,3.978 54.976,4.189 L51.386,5.427 L52.83,9.613 L55.875,8.563 C56.488,8.352 56.678,7.963 56.422,6.946 L56.746,6.835 L57.861,10.068" id="Fill-60" fill="#1A1918"></path>
                <path d="M64.689,1.368 C65.006,1.294 65.238,1.266 65.578,1.226 C68.331,0.898 69.234,2.096 69.432,3.758 C69.687,5.903 68.482,6.898 66.498,7.134 C66.087,7.183 65.821,7.233 65.386,7.23 L64.689,1.368 Z M65.426,7.57 C65.715,7.554 65.949,7.544 66.342,7.497 C66.825,7.44 67.109,7.388 67.553,7.317 C68.016,7.552 68.704,7.996 69.584,8.689 L70.904,9.728 C72.684,11.129 73.569,11.713 76.68,11.198 L76.641,10.876 C75.254,10.951 74.085,10.419 72.905,9.49 L71.325,8.246 C70.385,7.506 69.79,7.069 69.067,6.629 C70.481,6.026 71.259,4.791 71.099,3.451 C70.883,1.628 69.237,0.446 65.931,0.839 C64.769,0.977 64.414,1.038 63.685,1.161 C62.956,1.284 61.875,1.485 61.446,1.536 L61.486,1.875 L61.879,1.829 C62.916,1.705 63.258,1.991 63.39,3.099 L64.285,10.624 C64.428,11.821 64.086,12.152 63.032,12.278 L62.728,12.314 L62.768,12.653 L67.827,12.052 L67.786,11.712 L67.375,11.761 C66.374,11.88 65.913,11.663 65.786,10.591 L65.426,7.57 L65.426,7.57 Z" id="Fill-61" fill="#1A1918"></path>
                <path d="M79.258,8.603 C79.51,10.229 80.694,11.261 82.094,11.37 C83.296,11.464 84.625,10.864 84.735,9.446 C84.937,6.862 79.238,5.622 79.484,2.482 C79.6,0.992 81.051,-0.014 82.881,0.129 C84.388,0.247 84.659,0.719 85.287,0.769 C85.43,0.78 85.505,0.749 85.624,0.614 L85.911,0.637 L86.038,2.94 L85.733,2.916 C85.331,1.584 84.247,0.669 83.009,0.573 C81.825,0.48 80.946,1.098 80.867,2.103 C80.668,4.651 86.375,5.783 86.118,9.084 C85.98,10.843 84.317,12.031 82.217,11.867 C81.23,11.79 80.012,11.208 79.761,11.188 C79.599,11.175 79.466,11.255 79.386,11.357 L79.081,11.333 L78.917,8.576 L79.258,8.603" id="Fill-62" fill="#1A1918"></path>
                <path d="M93.099,13.324 L88.825,12.393 L88.898,12.059 C90,12.244 90.29,12.012 90.546,10.834 L92.179,3.341 C92.386,2.392 92.109,2.055 91.136,1.788 L91.208,1.453 L95.482,2.385 L95.409,2.719 C94.301,2.477 93.861,2.639 93.604,3.818 L91.979,11.275 C91.753,12.312 91.958,12.726 93.172,12.99 L93.099,13.324" id="Fill-63" fill="#1A1918"></path>
                <path d="M102.172,14.615 C101.814,15.519 101.989,15.956 103.01,16.361 L103.629,16.606 L103.503,16.924 L98.232,14.834 L98.358,14.517 L98.977,14.762 C99.998,15.167 100.425,14.968 100.783,14.065 L104.06,5.798 L101.149,4.644 C100.479,4.379 100.026,4.644 99.191,6.017 L98.89,5.898 L100.232,3.293 L100.55,3.419 C100.527,3.526 100.568,3.62 100.655,3.693 C100.742,3.766 100.852,3.829 100.969,3.876 L109.018,7.067 C109.252,7.16 109.523,7.209 109.636,7.021 L109.954,7.147 L109.147,9.964 L108.846,9.845 C109.179,8.273 109.03,7.769 108.361,7.503 L105.449,6.349 L102.172,14.615" id="Fill-64" fill="#1A1918"></path>
                <path d="M120.498,15.789 C121.527,15.285 121.413,14.841 120.455,14.201 L120.645,13.917 L124.027,16.177 L123.837,16.461 C122.77,15.856 122.066,15.97 121.177,16.393 L115.882,18.939 L114.382,21.184 C113.852,21.977 113.926,22.481 114.839,23.091 L115.034,23.221 L114.844,23.506 L110.728,20.756 L110.918,20.471 L111.202,20.661 C112.13,21.281 112.63,21.117 113.12,20.384 L114.53,18.273 L114.646,12.333 C114.683,10.69 114.478,10.251 113.526,9.571 L113.716,9.286 L117.697,11.947 L117.507,12.231 C116.339,11.451 116.074,11.685 116.063,12.674 L115.988,17.97 L120.498,15.789" id="Fill-65" fill="#1A1918"></path>
                <path d="M135.369,37.224 C133.337,38.774 130.424,39.23 128.645,36.897 C126.888,34.592 127.391,31.334 130.067,29.293 C131.785,27.983 134.896,27.195 136.817,29.714 C138.618,32.075 138.031,35.194 135.369,37.224 Z M136.867,38.21 C139.444,36.245 139.522,32.518 137.459,29.813 C135.134,26.764 131.446,26.114 128.597,28.286 C125.921,30.327 125.918,34.064 128.058,36.869 C130.175,39.646 133.976,40.415 136.867,38.21 L136.867,38.21 Z" id="Fill-66" fill="#1A1918"></path>
                <path d="M140.643,49.459 L140.511,49.183 C141.438,48.701 141.567,48.22 141.195,47.44 L139.761,44.435 L136.203,46.133 C135.294,46.567 135.046,46.924 135.627,48.143 L135.318,48.29 L133.435,44.342 L133.743,44.195 C134.289,45.171 134.585,45.249 135.901,44.621 L142.27,41.583 C143.309,41.087 143.741,40.781 143.215,39.636 L143.524,39.489 L146.996,46.767 L145.079,47.681 L144.948,47.405 C145.882,46.939 146.117,46.428 145.637,45.421 L144.164,42.335 L140.346,44.156 L141.881,47.373 C142.168,47.974 142.648,48.103 143.37,47.819 L143.502,48.095 L140.643,49.459" id="Fill-67" fill="#1A1918"></path>
                <path d="M14.639,119.91 L21.117,107.964 L21.09,107.926 L12.348,113.502 C11.358,114.135 11.666,114.991 12.237,115.855 L11.883,116.112 L9.074,112.24 L9.428,111.983 C10.414,113.342 10.833,113.294 12.595,112.158 L20.161,107.35 C21.443,106.534 21.752,106.253 20.989,105.045 L21.324,104.802 L23.363,107.613 L17.235,118.907 L29.86,116.567 L31.845,119.304 L31.51,119.547 C30.774,118.689 30.499,118.349 29.893,118.845 L21.891,125.559 C20.26,126.914 20.368,127.063 21.354,128.422 L21,128.678 L17.529,123.894 L17.883,123.637 C18.517,124.512 19.381,125.193 20.314,124.403 L28.262,117.812 L28.235,117.775 L14.949,120.338 L14.639,119.91" id="Fill-68" fill="#1A1918"></path>
                <path d="M37.425,132.355 L34.219,129.998 L38.969,126.839 L37.425,132.355 Z M37.14,133.402 L35.901,137.687 C35.839,137.927 35.765,138.301 35.547,138.597 C35.165,139.116 34.694,138.941 33.638,138.164 L33.156,137.81 L32.897,138.162 L37.993,141.909 L38.252,141.557 C37.325,140.876 37.072,140.404 37.424,139.15 L41.115,126.018 L39.503,124.833 L39.37,125.363 L29.225,132.092 C27.446,133.268 27.093,133.322 25.875,132.454 L25.616,132.806 L29.896,135.954 L30.155,135.602 L29.858,135.384 C28.839,134.635 28.494,134.095 28.862,133.595 C29.052,133.335 29.702,132.957 30.091,132.7 L33.305,130.582 L37.14,133.402 L37.14,133.402 Z" id="Fill-69" fill="#1A1918"></path>
                <path d="M51.896,133.077 C52.302,133.172 52.583,133.272 52.995,133.418 C56.333,134.602 56.69,136.486 55.975,138.502 C55.052,141.103 53.109,141.561 50.702,140.707 C50.204,140.53 49.871,140.436 49.374,140.187 L51.896,133.077 Z M49.228,140.599 C49.567,140.743 49.841,140.865 50.318,141.034 C50.903,141.242 51.258,141.343 51.807,141.514 C52.204,142.045 52.74,142.943 53.356,144.235 L54.279,146.173 C55.524,148.787 56.207,149.956 60.062,151.129 L60.2,150.739 C58.57,150.038 57.532,148.767 56.707,147.034 L55.602,144.714 C54.944,143.334 54.509,142.497 53.93,141.584 C55.892,141.694 57.482,140.72 58.059,139.095 C58.843,136.884 57.628,134.598 53.618,133.176 C52.209,132.676 51.768,132.544 50.864,132.272 C49.96,132 48.607,131.617 48.087,131.433 L47.94,131.845 L48.417,132.014 C49.675,132.46 49.905,132.981 49.428,134.325 L46.191,143.451 C45.675,144.903 45.097,145.088 43.818,144.634 L43.45,144.504 L43.304,144.916 L49.438,147.092 L49.584,146.68 L49.086,146.503 C47.872,146.072 47.467,145.563 47.928,144.262 L49.228,140.599 L49.228,140.599 Z" id="Fill-70" fill="#1A1918"></path>
                <path d="M75.321,140.114 C76.162,138.916 75.76,138.489 74.293,138.364 L74.33,137.929 L79.509,138.37 L79.472,138.805 C77.904,138.787 77.187,139.349 76.453,140.372 L72.1,146.487 L71.807,149.925 C71.704,151.139 72.099,151.658 73.496,151.777 L73.794,151.802 L73.757,152.238 L67.455,151.701 L67.492,151.265 L67.928,151.302 C69.348,151.423 69.806,150.931 69.901,149.808 L70.177,146.577 L66.64,139.859 C65.668,137.999 65.168,137.633 63.682,137.46 L63.72,137.025 L69.815,137.544 L69.778,137.979 C67.991,137.827 67.839,138.253 68.437,139.365 L71.621,145.338 L75.321,140.114" id="Fill-71" fill="#1A1918"></path>
                <path d="M94.437,150.448 L84.3,152.16 L84.227,151.729 L84.975,151.603 C86.019,151.426 86.347,151.021 86.151,149.864 L84.455,139.818 C84.252,138.616 83.805,138.178 82.376,138.419 L82.058,138.473 L81.986,138.042 L88.676,136.912 L88.749,137.343 L87.909,137.485 C86.435,137.734 86.077,137.958 86.314,139.364 L88.08,149.819 C88.183,150.431 88.471,150.616 89.129,150.505 L92.462,149.942 C93.8,149.716 94.121,149.125 95.216,146.911 L95.624,146.842 L94.437,150.448" id="Fill-72" fill="#1A1918"></path>
                <path d="M105.416,138.957 L101.744,140.49 L101.482,134.792 L105.416,138.957 Z M106.167,139.74 L109.202,143.008 C109.376,143.185 109.657,143.441 109.799,143.781 C110.047,144.375 109.655,144.688 108.445,145.194 L107.893,145.424 L108.062,145.828 L113.898,143.389 L113.73,142.986 C112.668,143.429 112.134,143.403 111.24,142.456 L101.884,132.53 L100.037,133.302 L100.423,133.689 L100.967,145.85 C101.059,147.98 100.923,148.311 99.553,148.909 L99.721,149.312 L104.624,147.264 L104.455,146.861 L104.116,147.002 C102.949,147.49 102.308,147.509 102.069,146.935 C101.945,146.638 101.954,145.886 101.935,145.421 L101.773,141.575 L106.167,139.74 L106.167,139.74 Z" id="Fill-73" fill="#1A1918"></path>
                <path d="M131.047,130.824 L113.922,128.803 L120.207,136.409 C121.262,137.686 121.765,137.717 123.272,136.472 L123.551,136.809 L119.438,140.208 L119.159,139.871 L119.23,139.812 C120.329,138.904 120.376,138.239 119.702,137.423 L112.494,128.7 C111.852,128.753 111.274,128.992 110.639,129.487 L110.36,129.15 L113.144,126.85 L128.688,128.656 L122.858,121.599 C121.964,120.517 121.483,120.586 120.036,121.723 L119.757,121.386 L123.906,117.958 L124.185,118.294 C122.855,119.393 122.762,119.858 123.333,120.55 L131.508,130.443 L131.047,130.824" id="Fill-74" fill="#1A1918"></path>
                <path d="M127.683,113.119 C127.814,112.875 128.093,112.316 128.605,111.524 C130.353,108.819 131.915,107.885 133.378,107.57 C135.254,107.167 137.101,107.785 138.53,108.709 C140.52,109.995 141.433,111.845 141.666,113.009 C142.09,114.981 141.758,116.3 140.085,118.888 C139.098,120.414 138.791,120.297 137.999,119.786 L127.683,113.119 Z M136.615,121.164 C137.735,121.888 137.713,122.558 137.039,123.602 L136.826,123.93 L137.193,124.167 L141.188,117.986 C144.347,113.099 142.311,108.579 139.394,106.694 C136.207,104.634 132.158,105.221 128.862,110.32 C128.213,111.325 127.471,112.516 126.823,113.603 C126.175,114.691 125.602,115.662 125.178,116.402 L125.545,116.639 L125.795,116.253 C126.532,115.113 127.053,114.984 128.308,115.796 L136.615,121.164 L136.615,121.164 Z" id="Fill-75" fill="#1A1918"></path>
                <path d="M3.493,71.021 L3.493,80.875 C3.493,81.385 3.595,81.521 4.122,81.521 L5.074,81.521 L5.074,81.833 L0.804,81.833 L0.804,81.521 L1.722,81.521 C2.266,81.521 2.368,81.368 2.368,80.858 L2.368,72.38 C1.824,72.856 0.872,73.485 0.243,73.773 L0.107,73.536 C1.093,72.873 2.502,71.599 2.905,71.021 L3.493,71.021" id="Fill-76" fill="#1A1918"></path>
                <path d="M13.326,79.429 C13.326,80.754 12.354,81.774 11.074,81.774 C9.778,81.774 8.823,80.703 8.823,79.259 C8.823,78.155 9.403,77.306 10.563,76.677 C12.541,77.578 13.326,78.291 13.326,79.429 Z M14.07,73.469 C14.07,72.111 12.704,71.024 11.002,71.024 C9.323,71.024 7.917,72.281 7.917,73.775 C7.917,74.929 8.645,75.794 10.236,76.507 C8.57,77.17 7.76,78.104 7.76,79.293 C7.76,80.839 9.215,82.08 11.057,82.08 C12.95,82.08 14.414,80.72 14.414,78.954 C14.414,77.646 13.649,76.745 11.859,75.947 C13.352,75.353 14.07,74.555 14.07,73.469 Z M13.045,73.452 C13.045,74.42 12.571,75.2 11.623,75.794 C9.424,74.861 8.917,74.182 8.917,73.248 C8.917,72.179 9.83,71.33 10.997,71.33 C12.182,71.33 13.045,72.23 13.045,73.452 L13.045,73.452 Z" id="Fill-77" fill="#1A1918"></path>
                <path d="M140.33,72.24 L144.352,72.24 C144.658,72.24 144.76,72.172 144.845,72.021 L145.168,72.021 L144.981,73.333 L140.686,73.333 L140.55,76.378 C141.076,76.093 141.687,75.958 142.383,75.958 C144.284,75.958 145.865,77.544 145.865,79.459 C145.865,81.519 144.148,83.083 141.874,83.083 C140.516,83.083 139.396,82.609 139.396,82.013 C139.396,81.724 139.651,81.485 139.957,81.485 C140.873,81.485 141.195,82.677 142.264,82.677 C143.52,82.677 144.59,81.366 144.59,79.817 C144.59,78.25 143.52,77.083 142.061,77.083 C141.433,77.083 140.771,77.332 140.263,77.764 L140.093,77.646 L140.33,72.24" id="Fill-78" fill="#1A1918"></path>
                <path d="M153.263,79.805 C153.263,81.729 152.447,82.802 151.257,82.802 C150.186,82.802 148.945,81.866 148.945,79.005 C148.945,78.426 148.979,78.187 149.03,77.949 C150.067,77.115 150.832,76.927 151.274,76.927 C152.413,76.927 153.263,77.983 153.263,79.805 Z M153.365,72.021 C149.812,73.023 147.67,75.519 147.67,78.664 C147.67,81.27 149.132,83.083 151.223,83.083 C153.042,83.083 154.539,81.525 154.539,79.652 C154.539,77.915 153.195,76.521 151.529,76.521 C150.696,76.521 150.033,76.792 149.115,77.506 C149.489,75.025 150.9,73.359 153.552,72.271 L153.365,72.021 L153.365,72.021 Z" id="Fill-79" fill="#1A1918"></path>
            </g>
        </g>
    </g>
</svg>