<?xml version="1.0" encoding="utf-8"?>
<!-- Generator: Adobe Illustrator 19.0.0, SVG Export Plug-In . SVG Version: 6.00 Build 0)  -->
<svg version="1.1" id="Layer_1" xmlns="http://www.w3.org/2000/svg" xmlns:xlink="http://www.w3.org/1999/xlink" x="0px" y="0px"
	 viewBox="-105 247 400 300" style="enable-background:new -105 247 400 300;" xml:space="preserve">
<style type="text/css">
	.st0{clip-path:url(#SVGID_3_);}
	.st1{clip-path:url(#SVGID_4_);}
	.st2{clip-path:url(#SVGID_8_);fill:#0088CB;}
	.st3{clip-path:url(#SVGID_8_);fill:#0066B3;}
	.st4{fill:#0066B3;}
	.st5{clip-path:url(#SVGID_10_);fill:#0066B3;}
</style>
<g id="GUIDES">
</g>
<g>
	<g>
		<defs>
			<path id="SVGID_1_" d="M-43.2,395.4c-0.3-0.5-1-0.5-1.5-0.2c-0.1,0.1-0.2,0.2-0.3,0.4l-9,17.9c-0.3,0.5-0.1,1.2,0.5,1.4
				c0.1,0.1,0.3,0.1,0.5,0.1h12.5c0.4,0,0.8-0.2,1-0.6C-36.9,408.9-38.5,400.4-43.2,395.4L-43.2,395.4z"/>
		</defs>
		<defs>
			<rect id="SVGID_2_" x="-54.1" y="378.5" width="298.2" height="37"/>
		</defs>
		<clipPath id="SVGID_3_">
			<use xlink:href="#SVGID_1_"  style="overflow:visible;"/>
		</clipPath>
		<clipPath id="SVGID_4_" class="st0">
			<use xlink:href="#SVGID_2_"  style="overflow:visible;"/>
		</clipPath>
		<g class="st1">
			<defs>
				<rect id="SVGID_5_" x="-54.1" y="394.9" width="15.9" height="20.2"/>
			</defs>
			<clipPath id="SVGID_6_">
				<use xlink:href="#SVGID_5_"  style="overflow:visible;"/>
			</clipPath>
			<g style="clip-path:url(#SVGID_6_);">
				
					<image style="overflow:visible;" width="64" height="78" xlink:href="1E6B32EE.jpg"  transform="matrix(0.269 0 0 -0.269 -54.5396 415.4247)">
				</image>
			</g>
		</g>
	</g>
	<g>
		<defs>
			<rect id="SVGID_7_" x="-54.1" y="378.5" width="298.2" height="37"/>
		</defs>
		<clipPath id="SVGID_8_">
			<use xlink:href="#SVGID_7_"  style="overflow:visible;"/>
		</clipPath>
		<path class="st2" d="M-36.7,379.1c-4.5,7-5.1,15.9-1.4,23.3l6,12c0.2,0.4,0.6,0.6,1,0.6h12.5c0.6,0,1.1-0.5,1.1-1.1
			c0-0.2,0-0.3-0.1-0.5c0,0-16.8-33.6-17.2-34.4c-0.2-0.5-0.9-0.7-1.4-0.5C-36.4,378.7-36.6,378.9-36.7,379.1L-36.7,379.1z"/>
		<path class="st3" d="M132.9,406.2c0-5.3-2.8-7.7-10.7-9.4c-4.3-1-5.4-1.9-5.4-3.3c0-1.7,1.6-2.5,4.4-2.5c3.5,0,6.9,1.1,10.2,2.5
			v-6.9c-3.1-1.4-6.5-2.1-9.9-2.1c-7.8,0-11.8,3.4-11.8,8.9 M109.7,393.4c0,4.4,2.1,8,10.1,9.5c4.8,1,5.8,1.8,5.8,3.4
			c0,1.6-1,2.6-4.4,2.6c-4.1-0.1-8.1-1.2-11.7-3.2v7.2c2.4,1.2,5.6,2.5,11.6,2.5c8.4,0,11.8-3.8,11.8-9.3"/>
	</g>
	<polygon class="st4" points="217.9,385 217.9,415 224.3,415 224.3,392.1 227,398.2 236,415 244.1,415 244.1,385 237.7,385 
		237.7,404.4 235.3,398.8 228,385 217.9,385 	"/>
	<g>
		<defs>
			<rect id="SVGID_9_" x="-54.1" y="378.5" width="298.2" height="37"/>
		</defs>
		<clipPath id="SVGID_10_">
			<use xlink:href="#SVGID_9_"  style="overflow:visible;"/>
		</clipPath>
		<polygon class="st5" points="170.1,385 177.1,385 177.1,415 170.1,415 170.1,385 		"/>
		<path class="st5" d="M162.1,406.2c0-5.3-2.8-7.7-10.7-9.4c-4.3-1-5.4-1.9-5.4-3.3c0-1.7,1.6-2.5,4.4-2.5c3.5,0,6.9,1.1,10.2,2.5
			v-6.9c-3.1-1.4-6.5-2.1-9.9-2.1c-7.8,0-11.8,3.4-11.8,8.9c0,4.4,2.1,8,10.1,9.5c4.8,1,5.8,1.8,5.8,3.4c0,1.6-1,2.6-4.4,2.6
			c-4.1-0.1-8.1-1.2-11.7-3.2v7.2c2.4,1.2,5.6,2.5,11.6,2.5C158.7,415.5,162.1,411.7,162.1,406.2"/>
	</g>
	<polygon class="st4" points="55.3,385 55.3,415 69.7,415 72,408.5 62.4,408.5 62.4,385 55.3,385 	"/>
	<polygon class="st4" points="26.9,385 26.9,391.5 34.7,391.5 34.7,415 41.7,415 41.7,391.5 50.1,391.5 50.1,385 26.9,385 	"/>
	<path class="st4" d="M12.1,404.6c-1.3,0-2.6-0.2-3.9-0.6l3.9-13.1l3.9,13.1C14.7,404.4,13.4,404.6,12.1,404.6L12.1,404.6z
		 M16.7,385H7.4L-3,415h8l1.5-5.1c3.7,1.1,7.6,1.1,11.2,0l1.5,5.1h8L16.7,385L16.7,385z"/>
	<path class="st4" d="M89.9,404.6c-1.3,0-2.6-0.2-3.9-0.6l3.9-13.1l3.9,13.1C92.5,404.4,91.2,404.6,89.9,404.6L89.9,404.6z
		 M94.5,385h-9.2L74.8,415h8l1.5-5.1c3.7,1.1,7.6,1.1,11.2,0L97,415h8L94.5,385L94.5,385z"/>
	<path class="st4" d="M197.7,404.6c-1.3,0-2.6-0.2-3.9-0.6l3.9-13.1l3.9,13.1C200.3,404.4,199,404.6,197.7,404.6L197.7,404.6z
		 M202.4,385h-9.2L182.6,415h8l1.5-5.1c3.7,1.1,7.6,1.1,11.2,0l1.5,5.1h8L202.4,385L202.4,385z"/>
</g>
</svg>
