<?xml version="1.0" encoding="utf-8"?>
<!-- Generator: Adobe Illustrator 21.0.2, SVG Export Plug-In . SVG Version: 6.00 Build 0)  -->
<svg version="1.1" id="Layer_1" xmlns="http://www.w3.org/2000/svg" xmlns:xlink="http://www.w3.org/1999/xlink" x="0px" y="0px"
	 viewBox="0 0 400 300" style="enable-background:new 0 0 400 300;" xml:space="preserve">
<style type="text/css">
	.st0{fill:url(#SVGID_1_);}
	.st1{fill:#D1D3D4;}
	.st2{fill:#FFD200;}
	.st3{fill:#E31933;}
</style>
<g>
	<g>
		<g>
			<g>
				<path d="M94.7,184.6v0.3h8.2v-0.3h-0.4c-1.6,0-3.2-0.2-3.2-1.6c0-0.5,0.3-1.2,0.5-1.9V181c0.1-0.1,0.1-0.3,0.1-0.4l2.3-6h8.1
					l0,0l2.6,7.1c0.1,0.4,0.3,0.9,0.3,1.5c0,1.2-1,1.5-3.1,1.5h-0.8v0.3h9.9v-0.3c-1.7,0-2.6-0.4-3.4-2.5l-7.8-20.7h-2.8l0.3,0.6
					v0.1l-6.8,18.6C97.5,184,97,184.5,94.7,184.6z M102.9,173l3.4-9.2l0.1,0.1l3.6,9.4h-7.1L102.9,173z"/>
				<path d="M124.2,184.2c0,0.8-0.5,1.2-1.3,1.2c-0.8,0-1.3-0.5-1.3-1.2c0-0.7,0.5-1.2,1.3-1.2C123.7,183,124.2,183.5,124.2,184.2z"
					/>
				<path d="M143.9,162.3V162h-9.1v0.3h0.2c2.9,0,3.2,0.9,3.2,4.2v11.7c0,3.8-1.1,5.8-3.3,5.8c-0.9,0-1.6-0.5-2.3-1
					c-0.5-0.4-1.1-0.8-1.6-0.8c-0.6,0-1.2,0.6-1.2,1.3c0,1,1.5,1.8,3.4,1.8c4.5,0,7.5-5,7.5-12.4v-7.7
					C140.9,163.1,141.6,162.3,143.9,162.3z"/>
				<path d="M145.9,178.1l-1.4,4c-0.2,0.5-0.5,1.2-0.5,1.6c0,0.7,0.7,1,2.1,1h0.4v0.5h-5.8v-0.5c1.6,0,1.9-0.3,2.7-2.5l4.5-12.5
					l-0.2-0.5h2.2l5.2,13.9c0.5,1.3,1,1.6,2.3,1.6v0.5h-6.8v-0.5h0.7c1.4,0,2-0.1,2-0.8c0-0.4-0.2-0.8-0.3-1l-1.6-4.6L145.9,178.1
					L145.9,178.1z M148.5,171.2l-2.1,5.8h4.3L148.5,171.2z"/>
				<path d="M168.1,185.1l-6.4-13.4h-0.1l-0.7,11.2c-0.1,1.3,0.9,1.6,2,1.6v0.5h-5.2v-0.5c1.8,0,2.1-0.4,2.2-2.7l0.6-9.7
					c0.1-1.6,0.1-2.1-1.5-2.2v-0.5h3.8l6,12.6l6-12.6h3.7v0.5c-1.2,0.1-1.7,0.1-1.6,1l0.8,11.4c0.1,2.3,0.3,2.3,2.2,2.3v0.5h-6.4
					v-0.5c1.2,0,2.3-0.3,2.3-1.6l-0.8-11.2H175l-6.2,13.4H168.1L168.1,185.1z"/>
				<path d="M192,179.4h-0.5c-0.2-1.8-0.7-2-1.7-2h-4.2v5.3c0,1.2,0.4,1.4,1.4,1.4h3.8c1.8,0,2.3-0.7,2.9-2.8h0.5l-0.4,3.7h-13.3
					v-0.5h0.7c2,0,2.3-0.5,2.3-2.1V172c0-1.4-0.3-2-2-2h-0.5v-0.5h12l0.2,3.5h-0.5c-0.3-2.1-1-2.6-1.8-2.6h-5.2v6.2h4.5
					c0.9,0,1.3-0.4,1.4-1.8h0.5L192,179.4L192,179.4z"/>
				<path d="M196.8,181.3c0.5,2.3,2.3,3.6,4.2,3.6c1.6,0,3.4-1,3.4-2.9c0-3.6-8-4.7-8-9.1c0-2.1,1.9-3.6,4.5-3.6
					c2.1,0,2.5,0.6,3.4,0.6c0.2,0,0.3-0.1,0.5-0.3h0.4l0.4,3.1h-0.4c-0.7-1.8-2.3-2.9-4-2.9c-1.6,0-2.8,1-2.8,2.3c0,3.6,8,4.5,8,9.1
					c0,2.5-2.2,4.2-5.1,4.2c-1.4,0-3.1-0.7-3.5-0.7c-0.2,0-0.4,0.1-0.5,0.3h-0.4l-0.5-3.8h0.5V181.3z"/>
				<path d="M237.9,184.4c0.8-1.4,1.7-3.4,2.3-5.1h-0.3c-2.1,3.7-5.2,5.5-9.3,5.5c-6,0-10.8-5.3-10.8-12c0-6.6,4.2-11,10.4-11
					c4,0,7.4,2.2,8.7,5.8h0.3l-0.3-5h-0.3c-0.1,0.1-0.4,0.2-0.8,0.2c-0.4,0-0.9-0.1-1.6-0.4c-1.3-0.4-3.2-1.1-6.4-1.1
					c-7.7,0-13.3,5.2-13.3,12.3c0,6.8,5.4,11.8,12.9,11.8c2.3,0,3.8-0.3,5.1-0.7c1-0.2,1.7-0.4,2.6-0.4
					C237.5,184.4,237.7,184.4,237.9,184.4z"/>
				<path d="M253.5,185.1h-11.2v-0.5h0.8c1.2,0,1.6-0.3,1.6-1.6v-11.1c0-1.3-0.4-1.8-2-1.8h-0.3v-0.5h7.4v0.5h-1
					c-1.6,0-2.1,0.2-2.1,1.7v11.5c0,0.7,0.3,1,1,1h3.7c1.5,0,1.9-0.5,3.5-2.7h0.5L253.5,185.1z"/>
				<path d="M260.1,178.1l-1.4,3.9c-0.2,0.5-0.5,1.2-0.5,1.6c0,0.7,0.7,1,2.1,1h0.4v0.5h-5.9v-0.5c1.6,0,1.9-0.3,2.7-2.5l4.5-12.5
					l-0.2-0.5h2.2l5.2,13.9c0.5,1.3,1,1.6,2.3,1.6v0.5h-6.8v-0.5h0.7c1.4,0,2-0.1,2-0.8c0-0.4-0.2-0.8-0.3-1l-1.6-4.6H260.1z
					 M262.6,171.2l-2.1,5.8h4.3L262.6,171.2z"/>
				<path d="M287.6,185.4c-1.8,0-3.4-0.3-5.7-3.8c-0.3-0.5-1.7-2.7-2.1-3.1h-3.4v3.4c0,2.2,0.2,2.7,2.7,2.7v0.5H272v-0.5
					c2.4,0,2.4-0.7,2.4-2.8v-10.1c0-1.2-0.4-1.7-2.4-1.7v-0.5c2.1-0.2,4.2-0.3,6.4-0.3c2,0,3.1,0.2,4.2,0.8c1,0.5,2.5,1.6,2.5,3.7
					c0,0.7-0.2,3-3.3,4l3.1,4.7c1.2,1.8,1.9,2.4,2.8,2.5L287.6,185.4L287.6,185.4z M276.5,178.1h1c1.1,0,1.9,0,2.8-0.3
					c1.7-0.5,2.4-2.4,2.4-3.9c0-1-0.3-2.7-2-3.6c-1.2-0.5-2.8-0.5-4.2-0.5L276.5,178.1L276.5,178.1z"/>
				<path d="M297.9,185.1v-0.5c1.2,0,1.6-0.2,1.6-0.7c0-0.4-0.5-1.3-3.1-3.8c-2-2-2.6-2.4-3.7-2.3v4.7c0,1.6,0.5,2.1,2,2.1h0.3v0.5
					h-6.8v-0.5h0.5c1.6,0,2-0.5,2-1.8v-11c0-1.5-0.7-1.8-2-1.8h-0.5v-0.5h6.8v0.5h-0.2c-1.5,0-2,0.5-2,2v5.4c1-0.1,1.8-0.5,2.8-1.6
					c2-2,3.5-4.2,3.5-5c0-0.5-0.3-0.8-1.7-0.8v-0.5h6.6v0.5c-1.8,0-2.5,0.3-3.3,1c-0.8,0.8-2.3,3.9-5,5.9c0.5,0.1,0.9,0.5,2,1.6
					c2.6,2.6,4,4.6,4.9,5.4c0.4,0.4,1.1,0.8,2.8,0.8v0.5L297.9,185.1L297.9,185.1z"/>
			</g>
			<g>
				<path d="M75.3,199.2c0.3,1.5,1.5,2.3,2.8,2.3c1.1,0,2.3-0.7,2.3-2c0-2.4-5.3-3.1-5.3-6c0-1.4,1.3-2.4,2.9-2.4
					c1.4,0,1.7,0.4,2.3,0.4c0.1,0,0.2,0,0.3-0.1h0.3l0.3,2.1h-0.3c-0.5-1.2-1.5-2-2.7-2c-1.1,0-1.8,0.6-1.8,1.6c0,2.4,5.3,3,5.3,6.1
					c0,1.6-1.4,2.9-3.4,2.9c-0.9,0-2.1-0.5-2.3-0.5c-0.1,0-0.3,0.1-0.3,0.2h-0.2l-0.3-2.5L75.3,199.2L75.3,199.2z"/>
				<path d="M94.7,194.1c-0.5-1.6-2-2.6-3.8-2.6c-2.8,0-4.5,2-4.5,4.8c0,3,2.2,5.3,4.7,5.3c1.3,0,2.9-0.5,4-2.5h0.3
					c-0.2,0.8-0.7,1.8-1.1,2.5c-1.1-0.1-1.8,0.5-3.8,0.5c-3.4,0-5.8-2.3-5.8-5.3c0-3.2,2.5-5.5,6-5.5c2.1,0,3,0.7,3.5,0.7
					c0.2,0,0.3-0.1,0.3-0.1h0.3l0.1,2.4L94.7,194.1L94.7,194.1z"/>
				<path d="M101,196.8v3.1c0,1.1,0.2,1.4,1.4,1.4h0.1v0.3h-4.2v-0.3h0.1c1,0,1.3-0.3,1.3-1.2v-7.3c0-0.9-0.3-1.1-1.2-1.2v-0.3h4
					v0.3c-1.2,0-1.4,0.3-1.4,1.6v2.9h6.5v-3.3c0-0.9-0.3-1.2-1.3-1.2h-0.3v-0.3h4.3v0.3c-1,0-1.3,0.3-1.3,1.4v6.9
					c0,1.2,0.3,1.4,1.3,1.4h0.1v0.3h-4.7v-0.3h0.5c1.1,0,1.3-0.4,1.3-1.2v-3.4L101,196.8L101,196.8z"/>
				<path d="M119.2,202c-3.3,0-6-2.1-6-5.2c0-3.3,2.5-5.7,6.1-5.7c3.1,0,5.9,2.1,5.9,5.1C125.2,199.6,122.5,202,119.2,202z
					 M118.9,191.6c-2.9,0-4.1,2.7-4.1,4.7c0,3.1,2.1,5.3,4.8,5.3c2.7,0,4-2.4,4-4.8C123.6,193.8,121.6,191.6,118.9,191.6z"/>
				<path d="M134.6,202c-3.3,0-6-2.1-6-5.2c0-3.3,2.5-5.7,6.1-5.7c3.1,0,5.9,2.1,5.9,5.1C140.5,199.6,137.9,202,134.6,202z
					 M134.3,191.6c-2.9,0-4.1,2.7-4.1,4.7c0,3.1,2.1,5.3,4.8,5.3c2.7,0,4-2.4,4-4.8C139,193.8,137,191.6,134.3,191.6z"/>
				<path d="M150.7,201.8h-7.5v-0.3h0.5c0.8,0,1-0.3,1-1.1v-7.4c0-0.9-0.3-1.2-1.3-1.2h-0.2v-0.3h4.9v0.3h-0.6
					c-1.1,0-1.4,0.1-1.4,1.2v7.7c0,0.5,0.2,0.6,0.7,0.6h2.5c1,0,1.3-0.4,2.3-1.8h0.3L150.7,201.8z"/>
				<path d="M167,202c-3.3,0-6-2.1-6-5.2c0-3.3,2.5-5.7,6.1-5.7c3.1,0,5.9,2.1,5.9,5.1C172.9,199.6,170.2,202,167,202z M166.6,191.6
					c-2.9,0-4.1,2.7-4.1,4.7c0,3.1,2.1,5.3,4.8,5.3c2.7,0,4-2.4,4-4.8C171.3,193.8,169.4,191.6,166.6,191.6z"/>
				<path d="M183.1,197.8h-0.3c0-1-0.4-1.3-1.2-1.3h-3.1v3.6c0,1,0.2,1.3,1.4,1.3v0.3h-4v-0.3c1-0.1,1.2-0.3,1.2-1.6v-6.6
					c0-1.1-0.1-1.6-1.2-1.6v-0.3h7.5v2h-0.3c0-1-0.3-1.4-1.4-1.4h-3.1v3.9h3.3c0.6,0,0.9-0.3,1-1.1h0.3L183.1,197.8L183.1,197.8z"/>
				<path d="M199.8,198h-0.3c-0.1-1.2-0.5-1.3-1.2-1.3h-2.8v3.6c0,0.8,0.3,0.9,0.9,0.9h2.6c1.2,0,1.5-0.5,1.9-1.9h0.3l-0.3,2.5H192
					v-0.3h0.5c1.3,0,1.6-0.3,1.6-1.4v-7.1c0-1-0.2-1.3-1.4-1.3h-0.3v-0.3h8l0.1,2.3h-0.3c-0.2-1.4-0.6-1.7-1.2-1.7h-3.5v4.1h3
					c0.6,0,0.9-0.3,1-1.2h0.3v3.2H199.8z"/>
				<path d="M215,201.9l-8.6-9v7.2c0,1.2,0.3,1.4,1.7,1.4v0.3h-3.9v-0.3h0.1c1,0,1.4-0.3,1.4-1.1v-8.2c-0.4-0.3-0.8-0.4-1.4-0.4
					v-0.3h2.6l7.9,8.2V193c0-1-0.3-1.2-1.6-1.2v-0.3h3.9v0.3c-1.2,0-1.5,0.2-1.5,0.9v9.3L215,201.9L215,201.9z"/>
				<path d="M228.9,200.9c-1.6,0.8-3.8,1-4.5,1c-3.6,0-5.3-2.8-5.3-5.3c0-2.5,1.8-5.6,5.8-5.6c1.8,0,2.9,0.5,3.4,0.5
					c0.1,0,0.3,0,0.4-0.1h0.2v2.7h-0.3c-0.5-2.1-1.8-2.7-3.4-2.7c-2.9,0-4.5,2.5-4.5,5.1c0,3.4,2.4,4.9,4.3,4.9
					c0.8,0,1.6-0.1,2.5-0.6v-2.1c0-1-0.3-1.3-1.3-1.3h-0.6v-0.3h4.5v0.3c-0.8,0.1-1.2,0.3-1.2,1L228.9,200.9L228.9,200.9z"/>
				<path d="M236.8,201.8h-4v-0.3c1-0.1,1.2-0.3,1.2-1.4v-7.1c0-0.9-0.3-1.2-1.2-1.2v-0.3h4v0.3c-1,0-1.4,0.2-1.4,1.4v7.1
					c0,1,0.3,1.3,1.4,1.3V201.8z"/>
				<path d="M250.8,201.9l-8.6-9v7.2c0,1.2,0.3,1.4,1.7,1.4v0.3H240v-0.3h0.1c1,0,1.4-0.3,1.4-1.1v-8.2c-0.4-0.3-0.8-0.4-1.4-0.4
					v-0.3h2.6l7.9,8.2V193c0-1-0.3-1.2-1.6-1.2v-0.3h3.9v0.3c-1.2,0-1.5,0.2-1.5,0.9v9.3L250.8,201.9L250.8,201.9z"/>
				<path d="M263,198h-0.3c-0.1-1.2-0.5-1.3-1.2-1.3h-2.8v3.6c0,0.8,0.3,0.9,0.9,0.9h2.6c1.2,0,1.5-0.5,1.9-1.9h0.3l-0.3,2.5h-8.8
					v-0.3h0.5c1.4,0,1.6-0.3,1.6-1.4v-7.1c0-1-0.2-1.3-1.3-1.3h-0.3v-0.3h8l0.1,2.3h-0.3c-0.2-1.4-0.6-1.7-1.2-1.7h-3.5v4.1h3
					c0.6,0,0.9-0.3,1-1.2h0.3v3.2H263z"/>
				<path d="M274.9,198h-0.3c-0.1-1.2-0.5-1.3-1.2-1.3h-2.8v3.6c0,0.8,0.3,0.9,0.9,0.9h2.6c1.2,0,1.5-0.5,1.9-1.9h0.3l-0.3,2.5h-8.8
					v-0.3h0.5c1.3,0,1.6-0.3,1.6-1.4v-7.1c0-1-0.2-1.3-1.3-1.3h-0.3v-0.3h8l0.1,2.3h-0.3c-0.2-1.4-0.6-1.7-1.2-1.7h-3.5v4.1h3
					c0.6,0,0.9-0.3,1-1.2h0.3v3.2H274.9z"/>
				<path d="M289.6,202c-1.2,0-2.3-0.2-3.8-2.5c-0.2-0.3-1.2-1.8-1.4-2.1h-2.2v2.3c0,1.4,0.1,1.8,1.8,1.8v0.3h-4.8v-0.3
					c1.6,0,1.6-0.4,1.6-1.8v-6.7c0-0.8-0.3-1.2-1.6-1.2v-0.3c1.4-0.1,2.8-0.2,4.2-0.2c1.3,0,2.1,0.1,2.8,0.5
					c0.7,0.3,1.6,1.1,1.6,2.5c0,0.5-0.1,2-2.2,2.7l2.1,3.1c0.8,1.2,1.3,1.6,1.8,1.6V202z M282.2,197.1h0.7c0.8,0,1.3,0,1.8-0.2
					c1.2-0.3,1.6-1.6,1.6-2.6c0-0.7-0.2-1.8-1.3-2.4c-0.8-0.4-1.8-0.3-2.7-0.3L282.2,197.1L282.2,197.1z"/>
				<path d="M296.6,201.8h-4v-0.3c1-0.1,1.2-0.3,1.2-1.4v-7.1c0-0.9-0.3-1.2-1.2-1.2v-0.3h4v0.3c-1,0-1.4,0.2-1.4,1.4v7.1
					c0,1,0.3,1.3,1.4,1.3V201.8z"/>
				<path d="M310.6,201.9l-8.6-9v7.2c0,1.2,0.3,1.4,1.7,1.4v0.3h-3.9v-0.3h0.1c1,0,1.4-0.3,1.4-1.1v-8.2c-0.4-0.3-0.8-0.4-1.4-0.4
					v-0.3h2.6l7.9,8.2V193c0-1-0.3-1.2-1.6-1.2v-0.3h3.9v0.3c-1.2,0-1.5,0.2-1.5,0.9v9.3L310.6,201.9L310.6,201.9z"/>
				<path d="M323.8,200.9c-1.6,0.8-3.8,1-4.5,1c-3.6,0-5.3-2.8-5.3-5.3c0-2.5,1.8-5.6,5.8-5.6c1.8,0,2.9,0.5,3.3,0.5
					c0.1,0,0.3,0,0.4-0.1h0.2v2.7h-0.3c-0.5-2.1-1.8-2.7-3.4-2.7c-2.9,0-4.5,2.5-4.5,5.1c0,3.4,2.4,4.9,4.3,4.9
					c0.8,0,1.6-0.1,2.5-0.6v-2.1c0-1-0.3-1.3-1.3-1.3h-0.5v-0.3h4.5v0.3c-0.8,0.1-1.2,0.3-1.2,1L323.8,200.9L323.8,200.9z"/>
			</g>
		</g>
	</g>
	<g>
		<g>
			<g>
				<g>
					
						<radialGradient id="SVGID_1_" cx="200.6865" cy="174.4419" r="19.7484" gradientTransform="matrix(1 0 0 -1 -0.7207 300.0003)" gradientUnits="userSpaceOnUse">
						<stop  offset="0" style="stop-color:#FFFFFF"/>
						<stop  offset="0.5149" style="stop-color:#FCFCFC"/>
						<stop  offset="0.7003" style="stop-color:#F5F5F5"/>
						<stop  offset="0.8325" style="stop-color:#EBEBEC"/>
						<stop  offset="0.9387" style="stop-color:#DDDEDF"/>
						<stop  offset="1" style="stop-color:#D1D3D4"/>
					</radialGradient>
					<path class="st0" d="M200,145.3c-10.9,0-19.8-8.8-19.8-19.8c0-10.9,8.8-19.8,19.8-19.8c10.9,0,19.8,8.8,19.8,19.8
						C219.8,136.4,210.9,145.3,200,145.3z"/>
				</g>
				<g>
					<path class="st1" d="M200,145.3c-10.9,0-19.8-8.8-19.8-19.8c0-10.9,8.8-19.8,19.8-19.8c10.9,0,19.8,8.8,19.8,19.8
						C219.8,136.4,210.9,145.3,200,145.3z M200,106.1c-10.8,0-19.5,8.8-19.5,19.5s8.8,19.5,19.5,19.5s19.5-8.8,19.5-19.5
						C219.5,114.8,210.7,106.1,200,106.1z"/>
				</g>
				<path class="st2" d="M219.6,125.1c0,0.1-0.3,0.4-0.8,0.6l0,0c-0.5,0.3-1.2,0.5-2.1,0.8c-0.9,0.3-2.1,0.5-3.3,0.6
					c-1.2,0.2-2.6,0.3-4.1,0.5l0,0c-1.9,0.1-3.1,0.3-4.7,0.3c-1.6,0.1-3.3,0.1-5,0.1c0,0.2,0,0.4,0,0.7c0,1.5,0,3,0,4.4
					c0.1,7.5,0.1,7.5,0.3,12.1c10.8,0,19.7-8.8,19.7-19.7C219.6,125.6,219.6,125.3,219.6,125.1z"/>
				<g>
					<path d="M199.7,128.7c0,1.5,0,3,0,4.4c3.1,3,3.1,3,4.5,4.3c0.3-2.5,0.5-5.5,0.5-8.8c0-0.2,0-0.4,0-0.7c-2,0.1-3.3,0.1-5,0.1
						C199.7,128.3,199.7,128.5,199.7,128.7z"/>
					<path d="M206.9,140.8c-0.7-1.1-1.3-1.8-2.7-3.4c-0.7,4.8-1.8,7.7-3.4,7.8c0.1,0,0.3,0,0.4,0c0.1,0,0.3,0,0.5-0.1
						C203.8,144.9,205.5,143.4,206.9,140.8z"/>
					<path d="M209.1,132.7c0,0-1.2,5.9-2.2,8c0.6,1.2,0.6,1.6,0.4,2.5c1.9-1.4,3.5-3.6,4.6-6.3C211.1,135.4,210.6,134.7,209.1,132.7
						z"/>
					<path d="M203.5,144.9c0.4-0.1,0.4-0.1,1.2-0.3l0.5-0.1c1.4-0.5,1.7-0.7,2.1-1.4c-1.3,1-2.7,1.6-4.2,1.8L203.5,144.9z"/>
					<path d="M212.2,140.1c2.8-3.2,4.6-7.7,4.5-12.9c0-0.2,0-0.4,0-0.6c-0.9,0.3-2.1,0.5-3.3,0.6c0,0.2,0,0.4,0,0.7
						c0,3.4-0.5,6.4-1.6,9C212.4,138.3,212.4,139,212.2,140.1z"/>
					<path d="M209.3,127.6c-1.9,0.1-3.1,0.3-4.7,0.3c2.7,2.8,3.3,3.4,4.4,4.7c0.1-1.4,0.3-2.9,0.3-4.4
						C209.3,128.1,209.3,127.9,209.3,127.6z"/>
				</g>
				<path d="M195.7,106.9c1.1-0.4,2.1-0.9,4.2-1l0,0C198.5,106,197,106.5,195.7,106.9"/>
				<g>
					<path class="st3" d="M213.1,127.2c-1-0.1-1.8-1.8-1.4-3.6c-1.4,1-3.1-1-2.8-2.9c0.1-1,0.8-1.9,1.9-1.5c-0.5-1.6-1-3.1-1.7-4.5
						c-1,0.1-2.1,0.2-3.3,0.3c1,1.6,0,3.1-1.4,2.8c-1.1-0.1-2.1-1.3-1.8-2.6c-0.9,0.6-2.6,0.3-2.8-1.5c-0.1,4-0.1,9.1-0.1,14.4
						c5.2,0.1,11.3-0.5,13.8-0.9l0,0C213.3,127.2,213.2,127.2,213.1,127.2z"/>
				</g>
				<g>
					<path class="st3" d="M187.3,131.1c1.4-0.5,3.3,2,2.7,3.6c-0.3,0.8-1.1,1-1.8,0.5c0.4,1.5,1,2.8,1.6,4c1,0.1,2.2,0.3,3.5,0.3
						c-1-1.2-0.2-2.3,1.2-2.2c1.2,0.1,2.7,1,2.4,2.3c1-0.5,2.8-0.1,3,1.3c-0.1-2.9-0.1-7.3-0.1-12.4c0-0.2,0-0.4,0-0.7
						c-1.6,0-3.4-0.1-5-0.1c-3.6-0.1-6-0.3-8.9-0.9l0,0C187.2,127.6,187.7,129.9,187.3,131.1z"/>
				</g>
				<path class="st3" d="M209.3,113L209.3,113L209.3,113L209.3,113L209.3,113L209.3,113c0.2-0.1,0.4-0.1,0.5-0.1
					c1.1-0.2,3.7-0.8,3.7-1.6c0,0,1,1,1.7,2.4c0.1,0.1,0.1,0.3,0.2,0.5c0.1,0.3,0.1,0.5,0.1,0.7c0,0.4-0.3,0.4-0.6,0.3
					c0,0-0.1,0-0.1-0.1c-1-0.5-1.4-1.4-1.5-1.8c-0.5,0.1-1.4,0.5-2.1,0.7c-0.1,0-0.2,0.1-0.3,0.1c0.8,1.4,1.6,3,2.2,4.6
					c1-1,2.5,0.9,2.6,2.7c0.1,1.1-0.4,2.1-1.4,1.7c0.8,1.4,0.5,3.6-1,4C213.2,122.4,212.4,118.2,209.3,113L209.3,113L209.3,113"/>
				<path class="st3" d="M209.2,113L209.2,113L209.2,113L209.2,113L209.2,113c-2.5-3.8-4.5-5.2-7-6.2c-0.5-0.2-2.2-0.9-2.3-0.9l0,0
					l0,0c0.5,0.7,1.4,1,1.5,1.1c-0.1,0.2,0,0.7,0.8,1.3c0.1,0.1,0.3,0.1,0.3,0.2c1.3,0.7,1.6,0.1,1.6-0.1l0,0c0.4,0.3,1.2,0.9,2,1.8
					c0.5,0.5,1,1.1,1.3,1.6c-0.8,0.1-1.8,0.2-2.9,0.3c-0.1-1.2-1-1.8-1.5-2.1c-1.2-0.5-1.6,1-1.1,2.1c-1-0.5-2.1-0.1-2.3,1.5
					C203.6,113.6,206.3,113.4,209.2,113L209.2,113L209.2,113"/>
				<path class="st3" d="M209.5,109.5c0,0,0-0.1,0-0.1c0-0.1,0.1-0.1,0.1-0.1s0-0.1,0.1-0.1c0.2-0.1,0.8-0.2,2.5,1
					c-3.4-2.7-7.1-3.8-10.2-4.1c-0.4-0.1-1.2-0.1-1.2-0.1c1,0.1,1.6,0.3,1.8,0.4c0.1,0.1,0.2,0.1,0.3,0.1l0,0c0.2,0,0.4,0.1,0.7,0.1
					c0.3,0.1,0.8,0.3,1.2,0.5c0.5,0.2,1.1,0.7,1.1,1c-0.1,0.1-0.1,0.1-0.4,0c1.2,0.8,2.8,2.4,3.8,3.6c0.7-0.1,1.7-0.3,2.1-0.4
					C211.3,111.2,209.8,110.2,209.5,109.5z"/>
				<path class="st3" d="M189.6,140.3c-1.7-0.3-2.7-0.5-3.3-0.9c-0.1-0.1-0.1-0.1-0.1-0.1s-1-1-1.8-2.1c-0.6-0.8-1.1-1.6-1.2-1.8
					c0,0,0.1,0,0.2,0c0.9,0.3,2.3,2.7,2.3,2.7c0.5,0.2,1.2,0.4,2.1,0.5c-0.8-1.2-1.5-2.6-2-4c-1.2,0.6-2.8-2.6-2.3-4
					c0.1-0.3,0.4-0.9,1.2-0.2c-0.6-1.4-0.5-3.6,1-3.6C185.8,131.9,186.4,136,189.6,140.3"/>
				<path class="st3" d="M199.8,141.4c-0.1,0.7-1.1,1.3-2.5,0.8c0.6,0.8,0.1,1.6-1,1.4c-0.9-0.1-1.9-0.8-2-1.6
					c-1.1-0.1-2.1-0.2-2.9-0.3c0.8,1,1.7,1.7,2.7,2.3c0.1-0.1,0.3-0.1,0.9,0.1c0.8,0.3,1.4,0.6,2.2,0.9h-0.1c-0.5-0.1-0.7-0.1-1-0.2
					c-1.4-0.3-4-1.1-6.5-4.5l0,0l0,0l0,0c3.1,0.5,6,0.7,10.3,0.7C199.8,141.2,199.8,141.3,199.8,141.4"/>
				<path class="st2" d="M199.9,106c-10.5,0-19.4,8.6-19.6,19.2l0,0c0,0,0.1,0.2,0.5,0.5l0,0l0,0c0.4,0.3,1,0.5,1.8,0.8
					c1,0.3,2.1,0.5,3,0.6l0,0c2.9,0.5,5.4,0.7,8.9,0.9c1.6,0.1,3.4,0.1,5,0.1c0-1,0-6.7,0.1-12.2c0-0.7,0-1.4,0-2.2
					C199.8,110.1,199.8,106.5,199.9,106L199.9,106z"/>
				<path d="M209.3,142.8c-1.1,0.6-1.3,0.6-2.8,1.2c-0.4,0.1-0.8,0.3-1.2,0.4c2.7-0.7,6.2-3.7,6.9-4.4c-0.3,0.7-0.5,1.2-1.4,1.8
					C210.6,142.1,209.7,142.6,209.3,142.8z"/>
				<path d="M182.7,126.4c-0.8-0.2-1.4-0.5-1.8-0.8c0.2-7.1,4.2-13.4,9.9-16.8c-1.4,1.2-2,1.9-2.7,3.6
					C184.9,116.1,182.8,121.1,182.7,126.4"/>
				<path d="M190.8,108.9c1.4-1,2.3-1.8,4.5-2.3c1.6-0.4,3-0.5,4.6-0.5l0,0C196.6,106.1,193.5,107.2,190.8,108.9"/>
				<path d="M189.8,127.6c-1.4-0.1-2.8-0.3-4-0.5c0.1-3.6,0.8-7,2.1-10c0.5,2,0.9,3.1,2.3,5.4C189.9,124.1,189.8,125.9,189.8,127.6"
					/>
				<path d="M199.8,113.6c0,2.2-0.1,4.4-0.1,6.1s0,2.9,0,3.1c-1.9-2.1-2.9-3.1-4.4-4.9c1-6.1,2.7-11,4.6-12.1l0,0l0,0
					C199.8,106.5,199.8,110,199.8,113.6z"/>
				<g>
					<path d="M192.8,113.4c-1.2,2.6-2.1,5.7-2.7,9c1.2,1.8,1.9,2.8,4.3,5.4c0-3.5,0.3-6.9,0.8-10C193.9,116,193.4,115.1,192.8,113.4
						z"/>
				</g>
				<path d="M218.9,125.8c0,0.2,0,0.4,0,0.6c0,6.9-3.4,12.7-8.7,15.9l-0.1,0.1c2.5-1.5,5.6-4.1,7.7-8.4c2.1-4.2,1.9-8.9,1.9-8.9
					C219.5,125.4,219.1,125.6,218.9,125.8z"/>
				<g>
					<path d="M195.7,106.9c-2.9,1.1-5.4,3-7.5,5.4c-0.5,1.8-0.5,2.8-0.3,4.7c1.3-2.9,3.1-5.5,5.1-7.5
						C193.7,108.5,194.1,107.8,195.7,106.9z"/>
				</g>
				<path d="M192.8,113.4c-0.3-1.6-0.4-2.4,0.1-3.8c2.1-1.9,4.4-3.3,6.9-3.7C197.2,106.7,194.7,109.5,192.8,113.4"/>
			</g>
			<g>
				<g>
					<path d="M178.1,112.8l-1.6-0.8c-0.3-0.2-0.4-0.3-0.3-0.8v-0.1L176,111l-0.8,1.5l0.2,0.1v-0.1c0.1-0.3,0.3-0.4,0.4-0.4
						c0.1,0,0.3,0.1,0.5,0.1l1.4,0.7c1,0.5,0.9,1.3,0.6,1.9c-0.3,0.5-0.7,0.9-1.2,0.9c-0.2,0-0.5-0.1-0.7-0.2l-1.6-0.8
						c-0.3-0.1-0.3-0.3-0.2-0.6l0.1-0.1l-0.2-0.1l-0.8,1.6l0.2,0.1v-0.1c0.1-0.3,0.2-0.3,0.3-0.3c0.1,0,0.1,0,0.3,0.1l1.7,0.9
						c0.3,0.1,0.5,0.2,0.8,0.2c0.7,0,1.2-0.4,1.6-1.2C179.5,114,178.9,113.2,178.1,112.8z"/>
					<path d="M180.2,106.4c0-0.1,0.1-0.2,0.3-0.4l0.1-0.1l-0.2-0.1l-1.1,1.3l0.2,0.1l0.1-0.1c0.2-0.3,0.3-0.3,0.4-0.3
						s0.1,0.1,0.3,0.1l1.9,1.6l-4.4,0.3l-0.8,0.9l0.2,0.1l0.1-0.1c0.1-0.1,0.3-0.3,0.4-0.3l2.5,2.1c0.2,0.1,0.3,0.3,0,0.6l-0.1,0.1
						l0.2,0.1l1.1-1.3l-0.2-0.1l-0.1,0.1c-0.2,0.3-0.3,0.3-0.4,0.3l0,0c-0.1,0-0.2-0.1-0.3-0.2l-2.1-1.8l4.9-0.3l0.1-0.2l-2.9-2.5
						C180.2,106.5,180.2,106.5,180.2,106.4z"/>
					<path d="M185.3,106.9c-0.1,0.1-0.3,0.2-0.3,0.2c-0.1,0-0.2-0.1-0.3-0.2l-1.8-2.2c-0.3-0.3-0.2-0.5,0.1-0.7l0.1-0.1l-0.1-0.2
						l-1.3,1.1l0.1,0.2h0.1c0.1-0.1,0.3-0.1,0.3-0.1s0.2,0.1,0.3,0.2l1.8,2.2c0.3,0.3,0.3,0.4,0,0.7l-0.1,0.1l0.1,0.2l1.3-1.1
						L185.3,106.9L185.3,106.9z"/>
					<path d="M187.9,100.8L187.9,100.8l-0.1-0.2l-1.4,0.8l0.1,0.2h0.1c0.2-0.1,0.3-0.2,0.5-0.2c0.1,0,0.1,0,0.1,0.1
						c0.1,0.1,0.1,0.2,0.1,0.4l0.5,2.7l-2.4-1.8c-0.1-0.1-0.1-0.1-0.1-0.2c0-0.1,0.1-0.3,0.4-0.4h0.1l-0.1-0.2l-1.7,1l0.1,0.2h0.1
						c0.1-0.1,0.2-0.1,0.3-0.1s0.2,0.1,0.4,0.2l3.1,2.4l0.3-0.2l-0.6-3.8C187.6,101.1,187.6,100.9,187.9,100.8z"/>
					<path d="M193.3,101.9L193.3,101.9c0,0.6-0.1,0.8-0.4,1l-1,0.3c-0.1,0-0.1,0.1-0.2,0.1c-0.1,0-0.1-0.1-0.2-0.2l-0.5-1.3l1-0.3
						c0.1,0,0.1-0.1,0.2-0.1s0.2,0.1,0.3,0.3v0.1l0.2-0.1l-0.5-1.3l-0.2,0.1v0.1c0.1,0.3,0,0.5-0.1,0.5l-1.1,0.3l-0.5-1.4l1.3-0.4
						c0.1,0,0.1,0,0.1,0c0.1,0,0.3,0.1,0.5,0.5v0.1l0.2-0.1l-0.4-1l-3.1,1.1l0.1,0.2l0.2-0.1c0.1-0.1,0.2-0.1,0.3-0.1
						c0.1,0,0.3,0.1,0.3,0.3l0.9,2.7c0.1,0.2,0.1,0.3,0.1,0.4c-0.1,0.1-0.2,0.2-0.4,0.3l-0.2,0.1l0.1,0.2l3.4-1.2l-0.3-1.1
						L193.3,101.9z"/>
					<path d="M199.7,101.8c-0.5,0-0.9-0.1-1.4-0.5l-0.6-0.5c-0.3-0.2-0.5-0.4-0.8-0.5c0.5-0.3,0.8-0.7,0.7-1.2c-0.1-0.8-0.8-1.2-2-1
						c-0.4,0.1-0.5,0.1-0.8,0.1c-0.1,0-0.2,0-0.3,0.1c-0.2,0.1-0.5,0.1-0.5,0.1h-0.1v0.3h0.2c0.1,0,0.1,0,0.1,0
						c0.2,0,0.3,0.1,0.3,0.4l0.3,2.8c0.1,0.4-0.1,0.5-0.4,0.5h-0.1v0.2l2-0.2v-0.2h-0.2c-0.1,0-0.1,0-0.1,0c-0.2,0-0.3-0.1-0.3-0.4
						l-0.1-1c0.1,0,0.1,0,0.3,0c0.2,0,0.3-0.1,0.4-0.1l0,0c0.1,0.1,0.3,0.2,0.8,0.5l0.5,0.4c0.7,0.5,1,0.8,2.2,0.5h0.1L199.7,101.8
						L199.7,101.8z M197,99.3c0.1,0.3,0,0.6-0.1,0.8s-0.5,0.3-0.9,0.4h-0.1c-0.1,0-0.1,0-0.3,0l-0.3-2.1c0.1,0,0.1,0,0.3-0.1
						C196.5,98.2,196.9,98.6,197,99.3z"/>
					<path d="M202.2,99.7c-0.5-0.3-0.9-0.7-0.9-1.1c0-0.3,0.3-0.5,0.8-0.5c0.4,0.1,0.8,0.3,1,0.8V99h0.2l-0.1-1H203l0,0
						c0,0.1-0.1,0.1-0.1,0.1l0,0c-0.1,0-0.1-0.1-0.2-0.1c-0.1-0.1-0.3-0.1-0.7-0.1c-0.7-0.1-1.3,0.3-1.3,0.9
						c-0.1,0.6,0.5,1.1,1.1,1.4c0.5,0.3,0.9,0.7,0.9,1.1c-0.1,0.5-0.5,0.7-0.9,0.7c-0.5-0.1-0.9-0.4-1-1V101h-0.2l0.1,1.2h0.2l0,0
						l0.1-0.1l0,0c0,0,0.1,0,0.2,0.1c0.2,0.1,0.5,0.2,0.8,0.2c0.1,0,0.1,0,0.1,0l0,0c0.8,0,1.3-0.5,1.4-1.1
						C203.3,100.6,202.7,100.1,202.2,99.7z"/>
					<path d="M205,98.6L205,98.6c0.4,0.1,0.5,0.2,0.4,0.5l-0.6,2.7c-0.1,0.3-0.1,0.4-0.3,0.4c-0.1,0-0.1,0-0.2,0h-0.1l-0.1,0.2
						l1.7,0.3l0.1-0.2h-0.1c-0.2-0.1-0.3-0.1-0.4-0.2c-0.1-0.1-0.1-0.2,0-0.4l0.6-2.7c0.1-0.3,0.2-0.4,0.3-0.4c0.1,0,0.1,0,0.3,0
						h0.1l0.1-0.2l-1.7-0.3L205,98.6z"/>
					<path d="M211.9,100.4L211.9,100.4c-0.1,0-0.1,0-0.1,0l-2.9-1.2c-0.1,0-0.1-0.1-0.1-0.1s0,0,0-0.1v-0.1l-0.2-0.1l-0.5,1.1
						l0.2,0.1v-0.1c0.2-0.3,0.3-0.5,0.5-0.5c0.1,0,0.1,0,0.1,0l1,0.4l-1.2,3c-0.1,0.3-0.2,0.3-0.3,0.3c-0.1,0-0.1,0-0.3-0.1
						l-0.3-0.1l-0.1,0.2l2.1,0.8l0.1-0.2l-0.3-0.1c-0.2-0.1-0.3-0.1-0.3-0.2c-0.1-0.1,0-0.2,0.1-0.3l1.2-3l1,0.4
						c0.2,0.1,0.3,0.2,0.1,0.8v0.1l0.2,0.1l0.3-1.2L211.9,100.4L211.9,100.4z"/>
					<path d="M215.9,103.1L215.9,103.1c0.2,0.1,0.3,0.3,0.3,0.3c0,0.1-0.1,0.1-0.2,0.2l-1.6,0.8v-1.8c0-0.3,0.1-0.3,0.1-0.3
						c0.1,0,0.2,0.1,0.3,0.1h0.1l0.1-0.2l-1.6-1l-0.1,0.2h0.1c0.3,0.2,0.4,0.3,0.4,1l-0.1,2.2l-0.5,0.8c-0.2,0.3-0.3,0.3-0.6,0.1
						l-0.1-0.1l-0.1,0.2l1.6,1.1l0.1-0.2l-0.1-0.1c-0.1-0.1-0.3-0.2-0.3-0.3s0-0.2,0.1-0.3l0.5-0.8l1.9-1c0.2-0.1,0.3-0.1,0.5-0.1
						c0.1,0,0.3,0.1,0.5,0.1h0.1l0.1-0.2l-1.4-0.9L215.9,103.1z"/>
					<path d="M222.3,108.9c-0.5-0.7-1.2-1-2-1c-0.5,0-1,0.1-1.4,0.5c-1,0.8-1,2.1-0.2,3.3c0.5,0.6,1.2,1,1.9,1l0,0
						c0.5,0,1-0.1,1.4-0.5C223,111.3,223,109.9,222.3,108.9z M222.3,110.2c-0.1,0.5-0.4,1-0.9,1.4c-0.4,0.3-0.8,0.5-1.2,0.5
						c-0.5,0-0.8-0.2-1.2-0.5c-0.6-0.8-0.4-2,0.5-2.7c0.3-0.3,0.8-0.4,1.2-0.4c0.5,0,0.9,0.2,1.2,0.6
						C222.2,109.3,222.4,109.7,222.3,110.2z"/>
					<path d="M224.5,112.4l-0.2,0.1v0.1c0.2,0.3,0.1,0.5-0.3,0.6l-2.3,1.1c-0.2,0.1-0.3,0.1-0.4,0.1c-0.1,0-0.2-0.1-0.3-0.3v-0.1
						l-0.2,0.1l0.8,1.6l0.2-0.1v-0.1c-0.1-0.2-0.1-0.3-0.1-0.4c0-0.1,0.1-0.1,0.3-0.2l1.2-0.6l0.5,1c0.1,0.2,0.1,0.4-0.2,0.5h-0.1
						l0.1,0.2l1.2-0.5l-0.1-0.2h-0.1c-0.3,0.1-0.4,0.1-0.5-0.1l-0.5-1.2l1.3-0.6l0.5,1.1c0.1,0.3,0.1,0.5-0.2,0.7H225l0.1,0.2
						l0.8-0.4L224.5,112.4z"/>
				</g>
				<path d="M176.8,142.2l2.4-4.5l0,0l-3.2,2.1c-0.3,0.2-0.3,0.5-0.1,0.9l-0.1,0.1l-1-1.4l0.1-0.1c0.3,0.5,0.5,0.5,1.2,0.1l2.8-1.8
					c0.5-0.3,0.6-0.4,0.3-0.8l0.1-0.1l0.8,1l-2.3,4.2l4.7-0.9l0.8,1l-0.1,0.1c-0.3-0.3-0.3-0.4-0.6-0.3l-2.9,2.5
					c-0.6,0.5-0.5,0.5-0.2,1l-0.1,0.1l-1.3-1.8l0.1-0.1c0.2,0.3,0.5,0.5,0.9,0.3l2.9-2.5l0,0L176.8,142.2L176.8,142.2z"/>
				<path d="M185.2,146.9L184,146l1.8-1.2L185.2,146.9z M185.1,147.2l-0.5,1.6c0,0.1-0.1,0.2-0.1,0.3c-0.1,0.2-0.3,0.1-0.7-0.1
					l-0.2-0.1l-0.1,0.1l1.9,1.4l0.1-0.1c-0.3-0.3-0.4-0.4-0.3-0.9l1.4-4.9L186,144l-0.1,0.2l-3.8,2.5c-0.7,0.4-0.8,0.5-1.2,0.1
					l-0.1,0.1l1.6,1.2l0.1-0.1l-0.1-0.1c-0.3-0.3-0.5-0.5-0.3-0.7c0.1-0.1,0.3-0.2,0.5-0.3l1.2-0.8L185.1,147.2z"/>
				<path d="M190.6,147.1c0.1,0.1,0.3,0.1,0.4,0.1c1.2,0.4,1.4,1.2,1.1,1.8c-0.3,1-1,1.1-1.9,0.8c-0.2-0.1-0.3-0.1-0.5-0.2
					L190.6,147.1z M189.6,149.9c0.1,0.1,0.2,0.1,0.4,0.1c0.2,0.1,0.3,0.1,0.5,0.2c0.1,0.2,0.3,0.5,0.5,1l0.3,0.7
					c0.5,1,0.7,1.4,2.1,1.8l0.1-0.1c-0.6-0.3-1-0.8-1.3-1.4l-0.4-0.9c-0.3-0.5-0.4-0.8-0.6-1.2c0.8,0.1,1.3-0.3,1.5-0.9
					c0.3-0.8-0.1-1.6-1.6-2.2c-0.5-0.2-0.7-0.2-1-0.3c-0.3-0.1-0.8-0.3-1-0.3l-0.1,0.1l0.2,0.1c0.5,0.1,0.5,0.3,0.3,0.8l-1.2,3.4
					c-0.2,0.5-0.4,0.6-0.9,0.4l-0.1-0.1l-0.1,0.1l2.3,0.8l0.1-0.1l-0.2-0.1c-0.5-0.1-0.6-0.3-0.4-0.8L189.6,149.9z"/>
				<path d="M199.2,149.7c0.3-0.4,0.1-0.6-0.4-0.6v-0.1l1.9,0.1v0.1c-0.5,0-0.8,0.2-1.1,0.5L198,152l-0.1,1.3
					c-0.1,0.5,0.1,0.6,0.6,0.7h0.1v0.1l-2.3-0.2v-0.1h0.1c0.5,0.1,0.7-0.1,0.8-0.5l0.1-1.2l-1.3-2.5c-0.3-0.7-0.5-0.8-1.1-0.9v-0.1
					l2.3,0.2v0.1c-0.7-0.1-0.7,0.1-0.5,0.5l1.2,2.2L199.2,149.7z"/>
				<path d="M206.3,153.5l-3.8,0.6V154l0.3-0.1c0.4-0.1,0.5-0.2,0.4-0.6l-0.6-3.7c-0.1-0.4-0.3-0.6-0.8-0.5h-0.1v-0.1l2.5-0.4v0.1
					l-0.3,0.1c-0.5,0.1-0.7,0.2-0.6,0.7l0.7,3.8c0.1,0.2,0.1,0.3,0.4,0.3l1.2-0.2c0.5-0.1,0.6-0.3,1-1.1h0.1L206.3,153.5z"/>
				<path d="M210.4,149.3l-1.4,0.5l-0.1-2.1L210.4,149.3z M210.6,149.5l1.1,1.2c0.1,0.1,0.1,0.1,0.2,0.3c0.1,0.2-0.1,0.3-0.5,0.5
					l-0.2,0.1l0.1,0.1l2.2-0.9l-0.1-0.1c-0.4,0.1-0.6,0.1-0.9-0.2l-3.5-3.7l-0.7,0.3l0.1,0.1l0.2,4.5c0,0.8,0,0.9-0.5,1.2l0.1,0.1
					l1.8-0.8l-0.1-0.1l-0.1,0.1c-0.4,0.2-0.7,0.2-0.8,0c-0.1-0.1-0.1-0.4-0.1-0.5l-0.1-1.4L210.6,149.5z"/>
				<path d="M219.8,146.2l-6.4-0.8l2.3,2.8c0.4,0.5,0.5,0.5,1.2,0l0.1,0.1l-1.5,1.2l-0.1-0.1l0,0c0.4-0.3,0.4-0.6,0.2-0.9l-2.7-3.2
					c-0.2,0-0.5,0.1-0.7,0.3l-0.1-0.1l1-0.8l5.8,0.7l-2.2-2.6c-0.3-0.4-0.5-0.3-1,0.1l-0.1-0.1l1.5-1.3l0.1,0.1
					c-0.5,0.4-0.5,0.5-0.3,0.8l3,3.6L219.8,146.2z"/>
				<path d="M218.6,139.7c0.1-0.1,0.1-0.3,0.3-0.6c0.6-1,1.2-1.4,1.8-1.4c0.7-0.1,1.4,0.1,1.9,0.4c0.8,0.5,1.1,1.2,1.2,1.6
					c0.1,0.8,0.1,1.2-0.6,2.2c-0.3,0.5-0.5,0.5-0.8,0.3L218.6,139.7z M221.9,142.7c0.4,0.3,0.4,0.5,0.1,0.9l-0.1,0.1l0.1,0.1
					l1.5-2.3c1.2-1.8,0.4-3.5-0.7-4.2c-1.2-0.8-2.7-0.5-3.9,1.4c-0.3,0.3-0.5,0.8-0.8,1.2c-0.2,0.4-0.5,0.8-0.6,1l0.1,0.1l0.1-0.1
					c0.3-0.4,0.5-0.5,1-0.1L221.9,142.7z"/>
				<path d="M172.6,124.1v3.6c0,0.2,0.1,0.3,0.2,0.3h0.3v0.1h-1.6V128h0.3c0.2,0,0.2-0.1,0.2-0.3v-3.1c-0.2,0.2-0.5,0.4-0.8,0.5
					l-0.1-0.1c0.3-0.3,0.9-0.7,1-1H172.6z"/>
				<path d="M176.3,127.3c0,0.5-0.3,0.9-0.8,0.9c-0.5,0-0.8-0.4-0.8-1c0-0.4,0.2-0.8,0.6-1C176,126.6,176.3,126.8,176.3,127.3z
					 M176.5,125c0-0.5-0.5-0.9-1.2-0.9c-0.6,0-1.2,0.5-1.2,1c0,0.4,0.3,0.8,0.9,1c-0.6,0.3-0.9,0.6-0.9,1c0,0.5,0.5,1,1.2,1
					c0.7,0,1.2-0.5,1.2-1.2c0-0.5-0.3-0.8-1-1.1C176.3,125.8,176.5,125.4,176.5,125z M176.2,125c0,0.3-0.2,0.6-0.5,0.9
					c-0.8-0.3-1-0.6-1-1c0-0.4,0.3-0.7,0.8-0.7C175.9,124.3,176.2,124.6,176.2,125z"/>
				<path d="M223.2,124.6h1.5c0.1,0,0.1,0,0.2-0.1h0.1L225,125h-1.6l-0.1,1.1c0.2-0.1,0.4-0.1,0.7-0.1c0.7,0,1.3,0.6,1.3,1.3
					c0,0.8-0.6,1.4-1.5,1.4c-0.5,0-0.9-0.2-0.9-0.4c0-0.1,0.1-0.2,0.2-0.2c0.3,0,0.5,0.4,0.8,0.4c0.5,0,0.9-0.5,0.9-1s-0.4-1-1-1
					c-0.2,0-0.5,0.1-0.7,0.3l-0.1-0.1L223.2,124.6z"/>
				<path d="M228,127.4c0,0.7-0.3,1.1-0.8,1.1c-0.4,0-0.9-0.3-0.9-1.4c0-0.2,0-0.3,0-0.4c0.4-0.3,0.7-0.4,0.8-0.4
					C227.8,126.3,228,126.7,228,127.4z M228.1,124.5c-1.3,0.3-2.1,1.3-2.1,2.5c0,1,0.5,1.6,1.3,1.6c0.7,0,1.2-0.5,1.2-1.3
					c0-0.6-0.5-1.2-1.1-1.2c-0.3,0-0.5,0.1-0.9,0.3C226.7,125.6,227.2,125,228.1,124.5L228.1,124.5z"/>
			</g>
		</g>
	</g>
</g>
</svg>
