<?xml version="1.0" encoding="utf-8"?>
<!-- Generator: Adobe Illustrator 19.0.0, SVG Export Plug-In . SVG Version: 6.00 Build 0)  -->
<svg version="1.1" id="Layer_1" xmlns="http://www.w3.org/2000/svg" xmlns:xlink="http://www.w3.org/1999/xlink" x="0px" y="0px"
	 viewBox="-105 247 400 300" style="enable-background:new -105 247 400 300;" xml:space="preserve">
<style type="text/css">
	.st0{fill:url(#SVGID_1_);}
	.st1{fill:#2684FF;}
	.st2{fill:#0052CC;}
</style>
<g id="GUIDES">
</g>
<g id="Layer_2">
	<g id="Blue">
		
			<linearGradient id="SVGID_1_" gradientUnits="userSpaceOnUse" x1="-49.0607" y1="397.77" x2="-59.2816" y2="380.0669" gradientTransform="matrix(1 0 0 -1 0 796)">
			<stop  offset="0" style="stop-color:#0052CC"/>
			<stop  offset="0.92" style="stop-color:#2684FF"/>
		</linearGradient>
		<path class="st0" d="M-54.4,395.3c-0.4-0.5-1.1-0.6-1.6-0.2c-0.1,0.1-0.3,0.3-0.3,0.4l-9.7,19.4c-0.3,0.6-0.1,1.3,0.5,1.6
			c0.2,0.1,0.3,0.1,0.5,0.1h13.5c0.4,0,0.8-0.2,1-0.6C-47.5,409.8-49.3,400.7-54.4,395.3z"/>
		<path class="st1" d="M-47.3,377.6c-4.9,7.6-5.5,17.1-1.5,25.2l6.5,13c0.2,0.4,0.6,0.6,1,0.6h13.5c0.6,0,1.2-0.5,1.1-1.2
			c0-0.2,0-0.3-0.1-0.5l-18.6-37.2c-0.3-0.5-0.9-0.8-1.5-0.5C-47,377.2-47.2,377.4-47.3,377.6z"/>
		<path class="st2" d="M110.9,393.2c0,4.8,2.2,8.6,10.9,10.3c5.2,1.1,6.3,1.9,6.3,3.7c0,1.7-1.1,2.8-4.8,2.8
			c-4.4-0.1-8.8-1.3-12.6-3.4v7.8c2.6,1.3,6.1,2.7,12.5,2.7c9.1,0,12.7-4.1,12.7-10.1 M136,406.9c0-5.7-3-8.4-11.5-10.2
			c-4.7-1-5.8-2.1-5.8-3.6c0-1.9,1.7-2.7,4.8-2.7c3.8,0,7.5,1.1,11,2.7v-7.5c-3.4-1.5-7-2.3-10.7-2.2c-8.4,0-12.8,3.7-12.8,9.6"/>
		<polygon class="st2" points="227.8,384 227.8,416.5 234.7,416.5 234.7,391.7 237.6,398.3 247.4,416.5 256.1,416.5 256.1,384 
			249.2,384 249.2,405 246.6,398.9 238.7,384 		"/>
		<rect x="176.2" y="384" class="st2" width="7.6" height="32.5"/>
		<path class="st2" d="M167.5,406.9c0-5.7-3-8.4-11.5-10.2c-4.7-1-5.8-2.1-5.8-3.6c0-1.9,1.7-2.7,4.8-2.7c3.8,0,7.5,1.1,11,2.7v-7.5
			c-3.4-1.5-7-2.3-10.7-2.2c-8.4,0-12.8,3.7-12.8,9.6c0,4.8,2.2,8.6,10.9,10.3c5.2,1.1,6.3,1.9,6.3,3.7c0,1.7-1.1,2.8-4.8,2.8
			c-4.4-0.1-8.8-1.3-12.6-3.4v7.8c2.6,1.3,6.1,2.7,12.5,2.7C163.8,417,167.4,412.9,167.5,406.9"/>
		<polygon class="st2" points="52.1,384 52.1,416.5 67.7,416.5 70.1,409.5 59.7,409.5 59.7,384 		"/>
		<polygon class="st2" points="21.4,384 21.4,391 29.8,391 29.8,416.5 37.4,416.5 37.4,391 46.4,391 46.4,384 		"/>
		<path class="st2" d="M10.4,384h-10l-11.3,32.5h8.7l1.6-5.5c4,1.2,8.2,1.2,12.1,0l1.6,5.5h8.7L10.4,384z M5.4,405.2
			c-1.4,0-2.8-0.2-4.2-0.6l4.2-14.2l4.2,14.2C8.2,405,6.8,405.2,5.4,405.2z"/>
		<path class="st2" d="M94.5,384h-10l-11.3,32.5h8.7l1.6-5.5c4,1.2,8.2,1.2,12.1,0l1.6,5.5h8.7L94.5,384z M89.5,405.2
			c-1.4,0-2.8-0.2-4.2-0.6l4.2-14.2l4.2,14.2C92.3,405,90.9,405.2,89.5,405.2L89.5,405.2z"/>
		<path class="st2" d="M211,384h-10l-11.3,32.5h8.7l1.6-5.5c4,1.2,8.2,1.2,12.1,0l1.6,5.5h8.7L211,384z M206,405.2
			c-1.4,0-2.8-0.2-4.2-0.6l4.2-14.2l4.2,14.2C208.8,405,207.4,405.2,206,405.2L206,405.2z"/>
	</g>
</g>
</svg>
