<?xml version="1.0" encoding="utf-8"?>
<!-- Generator: Adobe Illustrator 21.0.2, SVG Export Plug-In . SVG Version: 6.00 Build 0)  -->
<svg version="1.1" id="Layer_1" xmlns="http://www.w3.org/2000/svg" xmlns:xlink="http://www.w3.org/1999/xlink" x="0px" y="0px"
	 viewBox="0 0 400 300" style="enable-background:new 0 0 400 300;" xml:space="preserve">
<style type="text/css">
	.st0{fill:#346635;}
</style>
<g>
	<path class="st0" d="M79.8,134.2v14.3h18.6v4.3H79.8v16.6H75V130h4.8H107v4.3H79.8L79.8,134.2z"/>
	<path class="st0" d="M115.7,141.8v27.5h-4.6v-27.6L115.7,141.8L115.7,141.8z"/>
	<path class="st0" d="M152.5,141.8v27.5h-4l-18-20.6v20.6h-4.6v-27.6h4.1l18,20.6v-20.6L152.5,141.8L152.5,141.8z"/>
	<path class="st0" d="M189.3,141.8v27.5h-4l-18-20.6v20.6h-4.6v-27.6h4l18,20.6v-20.6L189.3,141.8L189.3,141.8z"/>
	<path class="st0" d="M222.7,165.5v3.9H201h-1.4v-27.6h4.6h18.2v3.9h-18.2v7.9h12.1v3.9h-12.1v8.1h18.6L222.7,165.5L222.7,165.5z"/>
	<path class="st0" d="M256.8,154.6v3.9v6.9c-3.1,2.9-7.5,4.6-12.8,4.6c-10.4,0-16.2-6.5-16.2-14.3c0-7.9,6.1-14.4,15.5-14.4
		c6.1,0,10.9,2.7,13.1,7.1l-3.6,1.9c-1.6-3.1-5.1-5-9.4-5c-6.6,0-11.1,4.3-11.1,10.6c0,6.1,4.3,10.4,11.8,10.4
		c3.4,0,6.1-0.8,8.4-2.7v-5h-8.6v-3.9h12.8L256.8,154.6L256.8,154.6z"/>
	<path class="st0" d="M292.2,169.1v0.3h-4.7l-2.8-5.7H268l-2.8,5.7h-4.7v-0.3l13.7-27.3h4.4L292.2,169.1z M282.8,160l-6.5-13.1
		l-6.5,13.1H282.8z"/>
	<path class="st0" d="M325,141.8v27.5h-4l-18-20.6v20.6h-4.6v-27.6h4l18,20.6v-20.6L325,141.8L325,141.8z"/>
</g>
</svg>
