<?xml version="1.0" encoding="utf-8"?>
<!-- Generator: Adobe Illustrator 21.0.2, SVG Export Plug-In . SVG Version: 6.00 Build 0)  -->
<svg version="1.1" id="Layer_1" xmlns="http://www.w3.org/2000/svg" xmlns:xlink="http://www.w3.org/1999/xlink" x="0px" y="0px"
	 viewBox="0 0 400 300" style="enable-background:new 0 0 400 300;" xml:space="preserve">
<style type="text/css">
	.st0{fill:none;stroke:#000000;stroke-width:0.128;stroke-miterlimit:6;}
	.st1{fill:#FFFFFF;}
	.st2{fill:#E31837;}
	.st3{fill:#FFD200;}
	.st4{fill:#FFD24F;}
	.st5{enable-background:new    ;}
</style>
<g>
	<g>
		<g>
			<path d="M82.8,193.5c0.3,1.5,1.5,2.3,2.7,2.3c1.2,0,2.3-0.7,2.3-1.8c0-2.3-5.2-3-5.2-5.9c0-1.3,1.2-2.3,2.8-2.3
				c1.3,0,1.7,0.3,2.2,0.3c0.2,0,0.2,0,0.3-0.2h0.3l0.3,2h-0.3c-0.5-1.2-1.5-1.8-2.7-1.8c-1,0-1.8,0.7-1.8,1.5c0,2.3,5.2,3,5.2,5.9
				c0,1.7-1.3,2.8-3.3,2.8c-0.8,0-2-0.5-2.3-0.5c-0.2,0-0.3,0-0.3,0.2h-0.3l-0.3-2.5L82.8,193.5L82.8,193.5z"/>
		</g>
		<g>
			<path d="M103.9,188.5c-0.5-1.5-2-2.5-3.7-2.5c-2.7,0-4.3,2-4.3,4.7c0,3,2.2,5.2,4.5,5.2c1.3,0,2.8-0.5,4-2.3h0.3
				c-0.2,0.7-0.7,1.7-1,2.3c-1-0.2-1.8,0.3-3.7,0.3c-3.3,0-5.8-2.2-5.8-5.2c0-3.2,2.5-5.3,5.9-5.3c2,0,3,0.7,3.5,0.7
				c0.2,0,0.3,0,0.3-0.2h0.2l0.2,2.3L103.9,188.5z"/>
		</g>
		<g>
			<path d="M112.2,191.1v3c0,1,0.2,1.5,1.3,1.5l0,0v0.3h-4v-0.3h0.2c1,0,1.3-0.3,1.3-1.2v-7.2c0-0.8-0.3-1.2-1.2-1.2v-0.3h3.8v0.3
				c-1.2,0-1.3,0.3-1.3,1.5v2.8h6.4v-3.2c0-0.8-0.3-1.2-1.3-1.2h-0.3v-0.3h4.2v0.3c-1,0-1.2,0.3-1.2,1.3v6.8c0,1.2,0.3,1.3,1.3,1.3
				h0.2v0.3h-4.5v-0.3h0.5c1,0,1.3-0.3,1.3-1.2v-3.3L112.2,191.1L112.2,191.1L112.2,191.1z"/>
		</g>
		<g>
			<path d="M135.8,191.1c0,2.3-1.3,4.7-3.8,4.7c-2.7,0-4.7-2.2-4.7-5.2c0-2,1.2-4.7,4-4.7C133.8,186,135.8,188.1,135.8,191.1
				 M137.3,190.6c0-3-2.7-5-5.8-5c-3.5,0-6.1,2.3-6.1,5.5c0,3,2.7,5,5.9,5C134.6,196.4,137.3,194.1,137.3,190.6"/>
		</g>
		<g>
			<path d="M152.9,191.1c0,2.3-1.3,4.7-3.8,4.7c-2.7,0-4.7-2.2-4.7-5.2c0-2,1.2-4.7,4-4.7C150.9,186,152.9,188.1,152.9,191.1
				 M154.4,190.6c0-3-2.7-5-5.8-5c-3.5,0-6.1,2.3-6.1,5.5c0,3,2.7,5,5.9,5C151.8,196.4,154.4,194.1,154.4,190.6"/>
		</g>
		<g>
			<path d="M166.7,196.1h-7.2v-0.3h0.5c0.7,0,1-0.2,1-1v-7.3c0-0.8-0.3-1.2-1.3-1.2h-0.2V186h4.8v0.3h-0.7c-1,0-1.3,0.2-1.3,1.2v7.6
				c0,0.5,0.2,0.7,0.7,0.7h2.3c1,0,1.3-0.3,2.3-1.8h0.3L166.7,196.1z"/>
		</g>
		<g>
			<path d="M189,191.1c0,2.3-1.3,4.7-3.8,4.7c-2.7,0-4.7-2.2-4.7-5.2c0-2,1.2-4.7,4-4.7C187.2,186,189,188.1,189,191.1 M190.5,190.6
				c0-3-2.7-5-5.7-5c-3.5,0-6.1,2.3-6.1,5.5c0,3,2.7,5,5.9,5C187.8,196.4,190.5,194.1,190.5,190.6"/>
		</g>
		<g>
			<path d="M201.9,192.1h-0.3c0-1-0.3-1.2-1.2-1.2h-3v3.5c0,0.8,0.2,1.2,1.3,1.2v0.3h-4v-0.3c1,0,1.2-0.3,1.2-1.7v-6.4
				c0-1,0-1.5-1.2-1.5v-0.2h7.4v1.8h-0.3c0-1-0.3-1.3-1.3-1.3h-3.2v3.8h3.2c0.7,0,0.8-0.3,1-1h0.3L201.9,192.1L201.9,192.1z"/>
		</g>
		<g>
			<path d="M217.1,186.1c0.3,0,1,0,1.5,0c2,0,2.7,1,2.7,2.2c0,1.3-0.8,1.8-2.3,1.8h-1.8V186.1z M215.8,194.4c0,1-0.3,1.3-1.7,1.3
				h-0.3v0.3h6.1c2.7,0,3.5-1.8,3.5-3c0-1.3-0.8-2.2-2.3-2.7l0,0c1-0.2,1.8-1,1.8-2c0-0.8-0.3-1.3-1-1.8s-1.8-0.7-3.3-0.7
				c-0.3,0-1.5,0-2.5,0c-0.5,0-1.7,0.2-2,0.2v0.3h0.5c1.2,0,1.3,0.5,1.3,1.3L215.8,194.4L215.8,194.4z M217.1,190.5h1.8
				c1.8,0,2.8,1.3,2.8,2.5c0,1.3-0.7,2.5-2.8,2.5c-1.3,0-1.8-0.5-1.8-1.7V190.5z"/>
		</g>
		<g>
			<path d="M240.2,186v0.3c-1.2,0-1.5,0.5-1.5,1.5v4.3c0,2-1.3,4.2-4.8,4.2c-3.2,0-4.7-1.8-4.7-4v-4.7c0-1-0.3-1.2-1.3-1.2v-0.3h4.2
				v0.3h-0.2c-0.8,0-1.3,0.2-1.3,1.2v4.5c0,2.2,1.3,3.5,3.7,3.5c1.8,0,3.7-0.8,3.7-3.5v-3.8c0-1.5-0.2-1.8-1.7-1.8v-0.3h4L240.2,186
				L240.2,186z"/>
		</g>
		<g>
			<path d="M245.2,193.5c0.3,1.5,1.5,2.3,2.7,2.3c1.2,0,2.2-0.7,2.2-1.8c0-2.3-5.2-3-5.2-5.9c0-1.3,1.2-2.3,2.8-2.3
				c1.3,0,1.7,0.3,2.2,0.3c0.2,0,0.2,0,0.3-0.2h0.3l0.3,2h-0.3c-0.5-1.2-1.5-1.8-2.7-1.8c-1.2,0-1.8,0.7-1.8,1.5
				c0,2.3,5.2,3,5.2,5.9c0,1.7-1.3,2.8-3.3,2.8c-0.8,0-2-0.5-2.3-0.5c-0.2,0-0.3,0-0.3,0.2h-0.3l-0.3-2.5L245.2,193.5L245.2,193.5z"
				/>
		</g>
		<g>
			<path d="M260.8,196.1h-4.1v-0.3c1,0,1.2-0.3,1.2-1.3v-6.9c0-0.8-0.3-1.2-1.2-1.2V186h4v0.3c-1,0-1.3,0.2-1.3,1.3v6.9
				c0,1,0.3,1.3,1.3,1.3L260.8,196.1L260.8,196.1z"/>
		</g>
		<g>
			<path d="M276.2,196.2l-8.4-8.9v7.1c0,1.2,0.3,1.3,1.7,1.3v0.3h-3.8v-0.3l0,0c1,0,1.3-0.3,1.3-1.2v-8.1c-0.3-0.3-0.8-0.3-1.3-0.3
				v-0.3h2.5l7.8,8.1v-6.6c0-1-0.3-1.2-1.7-1.2v-0.3h3.8v0.3c-1.2,0-1.5,0.2-1.5,0.8v9.1h-0.3V196.2z"/>
		</g>
		<g>
			<path d="M289.6,192.3h-0.3c-0.2-1.2-0.5-1.3-1.2-1.3h-2.8v3.5c0,0.8,0.3,0.8,0.8,0.8h2.5c1.2,0,1.5-0.5,1.8-1.8h0.3l-0.3,2.5
				h-8.8v-0.3h0.5c1.3,0,1.5-0.3,1.5-1.3v-6.8c0-0.8-0.2-1.3-1.3-1.3H282v-0.3h7.9l0.2,2.2h-0.3c-0.2-1.3-0.7-1.7-1.2-1.7h-3.5v4h3
				c0.7,0,0.8-0.3,1-1.2h0.3v3.2L289.6,192.3L289.6,192.3z"/>
		</g>
		<g>
			<path d="M296.5,193.5c0.3,1.5,1.5,2.3,2.7,2.3s2.3-0.7,2.3-1.8c0-2.3-5.2-3-5.2-5.9c0-1.3,1.2-2.3,2.8-2.3c1.3,0,1.7,0.3,2.2,0.3
				c0.2,0,0.2,0,0.3-0.2h0.3l0.3,2H302c-0.5-1.2-1.5-1.8-2.7-1.8c-1,0-1.8,0.7-1.8,1.5c0,2.3,5.2,3,5.2,5.9c0,1.7-1.3,2.8-3.3,2.8
				c-0.8,0-2-0.5-2.3-0.5c-0.2,0-0.3,0-0.3,0.2h-0.3v-2.5L296.5,193.5L296.5,193.5z"/>
		</g>
		<g>
			<path d="M308.2,193.5c0.3,1.5,1.5,2.3,2.8,2.3c1.2,0,2.3-0.7,2.3-1.8c0-2.3-5.2-3-5.2-5.9c0-1.3,1.2-2.3,2.8-2.3
				c1.3,0,1.7,0.3,2.2,0.3c0.2,0,0.2,0,0.3-0.2h0.3l0.3,2h-0.3c-0.5-1.2-1.5-1.8-2.7-1.8c-1,0-1.8,0.7-1.8,1.5c0,2.3,5.2,3,5.2,5.9
				c0,1.7-1.3,2.8-3.3,2.8c-0.8,0-2-0.5-2.3-0.5c-0.2,0-0.3,0-0.3,0.2h-0.3l-0.3-2.5L308.2,193.5L308.2,193.5z"/>
		</g>
		<g>
			<path d="M85.8,156.1c0.7,0,1,0,1.7,0c5.2,0,6.7,2.5,6.7,5.9c0,4.3-2.5,6.1-6.4,6.1c-0.8,0-1.3,0-2.2,0v-11.9L85.8,156.1
				L85.8,156.1z M85.8,168.6c0.5,0,1,0,1.7,0c0.8,0,1.5,0,2.3,0c0.8,0.5,2,1.7,3.5,3.2l2.2,2.3c3,3.2,4.5,4.5,10.6,4.2v-0.7
				c-2.7-0.2-4.7-1.5-6.8-3.7l-2.7-2.8c-1.7-1.7-2.7-2.7-3.8-3.7c2.8-0.8,4.5-3.2,4.5-5.9c0-3.7-2.8-6.4-9.2-6.4
				c-2.2,0-2.8,0-4.3,0.2c-1.3,0-3.5,0.2-4.3,0.2v0.7H80c2,0,2.5,0.7,2.5,2.8v15.1c0,2.3-0.7,3-2.7,3h-0.5v0.7h9.8v-0.7h-0.8
				c-1.8,0-2.7-0.5-2.7-2.7v-5.9h0.2V168.6z"/>
		</g>
		<g>
			<path d="M114.7,167.6c0,3.2-1.7,6.4-5,6.4s-6.1-2.8-6.1-7.1c0-2.7,1.5-6.2,5.2-6.2C112.1,160.6,114.7,163.6,114.7,167.6
				 M116.5,167c0-4-3.3-6.9-7.4-6.9c-4.5,0-7.8,3-7.8,7.6c0,4.2,3.5,6.9,7.6,6.9C113.1,174.6,116.5,171.4,116.5,167"/>
		</g>
		<g>
			<path d="M123.2,160.5c0.7,0,1.8-0.2,2.3-0.2c3.3,0,4.5,1.8,4.5,3.8c0,2.2-1.3,3.3-3.8,3.3h-3V160.5L123.2,160.5z M121,175.1
				c0,1.8-0.5,2.3-2.7,2.3h-0.7v0.5h10.1c4.3,0,5.9-3.2,5.9-5.3c0-2.2-1.5-4-4-4.7l0,0c1.8-0.3,3-1.8,3-3.5c0-1.3-0.5-2.3-1.7-3.2
				c-1-0.7-3-1.2-5.5-1.2c-0.5,0-2.5,0-4,0.2c-0.8,0-2.7,0.2-3.3,0.2v0.5h1c1.8,0,2.2,0.8,2.2,2.5v11.8L121,175.1L121,175.1z
				 M123.2,168h3c3.2,0,4.8,2.3,4.8,4.5c0,2.2-1,4.5-4.7,4.5c-2.3,0-3.2-0.8-3.2-3V168z"/>
		</g>
		<g>
			<path d="M146.5,171.4H146c-0.2-2-0.7-2.3-1.8-2.3h-4.5v6.2c0,1.3,0.5,1.5,1.5,1.5h4.2c1.8,0,2.5-0.8,3.2-3.2h0.5l-0.5,4.3h-14.4
				v-0.5h0.8c2.2,0,2.5-0.7,2.5-2.3v-12.1c0-1.7-0.3-2.3-2.2-2.3h-0.7v-0.5h13.1l0.2,4h-0.5c-0.3-2.5-1-3-2-3h-5.8v7.1h4.8
				c1,0,1.5-0.5,1.5-2.2h0.5L146.5,171.4L146.5,171.4z"/>
		</g>
		<g>
			<path d="M155.6,160.5c0.5,0,0.8,0,1.3,0c4.2,0,5.3,2,5.3,4.7c0,3.5-2,4.8-5,4.8c-0.7,0-1,0-1.7,0V160.5z M155.6,170.3
				c0.5,0,0.8,0,1.3,0c0.7,0,1.2,0,1.8,0c0.7,0.5,1.7,1.3,2.8,2.5l1.8,1.8c2.3,2.5,3.7,3.7,8.4,3.3v-0.5c-2.2-0.2-3.7-1.2-5.3-2.8
				l-2.2-2.2c-1.3-1.3-2-2.2-3-3c2.2-0.7,3.7-2.5,3.7-4.7c0-2.8-2.2-5-7.4-5c-1.8,0-2.3,0-3.3,0.2c-1.2,0-2.8,0.2-3.3,0.2v0.5h0.7
				c1.5,0,2,0.5,2,2.3v12.1c0,1.8-0.5,2.3-2.2,2.3h-0.5v0.5h7.8v-0.5H158c-1.5,0-2.2-0.5-2.2-2.2v-4.8L155.6,170.3L155.6,170.3z"/>
		</g>
		<g>
			<path d="M177.4,175.2c0,1.5,0.5,2,2.2,2h1v0.5H172v-0.5h1c1.7,0,2.2-0.5,2.2-2v-14.1h-4.8c-1,0-1.5,0.7-2,3.2h-0.5l0.5-4.7h0.5
				c0,0.2,0.2,0.3,0.3,0.3c0.2,0,0.3,0.2,0.5,0.2h13.1c0.3,0,0.8-0.2,0.8-0.5h0.5l0.5,4.7h-0.4c-0.3-2.5-0.8-3.2-2-3.2h-4.7
				L177.4,175.2L177.4,175.2z"/>
		</g>
		<g>
			<path d="M197.8,167.3v6.9c0,2.3,0.5,3.2,2.7,3.2h0.2v0.7H192v-0.7h0.2c2,0,2.7-0.5,2.7-2.7V159c0-1.8-0.5-2.3-2.5-2.5v-0.7h8.2
				v0.7c-2.3,0-2.8,0.7-2.8,3.5v6.2h13.4v-7.1c0-1.8-0.5-2.7-2.7-2.7h-0.7v-0.7h8.8v0.7c-2,0-2.5,0.7-2.5,3v14.9
				c0,2.5,0.7,3.2,2.7,3.2h0.3v0.7h-9.7v-0.7h1c2.2,0,2.7-0.8,2.7-2.7v-7.4h-13.2L197.8,167.3L197.8,167.3z"/>
		</g>
		<g>
			<path d="M223.9,176.9c0,0.8-0.7,1.3-1.3,1.3c-0.8,0-1.3-0.5-1.3-1.3c0-0.8,0.7-1.3,1.3-1.3S223.9,176.1,223.9,176.9"/>
		</g>
		<g>
			<path d="M230.5,172.6c0.7,3.2,3.2,5,5.8,5c2.3,0,4.7-1.3,4.7-4.2c0-5.2-10.9-6.8-10.9-13.1c0-3,2.7-5.2,6.1-5.2
				c2.8,0,3.5,0.8,4.7,0.8c0.3,0,0.3,0,0.7-0.3h0.5l0.7,4.5h-0.7c-1-2.5-3.2-4.2-5.5-4.2c-2.2,0-3.8,1.3-3.8,3.3
				c0,5,10.9,6.6,10.9,13.1c0,3.5-3,6.2-7.1,6.2c-1.8,0-4.2-1-4.7-1c-0.3,0-0.5,0.2-0.7,0.5h-0.5l-0.7-5.5L230.5,172.6L230.5,172.6z
				"/>
		</g>
		<g>
			<path d="M256,177.9l-6.9-15.2l0,0l-0.7,12.9c0,1.5,1,1.8,2.2,1.8v0.5h-5.8v-0.5c2,0,2.2-0.5,2.3-3l0.7-11.2
				c0.2-1.8,0-2.3-1.7-2.5v-0.5h4l6.6,14.4l6.6-14.4h4v0.5c-1.3,0.2-1.8,0.2-1.8,1.2l0.8,13.1c0.2,2.7,0.3,2.7,2.3,2.7v0.5h-7.1
				v-0.5c1.3,0,2.5-0.3,2.3-1.8l-0.8-12.9l0,0l-6.8,15.2h-0.5v-0.2H256z"/>
		</g>
		<g>
			<path d="M277.3,177.9h-6.6v-0.5c1.7,0,2-0.5,2-2.5v-12.2c0-1.5-0.5-2-2-2v-0.5h6.6v0.5c-1.7,0-2.3,0.3-2.3,2.3v12.1
				c0,1.7,0.5,2.2,2.3,2.2V177.9z"/>
		</g>
		<g>
			<path d="M288.2,175.2c0,1.5,0.5,2,2.2,2h1v0.5h-8.6v-0.5h1c1.7,0,2.2-0.5,2.2-2v-14.1h-4.8c-1,0-1.5,0.7-2,3.2h-0.5l0.5-4.7h0.5
				c0,0.2,0.2,0.3,0.3,0.3s0.3,0.2,0.5,0.2h13.1c0.3,0,0.8-0.2,0.8-0.5h0.5l0.5,4.7H295c-0.3-2.5-0.8-3.2-2-3.2h-4.7L288.2,175.2
				L288.2,175.2z"/>
		</g>
		<g>
			<path d="M301,169.3v5.5c0,1.8,0.3,2.5,2.2,2.5l0,0v0.5h-6.9v-0.5h0.2c1.7,0,2.2-0.5,2.2-2v-12.6c0-1.5-0.5-1.8-2-2v-0.5h6.6v0.5
				c-2,0-2.3,0.5-2.3,2.7v5h10.8v-5.7c0-1.5-0.5-2-2.2-2h-0.5v-0.5h7.1v0.5c-1.7,0-2,0.5-2,2.3v11.9c0,2,0.5,2.5,2.2,2.5h0.3v0.5
				h-7.7v-0.5h0.8c1.8,0,2.2-0.7,2.2-2.2v-5.9H301L301,169.3L301,169.3z"/>
		</g>
	</g>
	<line class="st0" x1="82.4" y1="204.9" x2="317.7" y2="204.9"/>
	<g>
		<g>
			<path class="st1" d="M195.2,128.1c19.2,0,34.8-15.4,34.8-34.6s-16.2-34.6-34.8-34.6c-19.2,0-34.9,15.4-34.9,34.6
				C160.3,112.4,176.1,128.1,195.2,128.1"/>
		</g>
		<g>
			<path class="st1" d="M211.5,71.5c-4.5,0.7-10.4,1-16.8,1c0-6.9,0.2-11.9,0.3-13.4C201.4,60.2,207.3,64.7,211.5,71.5"/>
		</g>
		<g>
			<path class="st2" d="M219.1,96.1c-6.6,1-15.1,1.5-24.3,1.5c0-9.4,0-18.5,0.2-25.5c6.2,0,12.2-0.3,16.8-1
				C216.1,77.8,218.8,86.7,219.1,96.1"/>
		</g>
		<g>
			<path class="st1" d="M218.4,96.1c-1.8-0.3-3.3-3.3-2.5-6.4c-2.5,1.7-5.3-1.8-5-5.2c0.2-1.8,1.3-3.3,3.3-2.7
				c-0.8-2.8-1.8-5.5-3-7.9c-1.8,0.2-3.7,0.3-5.9,0.5c1.8,2.8,0,5.3-2.5,5c-1.8-0.3-3.7-2.3-3.2-4.5c-1.5,1-4.7,0.7-4.8-2.7
				c5.7,0,10.7-0.2,16.8-1c4.8,8.1,6.9,14.9,7.4,25C218.9,96.1,218.6,96.1,218.4,96.1"/>
		</g>
		<g>
			<path class="st1" d="M176.8,119.5c-3.5-0.7-5.9-1.3-6.8-2.2c-0.8-1-2-2.3-2.8-3.3c-2-2.8-2-3-2.8-4.7c-1.5-3.2-1.5-3.3-2.2-5
				c-1-3.5-1-3.5-1.3-5.3c-0.2-1.7-0.3-3.8-0.5-5.5V92c0,1.5,3.5,2.8,9.6,3.8c0,0.5,0,1,0,1.5C170,106.2,172.6,113.9,176.8,119.5"/>
		</g>
		<g>
			<path class="st1" d="M195.2,128.1c-0.2,0-0.3,0-0.5,0c-0.3,0-0.7,0-1,0c-2-0.2-3.5-0.3-5.2-0.7c-4.5-1-8.6-3.8-11.6-7.9
				c3,0.5,7.1,0.8,11.6,1.2c2.2,0.2,4.3,0.2,6.6,0.2C194.9,125.3,195.1,128.1,195.2,128.1"/>
		</g>
		<g>
			<path class="st2" d="M194.9,120.6c-2.2,0-4.3,0-6.6-0.2c-4.5-0.2-8.6-0.5-11.6-1.2c-4.2-5.5-6.8-13.2-6.8-22.3c0-0.3,0-0.8,0-1.2
				c4.2,0.7,9.6,1.2,15.8,1.5c3,0.2,5.9,0.2,8.9,0.2c0,0.3,0,0.8,0,1.2C194.8,107.9,194.8,115.5,194.9,120.6"/>
		</g>
		<g>
			<path class="st2" d="M194.9,121.1c-0.3,1.2-2,2.3-4.3,1.3c1.2,1.5,0.2,2.7-1.8,2.3c-1.5-0.3-3.3-1.5-3.5-2.7
				c-1.8-0.2-3.5-0.3-5.2-0.5c1.5,1.7,3,3,4.8,4c0.2-0.2,0.5,0,1.5,0.3c1.3,0.5,2.5,1.2,3.8,1.7l0,0c-1-0.2-1.2-0.2-1.8-0.3
				c-2.5-0.7-7.2-2-11.6-7.9c5.3,0.8,10.6,1.2,18.2,1.2C194.9,120.8,194.9,121,194.9,121.1"/>
		</g>
		<g>
			<path class="st1" d="M176.8,119.5L176.8,119.5c-4.8-6.9-6.8-13.4-6.8-23.5c2.7,0.8,3.5,4.8,2.7,7.1c2.5-1,5.9,3.5,4.7,6.4
				c-0.5,1.3-1.8,1.7-3.3,1c0.8,2.5,1.7,5,3,7.1c1.8,0.2,3.8,0.5,6.1,0.7c-1.8-2.2-0.3-4,2-3.8c2,0.2,4.7,1.8,4.2,4.2
				c1.8-0.8,5-0.2,5.3,2.3c-2.2,0-5.7,0-10.1-0.3C182.2,120.1,179.4,119.6,176.8,119.5"/>
		</g>
		<g>
			<path class="st2" d="M176.8,119.5c-4-0.7-5.7-1.3-6.8-2.2c-0.8-0.8-1.8-2.2-2.7-3c0.2,0.2,0.2,0.3,0.7,0.7
				c-0.3-0.5-2.2-2.8-2.3-3.8c1-0.2,4.2,4.8,4.2,4.8c1,0.3,2.2,0.7,3.7,1c-1.3-2.2-2.7-4.5-3.5-7.2c-2.2,1-4.8-4.7-4-7.1
				c0.2-0.5,0.7-1.5,2.2-0.3c-1.2-2.5-0.8-6.4,1.8-6.4C170.2,104.4,171.4,111.6,176.8,119.5"/>
		</g>
		<g>
			<path d="M218.9,102L218.9,102c0.2-1.7,0.2-3.2,0.2-4.8c0-0.3,0-0.8,0-1.2l0,0c0,0.3,0,0.8,0,1.2
				C219.1,98.8,219.1,100.5,218.9,102"/>
		</g>
		<g>
			<path d="M200.6,127.6L200.6,127.6c9.6-1.5,17-11.6,18.3-25.5l0,0C217.4,116,210.2,126,200.6,127.6"/>
		</g>
		<g>
			<path d="M212,123.6c-2.3,1.2-2.8,1.5-5.3,2.3c-0.7,0.2-1.7,0.5-2.5,0.8c4.8-1.3,9.2-4,12.6-7.9c-0.7,1.7-1.2,2.5-3.7,4.2
				C212.7,123.3,212.3,123.5,212,123.6"/>
		</g>
		<g>
			<path class="st3" d="M213,123c2-1.5,3-2.3,3.7-4.2c5-5.8,8.1-13.6,8.1-22.8c0-0.3,0-0.8,0-1.2c1.5-0.3,2.8-0.8,3.7-1.3
				c0,0.3,0,0.8,0,1.2C228.7,106.9,222.4,117.5,213,123"/>
		</g>
		<g>
			<path d="M202.6,114.1c-2.3-2.3-2.3-2.3-7.9-7.6c0-2.3,0-5,0-7.8c0-0.3,0-0.8,0-1.2c3,0,6.1,0,8.9-0.2c0,0.3,0,0.8,0,1.2
				C203.6,104.4,203.2,109.7,202.6,114.1"/>
		</g>
		<g>
			<path class="st3" d="M196.8,128.1h-0.2c-0.5,0-0.7,0-0.8,0h-0.3c-0.2,0-0.3-8.6-0.5-21.5c5.2,4.8,5.8,5.3,7.9,7.6
				C201.4,122.5,199.2,127.9,196.8,128.1"/>
		</g>
		<g>
			<path d="M198.2,127.9c-0.3,0-0.7,0-0.8,0c-0.2,0-0.5,0-0.7,0c2.5-0.2,4.7-5.3,5.9-13.8c2.5,2.7,3.7,3.8,4.8,5.9
				C205.2,124.6,201.9,127.6,198.2,127.9"/>
		</g>
		<g>
			<path class="st3" d="M207.5,120c-1.2-1.8-1.8-2.8-4.8-5.9c0.7-4.3,1-9.8,1-15.4c0-0.3,0-0.8,0-1.2c2.8-0.2,5.5-0.3,8.2-0.5
				c0,0.3,0,0.8,0,1.2C211.7,107.1,210.2,114.7,207.5,120"/>
		</g>
		<g>
			<path d="M208.2,124.3c0.5-1.3,0.3-2.2-0.7-4.2c2.7-5.3,4.3-12.9,4.3-21.8c0-0.3,0-0.8,0-1.2c1,0,1.8-0.2,2.8-0.3
				c1.3,1.5,2.8,3.3,4.2,5.3C217.9,111.9,213.8,120,208.2,124.3"/>
		</g>
		<g>
			<path class="st3" d="M200.6,127.6c-0.3,0-0.7,0.2-0.8,0.2c-0.8,0.2-0.8,0.2-1.2,0.2h-0.2c3.5-0.3,6.8-3.2,9.1-7.9
				c1,1.8,1.2,2.7,0.7,4.2C205.8,126,203.2,127.2,200.6,127.6"/>
		</g>
		<g>
			<path class="st3" d="M204.3,126.9l-0.8,0.2c-1.3,0.3-1.3,0.3-2.2,0.5l-0.7,0.2c6.8-1,12.4-6.4,15.6-14.4c0.8,2.3,1.2,3.5,0.5,5.8
				C213.3,122.6,209.2,125.5,204.3,126.9"/>
		</g>
		<g>
			<path d="M203.4,127.1c-1.3,0.3-1.3,0.3-2.2,0.5l-0.7,0.2c2.7-0.5,5.2-1.5,7.6-3.2c-0.8,1.2-1.3,1.7-3.8,2.5
				C204.3,127.1,203.4,127.1,203.4,127.1z"/>
		</g>
		<g>
			<path d="M216.9,118.8c0.5-2,0.5-3-0.5-5.8c1.8-4.5,2.8-9.9,2.8-15.9c0-0.3,0-0.8,0-1.2c2.2-0.3,4.2-0.7,5.7-1.2
				c0,0.3,0,0.8,0,1.2C224.8,105.2,221.8,113.2,216.9,118.8"/>
		</g>
		<g>
			<path class="st4" d="M212,123.6c0.3-0.2,0.7-0.3,1-0.5l-0.3,0.2L212,123.6z"/>
		</g>
		<g>
			<path d="M228.8,94.6c0,12.4-6.4,23-16.1,28.8l0,0l0.3-0.2C222.4,117.5,228.7,107.1,228.8,94.6c-0.2-0.3-0.2-0.7-0.2-1
				c0,0,0.2,0,0.2-0.2C228.8,93.8,228.8,94.3,228.8,94.6"/>
		</g>
		<g>
			<path class="st3" d="M216.2,113.1c-1.2-2.5-2-3.8-4.8-7.2c0.3-2.5,0.5-5,0.5-7.8c0-0.3,0-0.8,0-1.2c2.7-0.2,5-0.5,7.2-0.8
				c0,0.3,0,0.8,0,1.2C219.1,103.1,218.1,108.6,216.2,113.1"/>
		</g>
		<g>
			<path d="M211.3,105.9c-2-2.3-3-3.5-7.8-8.4c2.7-0.2,4.8-0.2,8.2-0.5c0,0.3,0,0.8,0,1.2C211.7,100.8,211.7,103.3,211.3,105.9"/>
		</g>
		<g>
			<path d="M170,96L170,96c0-2,0.2-4,0.5-6.1l0,0C170.4,91.9,170.2,94,170,96"/>
		</g>
		<g>
			<path d="M170.6,89.9L170.6,89.9c2-14.4,10.4-26.5,20.8-30.2l0,0C180.9,63.6,172.8,75.6,170.6,89.9"/>
		</g>
		<g>
			<path d="M191.3,59.9L191.3,59.9c1.2-0.5,2.5-0.8,3.7-1C193.9,59.1,192.8,59.4,191.3,59.9"/>
		</g>
		<g>
			<path class="st4" d="M174.4,70c1.2-2.7,2.2-4,4.7-6.3c4.8-2.8,10.2-4.7,16.1-4.8C187.2,59.6,179.8,63.7,174.4,70"/>
		</g>
		<g>
			<path d="M164.7,94.8c-1.3-0.3-2.5-0.8-3.2-1.3c0.3-12.6,7.4-23.7,17.5-29.8c-2.3,2.2-3.5,3.3-4.7,6.2
				C168.7,76.5,165,85.4,164.7,94.8"/>
		</g>
		<g>
			<path class="st3" d="M194.8,97.6c-2.8,0-5.9,0-8.9-0.2c-0.2,0-0.2,0-0.3,0c0-6.2,0.5-12.2,1.3-17.7c2.5,3.2,3.8,4.7,7.8,8.8
				C194.8,91.6,194.8,94.6,194.8,97.6"/>
		</g>
		<g>
			<path class="st3" d="M187,79.8c-2.3-3.3-3.3-5-4.3-8.1c3.2-6.9,7.6-11.6,12.4-12.9C191.7,60.7,188.7,69.1,187,79.8"/>
		</g>
		<g>
			<path d="M185.7,97.5c-3-0.2-5.9-0.3-8.4-0.5c0.2-9.2,2.2-18.2,5.5-25c1,2.8,1.8,4.5,4.3,8.1C186.2,85.2,185.7,91.2,185.7,97.5"/>
		</g>
		<g>
			<path class="st3" d="M177.2,96.8c-1-0.2-1.8-0.2-2.8-0.3c-1.2-1.8-2.7-4-3.8-6.6c1.5-10.1,6.1-19.2,12.2-24.8
				c-0.8,2.3-1,3.7-0.3,6.8C179.4,78.6,177.2,87.6,177.2,96.8"/>
		</g>
		<g>
			<path d="M182.7,71.8c-0.7-2.8-0.7-4.2,0.3-6.8c3.7-3.3,7.8-5.5,12.2-6.2C190.3,60.2,185.8,64.9,182.7,71.8"/>
		</g>
		<g>
			<path d="M173.9,78.3c-0.5-3.3-0.5-5.2,0.5-8.2c5.3-6.2,12.8-10.4,20.8-11.1c-1.8,0.3-2.3,0.3-3.7,1
				C184,62.4,177.6,69.2,173.9,78.3"/>
		</g>
		<g>
			<path class="st3" d="M183,65.1c1.2-2,2-3,4.8-4.5c2.3-0.8,4.8-1.5,7.4-1.7C190.7,59.6,186.5,61.7,183,65.1"/>
		</g>
		<g>
			<path class="st3" d="M170,96c-2-0.3-3.8-0.7-5.3-1.2c0.3-9.4,3.8-18.3,9.6-24.8c-0.8,2.8-1.2,4.7-0.5,8.2
				C171.6,83.6,170.2,89.6,170,96"/>
		</g>
		<g>
			<path class="st3" d="M179.1,63.7c2.5-1.8,4-2.7,7.9-3.8c2.7-0.7,5.3-1,8.2-1C189.3,59.1,183.8,60.9,179.1,63.7"/>
		</g>
		<g>
			<path class="st3" d="M161.5,93.5c-0.7-0.5-1.2-1-1-1.3V91c1-15.1,11.9-27.5,26.5-31.1c-3.3,1-5,1.8-7.9,3.8
				C168.8,69.8,161.8,80.8,161.5,93.5"/>
		</g>
		<g>
			<path d="M177.2,96.8c-2.7-0.3-5-0.5-7.1-0.8c0.2-6.2,1.5-12.2,3.8-17.7c0.8,3.5,1.5,5.3,4,9.6C177.4,90.7,177.2,93.8,177.2,96.8"
				/>
		</g>
		<g>
			<path class="st3" d="M177.2,96.8c0-3,0.3-6.2,0.7-9.1c2.2,3.2,3.3,5,7.8,9.8C182.7,97.3,180.6,97.1,177.2,96.8"/>
		</g>
		<g>
			<path d="M187.8,60.6c2-0.8,3.5-1.5,7.4-1.7C192.8,59.1,190.2,59.7,187.8,60.6"/>
		</g>
		<g>
			<path d="M228.8,93.5c0.8-0.5,1.3-1,1.3-1.5c0.5,14.4-7.8,25.7-17.3,31.4l0,0l0.3-0.2c9.4-5.8,15.6-16.1,15.6-28.4
				c0-0.3,0-0.8,0-1.2C228.7,93.5,228.8,93.5,228.8,93.5c0,0.3,0,0.8,0,1.2"/>
		</g>
		<g>
			<path class="st2" d="M211.7,71.1L211.7,71.1L211.7,71.1L211.7,71.1c0.3,0,0.7-0.2,1-0.2c2-0.3,6.4-1.3,6.4-2.7
				c0,0,1.8,1.7,3.2,4.2c0.2,0.3,0.3,0.5,0.3,0.8c0.2,0.3,0.2,0.5,0.2,0.8l0,0c0,0.2,0,0.2,0,0.3c0,0,0,0,0,0.2c0,0.7-0.5,0.8-1,0.5
				h-0.2c-1.8-0.8-2.3-2.5-2.7-3.2c-0.8,0.3-2.3,1-3.7,1.2c-0.2,0-0.3,0.2-0.5,0.2c1.5,2.3,2.8,5.3,3.8,8.1c1.7-1.8,4.5,1.5,4.5,4.7
				c0,1.8-0.8,3.5-2.5,3c1.3,2.5,1,6.4-1.7,7.1C218.6,87.7,217.2,80.1,211.7,71.1L211.7,71.1"/>
		</g>
		<g>
			<path class="st2" d="M212,64.7C212,64.6,212,64.6,212,64.7C212,64.6,212,64.6,212,64.7C212,64.6,212,64.6,212,64.7
				c0-0.2,0-0.2,0-0.2s0,0,0.2,0l0,0c0,0,0.2-1,4.2,1.7c-6.8-5.2-13.6-6.8-17.7-7.3c0.5,0.2,0.8,0.3,1,0.3c0.2,0.2,0.3,0.2,0.5,0.3
				l0,0c0.5,0,1,0.2,1.3,0.2l0,0c0.2,0,0.3,0.2,0.5,0.2l0,0c0.2,0,0.3,0.2,0.3,0.2s0,0,0.2,0s0.2,0.2,0.3,0.2c0,0,0,0,0.2,0
				c0.2,0,0.3,0.2,0.5,0.2l0,0c1.2,0.7,2.2,1.3,2.2,1.8c-0.2,0.2-0.2,0.2-0.8,0c2,1.5,5,4.2,6.8,6.2c1.2-0.2,3-0.5,3.8-0.8
				C215.4,67.9,212.3,65.7,212,64.7"/>
		</g>
		<g>
			<path class="st1" d="M218.9,68.2c-0.8-0.8-1.7-1.5-2.5-2.2c-1.7-1.2-2.7-1.7-3.2-1.8l0,0c0,0-2-0.7-0.8,0.8l0,0
				c0.8,1.2,3,2.7,3,2.7c-0.8,0.3-2.5,0.5-3.8,0.7c-1.7-2-4.7-4.7-6.8-6.2c0.5,0.2,0.7,0.2,0.8,0c0-0.5-1-1.2-2.2-1.8l0,0
				c-0.2,0-0.3-0.2-0.5-0.2c0,0,0,0-0.2,0c-0.2,0-0.2-0.2-0.3-0.2c0,0,0,0-0.2,0c-0.2,0-0.3-0.2-0.3-0.2l0,0c-0.2,0-0.3-0.2-0.5-0.2
				c-0.3-0.2-0.8-0.2-1.3-0.2l0,0l0,0H200l0,0c-0.2-0.2-0.3-0.2-0.5-0.3s-0.5-0.2-1-0.3c-1-0.2-1.8-0.2-2.3-0.2c-0.5,0-0.8,0-0.8,0
				l0,0c-0.2,0-0.2,0-0.2,0h0.2c-0.2,0-0.2,0-0.3,0c0.2,0,0.5,0,0.7,0.2c0.5,0.2,1.7,0.5,2.5,0.7c5.2,1.8,9.9,5.9,13.4,11.4h0.2
				c3.2-0.5,5-1.2,6.2-1.7l0,0C219.1,68.7,218.9,68.2,218.9,68.2L218.9,68.2z"/>
		</g>
		<g>
			<path class="st2" d="M211.7,71.1L211.7,71.1c-5.8-8.4-10.9-10.8-15.6-12.1c0.2,0,0.2,0,0.3,0.2c-0.2,0-0.5-0.2-0.7-0.2h-0.2
				c0.2,0,0.3,0,0.5,0.2c-0.2,0-0.3-0.2-0.5-0.2h-0.2l0,0c-0.2,0-0.2,0-0.3,0c1,1.2,2.3,1.5,2.8,1.7c-0.2,0.5,0,1.2,1.5,2.3
				c0.2,0.2,0.5,0.3,0.7,0.3c2.2,1.2,2.7,0.3,2.8-0.2l0,0c0.7,0.5,2,1.5,3.5,3.2c0.8,1,1.7,1.8,2.2,2.8c-1.3,0.2-3.2,0.3-5,0.5
				c-0.2-2.2-1.7-3.3-2.7-3.7c-2.2-0.8-2.8,1.8-2,3.5c-1.7-1-3.8-0.2-4,2.7C201.8,72.1,206.5,71.8,211.7,71.1"/>
		</g>
		<g>
			<path d="M194.8,88.6c-3.3-3.5-5.2-5.5-7.8-8.8c1.7-10.8,4.7-19,8.2-21C194.9,61.4,194.8,73.8,194.8,88.6"/>
		</g>
		<g>
			<path d="M153.4,67.6l0.2,0.2c-0.3,0.7-0.2,1.2,0.5,1.5l2.8,1.3c1.3,0.7,2.3,2.2,1.2,4.3c-1,2-2.7,2.5-4.2,1.7l-3-1.5
				c-0.7-0.3-0.8-0.2-1.2,0.5l-0.2-0.2l1.3-2.7l0.2,0.2v0.2c-0.3,0.5-0.3,0.8,0.3,1.2l2.8,1.5c1.3,0.7,2.7,0.3,3.3-1.3
				c0.7-1.2,0.7-2.7-1-3.5l-2.5-1.2c-1-0.5-1.3-0.5-1.7,0.5l-0.2-0.2L153.4,67.6z"/>
		</g>
		<g>
			<path d="M165.5,64.1l-8.8,0.5l3.8,3.2c0.7,0.5,0.8,0.5,1.5-0.2l0.2,0.2l-1.7,2l-0.2-0.2l0,0c0.5-0.5,0.5-0.8,0-1.2l-4.3-3.7
				c-0.3,0-0.5,0.3-0.8,0.5l-0.2-0.2l1.2-1.3l7.9-0.5l-3.5-3c-0.5-0.5-0.8-0.3-1.3,0.3l-0.2-0.2l1.7-2l0.2,0.2
				c-0.5,0.7-0.5,0.8-0.2,1.2l5,4.2L165.5,64.1z"/>
		</g>
		<g>
			<path d="M169.7,60.4l-2.2,1.8l-0.2-0.2c0.5-0.5,0.5-0.7,0-1.3l-3.2-3.8c-0.3-0.5-0.7-0.5-1.2-0.2l-0.2-0.2l2.2-1.8l0.2,0.2
				c-0.5,0.5-0.7,0.8-0.2,1.3l3.2,3.8c0.5,0.5,0.7,0.7,1.3,0L169.7,60.4z"/>
		</g>
		<g>
			<path d="M174.1,57.6l-5.3-4.2c-0.7-0.5-0.8-0.5-1.5-0.2l-0.2-0.2l2.7-1.7l0.2,0.2c-0.8,0.5-1,0.8-0.5,1.2l4.5,3.5l-0.8-5
				c0-0.3-0.2-0.5-0.2-0.7c-0.2-0.3-0.5-0.3-1.2,0.2l-0.2-0.2l2.3-1.3l0.2,0.2c-0.5,0.3-0.7,0.7-0.5,1.5l1,6.6L174.1,57.6z"/>
		</g>
		<g>
			<path d="M182.7,50.8h-0.2c-0.3-0.7-0.7-0.8-1-0.7l-1.8,0.7l0.8,2.3c0.2,0.5,0.3,0.5,0.8,0.3l1.7-0.7c0.8-0.3,0.8-0.7,0.8-1.7h0.2
				l0.3,1.7l-5.9,2v-0.2l0.3-0.2c0.8-0.3,1-0.7,0.7-1.3l-1.7-4.7c-0.2-0.7-0.5-0.8-1.2-0.5h-0.2v-0.2l5.3-1.8l0.8,1.5h-0.2
				c-0.5-0.8-0.8-1-1.2-0.8l-2.3,0.8l1,2.7l2-0.7c0.3-0.2,0.5-0.3,0.3-1h0.2L182.7,50.8z"/>
		</g>
		<g>
			<path d="M187.2,45.1c0.2,0,0.3,0,0.5-0.2c1.8-0.2,2.3,0.5,2.5,1.7c0.2,1.3-0.7,2-1.8,2.2c-0.3,0-0.5,0-0.7,0L187.2,45.1z
				 M187.5,49.1c0.2,0,0.3,0,0.7,0c0.3,0,0.5,0,0.8-0.2c0.3,0.2,0.7,0.5,1.3,0.8l0.8,0.7c1.2,0.8,1.7,1.3,3.7,1v-0.2
				c-0.8,0-1.7-0.3-2.3-0.8l-1-0.8c-0.7-0.5-1-0.8-1.5-1c0.8-0.3,1.3-1.2,1.3-2c-0.2-1.2-1.2-2-3.3-1.7c-0.7,0.2-1,0.2-1.5,0.2
				s-1.2,0.2-1.5,0.2v0.2h0.3c0.7,0,0.8,0.2,1,0.8l0.5,4.8c0.2,0.8-0.2,1-0.8,1h-0.2v0.2l3.3-0.3v-0.2h-0.3c-0.7,0-1,0-1-0.8
				L187.5,49.1z"/>
		</g>
		<g>
			<path d="M196.6,49.8c0.2,1,1,1.7,1.8,1.8c0.8,0,1.7-0.3,1.7-1.2c0.2-1.7-3.5-2.5-3.3-4.5c0-1,1-1.7,2.2-1.5c1,0,1.2,0.3,1.5,0.3
				c0.2,0,0.2,0,0.2-0.2h0.2v1.5h-0.2c-0.3-0.8-1-1.5-1.8-1.5s-1.3,0.3-1.3,1c-0.2,1.7,3.5,2.3,3.3,4.5c-0.2,1.2-1.2,1.8-2.5,1.8
				c-0.7,0-1.5-0.5-1.5-0.5c-0.2,0-0.2,0-0.2,0.2h-0.2l-0.2-1.8H196.6z"/>
		</g>
		<g>
			<path d="M205.5,53l-2.8-0.7v-0.2c0.7,0.2,0.8,0,1-0.8l1-4.8c0.2-0.7,0-0.8-0.7-1v-0.2l2.7,0.7v0.2c-0.7-0.2-1,0-1.2,0.7l-1,4.8
				c-0.2,0.7,0,1,0.8,1.2L205.5,53z"/>
		</g>
		<g>
			<path d="M211.3,53.8c-0.2,0.5-0.2,0.8,0.5,1.2l0.3,0.2v0.2l-3.3-1.3v-0.2l0.3,0.2c0.7,0.3,1,0.2,1.2-0.5l2.2-5.3l-1.8-0.7
				c-0.5-0.2-0.7,0-1.3,0.8h-0.2l0.8-1.7h0.2v0.2l0.2,0.2l5.2,2c0.2,0,0.3,0.2,0.3,0h0.2l-0.5,1.8h-0.2c0.2-1,0.2-1.3-0.3-1.5
				l-1.8-0.7L211.3,53.8z"/>
		</g>
		<g>
			<path d="M223.2,54.5c0.7-0.3,0.7-0.7,0-1l0.2-0.2l2.2,1.5l-0.2,0.2c-0.7-0.3-1.2-0.3-1.7,0l-3.3,1.7l-1,1.5
				c-0.3,0.5-0.3,0.8,0.3,1.2l0.2,0.2l-0.2,0.2l-2.7-1.8l0.2-0.2l0.2,0.2c0.7,0.3,1,0.3,1.2-0.2l0.8-1.3v-3.8c0-1-0.2-1.3-0.7-1.8
				l0.2-0.2l2.5,1.7l-0.2,0.2c-0.7-0.5-1-0.3-1,0.3V56L223.2,54.5z"/>
		</g>
		<g>
			<path d="M233,68.4c-1.3,1-3.2,1.3-4.3-0.2c-1.2-1.5-0.8-3.5,1-4.8c1.2-0.8,3.2-1.3,4.3,0.3C235,65.1,234.7,67.1,233,68.4
				 M233.8,69.1c1.7-1.3,1.7-3.7,0.3-5.3c-1.5-2-3.8-2.3-5.8-1c-1.7,1.3-1.7,3.7-0.3,5.5C229.5,70,232,70.5,233.8,69.1"/>
		</g>
		<g>
			<path d="M236.3,76.3v-0.2c0.7-0.3,0.7-0.7,0.5-1.2l-1-2l-2.3,1.2c-0.7,0.3-0.7,0.5-0.3,1.3l-0.2,0.2l-1.2-2.5L232,73
				c0.3,0.7,0.5,0.7,1.3,0.3l4.2-2c0.7-0.3,1-0.5,0.7-1.3l0.2-0.2l2.2,4.7l-1.2,0.7l-0.2-0.2c0.7-0.3,0.8-0.7,0.5-1.3l-1-2l-2.5,1.2
				l1,2c0.2,0.3,0.5,0.5,1,0.3l0.2,0.2L236.3,76.3z"/>
		</g>
		<g>
			<path d="M154.6,122l4.2-7.8l0,0l-5.8,3.7c-0.7,0.3-0.5,1,0,1.5l-0.2,0.2l-1.8-2.5l0.2-0.2c0.7,0.8,0.8,0.8,2,0.2l4.8-3.2
				c0.8-0.5,1-0.7,0.5-1.5l0.2-0.2l1.3,1.8l-4,7.4l8.2-1.5l1.3,1.8l-0.2,0.2c-0.5-0.5-0.7-0.8-1-0.5l-5.2,4.3c-1,0.8-1,1-0.3,1.8
				l-0.2,0.2l-2.2-3l0.2-0.2c0.3,0.5,1,1,1.5,0.5l5.2-4.2l0,0l-8.6,1.7L154.6,122z"/>
		</g>
		<g>
			<path d="M169.3,130.1l-2-1.5l3-2L169.3,130.1z M169.2,130.7l-0.8,2.8c0,0.2-0.2,0.3-0.2,0.7c-0.2,0.3-0.5,0.2-1.2-0.3l-0.3-0.2
				l-0.2,0.2l3.3,2.3l0.2-0.2c-0.7-0.5-0.8-0.7-0.5-1.5l2.3-8.6l-1-0.8l-0.2,0.3l-6.6,4.3c-1.2,0.8-1.3,0.8-2.2,0.2l-0.2,0.2l2.8,2
				l0.2-0.2l-0.2-0.2c-0.7-0.5-0.8-0.8-0.7-1.2c0.2-0.2,0.5-0.3,0.8-0.5l2-1.3L169.2,130.7z"/>
		</g>
		<g>
			<path d="M178.8,130.6c0.3,0,0.5,0.2,0.7,0.2c2.2,0.8,2.3,2,2,3.3c-0.7,1.7-1.8,2-3.3,1.5c-0.3-0.2-0.5-0.2-0.8-0.3L178.8,130.6z
				 M177.1,135.4c0.2,0.2,0.3,0.2,0.7,0.3c0.3,0.2,0.7,0.2,1,0.3c0.3,0.3,0.7,1,1,1.8l0.7,1.2c0.8,1.7,1.2,2.5,3.7,3.2l0.2-0.2
				c-1-0.5-1.7-1.3-2.2-2.3l-0.7-1.5c-0.5-0.8-0.7-1.5-1-2c1.3,0,2.3-0.5,2.7-1.7c0.5-1.5-0.3-2.8-2.8-3.8c-0.8-0.3-1.2-0.3-1.8-0.7
				c-0.5-0.2-1.5-0.5-1.8-0.5l-0.2,0.3l0.3,0.2c0.8,0.3,1,0.7,0.7,1.5l-2.2,5.9c-0.3,1-0.7,1-1.5,0.8h-0.2l-0.2,0.3l4,1.3l0.2-0.3
				l-0.3-0.2c-0.8-0.3-1-0.7-0.7-1.5L177.1,135.4z"/>
		</g>
		<g>
			<path d="M194.1,135.1c0.5-0.8,0.3-1-0.7-1.2v-0.3l3.3,0.3v0.3c-1,0-1.5,0.3-2,1l-2.8,4l-0.2,2.2c0,0.8,0.2,1.2,1.2,1.2h0.2v0.3
				l-4-0.3v-0.3h0.3c0.8,0,1.2-0.2,1.3-1l0.2-2l-2.3-4.3c-0.7-1.2-1-1.5-1.8-1.5v-0.3l4,0.3v0.3c-1.2-0.2-1.3,0.2-0.8,0.8l2,3.8
				L194.1,135.1z"/>
		</g>
		<g>
			<path d="M206.3,141.8l-6.6,1.2v-0.3h0.5c0.7-0.2,0.8-0.3,0.8-1.2l-1.2-6.6c-0.2-0.8-0.5-1-1.3-0.8h-0.2v-0.3l4.3-0.7v0.3
				l-0.5,0.2c-1,0.2-1.2,0.3-1,1.2l1.2,6.8c0,0.3,0.3,0.5,0.7,0.5l2.2-0.3c0.8-0.2,1-0.5,1.8-2h0.3L206.3,141.8z"/>
		</g>
		<g>
			<path d="M213.5,134.4l-2.3,1l-0.2-3.7L213.5,134.4z M214,134.9l2,2.2c0.2,0.2,0.3,0.3,0.3,0.5c0.2,0.3-0.2,0.7-0.8,0.8l-0.3,0.2
				l0.2,0.3l3.8-1.5l-0.2-0.3c-0.7,0.3-1,0.3-1.7-0.3l-6.1-6.4l-1.2,0.5l0.2,0.3l0.3,7.9c0,1.3,0,1.7-0.8,2l0.2,0.3l3.2-1.3
				l-0.2-0.3l-0.2,0.2c-0.8,0.3-1.2,0.3-1.3,0c0-0.2,0-0.7-0.2-1l-0.2-2.5L214,134.9z"/>
		</g>
		<g>
			<path d="M230.2,129.2l-11.1-1.3l4,4.8c0.7,0.8,1,0.8,2,0l0.2,0.2l-2.7,2.2l-0.2-0.2l0,0c0.7-0.7,0.7-1,0.3-1.5l-4.7-5.7
				c-0.3,0-0.8,0.2-1.2,0.5l-0.2-0.2l1.8-1.5l10.1,1.2l-3.8-4.5c-0.5-0.7-0.8-0.7-1.8,0l-0.2-0.2l2.7-2.2l0.2,0.2
				c-0.8,0.7-0.8,1-0.5,1.5l5.3,6.4L230.2,129.2z"/>
		</g>
		<g>
			<path d="M228,117.6c0.2-0.2,0.3-0.5,0.7-1c1.2-1.7,2.2-2.3,3-2.5c1.2-0.3,2.3,0.2,3.3,0.7c1.3,0.8,1.8,2,2,2.8
				c0.3,1.3,0,2.2-1,3.8c-0.7,1-0.8,0.8-1.3,0.5L228,117.6z M233.7,122.8c0.7,0.5,0.7,0.8,0.3,1.5l-0.2,0.2l0.2,0.2l2.5-4
				c2-3.2,0.7-6.1-1.2-7.4c-2-1.3-4.7-1-6.9,2.3c-0.5,0.7-0.8,1.3-1.3,2.2c-0.5,0.7-0.8,1.3-1,1.8l0.2,0.2l0.2-0.3
				c0.5-0.7,0.8-0.8,1.7-0.3L233.7,122.8z"/>
		</g>
		<g>
			<path d="M147.3,90.2v6.4c0,0.3,0,0.3,0.3,0.3h0.7v0.2h-2.7V97h0.7c0.3,0,0.3-0.2,0.3-0.5V91c-0.3,0.3-1,0.7-1.3,0.8l-0.2-0.2
				c0.7-0.5,1.5-1.2,1.8-1.7h0.3L147.3,90.2L147.3,90.2z"/>
		</g>
		<g>
			<path d="M153.8,95.8c0,0.8-0.7,1.5-1.5,1.5c-0.8,0-1.5-0.7-1.5-1.7c0-0.7,0.3-1.3,1.2-1.7C153.2,94.6,153.8,95.1,153.8,95.8
				 M154.2,91.9c0-0.8-0.8-1.5-2-1.5c-1,0-2,0.8-2,1.8c0,0.7,0.5,1.3,1.5,1.8c-1,0.5-1.7,1-1.7,1.8c0,1,1,1.8,2.2,1.8
				c1.2,0,2.2-0.8,2.2-2c0-0.8-0.5-1.5-1.7-2C153.8,93.1,154.2,92.6,154.2,91.9 M153.6,91.9c0,0.7-0.3,1.2-0.8,1.5
				c-1.5-0.7-1.7-1-1.7-1.7c0-0.7,0.7-1.2,1.3-1.2C153.1,90.6,153.6,91.1,153.6,91.9"/>
		</g>
		<g>
			<path d="M236.2,91.1h2.7c0.2,0,0.3,0,0.3-0.2h0.2l-0.2,0.8h-2.8l-0.2,2c0.3-0.2,0.7-0.3,1.2-0.3c1.2,0,2.2,1,2.2,2.3
				c0,1.3-1.2,2.3-2.5,2.3c-0.8,0-1.7-0.3-1.7-0.7c0-0.2,0.2-0.3,0.3-0.3c0.7,0,0.8,0.8,1.5,0.8c0.8,0,1.5-0.8,1.5-1.8
				c0-1-0.7-1.8-1.7-1.8c-0.3,0-0.8,0.2-1.2,0.5h-0.2L236.2,91.1z"/>
		</g>
		<g>
			<path d="M244.6,96c0,1.2-0.5,2-1.3,2c-0.7,0-1.5-0.7-1.5-2.5c0-0.3,0-0.5,0-0.7c0.7-0.5,1.2-0.7,1.5-0.7
				C243.9,94.1,244.6,94.8,244.6,96 M244.6,90.9c-2.3,0.7-3.7,2.3-3.7,4.3c0,1.7,1,2.8,2.3,2.8c1.2,0,2.2-1,2.2-2.2c0-1.2-0.8-2-2-2
				c-0.5,0-1,0.2-1.5,0.7C242.1,93,243.1,91.9,244.6,90.9L244.6,90.9z"/>
		</g>
	</g>
	<g class="st5">
		<path class="st2" d="M122.6,223.5c0,1.3-0.2,2.5-0.6,3.4c-0.3,0.9-0.8,1.8-1.5,2.3s-1.4,1.1-2.2,1.3c-0.8,0.3-1.8,0.4-2.8,0.4
			h-3.7v-14.9h3.9c1,0,1.9,0.2,2.8,0.4c0.8,0.3,1.6,0.8,2.2,1.3c0.6,0.6,1.1,1.3,1.4,2.2C122.4,221.1,122.6,222.1,122.6,223.5z
			 M120.9,223.5c0-1.9-0.4-3.4-1.3-4.4c-0.9-1-2.2-1.5-3.9-1.5h-2.2v11.8h2.2c0.8,0,1.5-0.1,2.2-0.3s1.2-0.6,1.7-1.1
			c0.4-0.5,0.8-1.1,1.1-1.8C120.8,225.5,120.9,224.6,120.9,223.5z"/>
		<path class="st2" d="M125.9,231v-14.9h1.7V231H125.9z"/>
		<path class="st2" d="M140.8,231l-6.5-10.2c-0.1-0.2-0.2-0.2-0.2-0.4c-0.1-0.2-0.2-0.3-0.3-0.5c-0.1-0.2-0.2-0.3-0.3-0.5
			c-0.1-0.2-0.2-0.2-0.2-0.4v1v11.1h-1.7v-14.9h1.6l6.4,10.4c0.1,0.2,0.2,0.3,0.2,0.4c0.1,0.2,0.2,0.3,0.3,0.5
			c0.1,0.2,0.2,0.3,0.2,0.5c0.1,0.2,0.2,0.2,0.2,0.4v-1v-11.2h1.6v14.9L140.8,231L140.8,231z"/>
		<path class="st2" d="M156.8,227.8c-0.2,0.8-0.7,1.4-1.2,1.9c-0.5,0.5-1.1,0.9-1.8,1.2c-0.7,0.2-1.4,0.4-2.2,0.4
			c-0.9,0-1.8-0.2-2.5-0.6c-0.8-0.4-1.4-0.9-1.9-1.6c-0.5-0.7-0.9-1.5-1.2-2.4c-0.2-0.9-0.4-1.9-0.4-3.1c0-1.1,0.2-2.2,0.4-3.1
			c0.3-0.9,0.8-1.8,1.2-2.4c0.5-0.7,1.2-1.2,1.9-1.6c0.7-0.4,1.6-0.6,2.5-0.6c2,0,3.6,0.8,4.7,2.4l-1.3,1c-0.5-0.7-1-1.2-1.5-1.4
			c-0.5-0.3-1.2-0.4-2-0.4c-0.7,0-1.2,0.2-1.8,0.4c-0.5,0.3-1,0.7-1.4,1.2c-0.4,0.5-0.7,1.2-0.9,1.9s-0.3,1.6-0.3,2.5
			s0.1,1.8,0.3,2.5c0.2,0.8,0.5,1.4,0.9,1.9c0.4,0.6,0.8,1,1.4,1.2c0.5,0.3,1.1,0.4,1.8,0.4c1.2,0,2.2-0.4,2.8-1.2
			c0.7-0.8,1-1.8,1-3.3v-0.2h-2.7v-1.5h4.3v1.4C157.2,226.1,157,227,156.8,227.8z"/>
		<path class="st2" d="M171.6,231v-10.1v-1.6c-0.1,0.2-0.1,0.3-0.2,0.5c-0.1,0.2-0.2,0.4-0.2,0.7c-0.1,0.2-0.2,0.4-0.2,0.7
			c-0.1,0.2-0.2,0.4-0.2,0.7l-4,9.6l-3.9-9.6c-0.1-0.2-0.2-0.4-0.2-0.7c-0.1-0.3-0.2-0.5-0.2-0.7c-0.1-0.2-0.2-0.4-0.2-0.7
			c-0.1-0.2-0.1-0.4-0.2-0.5v1.6V231h-1.6v-14.9h1.8l3.5,8.9c0.1,0.3,0.2,0.5,0.2,0.8c0.1,0.2,0.3,0.5,0.3,0.8
			c0.1,0.3,0.2,0.5,0.2,0.8c0.1,0.2,0.2,0.4,0.2,0.6c0.1-0.2,0.1-0.3,0.2-0.6s0.2-0.5,0.2-0.8c0.1-0.2,0.2-0.5,0.3-0.8
			c0.1-0.2,0.2-0.5,0.2-0.8l3.6-8.9h1.8V231H171.6z"/>
		<path class="st2" d="M186.7,231l-1.2-3.8h-6.2l-1.3,3.8h-1.7l5.2-14.9h1.8l5.2,14.9H186.7z M183.2,220.8c-0.1-0.2-0.2-0.5-0.2-0.8
			c-0.1-0.2-0.2-0.6-0.3-0.8c-0.1-0.2-0.2-0.5-0.2-0.8c-0.1-0.2-0.1-0.4-0.2-0.6c-0.1,0.2-0.1,0.3-0.2,0.6c-0.1,0.2-0.2,0.5-0.2,0.8
			s-0.2,0.6-0.2,0.8s-0.2,0.6-0.2,0.8l-1.7,4.8h5.2L183.2,220.8z"/>
		<path class="st2" d="M200.7,231l-6.5-10.2c-0.1-0.2-0.2-0.2-0.3-0.4c-0.1-0.2-0.2-0.3-0.3-0.5c-0.1-0.2-0.2-0.3-0.3-0.5
			c-0.1-0.2-0.2-0.2-0.2-0.4v1v11.1h-1.6v-14.9h1.6l6.4,10.4c0.1,0.2,0.2,0.3,0.3,0.4c0.1,0.2,0.2,0.3,0.3,0.5
			c0.1,0.2,0.2,0.3,0.3,0.5c0.1,0.2,0.2,0.2,0.2,0.4v-1v-11.2h1.6v14.9L200.7,231L200.7,231z"/>
		<path class="st2" d="M219.9,230.6c-0.8,0.4-1.8,0.7-2.8,0.7c-0.9,0-1.8-0.2-2.5-0.6c-0.7-0.4-1.4-0.9-1.9-1.6
			c-0.5-0.7-0.9-1.5-1.2-2.4c-0.2-0.9-0.4-1.9-0.4-3.1c0-1.1,0.2-2.2,0.4-3.1c0.3-0.9,0.8-1.8,1.2-2.4c0.5-0.7,1.2-1.2,1.9-1.6
			c0.8-0.4,1.6-0.6,2.5-0.6c2,0,3.6,0.8,4.8,2.4l-1.3,1c-0.5-0.7-1-1.2-1.5-1.4c-0.5-0.3-1.2-0.4-2-0.4c-0.7,0-1.2,0.2-1.8,0.4
			c-0.5,0.3-1,0.7-1.4,1.2c-0.4,0.5-0.7,1.2-0.9,1.9c-0.2,0.7-0.3,1.6-0.3,2.5s0.1,1.8,0.3,2.5c0.2,0.7,0.5,1.4,0.9,1.9
			c0.4,0.6,0.8,1,1.4,1.2c0.5,0.3,1.1,0.4,1.8,0.4c0.8,0,1.5-0.2,2.1-0.5c0.6-0.3,1.1-0.8,1.6-1.4l1.2,1
			C221.4,229.5,220.7,230.1,219.9,230.6z"/>
		<path class="st2" d="M225,231v-14.9h9v1.5h-7.3v4.7h4.2v1.5h-4.2v5.7h7.7v1.5L225,231L225,231z"/>
		<path class="st2" d="M246.7,231l-6.5-10.2c-0.1-0.2-0.2-0.2-0.2-0.4c-0.1-0.2-0.2-0.3-0.3-0.5c-0.1-0.2-0.2-0.3-0.2-0.5
			c-0.1-0.2-0.2-0.2-0.2-0.4v1v11.1h-1.7v-14.9h1.6l6.4,10.4c0.1,0.2,0.2,0.3,0.2,0.4c0.1,0.2,0.2,0.3,0.3,0.5
			c0.1,0.2,0.2,0.3,0.2,0.5c0.1,0.2,0.2,0.2,0.2,0.4v-1v-11.2h1.6v14.9L246.7,231L246.7,231z"/>
		<path class="st2" d="M257.2,217.6v13.4h-1.7v-13.4h-4.4v-1.5h10.5v1.5H257.2z"/>
		<path class="st2" d="M264.7,231v-14.9h9v1.5h-7.3v4.7h4.2v1.5h-4.2v5.7h7.7v1.5L264.7,231L264.7,231z"/>
		<path class="st2" d="M287.7,220.3c0,1.2-0.3,2.1-0.9,2.8c-0.7,0.8-1.5,1.2-2.6,1.4l3.2,6.5h-1.9l-3.2-6.3h-3.5v6.3h-1.7v-14.9h5.9
			c0.7,0,1.2,0.1,1.8,0.2c0.6,0.2,1.1,0.4,1.5,0.8c0.4,0.3,0.8,0.7,1,1.3C287.6,219,287.7,219.6,287.7,220.3z M286,220.4
			c0-0.9-0.2-1.6-0.8-2.1c-0.5-0.5-1.2-0.7-2.2-0.7h-4.2v5.5h4c1.1,0,1.9-0.2,2.4-0.7C285.8,222,286,221.3,286,220.4z"/>
	</g>
	<g class="st5">
		<path class="st2" d="M76.7,242v4.9h4.1v1.5h-4.1v6.9H75v-14.9h8.8v1.5L76.7,242L76.7,242z"/>
	</g>
	<g class="st5">
		<path class="st2" d="M97.8,247.9c0,1.1-0.2,2.2-0.4,3.1c-0.3,0.9-0.8,1.8-1.2,2.4c-0.6,0.7-1.2,1.2-2,1.6
			c-0.8,0.4-1.6,0.6-2.5,0.6s-1.7-0.2-2.5-0.6c-0.8-0.4-1.4-0.9-1.9-1.6s-0.9-1.5-1.2-2.4c-0.2-0.9-0.4-2-0.4-3.1
			c0-1.1,0.2-2.2,0.4-3.1c0.3-0.9,0.8-1.8,1.2-2.4s1.2-1.2,1.9-1.6c0.8-0.4,1.6-0.6,2.5-0.6s1.8,0.2,2.5,0.6
			c0.8,0.4,1.4,0.9,1.9,1.6c0.5,0.7,0.9,1.5,1.2,2.4C97.7,245.7,97.8,246.7,97.8,247.9z M96.2,247.9c0-0.9-0.1-1.8-0.3-2.6
			c-0.3-0.7-0.6-1.4-1-1.9c-0.4-0.6-0.9-1-1.4-1.2c-0.6-0.2-1.2-0.4-1.8-0.4c-0.7,0-1.2,0.2-1.8,0.4c-0.6,0.2-1,0.7-1.4,1.2
			c-0.4,0.5-0.8,1.2-0.9,1.9c-0.3,0.8-0.3,1.6-0.3,2.6c0,0.9,0.1,1.8,0.3,2.6c0.2,0.7,0.6,1.4,0.9,1.9c0.4,0.6,0.9,1,1.4,1.2
			c0.6,0.2,1.2,0.4,1.8,0.4c0.7,0,1.2-0.2,1.8-0.4c0.6-0.2,1-0.7,1.4-1.2c0.4-0.5,0.8-1.2,0.9-1.9C96,249.7,96.2,248.8,96.2,247.9z"
			/>
		<path class="st2" d="M111.6,244.6c0,1.2-0.3,2.1-0.9,2.8c-0.7,0.8-1.5,1.2-2.6,1.4l3.2,6.5h-1.9l-3.2-6.3h-3.5v6.3h-1.7v-14.9h5.9
			c0.7,0,1.2,0.1,1.8,0.2c0.6,0.2,1.1,0.4,1.5,0.8s0.8,0.7,1,1.3C111.5,243.3,111.6,243.9,111.6,244.6z M109.9,244.7
			c0-0.9-0.3-1.6-0.8-2.1c-0.5-0.5-1.2-0.7-2.2-0.7h-4.2v5.5h3.9c1.1,0,1.9-0.2,2.4-0.7C109.7,246.3,109.9,245.6,109.9,244.7z"/>
	</g>
	<g class="st5">
		<path class="st2" d="M120.8,255.3v-14.9h9v1.5h-7.3v4.7h4.2v1.5h-4.2v5.7h7.7v1.5L120.8,255.3L120.8,255.3z"/>
		<path class="st2" d="M142.5,255.3l-6.5-10.2c-0.1-0.2-0.2-0.2-0.2-0.4c-0.1-0.2-0.2-0.3-0.3-0.5c-0.1-0.2-0.2-0.3-0.2-0.5
			c-0.1-0.2-0.2-0.2-0.2-0.4v1v11.1h-1.7v-14.9h1.6l6.4,10.4c0.1,0.2,0.2,0.2,0.2,0.4c0.1,0.2,0.2,0.3,0.3,0.5
			c0.2,0.2,0.2,0.3,0.2,0.5s0.2,0.2,0.2,0.4v-1.1v-11.2h1.6v14.9H142.5z"/>
		<path class="st2" d="M153.1,242v13.4h-1.7V242H147v-1.5h10.5v1.5H153.1z"/>
		<path class="st2" d="M171,244.6c0,1.2-0.3,2.1-0.9,2.8c-0.7,0.8-1.5,1.2-2.6,1.4l3.2,6.5h-1.9l-3.2-6.3h-3.5v6.3h-1.7v-14.9h5.9
			c0.7,0,1.2,0.1,1.8,0.2c0.6,0.2,1.1,0.4,1.5,0.8s0.8,0.7,1,1.3C170.8,243.3,171,243.9,171,244.6z M169.3,244.7
			c0-0.9-0.2-1.6-0.7-2.1c-0.5-0.5-1.2-0.7-2.2-0.7h-4.2v5.5h3.9c1.1,0,1.9-0.2,2.4-0.7C169.1,246.3,169.3,245.6,169.3,244.7z"/>
		<path class="st2" d="M174.3,255.3v-14.9h9v1.5H176v4.7h4.2v1.5H176v5.7h7.7v1.5L174.3,255.3L174.3,255.3z"/>
		<path class="st2" d="M197.1,244.9c0,0.7-0.1,1.4-0.3,2c-0.2,0.6-0.6,1.1-1,1.4c-0.4,0.4-1,0.7-1.6,0.9c-0.6,0.2-1.3,0.3-2.1,0.3
			h-3.6v5.8h-1.7v-14.9h5.6c0.7,0,1.3,0.1,1.9,0.2c0.6,0.2,1.1,0.4,1.5,0.8c0.4,0.3,0.8,0.8,1,1.4
			C197,243.5,197.1,244.1,197.1,244.9z M195.4,245c0-1-0.3-1.7-0.8-2.2c-0.5-0.5-1.3-0.8-2.3-0.8h-3.8v6h3.7
			C194.3,248,195.4,247,195.4,245z"/>
		<path class="st2" d="M210.5,244.6c0,1.2-0.3,2.1-0.9,2.8c-0.7,0.8-1.5,1.2-2.6,1.4l3.2,6.5h-1.9l-3.2-6.3h-3.5v6.3H200v-14.9h5.9
			c0.7,0,1.2,0.1,1.8,0.2c0.6,0.2,1.1,0.4,1.5,0.8c0.4,0.3,0.8,0.7,1,1.3C210.3,243.3,210.5,243.9,210.5,244.6z M208.8,244.7
			c0-0.9-0.2-1.6-0.8-2.1c-0.5-0.5-1.2-0.7-2.2-0.7h-4.2v5.5h4c1.1,0,1.9-0.2,2.4-0.7C208.6,246.3,208.8,245.6,208.8,244.7z"/>
		<path class="st2" d="M213.8,255.3v-14.9h9v1.5h-7.3v4.7h4.2v1.5h-4.2v5.7h7.7v1.5L213.8,255.3L213.8,255.3z"/>
		<path class="st2" d="M235.4,255.3l-6.5-10.2c-0.1-0.2-0.2-0.2-0.2-0.4c-0.1-0.2-0.2-0.3-0.3-0.5c-0.1-0.2-0.2-0.3-0.2-0.5
			c-0.1-0.2-0.2-0.2-0.2-0.4v1v11.1h-1.6v-14.9h1.6l6.4,10.4c0.1,0.2,0.2,0.2,0.2,0.4c0.1,0.2,0.2,0.3,0.3,0.5
			c0.1,0.2,0.2,0.3,0.2,0.5c0.1,0.2,0.2,0.2,0.2,0.4v-1.1v-11.2h1.6v14.9H235.4z"/>
		<path class="st2" d="M240.9,255.3v-14.9h9v1.5h-7.3v4.7h4.2v1.5h-4.2v5.7h7.7v1.5L240.9,255.3L240.9,255.3z"/>
		<path class="st2" d="M262.7,254c-0.9,1.1-2.3,1.6-4,1.6c-1.8,0-3.2-0.5-4-1.6c-0.9-1.1-1.3-2.6-1.3-4.7v-8.8h1.7v8.8
			c0,3.2,1.2,4.8,3.8,4.8c1.2,0,2.2-0.4,2.7-1.2c0.6-0.8,0.8-2,0.8-3.6v-8.8h1.7v8.8C264,251.3,263.6,252.9,262.7,254z"/>
		<path class="st2" d="M278.3,244.6c0,1.2-0.3,2.1-0.9,2.8c-0.7,0.8-1.5,1.2-2.6,1.4l3.2,6.5h-1.9l-3.2-6.3h-3.5v6.3h-1.7v-14.9h5.9
			c0.7,0,1.2,0.1,1.8,0.2c0.6,0.2,1.1,0.4,1.5,0.8c0.4,0.3,0.7,0.7,1,1.3C278.2,243.3,278.3,243.9,278.3,244.6z M276.7,244.7
			c0-0.9-0.2-1.6-0.7-2.1c-0.5-0.5-1.2-0.7-2.3-0.7h-4.2v5.5h4c1.1,0,1.9-0.2,2.4-0.7C276.4,246.3,276.7,245.6,276.7,244.7z"/>
		<path class="st2" d="M290.8,251.4c0,0.6-0.1,1.2-0.3,1.7c-0.2,0.5-0.6,0.9-1,1.3c-0.4,0.3-0.9,0.7-1.6,0.8
			c-0.6,0.2-1.3,0.3-2.1,0.3c-1,0-2-0.2-2.8-0.6c-0.8-0.4-1.6-0.9-2.2-1.5l1.1-1.2c0.6,0.5,1.2,1,1.8,1.3c0.7,0.3,1.3,0.5,2.2,0.5
			c1,0,1.8-0.2,2.3-0.7c0.6-0.4,0.8-1.1,0.8-1.8c0-0.3-0.1-0.7-0.2-0.9c-0.1-0.2-0.3-0.6-0.6-0.8c-0.2-0.2-0.7-0.5-1.1-0.7
			c-0.4-0.2-1-0.5-1.7-0.8c-0.8-0.2-1.5-0.6-2-0.8c-0.6-0.2-1-0.6-1.3-0.9c-0.3-0.3-0.6-0.7-0.8-1.1c-0.2-0.4-0.2-0.9-0.2-1.4
			c0-0.6,0.1-1.2,0.3-1.6c0.2-0.5,0.6-0.8,0.9-1.2c0.4-0.3,0.9-0.6,1.5-0.7c0.6-0.2,1.2-0.2,1.9-0.2c1,0,1.8,0.2,2.6,0.4
			c0.7,0.2,1.3,0.7,2,1.2l-1.1,1.3c-0.5-0.4-1.1-0.8-1.7-1c-0.6-0.2-1.2-0.3-1.9-0.3c-0.5,0-0.9,0.1-1.3,0.2
			c-0.3,0.1-0.7,0.2-0.9,0.5c-0.2,0.2-0.4,0.4-0.5,0.7s-0.2,0.6-0.2,0.8c0,0.3,0.1,0.6,0.2,0.8c0.1,0.2,0.2,0.5,0.5,0.7
			c0.2,0.2,0.6,0.5,1.1,0.7c0.5,0.2,1.1,0.5,1.8,0.8c0.8,0.3,1.5,0.6,2.1,0.9s1,0.6,1.3,1c0.3,0.3,0.6,0.7,0.8,1.2
			C290.8,250.4,290.8,250.9,290.8,251.4z"/>
		<path class="st2" d="M303.3,255.3v-7h-7.4v7h-1.7v-14.9h1.7v6.3h7.4v-6.3h1.7v14.9H303.3z"/>
		<path class="st2" d="M309,255.3v-14.9h1.7v14.9H309z"/>
		<path class="st2" d="M325,244.9c0,0.7-0.1,1.4-0.3,2c-0.2,0.6-0.6,1.1-1,1.4c-0.4,0.4-1,0.7-1.6,0.9c-0.6,0.2-1.3,0.3-2.1,0.3
			h-3.6v5.8h-1.7v-14.9h5.6c0.7,0,1.3,0.1,1.9,0.2c0.6,0.2,1.1,0.4,1.5,0.8c0.4,0.3,0.8,0.8,1,1.4C324.9,243.5,325,244.1,325,244.9z
			 M323.3,245c0-1-0.2-1.7-0.8-2.2c-0.5-0.5-1.3-0.8-2.3-0.8h-3.8v6h3.7C322.2,248,323.3,247,323.3,245z"/>
	</g>
</g>
</svg>
