<?xml version="1.0" encoding="utf-8"?>
<!-- Generator: Adobe Illustrator 21.0.2, SVG Export Plug-In . SVG Version: 6.00 Build 0)  -->
<svg version="1.1" id="Layer_1" xmlns="http://www.w3.org/2000/svg" xmlns:xlink="http://www.w3.org/1999/xlink" x="0px" y="0px"
	 viewBox="0 0 400 300" style="enable-background:new 0 0 400 300;" xml:space="preserve">
<style type="text/css">
	.st0{fill:#7F0000;}
</style>
<g>
	<g>
		<path class="st0" d="M285,224.1H173c-1.1,0-2.1-0.9-2.1-2.1l0.1-9.5h-60.8c-0.8,0-1.4-0.6-1.4-1.4v-63.8H77.1
			c-0.9,0-1.8-0.6-2-1.5c-0.3-0.9,0.1-1.9,0.9-2.4l90.2-67c1.1-0.9,2.7-0.7,3.7,0.3l30.1,30.1l29.9-30c0.5-0.5,1.2-0.8,1.9-0.8l0,0
			c0.7,0,1.4,0.3,1.9,0.9l37.9,39.6v-13.1c0-0.8,0.6-1.4,1.4-1.4h15.4c0.8,0,1.4,0.6,1.4,1.4v32.1l34.9,36.4c0.4,0.4,0.5,1,0.3,1.5
			c-0.2,0.5-0.7,0.9-1.3,0.9h-36.7v47.9C287.1,223.2,286.1,224.1,285,224.1z M173.6,221.4h110.7v-47.9c0-1.1,0.9-2.1,2.1-2.1h34.1
			l-33-34.5c-0.2-0.3-0.4-0.6-0.4-0.9v-31.4h-12.6v15.2c0,0.6-0.4,1.1-0.9,1.3c-0.5,0.2-1.1,0.1-1.5-0.4l-40.3-42.1l-39.2,39.2
			c-0.6,0.6-1.4,0.6-1.9,0c-0.6-0.6-0.6-1.4,0-1.9l7.4-7.4L168,78.5l-88.8,66h30.3c1.1,0,2.1,0.9,2.1,2.1v63.1h60
			c1.1,0,2.1,0.9,2.1,2.1L173.6,221.4z M77.6,145.7L77.6,145.7C77.5,145.7,77.6,145.7,77.6,145.7z"/>
	</g>
	<g>
		<path class="st0" d="M126.9,151.5c0,0-3.4-0.5-5.5-0.5c-1.9,0-3.4,0.5-3.4,2.4c0,1.4,0.7,1.9,4,2.4c3.9,0.6,5.3,1.4,5.3,4.5
			c0,3.6-2.3,4.8-6,4.8c-2,0-5.5-0.6-5.5-0.6l0.1-2c0,0,3.5,0.5,5.1,0.5c2.5,0,3.9-0.6,3.9-2.7c0-1.6-0.8-2-4.2-2.5
			c-3.5-0.6-5.2-1.2-5.2-4.3c0-3.4,2.7-4.5,5.6-4.5c2.3,0,5.6,0.6,5.6,0.6L126.9,151.5z"/>
		<path class="st0" d="M134.1,151.3v7.4c0,3.4,0.2,4.3,2.2,4.3c0.9,0,2.7-0.2,2.7-0.2l0.1,1.9c0,0-2.1,0.4-3.2,0.4
			c-3.2,0-4.3-1.2-4.3-5.7v-8.1h-2.2v-2h2.2v-4.7h2.3v4.7h5v2H134.1z"/>
		<path class="st0" d="M152.8,161.8c0.1,0.9,0.8,1.2,1.8,1.4l-0.1,1.8c-1.7,0-2.7-0.3-3.7-1.2c0,0-2.8,1.2-5.6,1.2s-4.4-1.6-4.4-4.7
			c0-2.9,1.6-4.3,4.7-4.6l4.9-0.4v-1.4c0-2.2-0.9-2.9-2.8-2.9c-2.2,0-5.9,0.4-5.9,0.4l-0.1-1.8c0,0,3.4-0.7,6.1-0.7c3.5,0,5,1.6,5,5
			L152.8,161.8L152.8,161.8z M145.9,157.5c-1.9,0.2-2.7,1.1-2.7,2.8c0,1.8,0.8,2.9,2.4,2.9c2.3,0,4.9-0.9,4.9-0.9v-5.1L145.9,157.5z
			"/>
		<path class="st0" d="M157.4,149.3h2.3v2.1c0,0,2.7-1.9,5.7-2.4v2.4c-2.9,0.6-5.7,2.1-5.7,2.1v11.3h-2.3V149.3z"/>
		<path class="st0" d="M171.2,151.3v7.4c0,3.4,0.2,4.3,2.2,4.3c0.9,0,2.7-0.2,2.7-0.2l0.1,1.9c0,0-2.1,0.4-3.2,0.4
			c-3.2,0-4.3-1.2-4.3-5.7v-8.1h-2.2v-2h2.2v-4.7h2.3v4.7h5v2H171.2z"/>
		<path class="st0" d="M191,149.3v15.5h-2.3v-1.1c0,0-2.3,1.4-4.6,1.4c-4.3,0-5.2-2-5.2-7.7v-8h2.3v8c0,4.3,0.4,5.7,3.2,5.7
			c2.3,0,4.2-1.1,4.2-1.1v-12.6H191z"/>
		<path class="st0" d="M195.4,149.3h2.3v1.1c0,0,2.4-1.4,4.7-1.4c3.9,0,5.6,2.4,5.6,7.9c0,6.1-2,8.3-6.7,8.3c-1.4,0-3-0.2-3.4-0.4
			v6.9h-2.3L195.4,149.3L195.4,149.3z M197.7,152.3v10.4c0.4,0.1,2,0.4,3.4,0.4c3.4,0,4.5-1.8,4.5-6.2c0-4.2-1.4-5.8-3.6-5.8
			C199.9,151,197.7,152.3,197.7,152.3z"/>
		<path class="st0" d="M219.5,149.3l3.6,13.5h1.1l3.8-13.5h2.4l-4.4,15.5h-4.7l-4.4-15.5H219.5z"/>
		<path class="st0" d="M233.4,143h2.3v2.7h-2.3V143z M233.4,149.3h2.3v15.5h-2.3V149.3z"/>
		<path class="st0" d="M240.4,142.5h2.3v22.3h-2.3V142.5z"/>
		<path class="st0" d="M247.5,142.5h2.3v22.3h-2.3V142.5z"/>
		<path class="st0" d="M265.5,161.8c0.1,0.9,0.8,1.2,1.8,1.4l-0.1,1.8c-1.7,0-2.7-0.3-3.7-1.2c0,0-2.8,1.2-5.6,1.2s-4.4-1.6-4.4-4.7
			c0-2.9,1.6-4.3,4.7-4.6l4.9-0.4v-1.4c0-2.2-0.9-2.9-2.8-2.9c-2.2,0-5.9,0.4-5.9,0.4l-0.1-1.8c0,0,3.4-0.7,6.1-0.7c3.5,0,5,1.6,5,5
			L265.5,161.8L265.5,161.8z M258.6,157.5c-1.9,0.2-2.7,1.1-2.7,2.8c0,1.8,0.8,2.9,2.4,2.9c2.3,0,4.9-0.9,4.9-0.9v-5.1L258.6,157.5z
			"/>
		<path class="st0" d="M269.3,167.4c0-1.8,0.9-2.7,2.4-3.8c-0.6-0.4-0.9-1.1-0.9-2.2c0-0.6,1.1-2.4,1.1-2.4
			c-1.3-0.6-2.4-1.8-2.4-4.7c0-3.8,2.4-5.3,5.8-5.3c1.6,0,3.2,0.4,3.2,0.4l4.6-0.1v2l-2.9-0.1c0.6,0.6,1,1.4,1,3.1c0,4-2,5.2-6,5.2
			c-0.3,0-1.1-0.1-1.5-0.1c0,0-0.6,1.4-0.6,1.8c0,1.2,0.2,1.4,3.7,1.4c4.4,0,6,0.9,6,4.5c0,3.5-2.5,5-6.9,5
			C271.1,172,269.3,171,269.3,167.4z M273.4,164.4c-1.3,0.9-1.7,1.5-1.7,2.7c0,2.2,0.9,2.9,4.4,2.9c3.1,0,4.5-0.9,4.5-2.9
			c0-2.4-1-2.6-3.8-2.6C275.7,164.6,273.4,164.4,273.4,164.4z M278.9,154.2c0-2.4-0.9-3.4-3.6-3.4c-2.4,0-3.4,0.9-3.4,3.4
			s1.1,3.4,3.4,3.4C277.9,157.6,278.9,156.7,278.9,154.2z"/>
		<path class="st0" d="M297.3,162.7l0.1,1.8c0,0-3.5,0.5-6,0.5c-4.6,0-6.1-2.7-6.1-8c0-5.9,2.5-8.2,6.5-8.2c4.1,0,6.2,2.2,6.2,7.2
			l-0.1,1.8h-10.2c0,3.3,1,5,4,5C294,163,297.3,162.7,297.3,162.7z M295.6,156.1c0-3.8-1.1-5.2-3.9-5.2c-2.7,0-4.1,1.4-4.2,5.2
			H295.6z"/>
	</g>
</g>
</svg>
