<?xml version="1.0" encoding="utf-8"?>
<!-- Generator: Adobe Illustrator 22.0.1, SVG Export Plug-In . SVG Version: 6.00 Build 0)  -->
<svg version="1.1" id="Layer_1" xmlns="http://www.w3.org/2000/svg" xmlns:xlink="http://www.w3.org/1999/xlink" x="0px" y="0px"
	 viewBox="0 0 400 300" style="enable-background:new 0 0 400 300;" xml:space="preserve">
<style type="text/css">
	.st0{clip-path:url(#SVGID_4_);}
	.st1{clip-path:url(#SVGID_5_);}
	.st2{clip-path:url(#SVGID_6_);fill:#FD696B;}
	.st3{clip-path:url(#SVGID_9_);}
	.st4{clip-path:url(#SVGID_10_);fill:#FD696B;}
	.st5{clip-path:url(#SVGID_13_);}
	.st6{clip-path:url(#SVGID_14_);fill:#FD696B;}
	.st7{clip-path:url(#SVGID_17_);}
	.st8{clip-path:url(#SVGID_18_);fill:#FD696B;}
	.st9{clip-path:url(#SVGID_21_);}
	.st10{clip-path:url(#SVGID_22_);fill:#FD696B;}
	.st11{clip-path:url(#SVGID_25_);}
	.st12{clip-path:url(#SVGID_26_);fill:#FD696B;}
</style>
<g>
	<g>
		<defs>
			<rect id="SVGID_1_" x="28.5" y="113.5" width="343" height="73"/>
		</defs>
		<defs>
			<path id="SVGID_2_" d="M79.2,113.5c-0.2,0-0.5,0.1-0.7,0.3l-5.4,3.8c-0.4,0.3-1,0.3-1.3,0l-5.4-3.8c-0.2-0.2-0.4-0.3-0.7-0.3
				H41.7c-0.3,0-0.6,0.1-0.7,0.3c-7.2,7.7-11.6,18-11.7,29.3c-0.1,23.5,19,43,42.5,43.3c24.1,0.3,43.7-19.1,43.7-43.1
				c0-11.4-4.4-21.8-11.7-29.5c-0.2-0.2-0.5-0.3-0.7-0.3H79.2L79.2,113.5z M100.7,143.8c0,16.2-13.6,29.5-30,28.6
				c-14.6-0.8-25.9-12.9-26.4-27.6c-0.3-7.6,2.2-14.5,6.8-19.7c0.4-0.4,0.3-1-0.1-1.4l-8.5-8.3l28.7,20.5c0.7,0.6,1.8,0.6,2.6,0
				l28.6-20.5l-8.6,8.3c-0.4,0.4-0.4,1-0.1,1.4C98.1,130.1,100.7,136.6,100.7,143.8L100.7,143.8z"/>
		</defs>
		<defs>
			<rect id="SVGID_3_" x="28.5" y="-45.7" width="343" height="232.2"/>
		</defs>
		<clipPath id="SVGID_4_">
			<use xlink:href="#SVGID_1_"  style="overflow:visible;"/>
		</clipPath>
		<clipPath id="SVGID_5_" class="st0">
			<use xlink:href="#SVGID_2_"  style="overflow:visible;"/>
		</clipPath>
		<clipPath id="SVGID_6_" class="st1">
			<use xlink:href="#SVGID_3_"  style="overflow:visible;"/>
		</clipPath>
		<rect x="24.9" y="109.1" class="st2" width="95" height="81.7"/>
	</g>
	<g>
		<defs>
			<rect id="SVGID_7_" x="28.5" y="113.5" width="343" height="73"/>
		</defs>
		<defs>
			<polyline id="SVGID_8_" points="145.8,173.2 156.8,173.2 156.8,155.9 173.2,155.9 173.2,146.2 156.8,146.2 156.8,135.7 
				176,135.7 176,125.6 145.8,125.6 145.8,173.2 			"/>
		</defs>
		<clipPath id="SVGID_9_">
			<use xlink:href="#SVGID_7_"  style="overflow:visible;"/>
		</clipPath>
		<clipPath id="SVGID_10_" class="st3">
			<use xlink:href="#SVGID_8_"  style="overflow:visible;"/>
		</clipPath>
		<rect x="141.4" y="121.2" class="st4" width="39" height="56.5"/>
	</g>
	<g>
		<defs>
			<rect id="SVGID_11_" x="28.5" y="113.5" width="343" height="73"/>
		</defs>
		<defs>
			<path id="SVGID_12_" d="M219.5,141c0-8.7-5.9-15.8-20.7-15.8c-5.6,0-10,0.3-14,0.8v47.2h11.1v-15.6c1.6,0.1,2.5,0.1,4.1,0.1
				c0.7,0,1.2,0,1.9-0.1l8.1,15.5h12.5l-11.2-18.4C216.4,151.8,219.5,146.7,219.5,141L219.5,141L219.5,141z M199.3,148.8
				c-1.3,0-2.1-0.1-3.5-0.2v-13.1c1.6-0.3,2.6-0.3,4.3-0.3c4.7,0,7.9,2.3,7.9,6.3C207.9,146.2,204.6,148.8,199.3,148.8L199.3,148.8
				L199.3,148.8z"/>
		</defs>
		<clipPath id="SVGID_13_">
			<use xlink:href="#SVGID_11_"  style="overflow:visible;"/>
		</clipPath>
		<clipPath id="SVGID_14_" class="st5">
			<use xlink:href="#SVGID_12_"  style="overflow:visible;"/>
		</clipPath>
		<rect x="180.3" y="120.8" class="st6" width="46.5" height="56.8"/>
	</g>
	<g>
		<defs>
			<rect id="SVGID_15_" x="28.5" y="113.5" width="343" height="73"/>
		</defs>
		<defs>
			<path id="SVGID_16_" d="M250.7,124.8c-14.8,0-24.6,10.6-24.6,24.6c0,14,9.4,24.6,24.2,24.6c14.7,0,24.6-10.6,24.6-24.6
				C274.9,135.4,265.4,124.8,250.7,124.8L250.7,124.8L250.7,124.8z M250.4,164.2c-7.5,0-12.6-6.2-12.6-14.8
				c0-8.6,5.1-14.8,12.6-14.8c7.5,0,12.6,6.2,12.6,14.8C263,157.9,257.9,164.2,250.4,164.2L250.4,164.2L250.4,164.2z"/>
		</defs>
		<clipPath id="SVGID_17_">
			<use xlink:href="#SVGID_15_"  style="overflow:visible;"/>
		</clipPath>
		<clipPath id="SVGID_18_" class="st7">
			<use xlink:href="#SVGID_16_"  style="overflow:visible;"/>
		</clipPath>
		<rect x="221.6" y="120.4" class="st8" width="57.6" height="58"/>
	</g>
	<g>
		<defs>
			<rect id="SVGID_19_" x="28.5" y="113.5" width="343" height="73"/>
		</defs>
		<defs>
			<polyline id="SVGID_20_" points="313.5,150.3 285.1,124.6 283.6,124.9 283.6,173.2 294.7,173.2 294.7,148.3 323.4,174.1 
				324.5,173.9 324.5,125.6 313.5,125.6 313.5,150.3 			"/>
		</defs>
		<clipPath id="SVGID_21_">
			<use xlink:href="#SVGID_19_"  style="overflow:visible;"/>
		</clipPath>
		<clipPath id="SVGID_22_" class="st9">
			<use xlink:href="#SVGID_20_"  style="overflow:visible;"/>
		</clipPath>
		<rect x="279.2" y="120.3" class="st10" width="49.7" height="58.3"/>
	</g>
	<g>
		<defs>
			<rect id="SVGID_23_" x="28.5" y="113.5" width="343" height="73"/>
		</defs>
		<defs>
			<polyline id="SVGID_24_" points="331.4,125.6 331.4,135.7 345.7,135.7 345.7,173.2 356.7,173.2 356.7,135.7 371,135.7 371,125.6 
				331.4,125.6 			"/>
		</defs>
		<clipPath id="SVGID_25_">
			<use xlink:href="#SVGID_23_"  style="overflow:visible;"/>
		</clipPath>
		<clipPath id="SVGID_26_" class="st11">
			<use xlink:href="#SVGID_24_"  style="overflow:visible;"/>
		</clipPath>
		<rect x="327" y="121.2" class="st12" width="48.5" height="56.5"/>
	</g>
</g>
</svg>
