<?xml version="1.0" encoding="utf-8"?>
<!-- Generator: Adobe Illustrator 23.1.0, SVG Export Plug-In . SVG Version: 6.00 Build 0)  -->
<svg version="1.1" id="Layer_1" xmlns="http://www.w3.org/2000/svg" xmlns:xlink="http://www.w3.org/1999/xlink" x="0px" y="0px"
	 viewBox="0 0 400 300" style="enable-background:new 0 0 400 300;" xml:space="preserve">
<style type="text/css">
	.st0{fill:#EA4335;}
	.st1{fill:#4285F4;}
	.st2{fill:#34A853;}
	.st3{fill:#FBBC05;}
	.st4{fill:#5F6368;}
</style>
<g>
	<g>
		<path class="st0" d="M65.3,136.9h2l5.7-5.7l0.3-2.4c-10.6-9.3-26.7-8.3-36,2.2c-2.6,2.9-4.5,6.4-5.5,10.2c0.6-0.3,1.3-0.3,2-0.1
			l11.4-1.9c0,0,0.6-1,0.9-0.9C51,132.8,59.5,132.2,65.3,136.9L65.3,136.9z"/>
		<path class="st1" d="M81.1,141.2c-1.3-4.8-4-9.1-7.7-12.4l-8,8c3.4,2.7,5.3,6.9,5.2,11.2v1.4c3.9,0,7.1,3.2,7.1,7.1
			s-3.2,7.1-7.1,7.1H56.4L55,165v8.5l1.4,1.4h14.2c10.2,0.1,18.5-8.1,18.6-18.3C89.2,150.5,86.2,144.7,81.1,141.2z"/>
		<path class="st2" d="M42.2,174.9h14.2v-11.4H42.2c-1,0-2-0.2-2.9-0.6l-2,0.6l-5.7,5.7l-0.5,2C34.3,173.6,38.2,174.9,42.2,174.9z"
			/>
		<path class="st3" d="M42.2,138.1c-10.2,0.1-18.4,8.4-18.3,18.6c0,5.7,2.7,11,7.2,14.5l8.2-8.2c-3.6-1.6-5.2-5.8-3.5-9.4
			c1.6-3.6,5.8-5.2,9.4-3.5c1.6,0.7,2.8,2,3.5,3.5l8.2-8.2C53.4,140.7,48,138,42.2,138.1z"/>
	</g>
	<g>
		<g>
			<path class="st4" d="M126.9,167c-4.9,0.1-9.7-1.9-13.1-5.4c-3.6-3.4-5.6-8.1-5.5-13c-0.1-4.9,1.9-9.6,5.5-13
				c3.4-3.5,8.2-5.5,13.1-5.5c4.7-0.1,9.3,1.8,12.6,5.1l-3.5,3.6c-2.4-2.3-5.7-3.6-9.1-3.6c-3.5,0-6.9,1.4-9.4,4
				c-2.5,2.5-3.9,5.9-3.8,9.5c0,3.5,1.4,6.9,3.8,9.3c5.1,5.1,13.4,5.2,18.6,0.2c1.6-1.7,2.5-3.9,2.7-6.2h-12v-5.1h16.9
				c0.2,1,0.2,2.1,0.2,3.1c0.2,4.3-1.4,8.6-4.4,11.8C136.4,165.2,131.7,167.1,126.9,167z M166.2,163.6c-4.7,4.5-12.2,4.5-16.9,0
				c-2.3-2.2-3.5-5.3-3.4-8.5c-0.1-3.2,1.2-6.2,3.4-8.5c4.7-4.5,12.2-4.5,16.9,0c2.3,2.2,3.5,5.3,3.4,8.5
				C169.8,158.3,168.5,161.4,166.2,163.6L166.2,163.6z M153.1,160.2c2.4,2.6,6.5,2.7,9.1,0.3c0.1-0.1,0.2-0.2,0.3-0.3
				c1.3-1.4,2-3.2,2-5.1c0.1-1.9-0.7-3.8-2-5.2c-2.5-2.6-6.7-2.7-9.3-0.2c-0.1,0.1-0.1,0.1-0.2,0.2c-1.3,1.4-2.1,3.2-2,5.2
				C151,157,151.7,158.9,153.1,160.2L153.1,160.2L153.1,160.2z M192.2,163.6c-4.7,4.5-12.2,4.5-16.9,0c-2.3-2.2-3.5-5.3-3.4-8.5
				c-0.1-3.2,1.2-6.2,3.4-8.5c4.7-4.5,12.2-4.5,16.9,0c2.3,2.2,3.5,5.3,3.4,8.5C195.7,158.3,194.5,161.4,192.2,163.6z M179,160.2
				c2.4,2.6,6.5,2.7,9.1,0.3c0.1-0.1,0.2-0.2,0.3-0.3c1.3-1.4,2-3.2,2-5.1c0.1-1.9-0.7-3.8-2-5.2c-2.5-2.6-6.7-2.7-9.3-0.2
				c-0.1,0.1-0.1,0.1-0.2,0.2c-1.3,1.4-2.1,3.2-2,5.2C176.9,157,177.7,158.9,179,160.2L179,160.2L179,160.2z M209.2,177.6
				c-2.4,0.1-4.7-0.7-6.6-2.1c-1.7-1.3-3-3-3.9-4.9l4.5-1.9c0.5,1.2,1.3,2.2,2.3,3c1.1,0.8,2.4,1.3,3.7,1.3c1.7,0.1,3.4-0.5,4.6-1.8
				c1.2-1.4,1.8-3.3,1.7-5.2v-1.7h-0.2c-1.5,1.8-3.8,2.8-6.2,2.7c-3,0-5.9-1.2-8-3.5c-2.2-2.2-3.5-5.2-3.4-8.3
				c-0.1-3.1,1.2-6.2,3.4-8.4c2.1-2.2,4.9-3.5,8-3.5c1.3,0,2.5,0.3,3.7,0.8c1,0.4,1.9,1.1,2.6,1.9h0.2V144h4.9v21.2
				c0.3,3.4-0.9,6.7-3.2,9.3C215.1,176.6,212.2,177.7,209.2,177.6z M209.6,162.3c1.7,0,3.4-0.7,4.5-2c1.2-1.4,1.9-3.2,1.8-5.1
				c0.1-1.9-0.6-3.8-1.8-5.2c-1.1-1.3-2.8-2-4.5-2c-1.8,0-3.5,0.7-4.7,2c-1.3,1.4-2,3.2-2,5.2c0,1.9,0.7,3.7,2,5.1
				C206.1,161.6,207.8,162.3,209.6,162.3z M229.3,131.4v34.8h-5.2v-34.8H229.3z M243.5,167c-3.1,0.1-6.2-1.2-8.4-3.4
				c-2.2-2.2-3.4-5.3-3.4-8.4c-0.1-3.2,1.1-6.2,3.2-8.5c2.1-2.2,5-3.4,8-3.3c1.4,0,2.7,0.3,4,0.8c1.1,0.5,2.2,1.1,3,2
				c0.8,0.7,1.4,1.5,2,2.4c0.5,0.7,0.9,1.5,1.2,2.3l0.5,1.4l-15.9,6.6c1,2.3,3.3,3.7,5.7,3.6c2.4,0,4.6-1.2,5.8-3.3l4,2.7
				c-1,1.5-2.3,2.7-3.8,3.6C247.7,166.4,245.7,167,243.5,167z M236.9,154.7l10.6-4.4c-0.3-0.8-0.9-1.4-1.7-1.8
				c-0.8-0.5-1.8-0.7-2.7-0.7c-1.6,0-3.2,0.7-4.3,1.9C237.5,151,236.7,152.9,236.9,154.7z"/>
		</g>
		<g>
			<path class="st4" d="M281,167c-9.1,0.2-16.5-7.1-16.7-16.1c0-0.2,0-0.4,0-0.7c-0.2-9.1,7-16.6,16-16.8c0.2,0,0.4,0,0.7,0
				c4.5-0.1,8.9,1.8,11.8,5.3l-2.9,2.8c-2.2-2.7-5.5-4.2-8.9-4.1c-3.3-0.1-6.5,1.2-8.9,3.5c-2.4,2.5-3.7,5.8-3.6,9.3
				c-0.1,3.5,1.2,6.8,3.6,9.3c2.3,2.3,5.6,3.6,8.9,3.5c3.9,0,7.5-1.7,10-4.7l2.9,2.9c-1.5,1.8-3.4,3.2-5.5,4.2
				C286,166.5,283.5,167,281,167z"/>
			<path class="st4" d="M301.5,166.2h-4.1v-32.2h4.1V166.2z"/>
			<path class="st4" d="M308.2,146.9c4.5-4.5,11.8-4.5,16.3,0c2.1,2.3,3.3,5.3,3.2,8.4c0.1,3.1-1.1,6.1-3.2,8.4
				c-4.5,4.5-11.8,4.5-16.3,0c-2.1-2.3-3.3-5.3-3.2-8.4C305,152.1,306.1,149.1,308.2,146.9z M311.3,161c2.6,2.8,7,2.9,9.8,0.3
				c0.1-0.1,0.2-0.2,0.3-0.3c1.5-1.6,2.2-3.6,2.1-5.8c0.1-2.1-0.7-4.2-2.1-5.8c-2.6-2.8-7-2.9-9.8-0.3c-0.1,0.1-0.2,0.2-0.3,0.3
				c-1.5,1.6-2.2,3.6-2.1,5.8C309.1,157.4,309.9,159.4,311.3,161L311.3,161z"/>
			<path class="st4" d="M350.5,166.2h-4v-3h-0.1c-0.7,1.2-1.7,2.1-2.9,2.7c-1.2,0.7-2.6,1.1-4.1,1.1c-2.4,0.2-4.7-0.8-6.3-2.5
				c-1.5-1.9-2.3-4.3-2.1-6.7v-13.5h4.1V157c0,4.1,1.8,6.2,5.4,6.2c1.6,0.1,3.2-0.7,4.2-2c1.1-1.4,1.6-3,1.6-4.8v-12.2h4.1
				L350.5,166.2L350.5,166.2z"/>
			<path class="st4" d="M364.5,167c-2.8,0-5.5-1.2-7.4-3.4c-2.1-2.3-3.2-5.3-3.1-8.3c-0.1-3.1,1-6.1,3.1-8.3
				c1.8-2.1,4.5-3.4,7.4-3.4c1.6,0,3.1,0.3,4.5,1.1c1.2,0.6,2.3,1.5,3,2.7h0.2l-0.2-3v-10.2h4.1v32.2h-4v-3H372
				c-0.7,1.1-1.8,2.1-3,2.7C367.6,166.6,366.1,167,364.5,167z M365.2,163.2c1.9,0,3.7-0.8,5-2.2c1.4-1.6,2.1-3.7,2-5.8
				c0.1-2.1-0.6-4.2-2-5.8c-2.5-2.8-6.8-3-9.5-0.4c-0.2,0.1-0.3,0.3-0.4,0.4c-1.4,1.6-2.1,3.7-2,5.8c-0.1,2.1,0.6,4.2,2,5.8
				C361.5,162.4,363.3,163.2,365.2,163.2z"/>
		</g>
	</g>
</g>
</svg>
