<?xml version="1.0" encoding="utf-8"?>
<!-- Generator: Adobe Illustrator 21.0.2, SVG Export Plug-In . SVG Version: 6.00 Build 0)  -->
<svg version="1.1" id="Layer_1" xmlns="http://www.w3.org/2000/svg" xmlns:xlink="http://www.w3.org/1999/xlink" x="0px" y="0px"
	 viewBox="0 0 400 300" style="enable-background:new 0 0 400 300;" xml:space="preserve">
<style type="text/css">
	.st0{fill:#007EE5;}
</style>
<g>
	<g id="XMLID_12_">
		<path id="XMLID_29_" class="st0" d="M145.1,129.2h12.1c10.4,0,16.9,6.7,16.9,17.2c0,10.5-6.5,17.2-16.9,17.2h-12.1V129.2
			L145.1,129.2z M156.8,157.2c6.5,0,10.1-4.2,10.1-10.8c0-6.7-3.6-10.9-10.1-10.9h-4.8v21.7L156.8,157.2L156.8,157.2z"/>
		<path id="XMLID_27_" class="st0" d="M192.4,145.4c-1-0.6-2.2-0.8-3.4-0.8c-2.3,0-4.2,1.2-4.7,3.5v15.4h-6.9v-24.9h6.9v2.4
			c1.1-1.8,3.1-3,5.6-3c1.2,0,2.2,0.2,2.6,0.4V145.4L192.4,145.4z"/>
		<path id="XMLID_24_" class="st0" d="M206.2,164.1c-7.2,0-12.2-5.3-12.2-13c0-7.8,4.9-13.1,12.2-13.1c7.2,0,12.2,5.3,12.2,13.1
			C218.4,158.8,213.4,164.1,206.2,164.1z M206.2,143.8c-3.4,0-5.3,3-5.3,7.2c0,4.2,1.9,7.2,5.3,7.2s5.3-3,5.3-7.2
			C211.5,146.8,209.7,143.8,206.2,143.8z"/>
		<path id="XMLID_21_" class="st0" d="M228.2,172.8h-6.9v-34.2h6.9v2.1c1.1-1.3,3.6-2.6,6.2-2.6c7.2,0,11.3,6,11.3,13.1
			c0,7-4.2,13-11.3,13c-2.7,0-5.2-1.2-6.2-2.6V172.8L228.2,172.8z M228.2,155.2c0.8,1.8,2.7,2.9,4.7,2.9c3.8,0,6-3,6-6.9
			c0-4-2.2-7-6-7c-2.1,0-3.8,1.2-4.7,2.9V155.2z"/>
		<path id="XMLID_18_" class="st0" d="M255.9,163.5h-7v-36.2h6.9v13.4c1.1-1.3,3.6-2.6,6.3-2.6c7.2,0,11.3,5.9,11.3,13.1
			c0,7.2-4.1,13-11.3,13c-2.7,0-5.2-1.2-6.3-2.6L255.9,163.5L255.9,163.5z M255.9,155.2c0.7,1.8,2.6,2.9,4.7,2.9c3.8,0,6-3,6-6.9
			c0-4-2.2-7-6-7c-2,0-3.9,1.2-4.7,2.9V155.2z"/>
		<path id="XMLID_15_" class="st0" d="M288.2,164.2c-7.2,0-12.2-5.3-12.2-13c0-7.8,4.9-13.1,12.2-13.1c7.2,0,12.2,5.3,12.2,13.1
			C300.3,158.8,295.4,164.2,288.2,164.2z M288.2,143.9c-3.4,0-5.3,3-5.3,7.2c0,4.2,1.9,7.2,5.3,7.2s5.3-3,5.3-7.2
			C293.5,147,291.6,143.9,288.2,143.9z"/>
		<path id="XMLID_13_" class="st0" d="M315.9,150.6l9.1,12.8h-7.7l-5.3-7.8l-5.4,7.8h-7.2l9-12.8l-8.5-12.2h7.7l4.8,7.1l4.9-7.1h7.2
			L315.9,150.6z"/>
	</g>
	<g id="XMLID_6_">
		<polygon id="XMLID_11_" class="st0" points="93,121.7 75,133.2 87.5,143.2 105.7,132.1 		"/>
		<polygon id="XMLID_10_" class="st0" points="75,153.1 93,164.9 105.7,154.5 87.5,143.2 		"/>
		<polygon id="XMLID_9_" class="st0" points="105.7,154.5 118.2,164.9 136.1,153.2 123.7,143.2 		"/>
		<polygon id="XMLID_8_" class="st0" points="136.1,133.2 118.2,121.7 105.7,132.1 123.7,143.2 		"/>
		<polygon id="XMLID_7_" class="st0" points="105.7,156.7 93,167.2 87.6,163.7 87.6,167.6 105.7,178.3 123.6,167.6 123.6,163.7 
			118.2,167.2 		"/>
	</g>
</g>
</svg>
