<?xml version="1.0" encoding="utf-8"?>
<!-- Generator: Adobe Illustrator 21.0.2, SVG Export Plug-In . SVG Version: 6.00 Build 0)  -->
<svg version="1.1" id="Layer_1" xmlns="http://www.w3.org/2000/svg" xmlns:xlink="http://www.w3.org/1999/xlink" x="0px" y="0px"
	 viewBox="0 0 400 300" style="enable-background:new 0 0 400 300;" xml:space="preserve">
<style type="text/css">
	.st0{fill:#8BA651;}
</style>
<g>
	<path class="st0" d="M152.8,181.1h-2.7c-0.2,0-0.3,0.1-0.5,0.2l-4.7,7.9c-0.2,0.3-0.4,0.3-0.6,0l-4.5-7.9c-0.1-0.2-0.2-0.2-0.5-0.2
		h-2.6c-0.3,0-0.5,0.2-0.5,0.5v15.8c0,0.3,0.2,0.5,0.5,0.5h2.6c0.3,0,0.5-0.2,0.5-0.5v-8.2c0-0.5,0.5-0.8,0.8-0.3l3.5,5.8
		c0.2,0.3,0.6,0.3,0.9,0l3.7-5.8c0.3-0.4,0.8-0.2,0.8,0.3v8.2c0,0.3,0.2,0.5,0.5,0.5h2.7c0.3,0,0.5-0.2,0.5-0.5v-15.8
		C153.3,181.3,153.1,181.1,152.8,181.1z"/>
	<path class="st0" d="M172.6,181.4c-0.1-0.2-0.3-0.3-0.5-0.3h-2.8c-0.2,0-0.4,0.2-0.5,0.3l-7,15.8c-0.2,0.4,0.1,0.8,0.5,0.8h2.8
		c0.2,0,0.4-0.2,0.5-0.3l1-2.7c0.1-0.2,0.3-0.3,0.5-0.3h7.1c0.2,0,0.4,0.2,0.5,0.3l1.1,2.7c0.1,0.2,0.3,0.3,0.5,0.3h2.7
		c0.4,0,0.6-0.4,0.5-0.8L172.6,181.4z M172.5,191.4h-3.6c-0.4,0-0.6-0.4-0.5-0.7l1.8-4.5c0.2-0.5,0.9-0.5,1,0l1.8,4.5
		C173.2,191,172.9,191.4,172.5,191.4z"/>
	<path class="st0" d="M221.1,188.8c-0.2-0.2-0.2-0.5,0-0.6l5.1-6.2c0.3-0.3,0-0.9-0.4-0.9H223c-0.2,0-0.3,0.1-0.4,0.2l-5.7,7.2
		c-0.3,0.4-0.9,0.2-0.9-0.3v-6.5c0-0.3-0.2-0.5-0.5-0.5h-2.5c-0.3,0-0.5,0.2-0.5,0.5v15.8c0,0.3,0.2,0.5,0.5,0.5h2.5
		c0.3,0,0.5-0.2,0.5-0.5v-2.7c0-0.2,0.1-0.2,0.2-0.3l2.1-2.6c0.2-0.2,0.6-0.2,0.9,0l4.2,6c0.1,0.2,0.2,0.2,0.5,0.2h3.1
		c0.5,0,0.7-0.5,0.4-0.9L221.1,188.8z"/>
	<path class="st0" d="M248.6,194.8h-8c-0.3,0-0.6-0.2-0.6-0.6v-2.5c0-0.3,0.2-0.6,0.6-0.6h5.3c0.3,0,0.6-0.2,0.6-0.6v-1.9
		c0-0.3-0.2-0.6-0.6-0.6h-5.3c-0.3,0-0.6-0.2-0.6-0.6v-2.4c0-0.3,0.2-0.6,0.6-0.6h7.4c0.3,0,0.6-0.2,0.6-0.6v-2
		c0-0.3-0.2-0.6-0.6-0.6H237c-0.3,0-0.6,0.2-0.6,0.6v15.8c0,0.3,0.2,0.6,0.6,0.6h11.6c0.3,0,0.6-0.2,0.6-0.6v-2
		C249.1,195,248.9,194.8,248.6,194.8z"/>
	<path class="st0" d="M271.2,181.1h-13.6c-0.3,0-0.5,0.2-0.5,0.5v2.2c0,0.3,0.2,0.5,0.5,0.5h4.4c0.3,0,0.5,0.2,0.5,0.5v12.6
		c0,0.3,0.2,0.5,0.5,0.5h2.6c0.3,0,0.5-0.2,0.5-0.5v-12.6c0-0.3,0.2-0.5,0.5-0.5h4.5c0.3,0,0.5-0.2,0.5-0.5v-2.2
		C271.8,181.3,271.6,181.1,271.2,181.1z"/>
	<path class="st0" d="M202.4,187.4c0-3.7-2.8-6.4-7.7-6.4c-1.7,0-3.4,0.1-5.3,0.1c-0.3,0-0.5,0.2-0.5,0.5v15.8
		c0,0.3,0.2,0.5,0.5,0.5h2.6c0.3,0,0.5-0.2,0.5-0.5v-3.4c0-0.4,0.1-0.5,0.5-0.5c0.5,0,1.4,0,2,0c0.1,0,0.2,0,0.4,0l0,0
		c0.6,0,0.8-0.1,0.9,0.3l2,3.8c0.1,0.2,0.3,0.3,0.5,0.3h2.9c0.4,0,0.6-0.4,0.5-0.8l-2.3-4.5c-0.2-0.2-0.1-0.5,0.2-0.7
		C201.5,191.1,202.4,189.6,202.4,187.4z M195,190.3c-0.7,0-1.3,0.1-2,0c-0.3,0-0.5-0.2-0.5-0.5v-5c0-0.3,0.2-0.5,0.5-0.5
		c0.6,0,1.2,0,1.9,0.1c2.2,0.1,3.8,1.1,3.8,3C198.8,189,197.6,190.1,195,190.3z"/>
	<path class="st0" d="M322.1,147.8c-0.2,0.2-2.4,13.1-11.4,13.1c-3.5,0-6-2.7-7.6-5.9c11.1-2.5,14.9-11.3,14.9-17.3
		c0-7.1-5-9.6-9.3-9.6c-7,0-16,6.4-16,19.1c0,1.2,0.1,2.3,0.2,3.3c-2.4-0.7-4.5-2-5.9-4.2c2.1-9.3,1.7-18.3-2.6-18.3
		c-2.4,0-4.5,3.2-4.5,10.1c0,2.7,0.7,5.8,2.2,8.6c-0.9,4.2-3.9,14.6-7.8,14.6c-5.3,0-3.7-25.4-3.7-29.2c0-3.1-7.4-6.3-9-4.6
		c-0.7,0.7-0.9,4.9-0.9,10.2c0,4.4,0.3,9.6,1.3,14.4c-0.5,2.6-2.7,9.3-6.8,9.3c-6.4,0-3.1-24.1-3.1-27.9c0-2.7-7.1-5.3-8.9-3.6
		c-0.7,0.7-1.2,5.6-1.2,13.1c0,3.1,0.2,6.5,0.6,9.6c-0.7,3.4-3.3,8.8-7.6,8.8c-6.8,0-3.8-26.3-2-42.6c1.1-0.2,2.3-0.4,3.4-0.5
		c3-0.3,6.7-0.9,6.7,0.9c0,4.3,2.8,5.6,4.9,5.6c2.3,0,4.4-1.8,4.4-5.3c0-3.4-3-6.7-8.3-6.7c-3.5,0-7.1,0.4-10.5,0.9
		c0.3-2.7,0.5-4.9,0.5-6.2c0-3.6-7.4-7.1-8.9-5.6c-0.3,0.3-1.3,6-2.1,13.8c-5.2,1-10.3,2-15.3,2c-1.7,0-1.5,5.3,4.5,5.3
		c3.4,0,6.8-0.8,10.3-1.7c-0.5,5.5-0.9,11.6-0.9,17.5c0,5.3,0.3,9.9,0.9,13.7c-0.7,2.9-2.8,8.8-6.7,8.8c-7.4,0-3.9-25.9-3.9-29.7
		c0-1.8-6.8-5.8-8.2-4.4c-0.2,0.2-0.3,1.3-0.3,1.3s-0.9-0.7-3.4-0.7c-9.6,0-17.2,11.8-17.2,22.6c0,0.5,0,1,0.1,1.5
		c-1.5,3.4-5.3,9.5-12,9.5c-3.4,0-5.9-2.3-7.5-5.1c10.4-3,14.6-12.2,14.6-18c0-6.9-5.9-10.3-10.1-10.3c-7.4,0-15.5,7.4-15.5,19.8
		c0,3.6,0.7,6.7,1.9,9.4c-1.3,2.1-3.4,4.2-6.1,4.2c-7.7,0-2.5-25.7-2.5-28.5c0-0.7,0-2-1.2-2.8c-1.6-1.1-10.8-2.4-14-3
		c0-0.7,0-1.3,0-1.9c0-4.9-3.1-6.1-5.1-6.1c-3.4,0-4.1,3.8-4.1,4.7c0,0.9,0.2,4.2,3.6,6.1c0,9.3-5.9,31.2-21.8,31.2
		c-12,0-16.4-12.3-16.4-21.6c0-15.4,9.1-27.4,15-27.4c7.4,0,0.9,14.2,8.2,14.2c5.2,0,5.9-5,5.9-7.4c0-4.3-4.5-12.5-14.1-12.5
		c-15.3,0-26.7,18.7-26.7,34.7c0,15.4,10.6,27.8,25.4,27.8c22.9,0,28.6-24.3,29.8-37.9c1.5,0.5,5.1,1,5.4,1.4
		c0.6,0.6-1.2,8.9-1.2,16.8c0,10,3.3,18,11.1,18c4.9,0,8.9-3.5,10.9-6.3c3.2,4.1,7.8,6.2,12.2,6.2c7.7,0,12.8-4.8,15.4-8.7
		c2.1,5.8,6.6,8.7,10.5,8.7c5.6,0,8.9-7.4,9.1-8.7c1.6,5.2,5.6,8.8,10,8.8c5.6,0,9-5.1,10.3-8.2c2,5.4,5.2,8.2,9.7,8.2
		c5.3,0,8.7-4.8,10.2-7.9c1.6,4.6,4.4,7.9,8.8,7.9c5.9,0,9.5-6,10.7-9c1.9,5.1,4.9,8.9,9.6,8.9c5.2,0,9.6-7.4,12.3-15.8
		c2.2,2,5,3.5,8.5,4c2.6,7.5,8.7,11.7,15.1,11.7c11.2,0,15.5-11.5,16-14.2C325.6,150.2,323,146.9,322.1,147.8z M167.6,131.5
		c4.7,0,1.9,17.8-5.8,20.8c-0.5-1.9-0.9-3.8-0.9-5.2C161,141.1,163.4,131.5,167.6,131.5z M196,159.9c-8.2,0-2.4-28.2,4.2-28.2
		C204.5,131.7,203.8,159.9,196,159.9z M307.7,131.7c4.5,0,2,18.3-6,19.6c-0.4-1.5-0.5-3-0.5-4.2
		C301.2,141.1,303.5,131.7,307.7,131.7z"/>
</g>
</svg>
