<?xml version="1.0" encoding="utf-8"?>
<!-- Generator: Adobe Illustrator 21.0.2, SVG Export Plug-In . SVG Version: 6.00 Build 0)  -->
<svg version="1.1" id="Layer_1" xmlns="http://www.w3.org/2000/svg" xmlns:xlink="http://www.w3.org/1999/xlink" x="0px" y="0px"
	 viewBox="0 0 400 300" style="enable-background:new 0 0 400 300;" xml:space="preserve">
<style type="text/css">
	.st0{clip-path:url(#SVGID_2_);}
	.st1{clip-path:url(#SVGID_4_);}
	.st2{clip-path:url(#SVGID_6_);fill:#F6F9FC;}
	.st3{clip-path:url(#SVGID_8_);}
	.st4{clip-path:url(#SVGID_10_);fill:#F5BE58;}
	.st5{clip-path:url(#SVGID_12_);}
	.st6{fill:#7E8FA4;}
	.st7{fill:#F8C96A;}
	.st8{clip-path:url(#SVGID_12_);fill:none;stroke:#EEF3F8;stroke-linecap:square;stroke-miterlimit:10;}
	.st9{clip-path:url(#SVGID_14_);}
	.st10{clip-path:url(#SVGID_16_);fill:#FCD669;}
	.st11{clip-path:url(#SVGID_18_);}
	.st12{clip-path:url(#SVGID_20_);fill:#CE7C3A;}
	.st13{clip-path:url(#SVGID_22_);}
	.st14{clip-path:url(#SVGID_24_);fill:#FFFFFF;}
	.st15{clip-path:url(#SVGID_26_);enable-background:new    ;}
	.st16{clip-path:url(#SVGID_28_);}
	.st17{clip-path:url(#SVGID_30_);}
	.st18{clip-path:url(#SVGID_32_);fill:none;stroke:#F6F9FC;stroke-width:2;stroke-miterlimit:10;}
</style>
<g>
	<g>
		<defs>
			<rect id="SVGID_1_" x="75" y="102.9" width="250" height="94.3"/>
		</defs>
		<clipPath id="SVGID_2_">
			<use xlink:href="#SVGID_1_"  style="overflow:visible;"/>
		</clipPath>
		<g class="st0">
			<defs>
				<path id="SVGID_3_" d="M75,111.6c0-4.9,3.9-8.8,8.8-8.8h232.5c4.8,0,8.8,3.9,8.8,8.8v76.7c0,4.9-3.9,8.8-8.8,8.8H83.8
					c-4.8,0-8.8-3.9-8.8-8.8V111.6z"/>
			</defs>
			<clipPath id="SVGID_4_">
				<use xlink:href="#SVGID_3_"  style="overflow:visible;"/>
			</clipPath>
			<g class="st1">
				<defs>
					<rect id="SVGID_5_" x="-221.1" y="-493.6" width="839.9" height="833.3"/>
				</defs>
				<clipPath id="SVGID_6_">
					<use xlink:href="#SVGID_5_"  style="overflow:visible;"/>
				</clipPath>
				<rect x="64" y="91.9" class="st2" width="271.9" height="116.2"/>
			</g>
		</g>
		<g class="st0">
			<defs>
				<path id="SVGID_7_" d="M194.6,140.7c0,3-2.4,4.8-5.9,4.8c-1.5,0-3-0.3-4.6-1v-4c1.4,0.8,3.2,1.3,4.6,1.3c0.9,0,1.6-0.3,1.6-1
					c0-2-6.4-1.3-6.4-5.9c0-3,2.3-4.8,5.7-4.8c1.4,0,2.8,0.2,4.2,0.8v4c-1.3-0.7-2.9-1.1-4.2-1.1c-0.9,0-1.4,0.3-1.4,0.9
					C188.1,136.6,194.6,135.7,194.6,140.7z M199.7,140c0,2.5,2.7,1.7,3.2,1.5v3.4c-0.6,0.3-1.6,0.6-3,0.6c-2.5,0-4.4-1.8-4.4-4.3
					l0-13.5l4.1-0.9l0,3.7h3.2v3.6h-3.2V140z M208.5,135.1v10h-4.2v-14.7h3.6l0.3,1.2c1-1.8,3-1.4,3.5-1.2v3.9
					C211.2,134.1,209.5,133.8,208.5,135.1z M212.9,125.7l4.2-0.9v3.4l-4.2,0.9V125.7z M212.9,130.4h4.2v14.7h-4.2V130.4z
					 M225.1,133.8c-1,0-1.6,0.4-2,0.8l0,6.3c0.4,0.4,1,0.8,2,0.8c1.6,0,2.6-1.7,2.6-4C227.7,135.6,226.6,133.8,225.1,133.8z
					 M226.1,145.4c-1.5,0-2.4-0.6-3-1.1l0,4.8l-4.2,0.9l0-19.6h3.7l0.2,1c0.6-0.5,1.6-1.3,3.3-1.3c3,0,5.7,2.7,5.7,7.6
					C231.8,143,229.1,145.4,226.1,145.4z M239.1,133.5c-1.1,0-2.2,0.8-2.2,2.7h4.4C241.3,134.3,240.2,133.5,239.1,133.5z
					 M245.2,139.3H237c0.2,2,1.6,2.6,3.3,2.6c1.7,0,3-0.4,4.1-0.9v3.4c-1.1,0.6-2.7,1.1-4.7,1.1c-4.1,0-7-2.6-7-7.6
					c0-4.3,2.4-7.7,6.4-7.7c4,0,6.1,3.4,6.1,7.7C245.2,138.2,245.2,139.1,245.2,139.3z"/>
			</defs>
			<clipPath id="SVGID_8_">
				<use xlink:href="#SVGID_7_"  style="overflow:visible;"/>
			</clipPath>
			<g class="st3">
				<defs>
					<rect id="SVGID_9_" x="-221.1" y="-493.6" width="839.9" height="833.3"/>
				</defs>
				<clipPath id="SVGID_10_">
					<use xlink:href="#SVGID_9_"  style="overflow:visible;"/>
				</clipPath>
				<rect x="172.9" y="113.8" class="st4" width="83.3" height="47.2"/>
			</g>
		</g>
		<g class="st0">
			<defs>
				<rect id="SVGID_11_" x="-221.1" y="-493.6" width="839.9" height="833.3"/>
			</defs>
			<clipPath id="SVGID_12_">
				<use xlink:href="#SVGID_11_"  style="overflow:visible;"/>
			</clipPath>
			<g class="st5">
				<path class="st6" d="M184.9,156.4h1.4l9.8,14v-14h1.5V173h-1.4l-9.8-14v14h-1.5V156.4z"/>
				<path class="st6" d="M201.2,166.9c0-0.9,0.1-1.8,0.4-2.5s0.7-1.4,1.1-2c0.5-0.6,1.1-1,1.7-1.3c0.7-0.3,1.4-0.5,2.2-0.5
					c0.7,0,1.4,0.1,2,0.4c0.6,0.3,1.1,0.7,1.5,1.2s0.7,1.1,1,1.9c0.2,0.7,0.3,1.5,0.3,2.4c0,0.1,0,0.3,0,0.4c0,0.1,0,0.2,0,0.4h-8.7
					c0,0.7,0.1,1.4,0.4,1.9c0.2,0.6,0.5,1.1,0.9,1.5c0.4,0.4,0.9,0.7,1.4,1c0.5,0.2,1.1,0.3,1.8,0.3c0.6,0,1.1-0.1,1.7-0.3
					c0.6-0.2,1.2-0.5,1.8-0.8v1.4c-1.2,0.6-2.4,0.9-3.7,0.9c-0.9,0-1.6-0.2-2.3-0.5c-0.7-0.3-1.3-0.8-1.8-1.3
					c-0.5-0.6-0.9-1.2-1.2-2C201.3,168.7,201.2,167.8,201.2,166.9z M210,166.2c0-0.6-0.1-1.2-0.2-1.7s-0.4-1-0.7-1.3
					c-0.3-0.4-0.6-0.7-1.1-0.9c-0.4-0.2-0.9-0.3-1.4-0.3c-0.5,0-1.1,0.1-1.5,0.3c-0.5,0.2-0.9,0.5-1.2,0.9s-0.6,0.8-0.8,1.3
					s-0.3,1.1-0.4,1.7H210z"/>
				<path class="st6" d="M216.9,161h4.3v1.2h-4.3v7.6c0,0.7,0.2,1.2,0.6,1.6c0.4,0.4,0.9,0.6,1.6,0.6c0.6,0,1.3-0.2,2.1-0.7v1.4
					c-0.9,0.4-1.6,0.6-2.3,0.6c-0.5,0-1-0.1-1.4-0.3c-0.4-0.2-0.8-0.4-1.1-0.7c-0.3-0.3-0.6-0.7-0.7-1.1c-0.2-0.4-0.3-0.9-0.3-1.4
					v-7.7H213V161h2.4v-3.4h1.5V161z"/>
				<path class="st6" d="M236.1,173h-1.3l-3.3-10.1l-3.3,10.1h-1.3l-4.1-12.1h1.5l3.3,10.1l3.3-10.1h1.3l3.3,10.1l3.3-10.1h1.5
					L236.1,173z"/>
				<path class="st6" d="M241.8,167c0-0.9,0.1-1.8,0.4-2.6c0.3-0.8,0.7-1.4,1.2-2c0.5-0.6,1.1-1,1.8-1.3c0.7-0.3,1.5-0.5,2.3-0.5
					c0.8,0,1.6,0.2,2.3,0.5c0.7,0.3,1.3,0.7,1.8,1.3c0.5,0.6,0.9,1.2,1.2,2c0.3,0.8,0.4,1.6,0.4,2.6s-0.1,1.8-0.4,2.6
					c-0.3,0.8-0.7,1.4-1.2,2c-0.5,0.6-1.1,1-1.8,1.3c-0.7,0.3-1.4,0.5-2.3,0.5c-0.8,0-1.6-0.2-2.3-0.5s-1.3-0.7-1.8-1.3
					c-0.5-0.6-0.9-1.2-1.2-2C242,168.8,241.8,167.9,241.8,167z M243.4,167c0,0.8,0.1,1.4,0.3,2.1s0.5,1.1,0.8,1.6
					c0.4,0.4,0.8,0.8,1.3,1c0.5,0.2,1.1,0.4,1.7,0.4c0.6,0,1.1-0.1,1.7-0.4c0.5-0.2,0.9-0.6,1.3-1c0.4-0.4,0.6-1,0.8-1.6
					c0.2-0.6,0.3-1.3,0.3-2.1c0-0.7-0.1-1.4-0.3-2.1c-0.2-0.6-0.5-1.2-0.8-1.6c-0.4-0.4-0.8-0.8-1.3-1c-0.5-0.2-1.1-0.4-1.7-0.4
					c-0.6,0-1.2,0.1-1.7,0.4c-0.5,0.2-0.9,0.6-1.3,1c-0.4,0.4-0.6,1-0.8,1.6S243.4,166.3,243.4,167z"/>
				<path class="st6" d="M256.3,161h1.5v1.5c0.5-0.6,1-1,1.6-1.3c0.6-0.3,1.2-0.5,1.8-0.5c0.2,0,0.4,0,0.6,0c0.2,0,0.4,0.1,0.6,0.2
					v1.4c-0.4-0.2-0.9-0.2-1.3-0.2c-0.6,0-1.2,0.2-1.8,0.5c-0.6,0.3-1.1,0.8-1.6,1.5v9h-1.5V161z"/>
				<path class="st6" d="M265.2,155.7h1.5v10.7l5.3-5.4h1.9l-5.8,5.9l6,6.1h-2l-5.4-5.6v5.6h-1.5V155.7z"/>
			</g>
			<g class="st5">
				<path class="st7" d="M259.4,127.9h2.1l6.6,16.6h-2.5l-1.7-4.4H257l-1.7,4.4h-2.5L259.4,127.9z M257.7,138.2h5.5l-2.7-7
					L257.7,138.2z"/>
				<path class="st7" d="M273.4,132.5h3.8v2h-3.8v6.4c0,0.6,0.2,1,0.5,1.4c0.4,0.4,0.8,0.5,1.4,0.5c0.3,0,0.6-0.1,0.9-0.2
					c0.3-0.1,0.6-0.2,1-0.4v2.1c-0.9,0.4-1.7,0.5-2.4,0.5c-0.6,0-1.1-0.1-1.5-0.3s-0.9-0.4-1.2-0.8c-0.3-0.3-0.6-0.7-0.8-1.2
					c-0.2-0.5-0.3-0.9-0.3-1.5v-6.7h-2.2v-2h2.2v-3.4h2.4V132.5z"/>
				<path class="st7" d="M280,127.2h2.4v17.3H280V127.2z"/>
				<path class="st7" d="M292.7,143.4c-0.6,0.5-1.2,0.8-1.8,1s-1.3,0.4-1.9,0.4c-0.6,0-1.1-0.1-1.5-0.3c-0.5-0.2-0.9-0.4-1.2-0.7
					s-0.6-0.7-0.8-1.1s-0.3-0.9-0.3-1.4c0-0.6,0.1-1.2,0.4-1.7s0.7-1,1.2-1.3c0.5-0.4,1.1-0.7,1.8-0.9c0.7-0.2,1.5-0.3,2.3-0.3
					c0.6,0,1.2,0,1.7,0.1v-0.8c0-0.7-0.2-1.2-0.7-1.6c-0.5-0.4-1.1-0.6-1.8-0.6c-1.3,0-2.6,0.4-3.9,1.1v-2.1c1.4-0.6,2.8-1,4.1-1
					c0.7,0,1.3,0.1,1.9,0.3c0.6,0.2,1.1,0.5,1.5,0.9c0.4,0.4,0.7,0.8,0.9,1.3c0.2,0.5,0.3,1.1,0.3,1.7v8.1h-2.3V143.4z M287.6,141
					c0,0.6,0.2,1,0.6,1.4c0.4,0.4,0.9,0.5,1.5,0.5c1,0,2-0.5,3-1.4v-2.8c-0.5,0-1.1-0.1-1.6-0.1c-1,0-1.9,0.2-2.5,0.7
					C288,139.7,287.6,140.3,287.6,141z"/>
				<path class="st7" d="M298.1,141.7c1.1,0.8,2.3,1.1,3.4,1.1c0.6,0,1.2-0.2,1.6-0.5c0.4-0.3,0.6-0.7,0.6-1.2c0-0.4-0.1-0.7-0.4-1
					c-0.3-0.2-0.7-0.4-1.1-0.6s-0.9-0.3-1.4-0.5s-1-0.4-1.4-0.6s-0.8-0.6-1.1-1c-0.3-0.4-0.4-1-0.4-1.7c0-0.5,0.1-1,0.3-1.4
					c0.2-0.4,0.5-0.8,0.9-1.1c0.4-0.3,0.8-0.6,1.4-0.7c0.5-0.2,1.1-0.3,1.8-0.3c1.1,0,2.2,0.2,3.3,0.7v2.2c-1-0.6-2.1-0.9-3.1-0.9
					c-0.6,0-1.1,0.1-1.5,0.4c-0.4,0.3-0.6,0.7-0.6,1.1c0,0.4,0.1,0.7,0.4,0.9c0.3,0.2,0.7,0.4,1.1,0.6s0.9,0.3,1.4,0.5
					c0.5,0.2,1,0.4,1.4,0.7c0.4,0.3,0.8,0.6,1.1,1.1s0.4,1,0.4,1.7c0,0.5-0.1,1-0.3,1.5c-0.2,0.5-0.5,0.8-0.9,1.2
					c-0.4,0.3-0.9,0.6-1.4,0.7c-0.5,0.2-1.1,0.3-1.8,0.3c-1.2,0-2.4-0.3-3.6-0.8V141.7z"/>
			</g>
			<line class="st8" x1="167.1" y1="120.4" x2="167.1" y2="177.9"/>
		</g>
		<g class="st0">
			<defs>
				<circle id="SVGID_13_" cx="122.1" cy="150" r="28.8"/>
			</defs>
			<clipPath id="SVGID_14_">
				<use xlink:href="#SVGID_13_"  style="overflow:visible;"/>
			</clipPath>
			<g class="st9">
				<defs>
					<rect id="SVGID_15_" x="-221.1" y="-493.6" width="839.9" height="833.3"/>
				</defs>
				<clipPath id="SVGID_16_">
					<use xlink:href="#SVGID_15_"  style="overflow:visible;"/>
				</clipPath>
				<rect x="82.4" y="110.3" class="st10" width="79.5" height="79.5"/>
			</g>
		</g>
		<g class="st0">
			<defs>
				<path id="SVGID_17_" d="M123.3,123l21.1,42.2c0.5,1-0.4,2.1-1.5,1.9l-20.8-5v-39.8C122.6,122.3,123.1,122.5,123.3,123z"/>
			</defs>
			<clipPath id="SVGID_18_">
				<use xlink:href="#SVGID_17_"  style="overflow:visible;"/>
			</clipPath>
			<g class="st11">
				<defs>
					<rect id="SVGID_19_" x="-221.1" y="-493.6" width="839.9" height="833.3"/>
				</defs>
				<clipPath id="SVGID_20_">
					<use xlink:href="#SVGID_19_"  style="overflow:visible;"/>
				</clipPath>
				<rect x="111.2" y="111.3" class="st12" width="44.3" height="66.8"/>
			</g>
		</g>
		<g class="st0">
			<defs>
				<path id="SVGID_21_" d="M122.2,162.1l-20.8,5c-1.1,0.3-2-0.9-1.5-1.9L121,123c0.2-0.5,0.7-0.7,1.2-0.7V162.1z"/>
			</defs>
			<clipPath id="SVGID_22_">
				<use xlink:href="#SVGID_21_"  style="overflow:visible;"/>
			</clipPath>
			<g class="st13">
				<defs>
					<rect id="SVGID_23_" x="-221.1" y="-493.6" width="839.9" height="833.3"/>
				</defs>
				<clipPath id="SVGID_24_">
					<use xlink:href="#SVGID_23_"  style="overflow:visible;"/>
				</clipPath>
				<rect x="88.8" y="111.3" class="st14" width="44.3" height="66.8"/>
			</g>
		</g>
		<g class="st0">
			<defs>
				<rect id="SVGID_25_" x="-221.1" y="-493.6" width="839.9" height="833.3"/>
			</defs>
			<clipPath id="SVGID_26_">
				<use xlink:href="#SVGID_25_"  style="overflow:visible;"/>
			</clipPath>
			<g class="st15">
				<g>
					<defs>
						<rect id="SVGID_27_" x="75" y="102.9" width="250" height="94.3"/>
					</defs>
					<clipPath id="SVGID_28_">
						<use xlink:href="#SVGID_27_"  style="overflow:visible;"/>
					</clipPath>
					<g class="st16">
						<defs>
							<path id="SVGID_29_" d="M75,111.6c0-4.9,3.9-8.8,8.8-8.8h232.5c4.8,0,8.8,3.9,8.8,8.8v76.7c0,4.9-3.9,8.8-8.8,8.8H83.8
								c-4.8,0-8.8-3.9-8.8-8.8V111.6z"/>
						</defs>
						<clipPath id="SVGID_30_">
							<use xlink:href="#SVGID_29_"  style="overflow:visible;"/>
						</clipPath>
						<g class="st17">
							<defs>
								<rect id="SVGID_31_" x="75" y="102.9" width="250" height="94.3"/>
							</defs>
							<clipPath id="SVGID_32_">
								<use xlink:href="#SVGID_31_"  style="overflow:visible;"/>
							</clipPath>
							<path class="st18" d="M75,111.6c0-4.9,3.9-8.8,8.8-8.8h232.5c4.8,0,8.8,3.9,8.8,8.8v76.7c0,4.9-3.9,8.8-8.8,8.8H83.8
								c-4.8,0-8.8-3.9-8.8-8.8V111.6z"/>
						</g>
					</g>
				</g>
			</g>
		</g>
	</g>
</g>
</svg>
