<?xml version="1.0" encoding="utf-8"?>
<!-- Generator: Adobe Illustrator 22.0.1, SVG Export Plug-In . SVG Version: 6.00 Build 0)  -->
<svg version="1.1" id="Layer_2_1_" xmlns="http://www.w3.org/2000/svg" xmlns:xlink="http://www.w3.org/1999/xlink" x="0px" y="0px"
	 viewBox="0 0 400 300" style="enable-background:new 0 0 400 300;" xml:space="preserve">
<style type="text/css">
	.st0{clip-path:url(#SVGID_2_);fill:#24272A;}
	.st1{fill:#24272A;}
	.st2{clip-path:url(#SVGID_4_);fill:#24272A;}
</style>
<g>
	<g>
		<defs>
			<rect id="SVGID_1_" x="49.9" y="116.5" width="300.1" height="67"/>
		</defs>
		<clipPath id="SVGID_2_">
			<use xlink:href="#SVGID_1_"  style="overflow:visible;"/>
		</clipPath>
		<path class="st0" d="M79.9,149.4c-1.4-0.3-3-0.4-4.8-0.4c-3.2,0-5.1,0.4-5.1,1.4c0,0.6,0.3,1.7,0.9,3c1.4,3.2,5.4,11.4,7.2,14.4
			c1.4-2.5,4.8-9.1,5.3-10.9c0.3-1.2,0.3-2,0.3-2.7C83.7,152.7,81.9,149.7,79.9,149.4L79.9,149.4z M82.6,145.6
			c6.4,0,11.4-0.1,17.8-0.3c1.1,0.1,1,2.8,0.3,3.2l-1.5,0.3c-2.3,0.5-3.7,0.9-3.7,1.4c0,0.7,0.2,1.3,0.8,2.8
			c1.8,4.4,4.6,10.3,6.9,14.7c2.4-5.3,4-9.8,5.6-14c0.6-1.6,0.9-2.9,0.9-3.6c0-0.5-0.8-0.9-2.5-1.3l-1.7-0.4
			c-0.6-0.7-0.6-2.8,0.4-3.2c3.3,0.2,5.7,0.3,8.2,0.3c2.9,0,5.5-0.1,7.7-0.3c0.9,0.4,1.1,2.4,0.3,3.2l-1.4,0.3c-3.3,0.6-4,1.6-5.6,5
			c-4.6,9.3-9.2,19.4-13.4,29.1c-0.6,0.6-1.3,0.7-2.3,0.7c-1,0-1.7-0.1-2.3-0.6c-2.1-4.9-7.4-15.6-10.4-21.5
			c-2.6,4.7-8.6,16.9-10.9,21.5c-0.6,0.6-1.3,0.6-2.3,0.7c-1,0-1.7-0.1-2.3-0.6c-4.9-10.3-9.8-20.8-14.7-30.3
			c-1.4-2.7-2.4-3-4.1-3.5l-1.8-0.4c-0.7-0.7-0.7-2.7,0.3-3.2c4.1,0.2,7.3,0.3,11.6,0.3L82.6,145.6L82.6,145.6z"/>
	</g>
	<path class="st1" d="M138.4,156.4c1.4,0,3-0.2,4.1-0.8c0.5-0.3,0.7-1.2,0.7-2.1c0-3-1.9-5-5.4-5c-4.2,0-7.8,3.7-7.8,6.6
		c0,1.3,1.4,1.4,4.6,1.4H138.4L138.4,156.4z M131.8,160.5c-2.3,0-2.5,0.2-2.5,1.7c0,6.9,4.8,13.5,14.2,13.5c2.8,0,6.7-0.5,9.4-4.8
		c1.1-0.2,2.6,0.6,2.6,2.1c-4.1,7.8-11.6,10.4-17.6,10.4c-13.6,0-20.9-8.7-21-18.6c0-11.5,9.1-20.5,21.7-20.5
		c10.5,0,16.1,6.1,16.1,13.2c0,1.7-0.5,3-3.6,3L131.8,160.5L131.8,160.5z"/>
	<path class="st1" d="M184.8,149.2c-1.4-0.3-3-0.4-4.8-0.4c-3.2,0-5.1,0.4-5.1,1.4c0,0.6,0.3,1.7,0.9,3c1.4,3.2,5.4,11.4,7.1,14.4
		c1.4-2.5,4.8-9,5.3-10.9c0.3-1.2,0.3-2,0.3-2.8C188.6,152.5,186.9,149.6,184.8,149.2L184.8,149.2z M187.6,145.5
		c6.3,0,11.4-0.1,17.8-0.3c1.1,0.1,1,2.8,0.3,3.2l-1.5,0.3c-2.3,0.5-3.7,0.9-3.7,1.4c0,0.7,0.2,1.3,0.8,2.8
		c1.8,4.4,4.6,10.3,6.9,14.7c2.4-5.3,4-9.8,5.6-14c0.6-1.6,0.9-2.9,0.9-3.6c0-0.5-0.8-0.9-2.5-1.3l-1.7-0.4
		c-0.6-0.6-0.6-2.8,0.4-3.2c3.3,0.2,5.7,0.3,8.3,0.3c2.9,0,5.5-0.1,7.7-0.3c0.9,0.4,1.1,2.4,0.3,3.2l-1.4,0.3
		c-3.3,0.6-4,1.5-5.6,4.9c-4.6,9.3-9.2,19.4-13.4,29.1c-0.6,0.6-1.3,0.6-2.3,0.6c-1,0-1.7-0.1-2.3-0.6c-2.1-4.9-7.4-15.6-10.4-21.5
		c-2.6,4.8-8.6,16.9-10.9,21.5c-0.6,0.5-1.3,0.7-2.3,0.7c-1,0-1.7-0.1-2.3-0.7c-4.8-10.3-9.8-20.8-14.7-30.3c-1.4-2.6-2.4-3-4.1-3.5
		l-1.8-0.5c-0.7-0.7-0.7-2.8,0.3-3.2c4.1,0.2,7.3,0.3,11.6,0.3L187.6,145.5L187.6,145.5z"/>
	<path class="st1" d="M236.5,162.4c0,9.6,3.4,16.6,9.2,16.6c5.7,0,7.6-5.9,7.5-14.2c-0.1-8.9-2.9-16.6-8.6-16.6
		C240.1,148.3,236.5,152.5,236.5,162.4L236.5,162.4z M222,164.5c-0.1-13.1,11.3-20.3,23.1-20.3c11.9,0,22.6,6.5,22.6,19.4
		c0,13.4-10.7,19.7-23.1,19.7C232.6,183.3,222.2,177.1,222,164.5L222,164.5z"/>
	<g>
		<defs>
			<rect id="SVGID_3_" x="49.9" y="116.5" width="300.1" height="67"/>
		</defs>
		<clipPath id="SVGID_4_">
			<use xlink:href="#SVGID_3_"  style="overflow:visible;"/>
		</clipPath>
		<path class="st2" d="M270.1,157.7c0-3.7,0-4.8-1.9-5.9l-1.4-0.8c-0.7-0.6-0.7-2.2,0-2.8c4.6-1.2,11.6-3.7,14.7-5.5
			c0.8,0,1.4,0.3,1.8,0.8c-0.2,1.8-0.4,3.1-0.4,3.9c0,0.6,0.2,0.9,1,1.1c2.7-1.6,5.6-4.6,9.9-4.6c2.7,0,5.5,1.9,5.5,5.4
			c0,4.2-3.2,6-6.4,6c-1.4,0-2.6-0.5-3.9-1.6c-2.3-1.7-3.2-1.8-3.8-1.8c-1.4,0-1.9,2-1.9,5.5l0,14.1c0,6.4,0.4,7.1,3.8,7.4l3.2,0.3
			c0.8,0.6,0.8,2.7-0.1,3.2c-4.9-0.2-8.9-0.3-13.6-0.3c-4.1,0-8.6,0.1-11.9,0.3c-0.9-0.5-0.9-2.6-0.1-3.2l1.9-0.2
			c3.3-0.3,3.7-1.1,3.7-7.5V157.7L270.1,157.7z"/>
		<path class="st2" d="M300.9,131c0-3.7,0-4.7-2-5.7l-1.7-0.9c-0.7-0.5-0.7-2.2,0-2.8c4.1-0.9,10.2-3.1,15.4-5.1
			c0.6,0,1.3,0.2,1.7,0.6c-0.2,3.7-0.3,7.6-0.3,13.4l0,28.7c0,1,0.3,1.3,1.4,1.3c1.7,0,3.8-0.5,5.8-2.6l4.2-4.5
			c1.9-2.1,2.4-3.1,2.4-3.6c0-0.5-1-0.8-1.9-0.9l-2.5-0.4c-0.9-0.8-0.8-2.8,0.2-3.2l2.4,0c4.7,0,13.1-0.5,19-1.3
			c1,0.4,1.1,2.4,0.4,3.2l-3.2,0.6c-1.9,0.4-4,1.3-6.7,3.2c-3.8,2.7-5.3,4-6.7,5.3c-0.5,0.5-0.6,0.9-0.6,1.2c0,0.3,0.2,0.8,0.7,1.6
			c1.8,2.9,10.7,15.4,13.2,17.5c1.4,1.2,3.3,1.6,5.9,2.1l1.5,0.3c0.8,0.6,0.6,2.8-0.4,3.2c-3.1-0.2-6.8-0.3-12.7-0.3
			c-6,0-9.6,0.1-12.4,0.3c-1-0.5-1.2-2.4-0.4-3.2l1.3-0.3c1-0.2,1.6-0.4,1.6-0.7c0-0.4-0.9-1.8-1.7-2.9l-7.2-9.9
			c-0.7-1-1.5-1.4-2.5-1.4c-0.7,0-1.2,0.5-1.2,2.2l0,5.3c0,6.4,0.4,7.1,4,7.5l1.6,0.2c0.8,0.5,0.8,2.7-0.1,3.2
			c-3.2-0.2-7.4-0.3-12.1-0.3c-4.6,0-8.8,0.1-12.3,0.3c-0.9-0.5-0.9-2.6-0.1-3.2l1.9-0.2c3.6-0.4,4-1.1,4-7.5L300.9,131L300.9,131z"
			/>
	</g>
</g>
</svg>
