<?xml version="1.0" encoding="utf-8"?>
<!-- Generator: Adobe Illustrator 21.0.2, SVG Export Plug-In . SVG Version: 6.00 Build 0)  -->
<svg version="1.1" id="Layer_1" xmlns="http://www.w3.org/2000/svg" xmlns:xlink="http://www.w3.org/1999/xlink" x="0px" y="0px"
	 viewBox="0 0 400 300" style="enable-background:new 0 0 400 300;" xml:space="preserve">
<style type="text/css">
	.st0{fill:url(#SVGID_1_);}
	.st1{fill:url(#SVGID_2_);}
	.st2{fill:url(#SVGID_3_);}
	.st3{fill:url(#SVGID_4_);}
	.st4{fill:url(#SVGID_5_);}
	.st5{fill:url(#SVGID_6_);}
	.st6{fill:#F7761F;}
</style>
<g>
	
		<linearGradient id="SVGID_1_" gradientUnits="userSpaceOnUse" x1="92.9337" y1="171.8143" x2="92.9337" y2="125.7246" gradientTransform="matrix(1 0 0 -1 0 300)">
		<stop  offset="0" style="stop-color:#4C5D69"/>
		<stop  offset="1" style="stop-color:#485864"/>
	</linearGradient>
	<polygon class="st0" points="102.2,146.6 83.7,146.6 83.7,127.3 75,127.3 75,174.8 83.7,174.8 83.7,155 102.2,155 102.2,174.8 
		110.9,174.8 110.9,127.3 102.2,127.3 	"/>
	
		<linearGradient id="SVGID_2_" gradientUnits="userSpaceOnUse" x1="131.2303" y1="171.8142" x2="131.2303" y2="125.7245" gradientTransform="matrix(1 0 0 -1 0 300)">
		<stop  offset="0" style="stop-color:#4C5D69"/>
		<stop  offset="1" style="stop-color:#485864"/>
	</linearGradient>
	<path class="st1" d="M138.4,159.4c0,4-3.2,7.2-7.2,7.2c-4,0-7.2-3.2-7.2-7.2v-20.5h-8.3v20.5c0,8.6,6.9,15.5,15.5,15.5
		s15.5-6.9,15.5-15.5v-20.5h-8.3C138.4,138.9,138.4,159.4,138.4,159.4z"/>
	
		<linearGradient id="SVGID_3_" gradientUnits="userSpaceOnUse" x1="169.4555" y1="171.8143" x2="169.4555" y2="125.7246" gradientTransform="matrix(1 0 0 -1 0 300)">
		<stop  offset="0" style="stop-color:#4C5D69"/>
		<stop  offset="1" style="stop-color:#485864"/>
	</linearGradient>
	<path class="st2" d="M169.8,139.1c-4.1,0-6.9,1.2-9.7,3.9v-15.7h-8.3v29.2c0,10.9,7.9,18.4,16.8,18.4c9.9,0,18.5-7.6,18.5-17.9
		C187,146.9,179.1,139.1,169.8,139.1z M170,167.1c-5.6,0-9.9-4.7-9.9-10.2s4.3-10.2,9.9-10.2c4.8,0,9.1,4.7,9.1,10.2
		S174.8,167.1,170,167.1z"/>
	
		<linearGradient id="SVGID_4_" gradientUnits="userSpaceOnUse" x1="205.8945" y1="171.8142" x2="205.8945" y2="125.7246" gradientTransform="matrix(1 0 0 -1 0 300)">
		<stop  offset="0" style="stop-color:#4C5D69"/>
		<stop  offset="1" style="stop-color:#485864"/>
	</linearGradient>
	<path class="st3" d="M201,141.2c0-4.1,2.8-5.5,5.8-5.5c2.4,0,5.7,1.9,7.8,4.1l5.4-6.4c-2.7-3.6-8.2-6.1-12.7-6.1
		c-9,0-15.5,5.2-15.5,13.9c0,16.1,19.8,11,19.8,20c0,2.8-2.7,5.2-5.8,5.2c-4.9,0-6.5-2.4-8.7-4.9l-6,6.2c3.9,4.7,8.6,7.1,14.3,7.1
		c8.5,0,15.4-5.3,15.4-13.6C220.8,143.4,201,148.9,201,141.2z"/>
	
		<linearGradient id="SVGID_5_" gradientUnits="userSpaceOnUse" x1="243.4412" y1="171.8142" x2="243.4412" y2="125.7246" gradientTransform="matrix(1 0 0 -1 0 300)">
		<stop  offset="0" style="stop-color:#4C5D69"/>
		<stop  offset="1" style="stop-color:#485864"/>
	</linearGradient>
	<path class="st4" d="M242.6,138.6c-8.9,0-16.8,7.5-16.8,18.4v29.2h8.3v-15.8c2.8,2.7,5.6,3.9,9.7,3.9c9.3,0,17.2-7.7,17.2-17.9
		C261.1,146.2,252.5,138.6,242.6,138.6z M244,166.6c-5.6,0-9.9-4.7-9.9-10.2s4.3-10.2,9.9-10.2c4.8,0,9.1,4.7,9.1,10.2
		C253.1,162,248.8,166.6,244,166.6z"/>
	
		<linearGradient id="SVGID_6_" gradientUnits="userSpaceOnUse" x1="316.2118" y1="171.8142" x2="316.2118" y2="125.7247" gradientTransform="matrix(1 0 0 -1 0 300)">
		<stop  offset="0" style="stop-color:#4C5D69"/>
		<stop  offset="1" style="stop-color:#485864"/>
	</linearGradient>
	<path class="st5" d="M322.1,167.1c-4.9,0-6.3-2.1-6.3-5.4v-14.4h7.6v-7.3h-7.6v-9.6l-8.4,3.8v29.2c0,7.5,5.1,11.2,12.2,11.2
		c1.1,0,2.5-0.1,3.3-0.3l2.1-7.6C324.1,167.1,323.1,167.1,322.1,167.1z"/>
	<g>
		<path class="st6" d="M284.3,146.9c1.6,0,3.1,0.4,4.5,1.1c1.4,0.8,2.6,1.9,3.6,3.3c0.9,1.4,1.4,2.9,1.6,4.6c0,0.4,0.1,0.7,0.1,1
			c0,2.2-0.9,4.3-2.6,6.1c-1.9,2.1-4.2,3.4-6.7,3.5c-0.1,0-0.3,0-0.4,0c-1.4,0-2.9-0.4-4.3-1.1c-1.6-0.8-2.9-1.9-3.8-3.4
			c-1-1.4-1.6-2.9-1.6-4.6c0-0.1,0-0.4,0-0.5c0-1.6,0.4-3.1,1.1-4.6c0.9-1.6,2-2.9,3.5-3.9c1.5-1,3.1-1.5,4.9-1.5
			C284.2,146.9,284.3,146.9,284.3,146.9L284.3,146.9z M284.4,138.8c-3.2,0-6.2,0.7-8.9,2.2c-2.9,1.5-5.1,3.5-6.7,6.1
			c-1.6,2.6-2.6,5.6-2.6,8.8c0,0.2,0,0.4,0,0.6c0,2.2,0.4,4.4,1.1,6.4c0.8,2.2,2.1,4.1,3.7,5.9c1.6,1.7,3.6,3.1,5.9,4
			c2.3,1,4.8,1.5,7.5,1.6c0.1,0,0.4,0,0.5,0c3,0,5.9-0.7,8.6-2.1c2.9-1.5,5.1-3.6,6.7-6.3c1.6-2.7,2.6-5.6,2.6-8.9
			c0-0.1,0-0.1,0-0.1c0-3.2-0.8-6.1-2.4-8.9c-1.6-2.7-3.8-4.9-6.6-6.6c-2.9-1.6-5.9-2.5-9.2-2.5
			C284.5,138.8,284.4,138.8,284.4,138.8L284.4,138.8z"/>
		<path class="st6" d="M276.2,141.1c-3.2-2.4-16.3-12.4-23.9-18.1c0.1-0.6,0.3-1.3,0.3-1.9c0-4.1-3.3-7.3-7.3-7.3
			c-4.1,0-7.3,3.3-7.3,7.3c0,4.1,3.3,7.3,7.3,7.3c1.4,0,2.6-0.4,3.8-1.1l1.5,1.1l21.3,15.4L276.2,141.1z M273.9,170.2
			c0.9,0.7,1,0.6,1,0.6"/>
		<path class="st6" d="M260.1,177.4l3.5,3.5l10.5-10.5l-3.5-3.5L260.1,177.4z"/>
		<path class="st6" d="M256.9,175.9c-1.1,1.1-1.6,2.5-1.6,4c0,1.5,0.6,2.9,1.6,4c1.1,1.1,2.5,1.6,4,1.6s2.9-0.6,4-1.6
			c1.1-1.1,1.6-2.5,1.6-4c0-1.5-0.6-2.9-1.6-4c-1.1-1.1-2.5-1.6-4-1.6S258,174.8,256.9,175.9"/>
		<path class="st6" d="M287.1,139.5v-9.2c2.3-1.1,3.9-3.4,3.9-6c0-3.6-2.9-6.6-6.6-6.6c-3.6,0-6.6,2.9-6.6,6.6c0,2.6,1.6,5,3.9,6
			v9.2H287.1z"/>
	</g>
</g>
</svg>
