<?xml version="1.0" encoding="utf-8"?>
<!-- Generator: Adobe Illustrator 20.1.0, SVG Export Plug-In . SVG Version: 6.00 Build 0)  -->
<svg version="1.1" id="Layer_1" xmlns="http://www.w3.org/2000/svg" xmlns:xlink="http://www.w3.org/1999/xlink" x="0px" y="0px"
	 viewBox="0 0 792 612" style="enable-background:new 0 0 792 612;" xml:space="preserve">
<style type="text/css">
	.st0{fill:#8BA651;}
</style>
<g>
	<path class="st0" d="M339,343.5h-3.2c-0.2,0-0.4,0.1-0.5,0.3l-5.7,9.5c-0.3,0.3-0.5,0.3-0.7,0l-5.5-9.5c-0.1-0.2-0.3-0.3-0.5-0.3
		h-3.1c-0.4,0-0.7,0.3-0.7,0.7v19c0,0.4,0.3,0.7,0.7,0.7h3.1c0.4,0,0.7-0.3,0.7-0.7v-9.8c0-0.6,0.6-0.9,1-0.4l4.3,7
		c0.3,0.4,0.8,0.4,1,0l4.4-7c0.4-0.5,1-0.2,1,0.4v9.8c0,0.4,0.3,0.7,0.7,0.7h3.2c0.4,0,0.7-0.3,0.7-0.7v-19
		C339.7,343.8,339.4,343.5,339,343.5z"/>
	<path class="st0" d="M362.9,343.9c-0.1-0.2-0.3-0.4-0.6-0.4h-3.4c-0.3,0-0.5,0.2-0.6,0.4l-8.4,19c-0.2,0.4,0.1,0.9,0.6,0.9h3.4
		c0.3,0,0.5-0.2,0.6-0.4l1.2-3.2c0.1-0.2,0.3-0.4,0.6-0.4h8.5c0.3,0,0.5,0.2,0.6,0.4l1.3,3.2c0.1,0.2,0.3,0.4,0.6,0.4h3.3
		c0.5,0,0.8-0.5,0.6-0.9L362.9,343.9z M362.8,355.9h-4.3c-0.5,0-0.8-0.5-0.6-0.9l2.2-5.5c0.2-0.5,1-0.5,1.2,0l2.2,5.5
		C363.6,355.4,363.2,355.9,362.8,355.9z"/>
	<path class="st0" d="M421.1,352.8c-0.2-0.2-0.2-0.6,0-0.8l6.1-7.5c0.3-0.4,0-1-0.5-1h-3.4c-0.2,0-0.4,0.1-0.5,0.2l-6.9,8.6
		c-0.4,0.5-1.1,0.2-1.1-0.4v-7.8c0-0.4-0.3-0.6-0.6-0.6h-3c-0.4,0-0.6,0.3-0.6,0.6v19.1c0,0.4,0.3,0.6,0.6,0.6h3
		c0.4,0,0.6-0.3,0.6-0.6v-3.3c0-0.1,0.1-0.3,0.1-0.4l2.6-3.1c0.3-0.3,0.8-0.3,1,0l5,7.2c0.1,0.2,0.3,0.3,0.5,0.3h3.8
		c0.5,0,0.8-0.6,0.5-1L421.1,352.8z"/>
	<path class="st0" d="M454,359.9h-9.6c-0.4,0-0.7-0.3-0.7-0.7v-3c0-0.4,0.3-0.7,0.7-0.7h6.4c0.4,0,0.7-0.3,0.7-0.7v-2.2
		c0-0.4-0.3-0.7-0.7-0.7h-6.4c-0.4,0-0.7-0.3-0.7-0.7v-2.9c0-0.4,0.3-0.7,0.7-0.7h8.9c0.4,0,0.7-0.3,0.7-0.7v-2.5
		c0-0.4-0.3-0.7-0.7-0.7h-13.3c-0.4,0-0.7,0.3-0.7,0.7v18.9c0,0.4,0.3,0.7,0.7,0.7H454c0.4,0,0.7-0.3,0.7-0.7v-2.5
		C454.8,360.2,454.4,359.9,454,359.9z"/>
	<path class="st0" d="M481.3,343.5H465c-0.4,0-0.6,0.3-0.6,0.6v2.6c0,0.4,0.3,0.6,0.6,0.6h5.3c0.4,0,0.6,0.3,0.6,0.6v15.1
		c0,0.4,0.3,0.6,0.6,0.6h3.1c0.4,0,0.6-0.3,0.6-0.6v-15.1c0-0.4,0.3-0.6,0.6-0.6h5.3c0.4,0,0.6-0.3,0.6-0.6v-2.6
		C481.9,343.8,481.6,343.5,481.3,343.5z"/>
	<path class="st0" d="M398.7,351c0-4.4-3.4-7.6-9.2-7.6c-2.1,0-4.2,0-6.4,0.1c-0.4,0-0.6,0.3-0.6,0.6v19c0,0.4,0.3,0.6,0.6,0.6h3.1
		c0.4,0,0.6-0.3,0.6-0.6v-4c0-0.5,0.1-0.6,0.7-0.6c0.7,0,1.7,0,2.4,0c0.1,0,0.3,0,0.4,0l0,0c0.7,0,0.9-0.1,1.1,0.3l2.3,4.6
		c0.1,0.2,0.3,0.4,0.6,0.4h3.5c0.5,0,0.8-0.5,0.6-0.9l-2.7-5.3c-0.1-0.3,0-0.6,0.2-0.8C397.5,355.5,398.7,353.7,398.7,351z
		 M389.8,354.6c-0.8,0-1.6,0.1-2.4,0c-0.4,0-0.6-0.3-0.6-0.6v-6.1c0-0.4,0.3-0.6,0.6-0.6c0.7,0,1.4,0,2.3,0.1
		c2.6,0.1,4.6,1.3,4.6,3.6C394.3,352.9,392.9,354.4,389.8,354.6z"/>
	<path class="st0" d="M542.4,303.5c-0.3,0.3-2.8,15.7-13.8,15.7c-4.3,0-7.3-3.2-9.1-7.1c13.4-3,17.9-13.6,17.9-20.8
		c0-8.4-6-11.5-11.1-11.5c-8.3,0-19.2,7.8-19.2,22.9c0,1.4,0.1,2.7,0.2,3.9c-2.9-0.9-5.4-2.4-7.1-5c2.5-11.2,2.1-21.9-3.1-21.9
		c-2.9,0-5.4,3.8-5.4,12.2c0,3.3,0.9,7,2.6,10.3c-1.1,5.1-4.7,17.5-9.4,17.5c-6.4,0-4.4-30.5-4.4-35c0-3.7-8.9-7.5-10.8-5.6
		c-0.8,0.8-1,5.8-1,12.2c0,5.3,0.4,11.5,1.6,17.3c-0.6,3.1-3.3,11.2-8.2,11.2c-7.6,0-3.8-28.9-3.8-33.5c0-3.3-8.5-6.4-10.6-4.4
		c-0.8,0.8-1.4,6.7-1.4,15.8c0,3.8,0.2,7.8,0.8,11.6c-0.8,4-4,10.5-9.1,10.5c-8.2,0-4.6-31.6-2.4-51.1c1.3-0.2,2.7-0.4,4.1-0.6
		c3.6-0.4,8-1.1,8,1.1c0,5.1,3.4,6.7,5.9,6.7c2.8,0,5.2-2.2,5.2-6.4c0-4.1-3.6-8-9.9-8c-4.2,0-8.5,0.5-12.7,1.2
		c0.3-3.3,0.6-5.8,0.6-7.4c0-4.3-8.9-8.5-10.7-6.7c-0.3,0.3-1.5,7.1-2.6,16.6c-6.2,1.2-12.3,2.3-18.4,2.3c-2.1,0-1.8,6.4,5.3,6.4
		c4.1,0,8.2-0.9,12.4-2c-0.6,6.6-1,13.9-1,20.9c0,6.3,0.4,11.8,1.2,16.5c-0.8,3.5-3.3,10.6-8,10.6c-9,0-4.7-31.1-4.7-35.7
		c0-2.2-8.2-7-9.9-5.3c-0.2,0.2-0.4,1.6-0.4,1.6s-1.1-0.8-4.1-0.8c-11.5,0-20.7,14.2-20.7,27.1c0,0.6,0,1.2,0.1,1.8
		c-1.8,4.2-6.3,11.4-14.4,11.4c-4.1,0-7-2.7-9-6.2c12.6-3.6,17.5-14.6,17.5-21.7c0-8.3-7-12.4-12.1-12.4c-8.9,0-18.6,8.9-18.6,23.9
		c0,4.4,0.8,8.1,2.2,11.3c-1.6,2.5-4,5-7.3,5c-9.2,0-3-30.9-3-34.2c0-0.8,0-2.4-1.5-3.4c-1.9-1.4-13-2.8-16.7-3.6c0-0.8,0-1.6,0-2.2
		c0-6-3.7-7.3-6.2-7.3c-4.1,0-4.9,4.6-4.9,5.7c0,1.1,0.3,5,4.4,7.3c0,11.1-7.1,37.4-26.1,37.4c-14.4,0-19.6-14.8-19.6-25.8
		c0-18.6,10.9-32.9,17.9-32.9c8.8,0,1,17.1,9.9,17.1c6.2,0,7.1-6,7.1-8.8c0-5.2-5.4-14.9-17-14.9c-18.4,0-32,22.4-32,41.6
		c0,18.5,12.7,33.3,30.5,33.3c27.5,0,34.3-29.2,35.7-45.5c1.8,0.5,6.1,1.3,6.5,1.7c0.7,0.7-1.4,10.6-1.4,20.1
		c0,11.9,3.9,21.5,13.3,21.5c5.9,0,10.6-4.3,13.1-7.6c3.8,4.9,9.3,7.4,14.7,7.4c9.3,0,15.4-5.8,18.4-10.4c2.6,7,7.9,10.4,12.7,10.4
		c6.7,0,10.7-9,10.9-10.4c2,6.3,6.7,10.6,12,10.6c6.7,0,10.8-6.1,12.4-9.9c2.4,6.4,6.2,9.9,11.7,9.9c6.3,0,10.4-5.7,12.3-9.5
		c2,5.6,5.3,9.5,10.5,9.5c7,0,11.4-7.2,12.8-10.8c2.3,6.2,5.9,10.6,11.5,10.6c6.2,0,11.6-8.9,14.8-18.9c2.6,2.5,6,4.3,10.1,4.8
		c3.1,9,10.4,14,18.1,14c13.4,0,18.6-13.8,19.2-17C546.5,306.4,543.4,302.5,542.4,303.5z M356.9,284c5.6,0,2.3,21.4-6.9,24.9
		c-0.7-2.3-1-4.5-1-6.2C348.9,295.5,351.8,284,356.9,284z M391,318c-9.8,0-2.9-33.9,4.9-33.9C401.1,284.1,400.3,318,391,318z
		 M525,284.2c5.4,0,2.3,22.1-7.1,23.5c-0.5-1.8-0.7-3.6-0.7-5C517.2,295.5,519.9,284.2,525,284.2z"/>
</g>
</svg>
