<?xml version="1.0" encoding="utf-8"?>
<!-- Generator: Adobe Illustrator 22.0.1, SVG Export Plug-In . SVG Version: 6.00 Build 0)  -->
<svg version="1.1" id="Layer_1" xmlns="http://www.w3.org/2000/svg" xmlns:xlink="http://www.w3.org/1999/xlink" x="0px" y="0px"
	 viewBox="0 0 400 300" style="enable-background:new 0 0 400 300;" xml:space="preserve">
<style type="text/css">
	.st0{fill:#7F0000;}
</style>
<g>
	<g>
		<path class="st0" d="M65.3,142.5c-2.7-0.6-4.8-1.3-6.3-2.1l0.9-8.1c5.3,2.6,9.9,3.8,13.9,3.8c2.1,0,3.8-0.4,5-1.2
			c1.2-0.8,1.8-2,1.8-3.6c0-1.2-0.3-2.2-1-3c-0.7-0.8-1.6-1.4-2.8-2c-1.2-0.5-3.2-1.3-5.9-2.2c-2.6-0.9-4.7-1.8-6.3-2.8
			c-1.7-1-3-2.2-4-3.8c-1-1.5-1.5-3.4-1.5-5.6c0-3.6,1.3-6.5,3.9-8.7c2.6-2.2,6.4-3.3,11.3-3.3c2.3,0,4.6,0.3,6.9,0.8
			c2.3,0.5,4.4,1.2,6.3,1.9l-0.8,7.8c-2.5-1.1-4.7-1.9-6.8-2.4c-2.1-0.5-4.1-0.8-6.1-0.8c-2.3,0-4,0.4-5.2,1.1
			c-1.2,0.8-1.8,1.9-1.8,3.3c0,1.1,0.3,2,1,2.7c0.6,0.7,1.5,1.3,2.6,1.8c1.1,0.5,2.7,1.1,4.9,1.7c4.8,1.5,8.3,3.3,10.6,5.2
			c2.2,2,3.3,4.7,3.3,8.1c0,3.3-1.1,6.1-3.4,8.5c-2.3,2.4-6.5,3.6-12.8,3.6C70.5,143.4,68,143.1,65.3,142.5z"/>
		<path class="st0" d="M109.5,108.1H97.7v-7.4H129v7.4h-11.8v34.4h-7.7V108.1z"/>
		<path class="st0" d="M159,132.6h-15.2l-3.5,9.9h-7.4l14.9-41.8h7.2l14.9,41.8h-7.4L159,132.6z M156.6,126l-5.2-14.9l-5.3,14.9
			H156.6z"/>
		<path class="st0" d="M180.6,100.7h15.3c4.5,0,8,1.1,10.6,3.2c2.6,2.1,3.9,5.3,3.9,9.5c0,2.9-0.6,5.3-1.9,7.1
			c-1.2,1.9-3,3.3-5.3,4.5l9.4,17.6h-8.6L196,127h-0.3h-7.5v15.5h-7.7V100.7z M193.9,120.6c5.6,0,8.4-2.3,8.4-6.8
			c0-2.2-0.6-3.9-1.9-5c-1.3-1.1-3.4-1.7-6.2-1.7h-5.9v13.5H193.9z"/>
		<path class="st0" d="M231.7,108.1h-11.8v-7.4h31.3v7.4h-11.8v34.4h-7.7V108.1z"/>
		<path class="st0" d="M266.6,138.4c-2.9-3.3-4.4-7.9-4.4-13.8v-23.9h7.7v21.9c0,2.9,0.3,5.3,0.8,7.3c0.5,1.9,1.5,3.4,2.9,4.5
			c1.4,1.1,3.4,1.6,6,1.6c2.6,0,4.6-0.5,6-1.6c1.4-1.1,2.4-2.6,2.9-4.5c0.5-1.9,0.8-4.4,0.8-7.3v-21.9h7.7v23.9
			c0,5.9-1.5,10.4-4.4,13.8c-2.9,3.3-7.2,5-13,5C273.8,143.4,269.5,141.7,266.6,138.4z"/>
		<path class="st0" d="M311.6,100.7h14.9c9.9,0,14.9,4.5,14.9,13.5c0,4.7-1.3,8.1-3.8,10.4c-2.5,2.3-6.2,3.4-10.9,3.4h-7.4v14.5
			h-7.7V100.7z M325.7,121.7c2.6,0,4.6-0.6,5.9-1.8c1.3-1.2,1.9-3,1.9-5.5s-0.7-4.3-2-5.5c-1.3-1.2-3.3-1.8-6-1.8h-6.3v14.5H325.7z"
			/>
	</g>
	<path class="st0" d="M95.2,157.8l-14.8,41.5h-7.2l-14.8-41.5h7.6l10.7,30.5l10.7-30.5H95.2z"/>
	<path class="st0" d="M110.2,157.8h7.6v41.5h-7.6V157.8z"/>
	<path class="st0" d="M137.4,157.8h7.6v34.7h17.1v6.8h-24.7V157.8z"/>
	<path class="st0" d="M177.5,157.8h7.6v34.7h17.1v6.8h-24.7V157.8z"/>
	<path class="st0" d="M271.7,197.4c-3.1-1.8-5.5-4.3-7.2-7.6c-1.7-3.3-2.5-7.1-2.5-11.4c0-4.3,0.9-8,2.8-11.3
		c1.8-3.3,4.4-5.8,7.7-7.6c3.3-1.8,7-2.7,11.3-2.7c2.1,0,4.2,0.2,6.2,0.7c2,0.4,3.8,1,5.2,1.8l-0.8,7.2c-3.4-1.6-7-2.4-10.6-2.4
		c-4.4,0-7.8,1.3-10,3.9c-2.3,2.6-3.4,6-3.4,10.2c0,4.4,1.1,7.9,3.3,10.5c2.2,2.6,5.4,3.9,9.6,3.9c1.7,0,3.6-0.2,5.7-0.7v-7.4h-5.7
		v-6.3h13.3V197c-1.5,0.9-3.5,1.7-5.9,2.3s-4.9,0.9-7.7,0.9C278.6,200.1,274.9,199.2,271.7,197.4z"/>
	<path class="st0" d="M314.4,157.8h26.5v7.3h-18.8v8.8h14.6v7.3h-14.6v10.6h19.4v7.3h-27.1V157.8z"/>
	<path class="st0" d="M255.8,178c-8.4-7.6-16.7-15-25-22.5c-0.2-0.2-0.4-0.2-0.6,0c-8.4,7.5-16.7,15.1-25.1,22.6
		c0.2,0.4,0.2,0.4,0.3,0.8h6.3c0.3,0,0.5,0.2,0.5,0.5v20c0,0.3,0.2,0.5,0.5,0.5h10.3h1.9h2.5c0-4.2,0-8.3,0-12.5c-1.9,0-3.7,0-5.6,0
		c3-3.5,5.9-7,8.9-10.5c3,3.5,5.9,7,8.9,10.5c-1.9,0-3.7,0-5.6,0c0,4.2,0,8.3,0,12.5h6.8v0h7.8c0.3,0,0.5-0.2,0.5-0.5v-20
		c0-0.3,0.2-0.5,0.5-0.5h6.2C256,178.8,256.2,178.3,255.8,178z"/>
</g>
</svg>
