<?xml version="1.0" encoding="utf-8"?>
<!-- Generator: Adobe Illustrator 21.0.2, SVG Export Plug-In . SVG Version: 6.00 Build 0)  -->
<svg version="1.1" id="Layer_1" xmlns="http://www.w3.org/2000/svg" xmlns:xlink="http://www.w3.org/1999/xlink" x="0px" y="0px"
	 viewBox="0 0 400 300" style="enable-background:new 0 0 400 300;" xml:space="preserve">
<style type="text/css">
	.st0{fill:#205081;}
	.st1{fill:#59AFE1;}
</style>
<g id="Atlassian__x5F__Blue">
	<g>
		<path class="st0" d="M148.1,137.1c-0.2-0.4-0.5-0.8-0.9-0.8H138c-0.4,0-0.8,0.3-0.9,0.8l-11.8,38.7c-0.1,0.3-0.1,0.7,0.2,0.9
			c0.3,0.3,0.5,0.4,0.8,0.4h6.3c0.4,0,0.8-0.3,0.9-0.8l8-28.4c0,0,0.3-0.8,0.9-0.8c0.8,0,0.8,0.8,0.8,0.8l3.8,13.5h-5
			c-0.4,0-0.8,0.3-0.9,0.8l-1.4,5.3c-0.1,0.3,0,0.7,0.2,0.9c0.3,0.3,0.5,0.4,0.8,0.4h8.6l2.3,7.4c0.2,0.4,0.5,0.8,0.9,0.8h6.3
			c0.3,0,0.7-0.2,0.8-0.4c0.3-0.3,0.3-0.7,0.2-0.9L148.1,137.1z"/>
		<path class="st0" d="M175.8,171.1c-0.1-0.3-0.3-0.6-0.4-0.8c-0.3-0.2-0.6-0.3-0.8-0.2c-1,0.3-2.1,0.4-2.8,0.4
			c-1.4,0-2.2-0.7-2.2-2.2v-14.8h5.8c0.6,0,0.9-0.4,0.9-1V148c0-0.6-0.4-1-0.9-1h-5.8V140c0-0.3-0.2-0.6-0.3-0.8
			c-0.3-0.3-0.5-0.3-0.8-0.3l-5.8,0.8c-0.5,0.1-0.8,0.5-0.8,1v6.3h-3.3c-0.6,0-0.9,0.4-0.9,1v4.7c0,0.6,0.4,1,0.9,1h3.3v15.8
			c0,5.4,2.8,8.2,8.1,8.2c1.5,0,4.2-0.3,5.8-1c0.5-0.2,0.8-0.7,0.8-1.2L175.8,171.1z"/>
		<path class="st0" d="M186.7,135.7h-5.8c-0.6,0-0.9,0.4-0.9,1V176c0,0.6,0.4,1,0.9,1h5.8c0.6,0,0.9-0.4,0.9-1v-39.3
			C187.7,136.1,187.3,135.7,186.7,135.7z"/>
		<path class="st0" d="M201.8,146.5c-2.9,0-6.6,0.5-9.2,1.3c-0.5,0.2-0.8,0.7-0.8,1.2l0.8,4.4c0.1,0.3,0.3,0.5,0.4,0.8
			c0.3,0.2,0.5,0.3,0.8,0.2c2.5-0.5,4.9-0.8,7.1-0.8c4.3,0,4.9,0.9,4.9,3.9v2.6h-6.4c-6,0-8.6,2.6-8.6,8.7c0,5.8,2.8,9.2,7.7,9.2
			c2.8,0,5.8-0.8,8.1-2.3l0.3,0.9c0.2,0.4,0.5,0.8,0.9,0.8h4.8c0.6,0,0.9-0.4,0.9-1v-18.8C213.5,149.4,210.3,146.5,201.8,146.5z
			 M205.7,166.1v3.6c-0.9,0.6-2.8,1.3-4.8,1.3c-1.8,0-2.4-0.6-2.4-2.5c0-1.8,0.3-2.4,2.5-2.4L205.7,166.1L205.7,166.1z"/>
		<path class="st0" d="M228.2,158.5c-3.7-1-3.7-1-3.7-3.1c0-1.4,0.2-2.1,3.2-2.1c2.1,0,5.1,0.3,7.1,0.8c0.3,0.1,0.6,0,0.8-0.3
			c0.3-0.2,0.3-0.4,0.4-0.8l0.6-4.7c0.1-0.5-0.3-1-0.8-1.2c-2.3-0.6-5.3-0.9-7.9-0.9c-9.1,0-10.8,3.6-10.8,8.8c0,5.8,1,7.8,7.9,9.6
			c4.5,1.2,4.5,2,4.5,3.4c0,1.8-0.2,2.5-3.2,2.5c-2.4,0-5.2-0.3-7.6-1.1c-0.3-0.1-0.6,0-0.8,0.2c-0.3,0.2-0.4,0.4-0.4,0.8l-0.9,4.3
			c-0.1,0.5,0.3,1,0.8,1.2c2.7,0.9,6.5,1.5,9.3,1.5c8.8,0,10.5-3.8,10.5-9.5C237.1,161.8,235.9,160.7,228.2,158.5z"/>
		<path class="st0" d="M250.8,158.5c-3.7-1-3.7-1-3.7-3.1c0-1.4,0.2-2.1,3.2-2.1c2.1,0,5.1,0.3,7.1,0.8c0.3,0.1,0.6,0,0.8-0.3
			c0.3-0.2,0.3-0.4,0.4-0.8l0.6-4.7c0.1-0.5-0.3-1-0.8-1.2c-2.3-0.6-5.4-0.9-7.9-0.9c-9.1,0-10.8,3.6-10.8,8.8c0,5.8,1,7.8,7.9,9.6
			c4.5,1.2,4.5,2,4.5,3.4c0,1.8-0.2,2.5-3.2,2.5c-2.4,0-5.2-0.3-7.6-1.1c-0.3-0.1-0.6,0-0.8,0.2c-0.3,0.2-0.4,0.4-0.4,0.8l-0.8,4.4
			c-0.1,0.5,0.3,1,0.8,1.2c2.7,0.9,6.5,1.5,9.3,1.5c8.8,0,10.5-3.8,10.5-9.5C259.7,161.8,258.6,160.7,250.8,158.5z"/>
		<path class="st0" d="M269.8,135.7H264c-0.6,0-0.9,0.4-0.9,1v5.4c0,0.6,0.4,1,0.9,1h5.8c0.6,0,0.9-0.4,0.9-1v-5.4
			C270.8,136.1,270.3,135.7,269.8,135.7z"/>
		<path class="st0" d="M269.8,147.1H264c-0.6,0-0.9,0.4-0.9,1V176c0,0.6,0.4,1,0.9,1h5.8c0.6,0,0.9-0.4,0.9-1v-27.9
			C270.8,147.5,270.3,147.1,269.8,147.1z"/>
		<path class="st0" d="M284.9,146.5c-2.9,0-6.6,0.5-9.2,1.3c-0.5,0.2-0.8,0.7-0.8,1.2l0.8,4.4c0.1,0.3,0.3,0.5,0.4,0.8
			c0.3,0.2,0.5,0.3,0.8,0.2c2.5-0.5,4.9-0.8,7.1-0.8c4.3,0,4.9,0.9,4.9,3.9v2.6h-6.3c-6,0-8.6,2.6-8.6,8.7c0,5.8,2.8,9.2,7.7,9.2
			c2.8,0,5.8-0.8,8.1-2.3l0.3,0.9c0.2,0.4,0.5,0.8,0.9,0.8h4.8c0.6,0,0.9-0.4,0.9-1v-18.8C296.7,149.4,293.6,146.5,284.9,146.5z
			 M288.9,166.1v3.6c-0.9,0.6-2.8,1.3-4.8,1.3c-1.8,0-2.4-0.6-2.4-2.5c0-1.8,0.3-2.4,2.5-2.4L288.9,166.1L288.9,166.1L288.9,166.1z"
			/>
		<path class="st0" d="M318.4,146.5c-3.1,0-7.3,1.2-10.8,2.8l-0.4-1.5c-0.2-0.4-0.5-0.8-0.9-0.8H302c-0.6,0-0.9,0.4-0.9,1V176
			c0,0.6,0.4,1,0.9,1h5.8c0.6,0,0.9-0.4,0.9-1v-19.3c2.2-1.2,5.1-2.3,6.8-2.3c1.3,0,1.8,0.5,1.8,1.8V176c0,0.6,0.4,1,0.9,1h5.8
			c0.6,0,0.9-0.4,0.9-1v-20.5C325.2,149.5,322.8,146.5,318.4,146.5z"/>
		<g>
			<path class="st1" d="M132.5,122.8c-0.3-0.3-0.8-0.6-1.1-0.6c-0.3,0-0.4,0.1-0.7,0.2c-8,4.6-17.3,7-26.8,7c-9.5,0-18.8-2.4-26.8-7
				c-0.3-0.2-0.4-0.2-0.7-0.2c-0.4,0-0.8,0.3-1.1,0.6c-0.4,0.5-0.4,1.4,0.3,1.9c4.1,3.2,8.4,5.6,13.2,7.3c4.8,1.8,10,2.6,15.2,2.6
				l0,0c5.3,0,10.3-0.8,15.2-2.6c4.8-1.7,9.1-4.1,13.2-7.3C132.8,124.2,132.8,123.3,132.5,122.8z"/>
			<path class="st1" d="M123.3,135.7c-0.3-0.2-0.4-0.3-0.8-0.3c-0.2,0-0.3,0-0.4,0.1c-2.3,0.9-4.7,1.7-6.8,2.2
				c-0.4,0.1-0.8,0.4-0.9,0.8c-1.6,4.5-5.6,8.8-9.8,13.3c-0.2,0.2-0.4,0.3-0.8,0.3c-0.4,0-0.7-0.3-0.8-0.3
				c-4.2-4.4-8.3-8.8-9.8-13.3c-0.2-0.4-0.5-0.8-0.9-0.8c-2.2-0.5-4.5-1.3-6.8-2.2c-0.2-0.1-0.3-0.1-0.4-0.1c-0.3,0-0.5,0.1-0.7,0.3
				c-0.3,0.3-0.5,0.7-0.4,1c0.3,3.8,1.8,7.3,4.3,11.2c2.4,3.6,5.5,6.9,8.6,10.2c5.6,5.9,10.8,11.5,11.3,18c0.1,0.6,0.5,1.1,1.1,1.1
				h6.5c0.3,0,0.6-0.2,0.8-0.3c0.3-0.3,0.3-0.5,0.3-0.8c-0.3-4.3-1.8-8.7-4.8-13.3c-0.7-0.9-1.3-1.9-2-2.8c-0.3-0.3-0.2-0.8,0.1-1.1
				c0.3-0.3,0.4-0.4,0.8-0.8c3-3.3,6.2-6.5,8.6-10.2c2.5-3.8,4-7.4,4.3-11.2C123.8,136.5,123.6,136,123.3,135.7z"/>
			<g>
				<path class="st1" d="M97,163.1c-0.2-0.2-0.4-0.3-0.8-0.3c-0.5,0-0.8,0.3-0.8,0.5c-2.8,4.3-4.2,8.5-4.3,12.7
					c0,0.3,0.1,0.7,0.3,0.8s0.5,0.3,0.8,0.3h6.5c0.6,0,1-0.4,1.1-1.1c0.2-2,0.8-4,1.8-6.1c0.3-0.8,0.1-1.4-0.2-1.8
					C100.2,166.8,98.9,165.2,97,163.1z"/>
			</g>
			<path class="st1" d="M104,139.2c2.1,0,3.3-0.2,3.7-0.2c0.5,0,0.9,0.4,0.9,1.1c0,0.2-0.1,0.3-0.1,0.4c-0.3,0.8-1.5,3.5-3.8,5.8
				c-0.3,0.3-0.6,0.3-0.8,0.3l0,0c-0.3,0-0.5-0.1-0.8-0.3c-2.3-2.3-3.6-5.1-3.8-5.8c-0.1-0.2-0.1-0.3-0.1-0.4c0-0.6,0.5-1.1,0.9-1.1
				C100.8,139,101.9,139.2,104,139.2L104,139.2z"/>
		</g>
	</g>
</g>
<g id="GUIDES">
</g>
</svg>
