<?xml version="1.0" encoding="utf-8"?>
<!-- Generator: Adobe Illustrator 22.0.1, SVG Export Plug-In . SVG Version: 6.00 Build 0)  -->
<svg version="1.1" id="Layer_1" xmlns="http://www.w3.org/2000/svg" xmlns:xlink="http://www.w3.org/1999/xlink" x="0px" y="0px"
	 viewBox="0 0 400 300" style="enable-background:new 0 0 400 300;" xml:space="preserve">
<style type="text/css">
	.st0{fill:#FF6B6B;}
</style>
<g id="GUIDES">
</g>
<g id="Page-1" sketch:type="MSPage">
	<g id="Artboard-2-Copy" transform="translate(-32.000000, -30.000000)" sketch:type="MSArtboardGroup">
		<g id="Imported-Layers" transform="translate(32.000000, 30.000000)" sketch:type="MSLayerGroup">
			<path id="Fill-1" sketch:type="MSShapeGroup" class="st0" d="M105.8,114.6H82.5c-0.2,0-0.5,0.1-0.7,0.2l-5.3,3.7
				c-0.4,0.3-0.9,0.3-1.3,0l-5.3-3.7c-0.2-0.2-0.4-0.2-0.7-0.2H46.1c-0.3,0-0.5,0.1-0.7,0.3c-7,7.4-11.3,17.4-11.3,28.4
				c-0.1,22.8,18.4,41.7,41.3,42c23.4,0.3,42.5-18.5,42.5-41.8c0-11.1-4.3-21.1-11.3-28.6C106.3,114.7,106,114.6,105.8,114.6
				L105.8,114.6z M96.7,125.4c4.2,4.9,6.8,11.2,6.8,18.2c0,15.7-13.2,28.4-29.1,27.6c-14.2-0.8-25.6-12.4-26.1-26.6
				c-0.3-7.3,2.4-14.1,6.8-19.1c0.3-0.4,0.3-1,0-1.3l-8.5-8.6l28.1,20.2c0.7,0.6,1.8,0.6,2.5,0l28.1-20.2l-8.5,8.6
				C96.4,124.4,96.4,125,96.7,125.4L96.7,125.4z"/>
			<path id="Fill-2" sketch:type="MSShapeGroup" class="st0" d="M147.3,172.1H158v-16.8h15.9v-9.4H158v-10.2h18.6v-9.8h-29.3V172.1"
				/>
			<path id="Fill-3" sketch:type="MSShapeGroup" class="st0" d="M218.8,140.9c0-8.5-5.7-15.3-20.1-15.3c-5.4,0-9.7,0.3-13.6,0.8
				v45.8h10.7V157c1.5,0.1,2.4,0.1,4,0.1c0.6,0,1.2,0,1.8-0.1l7.9,15.1h12.2l-10.9-17.9C215.8,151.3,218.8,146.4,218.8,140.9
				L218.8,140.9z M199.2,148.4c-1.3,0-2-0.1-3.4-0.2v-12.7c1.5-0.3,2.5-0.3,4.2-0.3c4.6,0,7.6,2.3,7.6,6.1
				C207.6,145.9,204.4,148.4,199.2,148.4L199.2,148.4z"/>
			<path id="Fill-4" sketch:type="MSShapeGroup" class="st0" d="M249.1,125.1c-14.3,0-23.9,10.3-23.9,23.9
				c0,13.6,9.2,23.9,23.5,23.9c14.3,0,23.9-10.3,23.9-23.9C272.6,135.4,263.4,125.1,249.1,125.1L249.1,125.1z M248.8,163.3
				c-7.3,0-12.2-6.1-12.2-14.3c0-8.3,4.9-14.3,12.2-14.3c7.3,0,12.2,6,12.2,14.3C261.1,157.3,256.2,163.3,248.8,163.3L248.8,163.3z"
				/>
			<path id="Fill-5" sketch:type="MSShapeGroup" class="st0" d="M310.1,149.8L282.5,125l-1.5,0.3v46.9h10.7v-24.2l27.9,25.1l1.1-0.2
				v-46.9h-10.7V149.8"/>
			<path id="Fill-6" sketch:type="MSShapeGroup" class="st0" d="M327.4,125.9v9.8h13.9v36.4H352v-36.4h13.9v-9.8H327.4"/>
		</g>
	</g>
</g>
</svg>
