<?xml version="1.0" encoding="utf-8"?>
<!-- Generator: Adobe Illustrator 23.1.0, SVG Export Plug-In . SVG Version: 6.00 Build 0)  -->
<svg version="1.1" id="Layer_1" xmlns="http://www.w3.org/2000/svg" xmlns:xlink="http://www.w3.org/1999/xlink" x="0px" y="0px"
	 viewBox="0 0 400 300" style="enable-background:new 0 0 400 300;" xml:space="preserve">
<style type="text/css">
	.st0{fill:#252F3E;}
	.st1{fill-rule:evenodd;clip-rule:evenodd;fill:#FF9900;}
</style>
<g>
	<path class="st0" d="M148.2,130.6c0,2.9,0.3,5.3,0.9,7c0.6,1.7,1.4,3.6,2.5,5.7c0.4,0.6,0.6,1.3,0.6,1.8c0,0.8-0.5,1.6-1.5,2.4
		l-5,3.3c-0.7,0.5-1.4,0.7-2.1,0.7c-0.8,0-1.6-0.4-2.4-1.1c-1.1-1.2-2.1-2.4-2.8-3.7c-0.8-1.3-1.6-2.8-2.4-4.7
		c-6.2,7.3-13.9,10.9-23.2,10.9c-6.6,0-11.9-1.9-15.8-5.7c-3.9-3.8-5.8-8.8-5.8-15.2c0-6.7,2.4-12.2,7.2-16.3
		c4.8-4.1,11.2-6.2,19.3-6.2c2.7,0,5.4,0.2,8.4,0.6c2.9,0.4,5.9,1,9.1,1.7v-5.8c0-6-1.3-10.2-3.7-12.6c-2.5-2.4-6.8-3.6-12.9-3.6
		c-2.8,0-5.6,0.3-8.5,1s-5.8,1.6-8.5,2.7c-1.3,0.6-2.2,0.9-2.8,1c-0.6,0.2-0.9,0.2-1.3,0.2c-1.1,0-1.7-0.8-1.7-2.4v-3.9
		c0-1.3,0.2-2.2,0.6-2.8c0.4-0.6,1.1-1.1,2.2-1.7c2.8-1.4,6.1-2.6,10-3.6c3.9-1,8-1.5,12.3-1.5c9.4,0,16.3,2.1,20.7,6.4
		c4.3,4.3,6.6,10.7,6.6,19.4v25.6H148.2z M116.1,142.6c2.6,0,5.3-0.5,8.1-1.4c2.8-0.9,5.4-2.7,7.5-5.1c1.3-1.5,2.2-3.2,2.7-5.1
		c0.5-1.9,0.8-4.2,0.8-6.9v-3.3c-2.3-0.6-4.7-1-7.3-1.3c-2.5-0.3-5-0.5-7.4-0.5c-5.3,0-9.2,1-11.8,3.2s-3.9,5.1-3.9,9.1
		c0,3.7,0.9,6.5,2.9,8.4C109.7,141.6,112.5,142.6,116.1,142.6z M179.5,151.1c-1.4,0-2.4-0.2-3-0.8c-0.6-0.5-1.2-1.6-1.7-3.1
		l-18.6-61c-0.5-1.6-0.7-2.6-0.7-3.2c0-1.3,0.6-2,1.9-2h7.7c1.5,0,2.5,0.2,3.1,0.8c0.6,0.5,1.1,1.6,1.6,3.1l13.3,52.3l12.3-52.3
		c0.4-1.6,0.9-2.6,1.5-3.1c0.6-0.5,1.7-0.8,3.2-0.8h6.3c1.5,0,2.5,0.2,3.2,0.8c0.6,0.5,1.2,1.6,1.5,3.1l12.5,52.9l13.7-52.9
		c0.5-1.6,1-2.6,1.6-3.1c0.6-0.5,1.7-0.8,3.1-0.8h7.3c1.3,0,2,0.6,2,2c0,0.4-0.1,0.8-0.2,1.3s-0.2,1.1-0.6,2l-19,61
		c-0.5,1.6-1,2.6-1.7,3.1c-0.6,0.5-1.7,0.8-3,0.8h-6.8c-1.5,0-2.5-0.2-3.2-0.8c-0.6-0.6-1.2-1.6-1.5-3.2l-12.2-50.9L191,147.2
		c-0.4,1.6-0.9,2.6-1.5,3.2c-0.6,0.6-1.7,0.8-3.2,0.8H179.5z M281,153.2c-4.1,0-8.2-0.5-12.2-1.4s-7-2-9.1-3.2
		c-1.3-0.7-2.1-1.5-2.4-2.2c-0.3-0.7-0.5-1.5-0.5-2.2v-4c0-1.7,0.6-2.4,1.8-2.4c0.5,0,0.9,0.1,1.4,0.2c0.5,0.2,1.2,0.5,2,0.8
		c2.7,1.2,5.6,2.1,8.7,2.8c3.2,0.6,6.2,0.9,9.4,0.9c5,0,8.8-0.9,11.5-2.6s4.1-4.3,4.1-7.5c0-2.2-0.7-4-2.1-5.5s-4.1-2.8-8-4.1
		l-11.5-3.6c-5.8-1.8-10-4.5-12.6-8.1c-2.6-3.5-3.9-7.3-3.9-11.5c0-3.3,0.7-6.2,2.1-8.8c1.4-2.5,3.3-4.7,5.7-6.5
		c2.4-1.8,5.1-3.2,8.2-4.1c3.2-0.9,6.5-1.3,10-1.3c1.7,0,3.6,0.1,5.3,0.3c1.8,0.2,3.5,0.6,5.1,0.9c1.6,0.4,3.1,0.8,4.5,1.3
		c1.4,0.5,2.5,0.9,3.3,1.4c1.1,0.6,1.9,1.3,2.4,2c0.5,0.6,0.7,1.5,0.7,2.6v3.7c0,1.7-0.6,2.5-1.8,2.5c-0.6,0-1.7-0.3-3-0.9
		c-4.5-2.1-9.6-3.1-15.2-3.1c-4.5,0-8.1,0.7-10.5,2.2c-2.4,1.5-3.7,3.8-3.7,7c0,2.2,0.8,4.1,2.4,5.6c1.6,1.5,4.5,3,8.7,4.3l11.2,3.6
		c5.7,1.8,9.8,4.3,12.2,7.6s3.6,6.9,3.6,11.1c0,3.4-0.7,6.5-2.1,9.2c-1.4,2.7-3.3,5.1-5.8,6.9c-2.4,2-5.4,3.4-8.8,4.4
		C288.8,152.7,285.1,153.2,281,153.2z"/>
	<g>
		<path class="st1" d="M296,191.6c-26,19.2-63.7,29.4-96.2,29.4c-45.5,0-86.5-16.8-117.4-44.8c-2.4-2.2-0.2-5.2,2.7-3.5
			c33.5,19.4,74.8,31.2,117.5,31.2c28.8,0,60.5-6,89.6-18.3C296.5,183.6,300.2,188.5,296,191.6z"/>
		<path class="st1" d="M306.8,179.3c-3.3-4.3-22-2.1-30.4-1c-2.5,0.3-2.9-1.9-0.6-3.6c14.8-10.4,39.3-7.4,42.1-3.9
			c2.8,3.6-0.8,28-14.7,39.6c-2.1,1.8-4.2,0.9-3.2-1.5C303.1,201.1,310.1,183.5,306.8,179.3z"/>
	</g>
</g>
</svg>
