<?xml version="1.0" encoding="utf-8"?>
<!-- Generator: Adobe Illustrator 21.0.2, SVG Export Plug-In . SVG Version: 6.00 Build 0)  -->
<svg version="1.1" id="Layer_1" xmlns="http://www.w3.org/2000/svg" xmlns:xlink="http://www.w3.org/1999/xlink" x="0px" y="0px"
	 viewBox="0 0 400 300" style="enable-background:new 0 0 400 300;" xml:space="preserve">
<style type="text/css">
	.st0{fill:#FFFFFF;}
	.st1{fill:none;}
	.st2{fill:#D2232A;}
	.st3{fill:#F3C727;}
</style>
<g>
	<g>
		<path class="st0" d="M200.2,235.6c47.7,0,86.8-38.7,86.8-86.3s-40.6-86.1-86.8-86.1c-47.7,0-87.1,38.2-87.1,86.1
			S152.3,235.6,200.2,235.6z"/>
		<path class="st1" d="M280.9,127L280.9,127L280.9,127L280.9,127z"/>
		<path class="st0" d="M240.5,94.4c-11.2,1.7-26.2,2.7-41.8,2.7c0.2-17.2,0.5-29.6,0.7-33.3C215.4,66.5,229.9,78,240.5,94.4"/>
		<path class="st2" d="M259.2,156.2c-16.1,2.5-37.8,3.9-60.6,3.9c0-23.5,0.1-46,0.4-63.5c15.7,0,30.6-1,41.8-2.7
			C251.7,110.8,258.6,132.8,259.2,156.2"/>
		<path class="st0" d="M257.9,156c-4.4-0.6-8.4-8.2-6.3-16c-6.3,4.4-13.4-4.5-12.4-12.9c0.6-4.4,3.4-8.4,8.5-6.5
			c-2-7-4.5-13.6-7.6-19.8c-4.4,0.6-9.3,1-14.6,1.5c4.5,7,0.1,13.4-6.4,12.4c-4.7-0.7-9.1-5.7-7.9-11.4c-3.8,2.6-11.6,1.6-12.3-6.8
			c14.4-0.1,26.9-0.6,41.8-2.7l0,0c12.2,19.8,17.2,37.4,18.6,62.2C258.8,156,258.2,156.2,257.9,156"/>
		<path class="st0" d="M154.1,214.4c-8.9-1.5-14.8-3.3-16.8-5.5c-2.2-2.5-5-5.8-7.1-8.4c-4.9-7.3-5-7.4-7.1-11.6
			c-3.8-8.1-3.8-8.2-5.4-12.7c-2.5-8.6-2.6-8.9-3.3-13.5c-0.5-4.1-0.9-9.6-1.1-13.6l0.1-3.7c-0.1,3.7,8.7,7.1,24,9.7
			c0,1.2,0,2.5,0,3.7C137.2,181.2,143.6,200.7,154.1,214.4"/>
		<path class="st0" d="M199.8,235.6c-0.5,0-0.9,0-1.4,0c-0.7,0-1.6,0-2.3-0.1c-5.2-0.4-8.6-0.7-13.2-1.6
			c-11.2-2.6-21.2-9.6-28.9-19.8c7.6,1.2,17.5,2.2,28.9,2.7c5.4,0.2,10.8,0.4,16.1,0.4C199.3,228.8,199.4,235.6,199.8,235.6"/>
		<path class="st2" d="M199.1,217.3c-5.4,0-10.8-0.1-16.1-0.4c-11.4-0.5-21.2-1.5-28.8-2.7c-10.3-13.6-16.7-33.1-16.8-55.6
			c0-1,0-2,0-3c10.5,1.7,23.7,3.1,39.2,3.7c7.4,0.4,14.8,0.5,22,0.5c0,1,0,2,0,3C198.7,185.3,198.8,204.4,199.1,217.3"/>
		<path class="st2" d="M199,218.6c-0.7,3.1-4.9,5.8-10.8,3.4c2.8,3.7,0.4,6.9-4.4,5.9c-3.8-0.6-8.4-3.7-8.6-6.9
			c-4.7-0.4-9-0.7-12.8-1.4c3.6,4.3,7.6,7.6,12.1,10.2c0.6-0.2,1.4-0.1,3.9,0.7c3.3,1.1,6.4,2.8,9.7,4.1l0,0c-2.6-0.5-3-0.5-4.7-0.7
			c-6.3-1.8-17.8-5.2-28.9-19.8l0,0l0,0l0,0c13.4,2,26.4,3,45.1,3.1C199.1,217.6,199.1,218.1,199,218.6"/>
		<path class="st0" d="M154.1,214.2L154.1,214.2c-11.9-17.2-16.6-33.6-16.8-58.4c6.8,2.2,8.6,12.2,6.9,17.6
			c6.4-2.5,14.5,8.6,11.7,16c-1.4,3.3-4.7,4.4-8.2,2.3c2,6.5,4.4,12.4,7.4,17.6c4.4,0.6,9.6,1.1,15.2,1.6c-4.4-5.5-0.9-10,5-9.7
			c5.2,0.2,11.9,4.4,10.5,10.3c4.5-2.1,12.4-0.4,13.4,5.8c-5.7,0-14.1-0.1-25-0.9C167.4,216,160.7,214.7,154.1,214.2"/>
		<polyline class="st2" points="154.1,214.2 154.1,214.2 154.1,214.2 		"/>
		<polyline class="st2" points="154.1,214.2 154.1,214.2 154.1,214.2 		"/>
		<path class="st2" d="M154.1,214.2c-9.8-1.8-14.1-3.2-17-5.5c-2-2.2-4.5-5.3-6.5-7.6c0.4,0.5,0.6,0.6,1.5,1.8
			c-0.9-1.1-5.4-7-5.8-9.5c2.5-0.5,10.3,12.1,10.5,12.2c2.3,0.9,5.5,1.7,9.3,2.5c-3.6-5.4-6.5-11.3-8.7-17.8
			c-5.4,2.7-12.2-11.6-10.1-17.5c0.5-1.2,2-3.8,5.5-1c-2.8-6.4-2-15.7,4.5-15.7C137.5,176.8,140.4,194.8,154.1,214.2"/>
		<path d="M258.8,171.2L258.8,171.2c0.2-3.9,0.5-8,0.5-12.1c0-1,0-2,0-3h0.1c0,0.9,0,2,0,3C259.5,163.2,259.2,167.2,258.8,171.2"/>
		<path d="M213.2,234.6L213.2,234.6c23.7-3.7,42.1-28.9,45.5-63.7l0.1,0.1C255.4,205.7,237.1,230.9,213.2,234.6"/>
		<path d="M241.9,224.8c-5.8,3.1-7,3.7-13.4,6c-2,0.6-4.4,1.4-6.1,2c12.2-3.2,22.9-10.2,31.4-19.8c-1.8,4.1-3.1,6.3-9.5,10.6
			C243.6,223.8,242.9,224.3,241.9,224.8"/>
		<path class="st3" d="M244.3,223.4c5.2-3.6,7.4-5.8,9.5-10.6c12.4-14.1,20-33.9,20-56.8c0-1,0-2,0-3c3.9-1,7-2.1,9.3-3.3
			c0,0.9,0,2,0,2.8C283.1,183.2,267.7,209.3,244.3,223.4"/>
		<path d="M218.4,200.9c-5.8-5.8-5.8-5.8-19.7-18.8c0-6,0-12.4-0.1-19.2c0-1,0-2,0-3c7.5,0,14.9-0.1,22-0.5c0,0.9,0,2,0,3
			C220.7,176.9,219.9,190.1,218.4,200.9"/>
		<path class="st3" d="M203.5,235.5h-0.6c-1.2,0-1.8,0-2.2,0h-0.9c-0.5,0-0.9-21.4-1.1-53.5c12.9,12.2,14.4,13.5,19.7,18.8
			C215.4,222.1,209.9,235.2,203.5,235.5"/>
		<path d="M207.6,235.2c-0.6,0-1.6,0.1-2.2,0.2c-0.6,0-1.2,0.1-1.8,0.1c6.5-0.2,11.9-13.4,14.8-34.6c6.3,6.6,9,9.7,12.1,14.8
			C224.5,227.5,216.5,234.5,207.6,235.2"/>
		<path class="st3" d="M230.3,215.8c-3.1-4.7-4.8-7.1-12.1-14.8c1.6-10.9,2.3-24.1,2.3-38.6c0-1,0-2,0-3c7.1-0.4,14-0.7,20.4-1.4
			c0,0.9,0,2,0,3C241.1,183.5,237.1,202.5,230.3,215.8"/>
		<path d="M232.2,226.4c1.1-3.4,1-5.5-1.7-10.7c6.8-13.3,10.8-32.3,10.8-54.6c0-1,0-2,0-3c2.3-0.2,4.7-0.5,7-0.6
			c3.2,3.7,7.1,8.4,10.7,13.4C256.3,195.6,246.3,215.7,232.2,226.4"/>
		<path class="st3" d="M213.2,234.6c-0.6,0.1-1.5,0.2-2.1,0.4c-2,0.2-2,0.2-3.1,0.4h-0.4c9-0.7,16.8-8,22.7-19.7
			c2.3,4.7,3.2,6.9,1.7,10.7C226.4,230.7,220,233.6,213.2,234.6"/>
		<path class="st3" d="M222.4,232.6l-2.1,0.6c-3.4,0.7-3.4,0.7-5.4,1.1l-1.7,0.2c17-2.6,31.1-16,39-36c2.2,5.9,3,8.6,1.5,14.4
			C245.3,222.4,234.5,229.5,222.4,232.6"/>
		<path d="M220.2,233.3c-3.4,0.7-3.4,0.7-5.4,1.1l-1.7,0.2c6.9-1,13.2-3.9,18.8-8.2c-2,3-3.3,4.3-9.7,6.3L220.2,233.3"/>
		<path d="M253.7,212.8c1.2-4.9,1.1-7.7-1.5-14.4c4.5-11.3,7.1-24.8,7.1-39.6c0-1,0-2,0-3c5.5-0.7,10.3-1.8,14.4-2.8c0,0.9,0,2,0,3
			C273.7,178.9,266.1,198.8,253.7,212.8"/>
		<path class="st3" d="M241.9,224.8c0.7-0.5,1.6-0.9,2.3-1.4l-0.9,0.6L241.9,224.8"/>
		<path d="M283.6,152.5c0,31-16,57.4-40.1,71.4l0,0l0.9-0.6c23.4-14,38.9-40.2,38.9-70.7c0-1,0-2,0-2.8c0.1-0.1,0.2-0.1,0.5-0.2
			C283.4,150.6,283.6,151.5,283.6,152.5"/>
		<path class="st3" d="M252.2,198.6c-3.1-6.3-5.2-9.6-12.2-18.2c0.6-6,1.1-12.5,1-19.3c0-1,0-2,0-3c6.6-0.6,12.7-1.4,18.2-2.1
			c0,0.9,0,2,0,3C259.3,173.7,256.8,187.3,252.2,198.6"/>
		<path d="M240,180.5c-5-5.8-7.5-8.6-19.4-21c6.8-0.4,12.1-0.6,20.4-1.4c0,1,0,2,0,3C241.1,167.8,240.8,174.4,240,180.5"/>
		<path d="M137.2,155.8L137.2,155.8c0-5,0.5-10.1,1.1-15l0.1,0.2C137.8,145.7,137.3,150.7,137.2,155.8"/>
		<path d="M138.5,140.9l-0.1-0.2c5.3-35.5,26.2-65.9,52-75.1h-0.1C164.5,75,143.7,105.3,138.5,140.9"/>
		<path d="M190.3,65.7L190.3,65.7c3.2-1.1,6.1-2,9.3-2.3l0,0C196.6,63.7,193.4,64.5,190.3,65.7"/>
		<path class="st3" d="M147.9,91c3.1-6.8,5.3-10.2,11.7-15.7c12.1-7.1,25.7-11.6,40.3-12.2C179.6,65,161.3,75.5,147.9,91"/>
		<path d="M123.8,152.8c-3.4-1-6.3-2.1-8.1-3.2c1-31.4,18.3-59,43.7-74.2c-5.9,5.3-8.6,8.5-11.7,15.7
			C133.7,107.3,124.6,129.2,123.8,152.8"/>
		<path class="st3" d="M198.7,160c-7.3,0-14.8-0.1-22-0.5c-0.2,0-0.5,0-0.6,0c0.1-15.5,1.4-30.5,3.4-44c6.3,7.9,9.6,11.7,19.3,21.8
			C198.7,144.7,198.6,152.3,198.7,160"/>
		<path class="st3" d="M179.4,115.5c-5.8-8.2-8.4-12.4-10.8-19.9c8.1-17.1,19.1-29,31.2-32.3C191.1,68.1,183.6,88.6,179.4,115.5"/>
		<path d="M176,159.5c-7.5-0.4-14.6-0.7-21-1.5c0.4-23.2,5.5-45.4,13.6-62.5c2.5,7.3,4.4,11.3,10.8,19.9
			C177.3,129,176.1,144.1,176,159.5"/>
		<path class="st3" d="M154.9,158.1c-2.3-0.2-4.7-0.5-7-0.7c-3-4.4-6.5-10-9.5-16.4c3.7-25.2,15.1-47.8,30.7-62.1
			c-2.1,5.8-2.5,9.1-0.6,16.8C160.5,112.8,155.3,134.9,154.9,158.1"/>
		<path d="M168.6,95.7c-1.6-7-1.7-10.7,0.6-16.8c9-8.4,19.4-13.9,30.5-15.6C187.6,66.4,176.6,78.6,168.6,95.7"/>
		<path d="M146.7,111.6c-1.2-8.4-1.2-12.8,1.2-20.7c13.5-15.6,31.8-26.1,51.9-27.8l0,0c-4.8,0.7-5.7,0.9-9.2,2.3
			C172,72.2,156,89.4,146.7,111.6"/>
		<path class="st3" d="M169.3,78.7c3-5,4.8-7.5,12.2-11.3c5.8-2.1,12.1-3.6,18.3-4.2C188.7,65,178.3,70.4,169.3,78.7"/>
		<path class="st3" d="M137.1,155.8c-5.2-0.9-9.6-1.8-13.3-3c0.6-23.6,9.7-45.5,23.9-61.9c-2.2,7.3-2.7,11.6-1.2,20.7
			C140.9,125,137.5,140.1,137.1,155.8"/>
		<path d="M159.6,75.2c6.4-4.5,9.8-6.8,19.8-9.7c6.5-1.6,13.4-2.3,20.4-2.3l0,0C185.3,63.8,171.5,68.2,159.6,75.2"/>
		<path class="st3" d="M115.9,149.5c-1.8-1.1-2.8-2.3-2.7-3.4l0.1-3.1c2.5-37.8,29.9-68.9,66-77.5c-8.2,2.6-12.7,4.4-19.8,9.7
			C134.1,90.6,116.8,118.3,115.9,149.5"/>
		<path d="M154.9,158.1c-6.6-0.6-12.4-1.4-17.7-2.2c0.4-15.7,3.8-30.7,9.5-44.1c2.2,8.7,3.9,13.4,10.1,23.7
			C155.8,142.9,155.1,150.4,154.9,158.1"/>
		<path class="st3" d="M154.9,158.1c0.1-7.7,0.7-15.4,2-22.6c5.3,7.9,8.5,12.5,19.1,24.1C168.7,159.1,163.5,158.9,154.9,158.1"/>
		<path d="M181.5,67.4c4.8-2,9-3.6,18.3-4.2l0,0C193.4,63.7,187.3,65.2,181.5,67.4"/>
		<path class="st1" d="M286.6,148.7c-0.1,4.7-0.2,11.7-2.7,21.6c-2.2,9.1-6.1,17-7.5,19.3c-4.4,7.7-12.8,22.3-33.1,34.2"/>
		<path d="M283.7,149.5c2.2-1.2,3.2-2.6,3.2-3.8c1.2,36.2-19.2,64.2-43.2,78.1h-0.1l0.9-0.6c23.4-14,38.9-40.2,38.9-70.7
			c0-1,0-2,0-2.8C283.3,149.6,283.4,149.5,283.7,149.5c0,0.9,0,2,0,2.8"/>
		<path class="st1" d="M280.9,127L280.9,127L280.9,127L280.9,127z"/>
		<path class="st2" d="M240.9,93.8L240.9,93.8L240.9,93.8L240.9,93.8L240.9,93.8C240.9,93.8,241,93.8,240.9,93.8
			c0.9-0.1,1.7-0.4,2.5-0.5c4.9-0.9,15.7-3.2,15.7-6.5c0,0,4.8,4.4,8,10.3c0.4,0.6,0.6,1.4,1,2c0.4,0.6,0.5,1.4,0.6,2
			c0,0,0,0.1,0.1,0.1c0,0.2,0,0.6,0,0.7s0,0.2,0,0.2c-0.2,2-1.4,2-2.6,1.4c-0.1,0-0.2-0.1-0.5-0.1c-4.4-2-5.9-6-6.8-7.7
			c-2.2,0.6-5.9,2.3-9.1,3c-0.4,0.1-1,0.2-1.4,0.4c3.7,6,7.1,13.3,9.6,20.2c4.4-4.4,11.2,3.8,11.4,11.9c0.2,4.7-2,8.9-6.1,7.4
			c3.4,6.4,2.3,15.7-4.2,17.7C258.2,135.1,254.5,116.6,240.9,93.8L240.9,93.8C240.8,93.8,240.8,93.8,240.9,93.8"/>
		<path class="st2" d="M241.6,77.8L241.6,77.8C241.6,77.7,241.6,77.8,241.6,77.8c0-0.1,0-0.1-0.1-0.2c0.1-0.1,0.1-0.2,0.2-0.2
			c0.1,0,0.2,0,0.4,0l0,0c0,0,0.6-2.7,10.6,4.3c-16.8-13.2-33.9-17-44.1-18c1.1,0.4,2,0.6,2.5,0.9c0.6,0.2,0.9,0.6,1.1,0.7l0,0
			c1.2,0.1,2.3,0.4,3.3,0.6l0,0l0,0c0.4,0.1,0.6,0.2,1.1,0.5h0.1c0.4,0.1,0.6,0.2,0.9,0.4c0.1,0,0.1,0.1,0.2,0.1
			c0.4,0.1,0.6,0.2,0.9,0.4c0.1,0,0.2,0.1,0.2,0.1c0.4,0.1,0.7,0.4,1.1,0.6l0,0c3.1,1.5,5.5,3.2,5.5,4.4c-0.5,0.2-0.6,0.4-2,0
			C228.7,76.1,236,83,240.3,88c3.1-0.6,7.4-1.2,9.5-2C250,85.9,242.6,80.4,241.6,77.8z"/>
		<path class="st0" d="M259.1,86.9c-2.1-2-4.3-3.8-6.4-5.5c-4.1-2.8-6.5-4.1-8.1-4.4l0,0c0,0-4.9-1.6-2.1,2.2l0,0
			c2.1,2.8,7.5,6.9,7.6,6.8c-2,0.6-6.5,1.4-9.5,2c-4.4-5-11.7-11.9-16.7-15.6c1.4,0.4,1.5,0.2,2,0c0-1.2-2.5-3-5.5-4.4l0,0
			c-0.4-0.2-0.7-0.4-1.1-0.6c-0.1,0-0.2-0.1-0.2-0.1c-0.4-0.1-0.6-0.2-0.9-0.4c-0.1,0-0.1-0.1-0.2-0.1c-0.4-0.1-0.6-0.2-0.9-0.4
			h-0.1c-0.4-0.1-0.6-0.2-1.1-0.5l0,0c-1-0.2-2.1-0.5-3.3-0.6l0,0c0.1,0.1,0.1,0.1,0.2,0.2l-0.4-0.1c0.1,0,0.1,0,0.1,0
			c-0.2-0.2-0.6-0.5-1.1-0.7c-0.6-0.4-1.5-0.6-2.5-0.9c-2.5-0.2-4.4-0.4-6-0.4c-1.1,0-2.1,0-2.2,0l0,0c-0.4,0-0.6,0-0.6,0l0.4,0.1
			c-0.2,0-0.5-0.1-0.6-0.1c0.6,0.1,1.1,0.2,1.6,0.4c1.4,0.5,4.2,1.2,6.3,1.8c13,4.5,24.7,14.8,33.7,28.5c0.1,0,0.2,0,0.5-0.1
			c8.1-1.4,12.4-2.8,15.7-4.3l0,0C259.3,88.2,259.1,86.9,259.1,86.9L259.1,86.9z"/>
		<path class="st2" d="M240.8,93.8L240.8,93.8L240.8,93.8L240.8,93.8L240.8,93.8c-14.1-20.8-27.1-26.9-38.9-30
			c0.4,0.1,0.6,0.2,0.9,0.4c-0.6-0.1-1.1-0.4-1.6-0.5c-0.1,0-0.2-0.1-0.4-0.1c0.4,0.1,0.6,0.2,1.1,0.2c-0.5-0.1-0.7-0.2-1.2-0.4
			c-0.1,0-0.2-0.1-0.4-0.1c0,0,0.1,0,0.1,0.1c-0.2-0.1-0.6-0.1-0.7-0.2l0,0l0,0c2.5,2.8,6,3.9,7,4.3c-0.2,1-0.1,3.2,3.6,5.8
			c0.6,0.5,1.1,0.7,1.7,1c5.7,3,6.9,0.6,7-0.2c0,0,0.1,0,0.1-0.1c1.7,1.2,5,3.9,8.7,8.1c2.1,2.6,4.2,4.8,5.7,7
			c-3.4,0.5-8.1,0.9-12.7,1.1c-0.2-5.5-4.3-8.4-6.8-9.2c-5.5-2-7.3,4.4-4.9,9c-4.4-2.3-9.5-0.2-10.2,6.6
			C216,96.5,227.7,95.8,240.8,93.8L240.8,93.8L240.8,93.8"/>
		<path d="M198.7,137.3c-8.5-8.9-13-13.9-19.3-21.8c4.2-26.8,11.7-47.5,20.3-52.3l0,0l0,0C199.2,69.6,198.8,100.5,198.7,137.3"/>
	</g>
	<path d="M95.7,85l0.5,0.2c-0.7,1.8-0.5,2.7,1.2,3.6l7,3.4c3.2,1.6,5.8,5.4,3,10.9c-2.5,4.9-6.6,6.1-10.3,4.3l-7.6-3.8
		c-1.7-0.7-2.1-0.5-3.1,1.2l-0.5-0.2l3.3-6.8l0.5,0.2l-0.1,0.2c-0.6,1.5-0.6,2.2,0.9,3.1l7.3,3.6c3.4,1.8,6.6,0.7,8.5-3.2
		c1.5-3,1.7-6.5-2.7-8.7l-6-3.1c-2.5-1.2-3.2-1.1-4.3,1l-0.5-0.2L95.7,85z"/>
	<path d="M125.9,76.4l-21.8,1.4l9.6,8.1c1.6,1.4,2.2,1.2,3.8-0.6l0.5,0.4l-4.4,5.2l-0.5-0.4l0.1-0.1c1.1-1.4,1.1-2.2,0-3.1L102.3,78
		c-0.7,0.2-1.5,0.6-2.1,1.4l-0.5-0.4l3-3.4l19.8-1.2l-8.9-7.5c-1.4-1.1-2-0.9-3.4,0.7l-0.5-0.4l4.4-5.2l0.5,0.4
		c-1.5,1.7-1.5,2.2-0.6,3.1l12.4,10.5L125.9,76.4z"/>
	<path d="M136.5,67l-5.5,4.4l-0.4-0.5c1.4-1.2,1.4-1.8,0.1-3.3l-8-9.6c-1-1.2-1.7-1.2-3.1-0.2l-0.4-0.5l5.5-4.4l0.4,0.5
		c-1.5,1.1-1.7,2-0.5,3.3l7.9,9.6c1.1,1.4,1.8,1.5,3.3,0.2L136.5,67z"/>
	<path d="M147.2,60.2l-13.4-10.5c-1.6-1.2-2.1-1.5-3.6-0.6l-0.2-0.5l7-4.1l0.2,0.5c-2.2,1.5-2.5,2.2-1.4,3.2l11.1,8.6l-2.2-12.5
		c-0.1-0.9-0.2-1.5-0.5-1.8c-0.5-0.7-1.2-0.6-3,0.4l-0.2-0.5l5.8-3.3l0.4,0.4c-1.4,0.7-1.7,1.8-1.4,3.7l2.7,16.4L147.2,60.2z"/>
	<path d="M168.7,43.3l-0.6,0.2c-0.9-2-1.5-2-2.6-1.6l-4.7,1.7l2,5.8c0.5,1.2,1,1.4,2,1l4.3-1.5c2-0.6,2.2-1.6,2.1-4.3l0.5-0.2l1,4.3
		l-14.6,5l-0.2-0.6l0.7-0.2c2.2-0.7,2.3-1.5,1.8-3.2l-4.1-11.6c-0.6-1.6-1.1-2.1-3-1.5l-0.6,0.2l-0.2-0.6l13.3-4.5l1.6,3.7l-0.5,0.2
		c-1.1-2.2-2-2.5-3.1-2.1l-5.8,2l2.3,6.8l4.9-1.7c1-0.4,1.4-1,0.9-2.6l0.6-0.2L168.7,43.3z"/>
	<path d="M179.6,29.1c0.6-0.1,0.9-0.1,1.5-0.2c4.4-0.6,5.9,1.5,6.3,4.1c0.5,3.4-1.6,5-4.7,5.5c-0.6,0.1-1.1,0.1-1.8,0.1L179.6,29.1z
		 M180.9,39.2c0.5,0,0.9,0,1.5-0.1c0.7-0.1,1.2-0.2,2-0.4c0.7,0.4,2,1.1,3.2,2.2l2.1,1.7c3,2.2,4.3,3.2,9.3,2.3l-0.1-0.6
		c-2.2,0.1-4.2-0.7-6-2.2l-2.6-2c-1.6-1.2-2.5-2-3.7-2.6c2.2-1,3.6-3,3.2-5.2c-0.4-3-3.1-4.8-8.4-4.3c-2,0.2-2.5,0.4-3.6,0.6
		c-1.2,0.2-3,0.6-3.6,0.6l0.1,0.6l0.6-0.1c1.7-0.2,2.2,0.2,2.5,2l1.5,12.2c0.2,2-0.4,2.5-2,2.7l-0.5,0.4l0.1,0.6l8.2-1l-0.1-0.6
		l-0.6,0.1c-1.6,0.2-2.3-0.1-2.6-2L180.9,39.2z"/>
	<path d="M203.3,40.8c0.5,2.6,2.3,4.3,4.5,4.4c2,0.1,4.1-0.7,4.3-3.2c0.4-4.2-8.9-6.1-8.5-11.2c0.2-2.3,2.6-4.1,5.5-3.8
		c2.5,0.2,3,1,3.9,1c0.2,0,0.4,0,0.6-0.2h0.5l0.2,3.7H214c-0.6-2.1-2.3-3.6-4.4-3.8c-2-0.1-3.3,0.9-3.4,2.5
		c-0.4,4.2,8.9,5.9,8.5,11.3c-0.2,2.8-3,4.7-6.3,4.4c-1.6-0.1-3.6-1.1-3.9-1.1c-0.2,0-0.5,0.1-0.6,0.2h-0.5l-0.2-4.4L203.3,40.8z"/>
	<path d="M225.5,48.4l-7-1.5l0.1-0.6c1.8,0.4,2.2-0.1,2.7-2l2.7-12.2c0.4-1.6-0.1-2.1-1.7-2.5l0.1-0.6l7,1.5l-0.1,0.6
		c-1.8-0.4-2.5-0.1-3,1.8l-2.6,12.1c-0.4,1.7,0,2.3,2,2.8L225.5,48.4z"/>
	<path d="M240.3,50.7c-0.6,1.5-0.4,2.1,1.4,2.8l1,0.5l-0.2,0.6l-8.5-3.3l0.2-0.6l1,0.5c1.7,0.6,2.3,0.4,3-1.1l5.3-13.4l-4.7-2
		c-1.1-0.5-1.8,0-3.2,2.2l-0.5-0.2l2.1-4.3l0.6,0.2c0,0.2,0,0.4,0.2,0.5c0.1,0.1,0.4,0.2,0.6,0.4l13,5.2c0.4,0.1,0.7,0.2,1-0.1
		l0.6,0.2l-1.4,4.5l-0.5-0.2c0.6-2.6,0.4-3.3-0.7-3.8l-4.7-2L240.3,50.7z"/>
	<path d="M269.8,52.5c1.7-0.7,1.5-1.6-0.1-2.6l0.4-0.5l5.5,3.7l-0.4,0.5c-1.7-1-3-0.7-4.3-0.1l-8.5,4.2l-2.5,3.6
		c-0.9,1.2-0.7,2.1,0.7,3.1l0.4,0.2l-0.4,0.5l-6.6-4.4l0.4-0.5l0.5,0.4c1.5,1,2.3,0.7,3.2-0.5l2.2-3.3l0.2-9.6
		c0.1-2.7-0.2-3.3-1.8-4.4l0.4-0.5l6.4,4.3l-0.4,0.5c-2-1.2-2.3-0.9-2.3,0.6l-0.1,8.5L269.8,52.5z"/>
	<path d="M294,87.2c-3.2,2.5-8,3.2-10.8-0.6c-2.8-3.7-2-9,2.2-12.3c2.8-2.1,7.9-3.3,10.8,0.6C299.2,78.8,298.2,83.9,294,87.2z
		 M296.3,88.8c4.2-3.2,4.3-9.2,1-13.5c-3.8-4.9-9.7-5.9-14.4-2.5c-4.4,3.2-4.4,9.3-0.9,13.9C285.5,91.1,291.6,92.3,296.3,88.8z"/>
	<path d="M302.5,107l-0.2-0.5c1.5-0.7,1.7-1.6,1.1-2.8l-2.3-4.8l-5.8,2.7c-1.5,0.6-2,1.2-0.9,3.2l-0.5,0.2l-3.1-6.4l0.5-0.2
		c0.9,1.6,1.4,1.7,3.4,0.6l10.3-4.9c1.7-0.7,2.3-1.4,1.6-3.2l0.5-0.2l5.7,11.8l-3.2,1.5l-0.2-0.5c1.5-0.7,2-1.6,1.1-3.2l-2.3-4.9
		l-6.1,3l2.5,5.2c0.5,1,1.2,1.2,2.3,0.6l0.2,0.5L302.5,107z"/>
	<path d="M98.7,220.8l10.5-19.3v-0.1l-14.1,9c-1.6,1-1.1,2.3-0.2,3.8l-0.6,0.5l-4.4-6.3l0.6-0.5c1.6,2.2,2.2,2.1,5.2,0.4l12.2-7.7
		c2-1.4,2.6-1.8,1.4-3.7l0.6-0.5l3.2,4.5l-9.8,18.3l20.4-3.8l3.2,4.4l-0.6,0.5c-1.2-1.4-1.7-2-2.6-1.1l-12.9,10.8
		c-2.7,2.2-2.5,2.5-0.9,4.5l-0.6,0.5l-5.7-7.7l0.6-0.5c1,1.5,2.5,2.5,3.9,1.2l12.9-10.7v-0.1l-21.4,4.2L98.7,220.8z"/>
	<path d="M135.5,241l-5.2-3.8l7.6-5.2L135.5,241z M135.1,242.7l-2,7c-0.1,0.4-0.2,1-0.6,1.5c-0.6,0.7-1.4,0.6-3.2-0.6l-0.7-0.6
		l-0.5,0.6l8.2,6l0.5-0.6c-1.5-1.1-2-2-1.4-3.9l5.9-21.2l-2.6-2l-0.2,0.9l-16.4,10.8c-3,2-3.4,2-5.4,0.6l-0.5,0.6l7,5l0.5-0.6
		l-0.5-0.4c-1.7-1.2-2.2-2.1-1.6-3c0.4-0.5,1.4-1,2-1.5l5.2-3.4L135.1,242.7z"/>
	<path d="M159,242.1c0.6,0.1,1.1,0.4,1.8,0.6c5.4,2,5.9,4.9,4.8,8.2c-1.5,4.2-4.5,4.9-8.5,3.6c-0.7-0.4-1.4-0.5-2.1-0.7L159,242.1z
		 M154.6,254.3c0.6,0.2,1,0.5,1.8,0.6c0.9,0.4,1.6,0.5,2.3,0.7c0.6,0.9,1.5,2.3,2.5,4.4l1.5,3.2c2,4.3,3.2,6.1,9.3,8l0.2-0.6
		c-2.7-1.1-4.3-3.2-5.7-5.9l-1.8-3.7c-1-2.2-1.8-3.6-2.7-5c3.2,0.2,5.8-1.4,6.8-4.1c1.2-3.6-0.6-7.3-7.1-9.6c-2.2-0.7-3.1-1-4.4-1.5
		c-1.5-0.5-3.7-1-4.4-1.4l-0.2,0.6l0.7,0.2c2,0.6,2.3,1.6,1.7,3.7l-5.3,14.8c-0.7,2.3-1.8,2.7-3.8,2l-0.6-0.2l-0.2,0.6l9.8,3.4
		l0.2-0.6l-0.7-0.4c-2-0.6-2.6-1.6-2-3.6L154.6,254.3z"/>
	<path d="M196.7,253.4c1.4-2,0.6-2.6-1.7-2.8l0.1-0.6l8.4,0.6l-0.1,0.6c-2.6,0-3.7,0.9-4.9,2.6l-7,9.8l-0.5,5.7
		c-0.1,2,0.5,2.8,2.7,3.1h0.5L194,273l-10.2-0.9l0.1-0.6l0.6,0.1c2.2,0.2,3.1-0.6,3.2-2.5l0.5-5.3l-5.8-10.8
		c-1.6-3.1-2.3-3.6-4.8-3.9l0.1-0.6l9.8,0.7l-0.1,0.6c-3-0.2-3.2,0.5-2.1,2.2l5.2,9.6L196.7,253.4z"/>
	<path d="M227.7,270.2l-16.4,2.8l-0.1-0.6l1.2-0.2c1.7-0.4,2.2-0.9,2-2.8l-2.7-16.2c-0.4-2-1-2.7-3.3-2.2l-0.6,0.1l-0.1-0.6
		l10.8-1.8l0.1,0.6l-1.4,0.2c-2.3,0.5-3,0.7-2.6,3.1l2.8,17c0.1,1,0.6,1.2,1.7,1.1l5.4-0.9c2.1-0.4,2.7-1.4,4.4-4.9l0.6-0.1
		L227.7,270.2z"/>
	<path d="M245.4,251.7l-5.9,2.5l-0.5-9.2L245.4,251.7z M246.7,252.9l4.9,5.3c0.4,0.4,0.7,0.6,1,1.2c0.5,1-0.2,1.5-2.2,2.2l-0.9,0.4
		l0.2,0.6l9.5-3.9l-0.2-0.6c-1.7,0.6-2.6,0.6-4.1-0.9l-15.1-16l-3.1,1.2l0.6,0.6l0.9,19.7c0.1,3.4-0.1,3.9-2.2,4.9l0.2,0.6l8-3.3
		l-0.2-0.6l-0.6,0.2c-2,0.7-3,0.7-3.3-0.1c-0.2-0.5-0.2-1.7-0.2-2.5l-0.2-6.1L246.7,252.9z"/>
	<path d="M286.9,238.6l-27.7-3.2l10.2,12.3c1.7,2,2.5,2.1,4.9,0.1l0.5,0.6l-6.6,5.5l-0.5-0.6l0.1-0.1c1.8-1.5,2-2.6,0.7-3.8
		l-11.7-14.1c-1,0.1-2,0.5-3.1,1.2l-0.5-0.6l4.4-3.7l25.1,3l-9.5-11.4c-1.5-1.8-2.2-1.7-4.5,0.2l-0.5-0.6l6.8-5.5l0.5,0.6
		c-2.1,1.8-2.3,2.6-1.4,3.7l13.3,16L286.9,238.6z"/>
	<path d="M281.5,209.8c0.2-0.5,0.6-1.4,1.5-2.6c2.8-4.4,5.4-5.8,7.7-6.4c3.1-0.6,6,0.4,8.4,1.8c3.2,2.1,4.7,5,5,7
		c0.6,3.2,0.1,5.3-2.6,9.6c-1.6,2.5-2.1,2.2-3.3,1.5L281.5,209.8z M296,222.8c1.8,1.1,1.8,2.2,0.6,3.9l-0.4,0.6l0.6,0.4l6.5-10
		c5.2-7.9,1.8-15.2-3-18.3c-5.2-3.3-11.7-2.3-17.1,5.8c-1,1.6-2.2,3.6-3.2,5.3c-1,1.8-2,3.3-2.7,4.4l0.6,0.4l0.5-0.6
		c1.2-1.8,2-2,4.1-0.7L296,222.8z"/>
	<path d="M80.7,141.8v16c0,0.7,0.1,1,1,1h1.6v0.6h-7v-0.6h1.5c0.9,0,1-0.2,1-1.1V144c-0.9,0.7-2.5,1.8-3.4,2.2l-0.2-0.4
		c1.6-1.1,3.9-3.2,4.4-4.1H80.7L80.7,141.8z"/>
	<path d="M96.6,155.4c0,2.1-1.6,3.8-3.6,3.8c-2.1,0-3.6-1.7-3.6-4.1c0-1.8,0.9-3.2,2.8-4.2C95.3,152.3,96.6,153.5,96.6,155.4z
		 M97.7,145.7c0-2.2-2.2-3.9-4.9-3.9c-2.7,0-4.9,2-4.9,4.4c0,2,1.2,3.2,3.7,4.4c-2.7,1.1-4.1,2.6-4.1,4.4c0,2.5,2.3,4.4,5.4,4.4
		c3.1,0,5.4-2.2,5.4-5c0-2.1-1.2-3.6-4.2-4.8C96.6,148.8,97.7,147.6,97.7,145.7z M96.2,145.7c0,1.6-0.7,2.8-2.2,3.8
		c-3.6-1.5-4.4-2.6-4.4-4.2c0-1.7,1.5-3.2,3.3-3.2C94.7,142.3,96.2,143.7,96.2,145.7z"/>
	<path d="M301.9,143.7h6.5c0.5,0,0.6-0.1,0.7-0.4h0.6l-0.4,2.1h-7l-0.2,4.9c0.9-0.5,1.8-0.6,3-0.6c3.1,0,5.7,2.6,5.7,5.7
		c0,3.3-2.8,5.8-6.5,5.8c-2.2,0-4.1-0.7-4.1-1.7c0-0.5,0.5-0.9,0.9-0.9c1.5,0,2,2,3.7,2c2,0,3.8-2.1,3.8-4.5c0-2.6-1.7-4.4-4.1-4.4
		c-1,0-2.1,0.5-3,1.1l-0.2-0.2L301.9,143.7z"/>
	<path d="M322.8,155.9c0,3.2-1.4,4.8-3.2,4.8c-1.7,0-3.7-1.5-3.7-6.1c0-0.9,0-1.4,0.1-1.7c1.7-1.4,3-1.7,3.6-1.7
		C321.4,151.4,322.8,153.1,322.8,155.9z M323,143.4c-5.8,1.6-9.2,5.7-9.2,10.8c0,4.3,2.3,7.1,5.8,7.1c3,0,5.4-2.5,5.4-5.5
		c0-2.8-2.1-5-4.8-5c-1.4,0-2.5,0.5-3.9,1.6c0.6-4.1,3-6.8,7.1-8.4L323,143.4z"/>
</g>
</svg>
