<?xml version="1.0" encoding="utf-8"?>
<!-- Generator: Adobe Illustrator 21.0.2, SVG Export Plug-In . SVG Version: 6.00 Build 0)  -->
<svg version="1.1" id="Layer_1" xmlns="http://www.w3.org/2000/svg" xmlns:xlink="http://www.w3.org/1999/xlink" x="0px" y="0px"
	 viewBox="0 0 400 300" style="enable-background:new 0 0 400 300;" xml:space="preserve">
<style type="text/css">
	.st0{fill:#E31837;}
	.st1{fill:#FFFFFF;}
	.st2{fill:#ED174C;}
</style>
<g>
	<rect x="75" y="130.7" class="st0" width="250" height="38.4"/>
	<path class="st1" d="M295.2,153.9c1,4.1,4.6,5.8,8.5,5.8c3.9,0,8.5-1.8,8.5-6.3c0-2-1-3.8-2.8-4.8c-1.6-0.9-3.5-1.2-5.4-1.5
		c-0.8-0.1-2.1-0.3-2.1-1.4s1.1-1.2,1.8-1.2c1.4,0,2.5,0.5,3.1,1.9l4.8-1.4c-1.2-3.3-4.4-4.6-7.6-4.6c-1.9,0-3.9,0.3-5.5,1.4
		c-1.5,1.1-2.5,2.9-2.5,4.8c0,4.5,4.2,5.5,7.8,6.1c0.9,0.1,2.3,0.4,2.3,1.6c0,1-1.5,1.2-2.3,1.2c-1.7,0-2.9-0.6-3.5-2.3L295.2,153.9
		"/>
	<polyline class="st1" points="289.4,140.4 281.8,140.4 279.2,150.5 276.5,140.4 268.9,140.4 268.9,159.3 273.3,159.3 273.3,145.8 
		276.9,159.3 280.6,159.3 284,145.8 284,159.3 289.4,159.3 289.4,140.4 	"/>
	<polyline class="st1" points="261.7,154.8 253.2,154.8 253.2,151.8 260.1,151.8 260.1,147.5 253.2,147.5 253.2,144.7 261.7,144.7 
		261.7,140.4 247.5,140.4 247.5,159.3 261.7,159.3 261.7,154.8 	"/>
	<polyline class="st1" points="237.2,144.9 241.1,144.9 241.1,140.4 227.7,140.4 227.7,144.9 231.7,144.9 231.7,159.3 237.2,159.3 
		237.2,144.9 	"/>
	<path class="st1" d="M205.5,153.9c1,4.1,4.6,5.8,8.5,5.8c3.9,0,8.5-1.8,8.5-6.3c0-2-1-3.8-2.8-4.8c-1.6-0.9-3.5-1.2-5.4-1.5
		c-0.7-0.1-2.1-0.3-2.1-1.4s1.1-1.2,1.9-1.2c1.4,0,2.5,0.5,3.1,1.9l4.8-1.4c-1.2-3.3-4.4-4.6-7.6-4.6c-1.8,0-3.9,0.3-5.5,1.4
		c-1.5,1.1-2.5,2.9-2.5,4.8c0,4.5,4.2,5.5,7.8,6.1c0.9,0.1,2.3,0.4,2.3,1.6c0,1-1.5,1.2-2.3,1.2c-1.7,0-2.9-0.6-3.5-2.3L205.5,153.9
		"/>
	<polyline class="st1" points="202.2,140.4 197.1,140.4 193.9,146.6 190.6,140.4 184.2,140.4 190.6,151.3 190.6,159.3 196.2,159.3 
		196.2,151.3 202.2,140.4 	"/>
	<path class="st1" d="M163.3,153.9c1,4.1,4.6,5.8,8.5,5.8c3.9,0,8.5-1.8,8.5-6.3c0-2-1-3.8-2.8-4.8c-1.6-0.9-3.5-1.2-5.4-1.5
		c-0.8-0.1-2.1-0.3-2.1-1.4s1.1-1.2,1.8-1.2c1.4,0,2.5,0.5,3.1,1.9l4.8-1.4c-1.2-3.3-4.4-4.6-7.6-4.6c-1.8,0-3.9,0.3-5.5,1.4
		c-1.5,1.1-2.5,2.9-2.5,4.8c0,4.5,4.2,5.5,7.8,6.1c0.9,0.1,2.3,0.4,2.3,1.6c0,1-1.5,1.2-2.3,1.2c-1.7,0-2.9-0.6-3.5-2.3L163.3,153.9
		"/>
	<polyline class="st1" points="148.7,154.8 140.2,154.8 140.2,151.8 147.2,151.8 147.2,147.5 140.2,147.5 140.2,144.7 148.7,144.7 
		148.7,140.4 134.5,140.4 134.5,159.3 148.7,159.3 148.7,154.8 	"/>
	<polyline class="st1" points="122.4,159.3 128.4,159.3 122.4,140.4 116.3,140.4 110.4,159.3 115.1,159.3 116.3,155.7 121.4,155.7 
		122.4,159.3 	"/>
	<path class="st1" d="M89.3,159.3h8.7c1.7,0,3.8,0,5.2-1.1c1.4-1,1.9-2.8,1.9-4.4c0-2.3-1.5-3.9-3.7-4.3c1.9-0.5,3.2-2.2,3.2-4.2
		c0-1.6-0.8-3.1-2-4c-1.2-0.9-2.7-1-4.1-1h-9.2V159.3"/>
	<polyline class="st2" points="117.3,151.5 118.8,146 120.4,151.5 117.3,151.5 	"/>
	<path class="st2" d="M94.7,147.7v-3.2h2.3c1.1,0,2.3,0.2,2.3,1.6c0,0.4-0.2,0.9-0.5,1.2c-0.4,0.4-1.1,0.3-1.6,0.3L94.7,147.7"/>
	<path class="st2" d="M94.7,155.1v-3.4h2.3c0.5,0,1.2,0,1.7,0.3c0.5,0.3,0.9,0.9,0.9,1.5c0,0.5-0.3,1-0.7,1.3
		c-0.5,0.4-1.1,0.3-1.7,0.3L94.7,155.1"/>
</g>
</svg>
