<?xml version="1.0" encoding="utf-8"?>
<!-- Generator: Adobe Illustrator 21.0.2, SVG Export Plug-In . SVG Version: 6.00 Build 0)  -->
<svg version="1.1" id="Layer_1" xmlns="http://www.w3.org/2000/svg" xmlns:xlink="http://www.w3.org/1999/xlink" x="0px" y="0px"
	 viewBox="0 0 400 300" style="enable-background:new 0 0 400 300;" xml:space="preserve">
<style type="text/css">
	.st0{fill:#E02127;}
</style>
<g>
	<g>
		<path class="st0" d="M91.2,215.9c-0.2-2.6-0.2-5.7-0.2-8h-0.1c-0.6,2.2-1.4,4.5-2.3,7l-3.2,8.9h-1.7l-3-8.8
			c-0.9-2.7-1.6-5-2.2-7.2h-0.1c-0.1,2.3-0.2,5.4-0.3,8.2l-0.5,8H75l1.3-18.5h3l3.2,8.9c0.8,2.3,1.4,4.3,1.8,6.2h0.1
			c0.5-1.8,1.2-3.9,1.9-6.2l3.2-8.9h3l1.2,18.5h-2.4L91.2,215.9z"/>
		<path class="st0" d="M107.2,220.9c0,1.2,0.1,2.3,0.2,3.2h-2.2l-0.2-1.7H105c-0.7,1.1-2.2,1.9-4.1,1.9c-2.7,0-4.1-1.8-4.1-3.8
			c0-3.2,2.8-5,8-5v-0.2c0-1.1-0.2-3.1-3-3c-1.2,0-2.6,0.3-3.4,1l-0.5-1.6c1.1-0.7,2.7-1.2,4.4-1.2c4.1,0,5.1,2.7,5.1,5.4v5H107.2z
			 M105,217.4c-2.7-0.1-5.7,0.4-5.7,3c0,1.6,1.1,2.3,2.2,2.3c1.7,0,2.9-1.1,3.2-2.2c0.1-0.2,0.1-0.5,0.1-0.8L105,217.4L105,217.4
			L105,217.4z"/>
		<path class="st0" d="M111.5,215c0-1.6,0-2.9-0.1-4.2h2.2l0.1,2.7h0.1c0.6-1.7,2.2-2.9,3.7-2.9c0.2,0,0.4,0,0.6,0.1v2.3
			c-0.2-0.1-0.5-0.1-0.8-0.1c-1.7,0-2.9,1.2-3.2,3.1c-0.1,0.3-0.1,0.7-0.1,1.2v7.1h-2.4C111.5,224.2,111.5,215,111.5,215z"/>
		<path class="st0" d="M122.3,210.8l2.9,7.9c0.3,0.9,0.6,1.9,0.9,2.7h0.1c0.2-0.8,0.5-1.7,0.9-2.7l2.7-7.8h2.6l-3.7,9.5
			c-1.7,4.5-2.9,6.9-4.5,8.3c-1.2,1-2.4,1.4-2.9,1.5l-0.6-2c0.6-0.2,1.4-0.6,2.2-1.2c0.6-0.5,1.4-1.4,2-2.7c0.1-0.2,0.2-0.4,0.2-0.6
			c0-0.2-0.1-0.3-0.2-0.6L120,211h2.4L122.3,210.8L122.3,210.8z"/>
		<path class="st0" d="M134.6,204.6h2.4v19.5h-2.4V204.6z"/>
		<path class="st0" d="M150.8,220.9c0,1.2,0.1,2.3,0.2,3.2h-2.2l-0.2-1.7h-0.2c-0.7,1.1-2.2,1.9-4.1,1.9c-2.7,0-4.1-1.8-4.1-3.8
			c0-3.2,2.8-5,8-5v-0.2c0-1.1-0.2-3.1-3-3c-1.2,0-2.6,0.3-3.4,1l-0.5-1.6c1.1-0.7,2.7-1.2,4.4-1.2c4.1,0,5.1,2.7,5.1,5.4
			L150.8,220.9L150.8,220.9z M148.4,217.4c-2.7-0.1-5.7,0.4-5.7,3c0,1.6,1.1,2.3,2.2,2.3c1.7,0,2.9-1.1,3.2-2.2
			c0.1-0.2,0.1-0.5,0.1-0.8L148.4,217.4L148.4,217.4L148.4,217.4z"/>
		<path class="st0" d="M155,214.4c0-1.4,0-2.5-0.1-3.7h2.2l0.2,2.2h0.1c0.6-1.2,2.2-2.5,4.4-2.5c1.8,0,4.7,1.1,4.7,5.7v7.9H164v-7.6
			c0-2.2-0.8-3.9-3.1-3.9c-1.6,0-2.8,1.2-3.2,2.5c-0.1,0.2-0.2,0.7-0.2,1.2v8h-2.4L155,214.4L155,214.4L155,214.4z"/>
		<path class="st0" d="M181.9,204.6v16.1c0,1.2,0.1,2.6,0.1,3.4h-2.2l-0.1-2.3h-0.1c-0.7,1.5-2.3,2.6-4.5,2.6
			c-3.2,0-5.7-2.7-5.7-6.7c0-4.4,2.7-7.1,5.9-7.1c2,0,3.3,1,4,2h0.1v-8L181.9,204.6L181.9,204.6z M179.5,216.2c0-0.2,0-0.7-0.1-1
			c-0.3-1.5-1.7-2.7-3.4-2.7c-2.5,0-4,2.2-4,5.2c0,2.7,1.3,5,3.9,5c1.6,0,3.1-1.1,3.6-2.9c0.1-0.3,0.1-0.6,0.1-1.1L179.5,216.2
			L179.5,216.2z"/>
		<path class="st0" d="M194.8,207.6h-5.7v-2h13.7v2h-5.7v16.5h-2.4V207.6z"/>
		<path class="st0" d="M204.5,217.9c0.1,3.2,2.2,4.6,4.5,4.6c1.7,0,2.8-0.2,3.7-0.7l0.4,1.7c-0.9,0.3-2.3,0.9-4.4,0.9
			c-4.1,0-6.6-2.7-6.6-6.7s2.4-7.2,6.2-7.2c4.3,0,5.5,3.8,5.5,6.2c0,0.5,0,0.9-0.1,1.2L204.5,217.9L204.5,217.9z M211.6,216.2
			c0-1.5-0.6-3.9-3.3-3.9c-2.5,0-3.6,2.2-3.7,3.9H211.6z"/>
		<path class="st0" d="M226.7,223.6c-0.6,0.2-2,0.8-3.8,0.8c-4,0-6.7-2.7-6.7-6.8s2.8-7.1,7.2-7.1c1.4,0,2.7,0.3,3.3,0.7l-0.5,1.8
			c-0.6-0.2-1.5-0.6-2.8-0.6c-3,0-4.7,2.3-4.7,5.1c0,3.1,1.9,5,4.6,5c1.4,0,2.3-0.3,2.9-0.6L226.7,223.6z"/>
		<path class="st0" d="M229.9,204.6h2.4v8.3h0.1c0.3-0.7,1-1.3,1.7-1.7c0.7-0.4,1.6-0.6,2.5-0.6c1.7,0,4.6,1.1,4.6,5.7v7.9h-2.4
			v-7.6c0-2.2-0.8-3.9-3.1-3.9c-1.6,0-2.7,1.1-3.2,2.4c-0.2,0.3-0.2,0.7-0.2,1.2v8.1h-2.4L229.9,204.6L229.9,204.6z"/>
		<path class="st0" d="M245.4,214.4c0-1.4,0-2.5-0.1-3.7h2.2l0.2,2.2h0.1c0.6-1.2,2.2-2.5,4.4-2.5c1.8,0,4.7,1.1,4.7,5.7v7.9h-2.4
			v-7.6c0-2.2-0.8-3.9-3.1-3.9c-1.6,0-2.8,1.2-3.2,2.5c-0.1,0.2-0.2,0.7-0.2,1.2v8h-2.4L245.4,214.4L245.4,214.4L245.4,214.4z"/>
		<path class="st0" d="M272.9,217.4c0,5-3.4,7.1-6.7,7.1c-3.6,0-6.4-2.7-6.4-6.8c0-4.4,2.9-7,6.6-7
			C270.4,210.6,272.9,213.3,272.9,217.4z M262.4,217.6c0,2.9,1.7,5.2,4,5.2s4.1-2.2,4.1-5.2c0-2.2-1.2-5.1-4-5.1
			C263.6,212.4,262.4,215,262.4,217.6z"/>
		<path class="st0" d="M276.3,204.6h2.4v19.5h-2.4V204.6z"/>
		<path class="st0" d="M295,217.4c0,5-3.4,7.1-6.7,7.1c-3.6,0-6.4-2.7-6.4-6.8c0-4.4,2.9-7,6.6-7C292.5,210.6,295,213.3,295,217.4z
			 M284.5,217.6c0,2.9,1.7,5.2,4,5.2c2.3,0,4.1-2.2,4.1-5.2c0-2.2-1.2-5.1-4-5.1C285.8,212.4,284.5,215,284.5,217.6z"/>
		<path class="st0" d="M309.8,222.1c0,3.1-0.6,5-1.8,6.1c-1.3,1.2-3.2,1.6-4.9,1.6c-1.6,0-3.3-0.3-4.4-1.1l0.6-1.8
			c0.9,0.6,2.2,1.1,3.9,1.1c2.5,0,4.2-1.3,4.2-4.7v-1.4h-0.1c-0.7,1.2-2.2,2.2-4.2,2.2c-3.2,0-5.7-2.8-5.7-6.5c0-4.5,2.9-7,6-7
			c2.3,0,3.6,1.2,4.2,2.3h0.1l0.1-2h2.2c-0.1,1-0.1,2-0.1,3.7L309.8,222.1L309.8,222.1z M307.3,216.1c0-0.4,0-0.8-0.2-1.1
			c-0.4-1.4-1.6-2.6-3.3-2.6c-2.3,0-4,1.9-4,5.1c0,2.6,1.3,4.7,3.9,4.7c1.5,0,2.8-1,3.3-2.5c0.2-0.4,0.2-0.9,0.2-1.3L307.3,216.1
			L307.3,216.1L307.3,216.1z"/>
		<path class="st0" d="M314.9,210.8l2.9,7.9c0.3,0.9,0.6,1.9,0.9,2.7h0.1c0.2-0.8,0.5-1.7,0.9-2.7l2.7-7.8h2.6l-3.7,9.5
			c-1.7,4.5-2.9,6.9-4.5,8.3c-1.2,1-2.4,1.4-2.9,1.5l-0.6-2c0.6-0.2,1.4-0.6,2.2-1.2c0.6-0.5,1.4-1.4,2-2.7c0.1-0.2,0.2-0.4,0.2-0.6
			c0-0.2-0.1-0.3-0.2-0.6l-4.9-12.2h2.4L314.9,210.8L314.9,210.8z"/>
		<path class="st0" d="M99.5,242.9h-7.2v6.7h8.1v2H89.9v-18.5h10v2h-7.6v5.8h7.2C99.5,240.9,99.5,242.9,99.5,242.9z"/>
		<path class="st0" d="M103.7,241.9c0-1.4,0-2.5-0.1-3.7h2.2l0.2,2.2h0.1c0.6-1.2,2.2-2.5,4.4-2.5c1.8,0,4.7,1.1,4.7,5.7v7.9h-2.4
			V244c0-2.2-0.8-3.9-3.1-3.9c-1.6,0-2.8,1.2-3.2,2.5c-0.1,0.2-0.2,0.7-0.2,1.2v8h-2.4L103.7,241.9L103.7,241.9L103.7,241.9z"/>
		<path class="st0" d="M121.9,235.1v3.2h3.4v1.8h-3.4v7.2c0,1.7,0.4,2.6,1.7,2.6c0.6,0,1.1-0.1,1.4-0.2l0.1,1.8
			c-0.4,0.2-1.2,0.3-2.2,0.3c-1.2,0-2-0.3-2.6-1c-0.6-0.7-1-1.9-1-3.4v-7.2h-1.9v-1.8h2v-2.5L121.9,235.1z"/>
		<path class="st0" d="M129.6,245.4c0.1,3.2,2.2,4.6,4.5,4.6c1.7,0,2.8-0.2,3.7-0.7l0.4,1.7c-0.9,0.3-2.3,0.9-4.4,0.9
			c-4.1,0-6.6-2.7-6.6-6.7c0-4,2.4-7.2,6.2-7.2c4.3,0,5.5,3.8,5.5,6.2c0,0.5,0,0.9-0.1,1.2L129.6,245.4L129.6,245.4z M136.6,243.6
			c0-1.5-0.6-3.9-3.3-3.9c-2.5,0-3.6,2.2-3.7,3.9H136.6z"/>
		<path class="st0" d="M142.2,242.5c0-1.6,0-2.9-0.1-4.2h2.2l0.1,2.7h0.1c0.6-1.7,2.2-2.9,3.7-2.9c0.2,0,0.4,0,0.6,0.1v2.3
			c-0.2-0.1-0.5-0.1-0.8-0.1c-1.7,0-2.9,1.2-3.2,3.1c-0.1,0.3-0.1,0.7-0.1,1.2v7.1h-2.4L142.2,242.5L142.2,242.5z"/>
		<path class="st0" d="M151.6,242.6c0-1.7-0.1-3.1-0.1-4.3h2.2l0.2,2.3h0.1c1-1.6,2.6-2.6,4.7-2.6c3.2,0,5.7,2.7,5.7,6.7
			c0,4.7-2.9,7.2-6.1,7.2c-1.7,0-3.2-0.8-4.1-2.2h-0.1v7.2h-2.4V242.6L151.6,242.6z M154.1,246.1c0,0.3,0,0.7,0.1,1
			c0.4,1.7,1.8,2.8,3.7,2.8c2.6,0,4.1-2.2,4.1-5.2c0-2.7-1.4-5-4-5c-1.7,0-3.2,1.2-3.7,2.9c-0.1,0.2-0.2,0.6-0.2,1V246.1
			L154.1,246.1z"/>
		<path class="st0" d="M167.6,242.5c0-1.6,0-2.9-0.1-4.2h2.2l0.1,2.7h0.1c0.6-1.7,2.2-2.9,3.7-2.9c0.2,0,0.4,0,0.6,0.1v2.3
			c-0.2-0.1-0.5-0.1-0.8-0.1c-1.7,0-2.9,1.2-3.2,3.1c-0.1,0.3-0.1,0.7-0.1,1.2v7.1h-2.4L167.6,242.5L167.6,242.5z"/>
		<path class="st0" d="M179.5,234.6c0,0.8-0.6,1.5-1.5,1.5s-1.4-0.6-1.4-1.5c0-0.9,0.6-1.5,1.5-1.5
			C179,233.1,179.5,233.6,179.5,234.6z M176.9,251.5v-13.3h2.4v13.3H176.9z"/>
		<path class="st0" d="M183.3,249.1c0.7,0.4,2,1,3.2,1c1.7,0,2.6-0.9,2.6-1.9c0-1.2-0.7-1.7-2.5-2.4c-2.4-0.9-3.6-2.2-3.6-3.7
			c0-2.2,1.7-3.9,4.6-3.9c1.3,0,2.6,0.3,3.2,0.8l-0.6,1.7c-0.5-0.3-1.5-0.8-2.7-0.8c-1.4,0-2.2,0.8-2.2,1.7c0,1.1,0.8,1.6,2.5,2.3
			c2.3,0.9,3.4,2,3.4,4c0,2.4-1.8,4-5,4c-1.4,0-2.8-0.3-3.7-1L183.3,249.1z"/>
		<path class="st0" d="M196.1,245.4c0.1,3.2,2.2,4.6,4.5,4.6c1.7,0,2.8-0.2,3.7-0.7l0.4,1.7c-0.9,0.3-2.3,0.9-4.4,0.9
			c-4.1,0-6.6-2.7-6.6-6.7c0-4,2.4-7.2,6.2-7.2c4.3,0,5.5,3.8,5.5,6.2c0,0.5,0,0.9-0.1,1.2L196.1,245.4L196.1,245.4z M203.2,243.6
			c0-1.5-0.6-3.9-3.3-3.9c-2.5,0-3.6,2.2-3.7,3.9H203.2z"/>
		<path class="st0" d="M217.5,233.1v18.5H215v-18.5H217.5L217.5,233.1z"/>
		<path class="st0" d="M222,241.9c0-1.4,0-2.5-0.1-3.7h2.2l0.2,2.2h0.1c0.6-1.2,2.2-2.5,4.4-2.5c1.8,0,4.7,1.1,4.7,5.7v7.9H231V244
			c0-2.2-0.8-3.9-3.1-3.9c-1.6,0-2.8,1.2-3.2,2.5c-0.1,0.2-0.2,0.7-0.2,1.2v8H222L222,241.9L222,241.9z"/>
		<path class="st0" d="M237.3,249.1c0.7,0.4,2,1,3.2,1c1.7,0,2.6-0.9,2.6-1.9c0-1.2-0.7-1.7-2.5-2.4c-2.4-0.9-3.6-2.2-3.6-3.7
			c0-2.2,1.7-3.9,4.6-3.9c1.3,0,2.6,0.3,3.2,0.8l-0.6,1.7c-0.5-0.3-1.5-0.8-2.7-0.8c-1.4,0-2.2,0.8-2.2,1.7c0,1.1,0.8,1.6,2.5,2.3
			c2.3,0.9,3.4,2,3.4,4c0,2.4-1.8,4-5,4c-1.4,0-2.8-0.3-3.7-1L237.3,249.1z"/>
		<path class="st0" d="M251.6,235.1v3.2h3.4v1.8h-3.4v7.2c0,1.7,0.4,2.6,1.7,2.6c0.6,0,1.1-0.1,1.4-0.2l0.1,1.8
			c-0.4,0.2-1.2,0.3-2.2,0.3c-1.2,0-2-0.3-2.6-1c-0.6-0.7-1-1.9-1-3.4v-7.2h-2v-1.8h2v-2.5L251.6,235.1z"/>
		<path class="st0" d="M260.8,234.6c0,0.8-0.6,1.5-1.5,1.5c-0.9,0-1.4-0.6-1.4-1.5c0-0.9,0.6-1.5,1.5-1.5
			C260.2,233.1,260.8,233.6,260.8,234.6z M258.1,251.5v-13.3h2.4v13.3H258.1z"/>
		<path class="st0" d="M267.7,235.1v3.2h3.4v1.8h-3.4v7.2c0,1.7,0.4,2.6,1.7,2.6c0.6,0,1.1-0.1,1.4-0.2l0.1,1.8
			c-0.4,0.2-1.2,0.3-2.2,0.3c-1.2,0-2-0.3-2.6-1c-0.6-0.7-1-1.9-1-3.4v-7.2h-1.9v-1.8h2v-2.5L267.7,235.1z"/>
		<path class="st0" d="M285.3,248c0,1.4,0,2.6,0.1,3.7h-2.1l-0.2-2.2H283c-0.6,1.1-2,2.5-4.4,2.5c-2.2,0-4.6-1.2-4.6-5.8v-7.8h2.4
			v7.3c0,2.6,0.8,4.2,2.9,4.2c1.6,0,2.7-1.2,3.2-2.2c0.2-0.3,0.2-0.8,0.2-1.2v-8.2h2.4v9.7L285.3,248L285.3,248z"/>
		<path class="st0" d="M292.5,235.1v3.2h3.4v1.8h-3.4v7.2c0,1.7,0.4,2.6,1.7,2.6c0.6,0,1.1-0.1,1.4-0.2l0.1,1.8
			c-0.4,0.2-1.2,0.3-2.2,0.3c-1.2,0-2-0.3-2.6-1c-0.6-0.7-1-1.9-1-3.4v-7.2h-2v-1.8h2v-2.5L292.5,235.1z"/>
		<path class="st0" d="M300.1,245.4c0.1,3.2,2.2,4.6,4.5,4.6c1.7,0,2.8-0.2,3.7-0.7l0.4,1.7c-0.9,0.3-2.3,0.9-4.4,0.9
			c-4.1,0-6.6-2.7-6.6-6.7c0-4,2.4-7.2,6.2-7.2c4.3,0,5.5,3.8,5.5,6.2c0,0.5,0,0.9-0.1,1.2L300.1,245.4L300.1,245.4z M307.2,243.6
			c0-1.5-0.6-3.9-3.3-3.9c-2.5,0-3.6,2.2-3.7,3.9H307.2z"/>
	</g>
	<g>
		<g>
			<g>
				<path class="st0" d="M220,45.5c5.8,4.2,11,9.1,15,14.8c3.1-5.2,5.2-11.2,5.8-17.2h-19.2L220,45.5z"/>
				<path class="st0" d="M216.5,51.1L199,78.6L176.8,43h-32v65.4c4.5,0.2,9.2-0.1,13.7-0.6c5.6-0.7,11.1-1.8,16.5-3.4V91.4
					c0,0,3,4.6,6.9,10.6c7.1-2.7,13.9-6.1,20.3-10.2c10.8-6.8,21.4-15.6,29.2-26C227.4,60,222.2,55.2,216.5,51.1z"/>
				<path class="st0" d="M244.3,43c-1.5,5-3.8,9.8-6.3,14.4c-0.7,1.3-1.5,2.6-2.2,3.8c1.8,2.8,3.6,5.9,4.7,9.2
					c7.8,19.8-1.7,41.2-16.6,55.1c-0.2,0.2-0.5,0.4-0.8,0.7v1.8h30.7V43H244.3z"/>
				<path class="st0" d="M233.8,112.3c5.8-8.1,7.6-19.1,5.7-28.7c-1.2-6.2-3.8-11.7-7.2-16.8c-11.7,17.2-27.8,31.7-46.7,40.6
					c6.5,9.8,13.7,20.7,13.7,20.7l24-36.7v31.9C227.2,120,230.8,116.4,233.8,112.3z"/>
				<path class="st0" d="M144.8,117.5v10.6H175v-16.2c-2.2,0.7-4.2,1.4-6.4,2C160.8,116.1,152.8,117.2,144.8,117.5z"/>
			</g>
			<g>
				<path class="st0" d="M157,140.3v7.7h7.2v5.7H157v13.3c0,3.7,1,5.6,3.9,5.6c1.3,0,2.2-0.1,2.9-0.2l0.1,5.7
					c-1.2,0.4-3.2,0.8-5.5,0.8c-2.8,0-5.2-0.9-6.6-2.5c-1.7-1.7-2.4-4.5-2.4-8.5v-14.2h-4.2v-5.7h4.2v-5.7L157,140.3z"/>
				<path class="st0" d="M174.1,165.2c0.2,5.4,4.4,7.8,9.3,7.8c3.6,0,6-0.5,8.3-1.3l1.2,5.2c-2.6,1.2-6.2,1.9-10.6,1.9
					c-9.7,0-15.5-6-15.5-15.2c0-8.3,5.1-16.2,14.7-16.2c9.7,0,13,8.1,13,14.7c0,1.4-0.1,2.6-0.2,3.2H174.1z M187.3,159.9
					c0.1-2.7-1.2-7.3-6.2-7.3c-4.7,0-6.7,4.2-7,7.3H187.3z"/>
				<path class="st0" d="M222.4,177.3c-1.6,0.7-4.7,1.5-8.5,1.5c-9.4,0-15.5-6-15.5-15.4c0-9.1,6.2-16.1,16.7-16.1
					c2.7,0,5.6,0.6,7.3,1.3l-1.3,5.7c-1.2-0.6-3-1.2-5.7-1.2c-5.8,0-9.3,4.2-9.2,9.7c0,6.2,4,9.7,9.2,9.7c2.6,0,4.5-0.5,6-1.2
					L222.4,177.3z"/>
				<path class="st0" d="M227.2,134.3h7.6v17.9h0.1c0.9-1.4,2.2-2.6,3.8-3.3c1.5-0.9,3.3-1.3,5.2-1.3c5.2,0,10.6,3.3,10.6,13v17.7
					h-7.6v-16.9c0-4.3-1.6-7.7-5.8-7.7c-2.9,0-5.1,1.9-5.9,4.2c-0.2,0.7-0.2,1.5-0.2,2.3v18.1h-7.6L227.2,134.3L227.2,134.3z"/>
			</g>
		</g>
		<rect x="144.9" y="187.3" class="st0" width="108.9" height="2.2"/>
	</g>
</g>
</svg>
