<?xml version="1.0" encoding="utf-8"?>
<!-- Generator: Adobe Illustrator 21.0.2, SVG Export Plug-In . SVG Version: 6.00 Build 0)  -->
<svg version="1.1" id="Assets" xmlns="http://www.w3.org/2000/svg" xmlns:xlink="http://www.w3.org/1999/xlink" x="0px" y="0px"
	 viewBox="0 0 400 300" style="enable-background:new 0 0 400 300;" xml:space="preserve">
<g>
	<path d="M114.3,125.2V154c0,9.6-4.3,13.6-14.2,13.6S86,163.6,86,154v-30.1h-9.8c-0.8,0-1.3,0.4-1.3,1.3v29.3
		c0,16.1,10.3,21.7,25.1,21.7s25.1-5.6,25.1-21.7v-30.5h-9.6C114.8,124,114.3,124.4,114.3,125.2z"/>
	<path d="M253.6,132.3c0.8,0,1.1-0.3,1.4-0.8l2.8-6.9c0.2-0.4,0-0.6-0.4-0.6h-38.7c-3.6,0-5,1.1-5,3.6v44.7c0,2.1,1.1,3.1,3.8,3.1
		h36c0.8,0,1.1-0.3,1.4-0.8l2.8-6.9c0.2-0.4,0-0.6-0.4-0.6h-33.1v-9.1c0-3.2,1.8-4.6,6.4-4.6H245c0.8,0,1.1-0.3,1.4-0.8l2.7-6.6
		c0.2-0.4,0-0.6-0.4-0.6h-24.3v-12.8h29.3L253.6,132.3L253.6,132.3z"/>
	<path d="M185.5,148.2c4.2-2.2,5.9-6.3,5.9-11.3c0-11.3-9.3-13-18.8-13h-21.8c-3.6,0-5,1.1-5,3.6v44.7c0,2.1,1.1,3.1,3.8,3.1h26.8
		c10.1,0,17.3-4,17.3-14.2C193.9,154.9,191.3,149.8,185.5,148.2z M156.5,132.2h17c5.7,0,7.3,2.2,7.3,6.6s-1.6,6.6-7.3,6.6h-17V132.2
		z M175.4,167.1h-19v-9.4c0-3.2,1.8-4.6,6.4-4.6h12.6c6.1,0,7.7,2.3,7.7,7C183.1,164.8,181.5,167.1,175.4,167.1z"/>
	<path d="M324.8,174.4l-11.5-19.8c5.8-1.5,10.3-5.3,10.3-14.9c0-12.4-7.7-15.8-20.5-15.8h-21.9c-3.6,0-5,1.1-5,3.6V174
		c0,0.8,0.4,1.3,1.3,1.3h9.4v-14.9c0-3.2,1.8-4.6,6.4-4.6h9.4l10.4,18.7c0.3,0.5,0.6,0.8,1.4,0.8h9.8
		C325.1,175.3,325.1,174.7,324.8,174.4z M304.8,147.7H287v-15.6h17.8c6.7,0,8.2,2.6,8.2,7.8C312.9,145.2,311.5,147.7,304.8,147.7z"
		/>
</g>
</svg>
