<?xml version="1.0" encoding="utf-8"?>
<!-- Generator: Adobe Illustrator 21.0.2, SVG Export Plug-In . SVG Version: 6.00 Build 0)  -->
<svg version="1.1" id="Layer_2" xmlns="http://www.w3.org/2000/svg" xmlns:xlink="http://www.w3.org/1999/xlink" x="0px" y="0px"
	 viewBox="0 0 400 300" style="enable-background:new 0 0 400 300;" xml:space="preserve">
<style type="text/css">
	.st0{fill-rule:evenodd;clip-rule:evenodd;fill:#FF9900;}
	.st1{fill:none;stroke:#000000;}
	.st2{fill-rule:evenodd;clip-rule:evenodd;}
</style>
<g>
	<g>
		<polygon class="st0" points="107.2,194.6 92.5,189.3 92.5,167.8 107.2,172.8 		"/>
		<polygon class="st0" points="109.9,194.6 124.6,189.3 124.6,167.8 109.9,172.8 		"/>
		<polygon class="st0" points="94,166.2 108.9,162 122.7,166.4 108.9,171.1 		"/>
		<polygon class="st0" points="89.7,164.5 75,159.2 75,137.7 89.7,142.7 		"/>
		<polygon class="st0" points="92.4,164.5 107.1,159.2 107.1,137.7 92.4,142.7 		"/>
		<polygon class="st0" points="76.5,136.1 91.4,131.9 105.2,136.3 91.4,141 		"/>
		<polygon class="st0" points="124,164.5 109.3,159.2 109.3,137.7 124,142.7 		"/>
		<polygon class="st0" points="126.7,164.5 141.4,159.2 141.4,137.7 126.7,142.7 		"/>
		<polygon class="st0" points="110.8,136.1 125.7,131.9 139.5,136.3 125.7,141 		"/>
		<polygon class="st0" points="141.5,134.4 126.8,129.1 126.8,107.6 141.5,112.6 		"/>
		<polygon class="st0" points="144.2,134.4 158.9,129.1 158.9,107.6 144.2,112.6 		"/>
		<polygon class="st0" points="128.3,106 143.2,101.8 157,106.2 143.2,110.9 		"/>
		<polygon class="st0" points="175.8,134.4 161.1,129.1 161.1,107.6 175.8,112.6 		"/>
		<polygon class="st0" points="178.5,134.4 193.2,129.1 193.2,107.6 178.5,112.6 		"/>
		<polygon class="st0" points="162.6,106 177.5,101.8 191.3,106.2 177.5,110.9 		"/>
		<polygon points="168.3,180.6 163.4,197.7 161.2,197.7 157.4,185 153.9,197.7 151.7,197.7 146.5,180.6 149.2,180.6 152.9,193.4 
			156.5,180.6 158.4,180.6 162.3,193.4 166.1,180.6 		"/>
		<polygon class="st1" points="168.3,180.6 163.4,197.7 161.2,197.7 157.4,185 153.9,197.7 151.7,197.7 146.5,180.6 149.2,180.6 
			152.9,193.4 156.5,180.6 158.4,180.6 162.3,193.4 166.1,180.6 		"/>
		<g>
			<path d="M182,192.6l2.5,0.5c-0.5,1.5-1.3,2.7-2.6,3.6c-1.3,1-2.9,1.4-4.6,1.4c-2.3,0-4.2-0.8-5.7-2.5c-1.4-1.6-2.2-3.8-2.2-6.5
				c0-2.7,0.8-4.9,2.3-6.6c1.5-1.7,3.4-2.5,5.7-2.5c2.2,0,4,0.8,5.4,2.3c1.4,1.6,2.1,3.9,2.1,7h-12.4c0,2.6,0.5,4.3,1.6,5.2
				c1.1,0.9,2.2,1.4,3.4,1.4C179.5,196,181.1,194.9,182,192.6 M181.8,187.4c0-1-0.2-1.8-0.5-2.6c-0.3-0.7-0.8-1.4-1.5-1.9
				c-0.7-0.5-1.5-0.8-2.5-0.8c-1.3,0-2.4,0.5-3.4,1.4c-0.9,1-1.4,2.2-1.6,3.8H181.8z"/>
			<path class="st1" d="M182,192.6l2.5,0.5c-0.5,1.5-1.3,2.7-2.6,3.6c-1.3,1-2.9,1.4-4.6,1.4c-2.3,0-4.2-0.8-5.7-2.5
				c-1.4-1.6-2.2-3.8-2.2-6.5c0-2.7,0.8-4.9,2.3-6.6c1.5-1.7,3.4-2.5,5.7-2.5c2.2,0,4,0.8,5.4,2.3c1.4,1.6,2.1,3.9,2.1,7h-12.4
				c0,2.6,0.5,4.3,1.6,5.2c1.1,0.9,2.2,1.4,3.4,1.4C179.5,196,181.1,194.9,182,192.6z M181.8,187.4c0-1-0.2-1.8-0.5-2.6
				c-0.3-0.7-0.8-1.4-1.5-1.9c-0.7-0.5-1.5-0.8-2.5-0.8c-1.3,0-2.4,0.5-3.4,1.4c-0.9,1-1.4,2.2-1.6,3.8H181.8z"/>
			<path d="M189.5,197.7h-1.3v-23.2h2.7v8.9c1.2-2.2,2.9-3.3,5-3.3c2,0,3.6,0.8,4.9,2.3c1.3,1.6,2,3.8,2,6.8c0,2.6-0.7,4.7-2,6.4
				c-1.3,1.7-3,2.6-5.1,2.6c-2.3,0-4.1-1.1-5.4-3.3L189.5,197.7z M190.9,191c0.1,1.8,0.7,3,1.6,3.8c1,0.8,2,1.2,3,1.2
				c1.4,0,2.5-0.6,3.3-1.8c0.8-1.2,1.2-2.8,1.2-4.8c0-2.2-0.4-3.9-1.2-5.2c-0.8-1.3-1.9-1.9-3.3-1.9c-1.1,0-2.1,0.4-3,1.3
				c-0.9,0.9-1.4,2.1-1.6,3.5V191z"/>
			<path class="st1" d="M189.5,197.7h-1.3v-23.2h2.7v8.9c1.2-2.2,2.9-3.3,5-3.3c2,0,3.6,0.8,4.9,2.3c1.3,1.6,2,3.8,2,6.8
				c0,2.6-0.7,4.7-2,6.4c-1.3,1.7-3,2.6-5.1,2.6c-2.3,0-4.1-1.1-5.4-3.3L189.5,197.7z M190.9,191c0.1,1.8,0.7,3,1.6,3.8
				c1,0.8,2,1.2,3,1.2c1.4,0,2.5-0.6,3.3-1.8c0.8-1.2,1.2-2.8,1.2-4.8c0-2.2-0.4-3.9-1.2-5.2c-0.8-1.3-1.9-1.9-3.3-1.9
				c-1.1,0-2.1,0.4-3,1.3c-0.9,0.9-1.4,2.1-1.6,3.5V191z"/>
			<path d="M209.7,193.3l2.5-0.5c0.6,2.2,2.4,3.2,5.4,3.2c1.1,0,2-0.2,2.8-0.7c0.8-0.5,1.2-1.2,1.2-2.1c0-1.3-1-2.2-2.9-2.6
				l-3.6-0.7c-1.4-0.3-2.5-0.8-3.4-1.6c-0.8-0.8-1.3-1.8-1.3-3.1c0-1.4,0.6-2.6,1.7-3.6c1.1-1,2.7-1.5,4.6-1.5c3.7,0,6,1.5,6.9,4.4
				l-2.4,0.5c-0.7-1.8-2.1-2.7-4.3-2.7c-1.1,0-2,0.2-2.7,0.7c-0.7,0.4-1,1.1-1,1.9c0,1.3,0.9,2.1,2.7,2.4l3.3,0.6
				c3.5,0.6,5.2,2.3,5.2,5.1c0,1.6-0.7,2.8-2,3.8c-1.3,1-3,1.5-5.2,1.5C213.2,198.2,210.7,196.6,209.7,193.3"/>
			<path class="st1" d="M209.7,193.3l2.5-0.5c0.6,2.2,2.4,3.2,5.4,3.2c1.1,0,2-0.2,2.8-0.7c0.8-0.5,1.2-1.2,1.2-2.1
				c0-1.3-1-2.2-2.9-2.6l-3.6-0.7c-1.4-0.3-2.5-0.8-3.4-1.6c-0.8-0.8-1.3-1.8-1.3-3.1c0-1.4,0.6-2.6,1.7-3.6c1.1-1,2.7-1.5,4.6-1.5
				c3.7,0,6,1.5,6.9,4.4l-2.4,0.5c-0.7-1.8-2.1-2.7-4.3-2.7c-1.1,0-2,0.2-2.7,0.7c-0.7,0.4-1,1.1-1,1.9c0,1.3,0.9,2.1,2.7,2.4
				l3.3,0.6c3.5,0.6,5.2,2.3,5.2,5.1c0,1.6-0.7,2.8-2,3.8c-1.3,1-3,1.5-5.2,1.5C213.2,198.2,210.7,196.6,209.7,193.3z"/>
			<path d="M238.6,192.6l2.5,0.5c-0.5,1.5-1.3,2.7-2.6,3.6c-1.3,1-2.9,1.4-4.6,1.4c-2.3,0-4.2-0.8-5.7-2.5c-1.4-1.6-2.2-3.8-2.2-6.5
				c0-2.7,0.8-4.9,2.3-6.6c1.5-1.7,3.4-2.5,5.7-2.5c2.2,0,4,0.8,5.4,2.3c1.4,1.6,2.1,3.9,2.1,7h-12.4c0,2.6,0.5,4.3,1.6,5.2
				c1.1,0.9,2.2,1.4,3.4,1.4C236.2,196,237.7,194.9,238.6,192.6 M238.4,187.4c0-1-0.2-1.8-0.5-2.6c-0.3-0.7-0.8-1.4-1.5-1.9
				c-0.7-0.5-1.5-0.8-2.5-0.8c-1.3,0-2.4,0.5-3.4,1.4c-0.9,1-1.4,2.2-1.6,3.8H238.4z"/>
			<path class="st1" d="M238.6,192.6l2.5,0.5c-0.5,1.5-1.3,2.7-2.6,3.6c-1.3,1-2.9,1.4-4.6,1.4c-2.3,0-4.2-0.8-5.7-2.5
				c-1.4-1.6-2.2-3.8-2.2-6.5c0-2.7,0.8-4.9,2.3-6.6c1.5-1.7,3.4-2.5,5.7-2.5c2.2,0,4,0.8,5.4,2.3c1.4,1.6,2.1,3.9,2.1,7h-12.4
				c0,2.6,0.5,4.3,1.6,5.2c1.1,0.9,2.2,1.4,3.4,1.4C236.2,196,237.7,194.9,238.6,192.6z M238.4,187.4c0-1-0.2-1.8-0.5-2.6
				c-0.3-0.7-0.8-1.4-1.5-1.9c-0.7-0.5-1.5-0.8-2.5-0.8c-1.3,0-2.4,0.5-3.4,1.4c-0.9,1-1.4,2.2-1.6,3.8H238.4z"/>
			<path d="M246.9,197.7h-2.7v-17.2h2.3v4c0.8-1.9,1.7-3.1,2.5-3.6c0.8-0.6,1.7-0.8,2.6-0.8c0.3,0,0.6,0,1.1,0.1v2.5h-0.5
				c-1.5,0-2.7,0.5-3.7,1.6c-1,1.1-1.5,2.5-1.6,4.3V197.7z"/>
			<path class="st1" d="M246.9,197.7h-2.7v-17.2h2.3v4c0.8-1.9,1.7-3.1,2.5-3.6c0.8-0.6,1.7-0.8,2.6-0.8c0.3,0,0.6,0,1.1,0.1v2.5
				h-0.5c-1.5,0-2.7,0.5-3.7,1.6c-1,1.1-1.5,2.5-1.6,4.3V197.7z"/>
			<polygon points="269.3,180.6 263.3,197.7 260.6,197.7 254.5,180.6 257.4,180.6 262.2,194.5 266.9,180.6 			"/>
			<polygon class="st1" points="269.3,180.6 263.3,197.7 260.6,197.7 254.5,180.6 257.4,180.6 262.2,194.5 266.9,180.6 			"/>
			<path d="M274.3,177.5h-2.9v-3h2.9V177.5z M274.2,197.7h-2.7v-17.2h2.7V197.7z"/>
			<path class="st1" d="M274.3,177.5h-2.9v-3h2.9V177.5z M274.2,197.7h-2.7v-17.2h2.7V197.7z"/>
			<path d="M288.2,191.7l2.4,0.4c-0.3,1.9-1.1,3.4-2.3,4.5c-1.2,1.1-2.6,1.6-4.4,1.6c-2.4,0-4.2-0.9-5.4-2.6
				c-1.2-1.7-1.9-3.9-1.9-6.4c0-2.6,0.7-4.8,2-6.5c1.3-1.7,3.1-2.6,5.3-2.6c1.9,0,3.4,0.6,4.5,1.7c1.1,1.1,1.8,2.6,2.1,4.3l-2.4,0.5
				c-0.5-2.8-1.8-4.2-4.1-4.2c-1.5,0-2.6,0.6-3.4,1.9c-0.8,1.3-1.2,2.9-1.2,4.9c0,2.2,0.4,3.9,1.2,5.1c0.8,1.2,1.9,1.8,3.3,1.8
				C286.2,196,287.6,194.6,288.2,191.7"/>
			<path class="st1" d="M288.2,191.7l2.4,0.4c-0.3,1.9-1.1,3.4-2.3,4.5c-1.2,1.1-2.6,1.6-4.4,1.6c-2.4,0-4.2-0.9-5.4-2.6
				c-1.2-1.7-1.9-3.9-1.9-6.4c0-2.6,0.7-4.8,2-6.5c1.3-1.7,3.1-2.6,5.3-2.6c1.9,0,3.4,0.6,4.5,1.7c1.1,1.1,1.8,2.6,2.1,4.3l-2.4,0.5
				c-0.5-2.8-1.8-4.2-4.1-4.2c-1.5,0-2.6,0.6-3.4,1.9c-0.8,1.3-1.2,2.9-1.2,4.9c0,2.2,0.4,3.9,1.2,5.1c0.8,1.2,1.9,1.8,3.3,1.8
				C286.2,196,287.6,194.6,288.2,191.7z"/>
			<path d="M305.6,192.6l2.5,0.5c-0.5,1.5-1.3,2.7-2.6,3.6c-1.3,1-2.9,1.4-4.6,1.4c-2.3,0-4.2-0.8-5.7-2.5c-1.4-1.6-2.2-3.8-2.2-6.5
				c0-2.7,0.8-4.9,2.3-6.6c1.5-1.7,3.4-2.5,5.7-2.5c2.2,0,4,0.8,5.4,2.3c1.4,1.6,2.1,3.9,2.1,7H296c0,2.6,0.5,4.3,1.6,5.2
				c1.1,0.9,2.2,1.4,3.4,1.4C303.2,196,304.7,194.9,305.6,192.6 M305.5,187.4c0-1-0.2-1.8-0.5-2.6c-0.3-0.7-0.8-1.4-1.5-1.9
				c-0.7-0.5-1.5-0.8-2.5-0.8c-1.3,0-2.4,0.5-3.4,1.4c-0.9,1-1.4,2.2-1.6,3.8H305.5z"/>
			<path class="st1" d="M305.6,192.6l2.5,0.5c-0.5,1.5-1.3,2.7-2.6,3.6c-1.3,1-2.9,1.4-4.6,1.4c-2.3,0-4.2-0.8-5.7-2.5
				c-1.4-1.6-2.2-3.8-2.2-6.5c0-2.7,0.8-4.9,2.3-6.6c1.5-1.7,3.4-2.5,5.7-2.5c2.2,0,4,0.8,5.4,2.3c1.4,1.6,2.1,3.9,2.1,7H296
				c0,2.6,0.5,4.3,1.6,5.2c1.1,0.9,2.2,1.4,3.4,1.4C303.2,196,304.7,194.9,305.6,192.6z M305.5,187.4c0-1-0.2-1.8-0.5-2.6
				c-0.3-0.7-0.8-1.4-1.5-1.9c-0.7-0.5-1.5-0.8-2.5-0.8c-1.3,0-2.4,0.5-3.4,1.4c-0.9,1-1.4,2.2-1.6,3.8H305.5z"/>
			<path d="M309.9,193.3l2.5-0.5c0.6,2.2,2.4,3.2,5.4,3.2c1.1,0,2-0.2,2.8-0.7c0.8-0.5,1.2-1.2,1.2-2.1c0-1.3-1-2.2-2.9-2.6
				l-3.6-0.7c-1.4-0.3-2.5-0.8-3.4-1.6c-0.8-0.8-1.3-1.8-1.3-3.1c0-1.4,0.6-2.6,1.7-3.6c1.1-1,2.7-1.5,4.6-1.5c3.7,0,6,1.5,6.9,4.4
				l-2.4,0.5c-0.7-1.8-2.1-2.7-4.3-2.7c-1.1,0-2,0.2-2.7,0.7c-0.7,0.4-1,1.1-1,1.9c0,1.3,0.9,2.1,2.7,2.4l3.3,0.6
				c3.5,0.6,5.2,2.3,5.2,5.1c0,1.6-0.7,2.8-2,3.8c-1.3,1-3,1.5-5.2,1.5C313.4,198.2,310.9,196.6,309.9,193.3"/>
			<path class="st1" d="M309.9,193.3l2.5-0.5c0.6,2.2,2.4,3.2,5.4,3.2c1.1,0,2-0.2,2.8-0.7c0.8-0.5,1.2-1.2,1.2-2.1
				c0-1.3-1-2.2-2.9-2.6l-3.6-0.7c-1.4-0.3-2.5-0.8-3.4-1.6c-0.8-0.8-1.3-1.8-1.3-3.1c0-1.4,0.6-2.6,1.7-3.6c1.1-1,2.7-1.5,4.6-1.5
				c3.7,0,6,1.5,6.9,4.4l-2.4,0.5c-0.7-1.8-2.1-2.7-4.3-2.7c-1.1,0-2,0.2-2.7,0.7c-0.7,0.4-1,1.1-1,1.9c0,1.3,0.9,2.1,2.7,2.4
				l3.3,0.6c3.5,0.6,5.2,2.3,5.2,5.1c0,1.6-0.7,2.8-2,3.8c-1.3,1-3,1.5-5.2,1.5C313.4,198.2,310.9,196.6,309.9,193.3z"/>
			<path class="st2" d="M249.7,143.9v-4.1c0-0.6,0.5-1,1-1l18.5,0c0.6,0,1.1,0.4,1.1,1l0,3.5c0,0.6-0.5,1.4-1.4,2.6l-9.6,13.7
				c3.6-0.1,7.3,0.4,10.5,2.3c0.7,0.4,0.9,1,1,1.6v4.4c0,0.6-0.7,1.3-1.4,0.9c-5.7-3-13.2-3.3-19.5,0c-0.6,0.3-1.3-0.3-1.3-1v-4.2
				c0-0.7,0-1.8,0.7-2.8l11.1-15.9l-9.6,0C250.2,145,249.7,144.5,249.7,143.9"/>
			<path class="st2" d="M183.6,169.6H178c-0.5,0-1-0.4-1-0.9l0-28.8c0-0.6,0.5-1,1.1-1l5.2,0c0.5,0,1,0.4,1,1v3.8h0.1
				c1.4-3.6,3.9-5.3,7.4-5.3c3.5,0,5.7,1.7,7.3,5.3c1.4-3.6,4.5-5.3,7.8-5.3c2.4,0,4.9,1,6.5,3.2c1.8,2.4,1.4,5.9,1.4,9l0,18.2
				c0,0.6-0.5,1-1.1,1h-5.6c-0.6,0-1-0.5-1-1l0-15.3c0-1.2,0.1-4.2-0.2-5.4c-0.4-1.9-1.7-2.5-3.3-2.5c-1.4,0-2.8,0.9-3.4,2.4
				c-0.6,1.5-0.5,3.9-0.5,5.5v15.3c0,0.6-0.5,1-1.1,1h-5.6c-0.6,0-1-0.5-1-1l0-15.3c0-3.2,0.5-7.9-3.5-7.9c-4,0-3.9,4.6-3.9,7.9
				l0,15.3C184.7,169.2,184.2,169.6,183.6,169.6"/>
			<path class="st2" d="M283.8,138.2c8.3,0,12.7,7.2,12.7,16.3c0,8.8-4.9,15.8-12.7,15.8c-8.1,0-12.5-7.2-12.5-16.1
				C271.3,145.2,275.8,138.2,283.8,138.2 M283.9,144.8c-4.1,0-4.4,5.6-4.4,9.2c0,3.5-0.1,10.3,4.3,10.3c4.3,0,4.5-5.3,4.5-9
				c0-2.4-0.1-5.3-0.8-7.6C286.9,145.6,285.6,144.8,283.9,144.8"/>
			<path class="st2" d="M308.5,169.6h-5.6c-0.6,0-1-0.5-1-1l0-28.8c0-0.5,0.5-0.9,1.1-0.9l5.2,0c0.5,0,0.9,0.4,1,0.8v4.4h0.1
				c1.6-3.9,3.8-5.8,7.7-5.8c2.5,0,5,0.9,6.6,3.4c1.5,2.3,1.5,6.2,1.5,9v18.1c-0.1,0.5-0.5,0.9-1.1,0.9h-5.6c-0.5,0-0.9-0.4-1-0.9
				v-15.7c0-3.2,0.4-7.8-3.5-7.8c-1.4,0-2.6,0.9-3.3,2.3c-0.8,1.8-0.9,3.5-0.9,5.5v15.5C309.6,169.2,309.1,169.6,308.5,169.6"/>
			<path class="st2" d="M235.6,155.9c0,2.2,0.1,4-1.1,6c-0.9,1.6-2.3,2.6-3.9,2.6c-2.2,0-3.4-1.6-3.4-4.1c0-4.8,4.3-5.7,8.4-5.7
				V155.9z M241.3,169.6c-0.4,0.3-0.9,0.4-1.3,0.1c-1.9-1.6-2.2-2.3-3.2-3.7c-3.1,3.1-5.3,4.1-9.3,4.1c-4.7,0-8.4-2.9-8.4-8.8
				c0-4.6,2.5-7.7,6-9.2c3-1.3,7.3-1.6,10.6-1.9v-0.7c0-1.3,0.1-2.9-0.7-4.1c-0.7-1-2-1.5-3.2-1.5c-2.1,0-4,1.1-4.5,3.4
				c-0.1,0.5-0.5,1-1,1l-5.4-0.6c-0.5-0.1-1-0.5-0.8-1.2c1.3-6.6,7.2-8.6,12.6-8.6c2.7,0,6.3,0.7,8.5,2.8c2.7,2.6,2.5,6,2.5,9.7v8.8
				c0,2.6,1.1,3.8,2.1,5.2c0.4,0.5,0.4,1.1,0,1.5C244.4,166.8,242.4,168.6,241.3,169.6L241.3,169.6z"/>
			<path class="st2" d="M162.6,155.9c0,2.2,0.1,4-1.1,6c-0.9,1.6-2.3,2.6-3.9,2.6c-2.2,0-3.4-1.6-3.4-4.1c0-4.8,4.3-5.7,8.4-5.7
				V155.9z M168.3,169.6c-0.4,0.3-0.9,0.4-1.3,0.1c-1.9-1.6-2.2-2.3-3.2-3.7c-3.1,3.1-5.3,4.1-9.3,4.1c-4.7,0-8.4-2.9-8.4-8.8
				c0-4.6,2.5-7.7,6-9.2c3-1.3,7.3-1.6,10.6-1.9v-0.7c0-1.3,0.1-2.9-0.7-4.1c-0.7-1-2-1.5-3.2-1.5c-2.1,0-4,1.1-4.5,3.4
				c-0.1,0.5-0.5,1-1,1l-5.4-0.6c-0.5-0.1-1-0.5-0.8-1.2c1.3-6.6,7.2-8.6,12.6-8.6c2.7,0,6.3,0.7,8.5,2.8c2.7,2.6,2.5,6,2.5,9.7v8.8
				c0,2.6,1.1,3.8,2.1,5.2c0.4,0.5,0.4,1.1,0,1.5C171.4,166.8,169.4,168.6,168.3,169.6L168.3,169.6z"/>
		</g>
	</g>
</g>
</svg>
