<?xml version="1.0" encoding="utf-8"?>
<!-- Generator: Adobe Illustrator 22.0.1, SVG Export Plug-In . SVG Version: 6.00 Build 0)  -->
<svg version="1.1" id="Layer_2_1_" xmlns="http://www.w3.org/2000/svg" xmlns:xlink="http://www.w3.org/1999/xlink" x="0px" y="0px"
	 viewBox="0 0 400 300" style="enable-background:new 0 0 400 300;" xml:space="preserve">
<style type="text/css">
	.st0{fill:#6772E5;}
</style>
<g>
	<path class="st0" d="M328.4,151.8c0-18.3-8.8-32.7-25.8-32.7c-17,0-27.2,14.4-27.2,32.5c0,21.5,12.1,32.3,29.5,32.3
		c8.5,0,14.9-1.9,19.8-4.6v-14.3c-4.9,2.4-10.4,3.9-17.5,3.9c-6.9,0-13.1-2.4-13.8-10.8h34.9C328.3,157.2,328.4,153.5,328.4,151.8z
		 M293.2,145c0-8.1,4.9-11.4,9.4-11.4c4.4,0,9,3.4,9,11.4H293.2z"/>
	<path class="st0" d="M247.9,119.1c-7,0-11.5,3.3-14,5.6l-0.9-4.4h-15.7v83.2l17.8-3.8l0.1-20.2c2.6,1.9,6.3,4.5,12.6,4.5
		c12.8,0,24.4-10.3,24.4-32.9C272.1,130.4,260.3,119.1,247.9,119.1z M243.6,168.3c-4.2,0-6.7-1.5-8.4-3.4l-0.1-26.5
		c1.9-2.1,4.4-3.5,8.5-3.5c6.5,0,11,7.3,11,16.6C254.6,161.1,250.1,168.3,243.6,168.3z"/>
	<polygon class="st0" points="192.7,114.9 210.6,111.1 210.6,96.6 192.7,100.4 	"/>
	<rect x="192.7" y="120.3" class="st0" width="17.9" height="62.4"/>
	<path class="st0" d="M173.5,125.6l-1.1-5.3H157v62.4h17.8v-42.3c4.2-5.5,11.3-4.5,13.6-3.7v-16.4
		C186.1,119.5,177.7,117.9,173.5,125.6z"/>
	<path class="st0" d="M137.9,104.8l-17.4,3.7l-0.1,57.1c0,10.6,7.9,18.3,18.5,18.3c5.8,0,10.1-1.1,12.5-2.4v-14.5
		c-2.3,0.9-13.6,4.2-13.6-6.3v-25.3h13.6v-15.2h-13.6L137.9,104.8z"/>
	<path class="st0" d="M89.6,138.4c0-2.8,2.3-3.9,6.1-3.9c5.4,0,12.3,1.6,17.7,4.6v-16.8c-5.9-2.4-11.8-3.3-17.7-3.3
		c-14.5,0-24.1,7.6-24.1,20.2c0,19.7,27.1,16.5,27.1,25c0,3.3-2.9,4.4-6.8,4.4c-5.9,0-13.5-2.4-19.5-5.7v17
		c6.6,2.9,13.3,4.1,19.5,4.1c14.8,0,25-7.3,25-20.1C116.8,142.7,89.6,146.4,89.6,138.4z"/>
</g>
</svg>
