<?xml version="1.0" encoding="utf-8"?>
<!-- Generator: Adobe Illustrator 21.0.2, SVG Export Plug-In . SVG Version: 6.00 Build 0)  -->
<svg version="1.1" id="Layer_1" xmlns="http://www.w3.org/2000/svg" xmlns:xlink="http://www.w3.org/1999/xlink" x="0px" y="0px"
	 viewBox="0 0 400 300" style="enable-background:new 0 0 400 300;" xml:space="preserve">
<style type="text/css">
	.st0{fill:#0080FF;}
</style>
<g id="XMLID_229_">
	<g id="XMLID_690_">
		<g id="XMLID_691_">
			<g>
				<g id="XMLID_44_">
					<g id="XMLID_48_">
						<path id="XMLID_49_" class="st0" d="M200,181.6v-24.2c25.7,0,45.5-25.5,35.7-52.5c-3.6-10-11.6-18-21.6-21.6
							c-27-9.8-52.4,10-52.4,35.7l0,0h-24.2c0-41,39.6-72.8,82.4-59.4c18.7,5.8,33.7,20.7,39.5,39.5
							C272.7,142,240.9,181.6,200,181.6z"/>
					</g>
					<polygon id="XMLID_47_" class="st0" points="200,157.4 175.9,157.4 175.9,133.3 175.9,133.2 200,133.2 200,133.2 					"/>
					<polygon id="XMLID_46_" class="st0" points="175.9,176 157.3,176 157.3,176 157.3,157.4 175.9,157.4 					"/>
					<path id="XMLID_45_" class="st0" d="M157.4,157.4h-15.6l0,0v-15.5l0,0h15.5l0,0L157.4,157.4L157.4,157.4z"/>
				</g>
			</g>
		</g>
	</g>
	<g id="XMLID_234_">
		<path id="XMLID_677_" class="st0" d="M96.6,206.1c-3.2-2.2-7.1-3.3-11.7-3.3H75v31.6h10c4.6,0,8.5-1.2,11.7-3.5
			c1.7-1.3,3.1-3,4-5.1c1-2.1,1.4-4.7,1.4-7.5c0-2.8-0.4-5.2-1.4-7.4C99.7,208.9,98.3,207.2,96.6,206.1z M80.8,208.1h3.1
			c3.5,0,6.3,0.7,8.5,2.1c2.4,1.5,3.6,4.2,3.6,8.2c0,4.1-1.3,7-3.6,8.6l0,0c-2.1,1.4-4.9,2.1-8.5,2.1h-3.2L80.8,208.1L80.8,208.1z"
			/>
		<path id="XMLID_676_" class="st0" d="M109,202.4c-1,0-1.8,0.4-2.4,1s-1,1.5-1,2.4c0,1,0.4,1.8,1,2.4s1.5,1,2.4,1
			c1,0,1.8-0.4,2.4-1c0.7-0.7,1-1.5,1-2.4c0-1-0.4-1.8-1-2.4C110.8,202.7,110,202.4,109,202.4z"/>
		<rect id="XMLID_675_" x="106.1" y="212.1" class="st0" width="5.6" height="22.3"/>
		<path id="XMLID_670_" class="st0" d="M132.1,214c-1.7-1.5-3.5-2.4-5.6-2.4c-3.1,0-5.7,1-7.6,3.2c-2,2.1-3,4.8-3,8s1,5.8,3,8
			c2,2.1,4.6,3.1,7.7,3.1c2.1,0,4-0.6,5.5-1.8v0.5c0,1.8-0.5,3.2-1.5,4.3c-1,1-2.3,1.5-4,1.5c-2.6,0-4.2-1-6.2-3.7l-3.8,3.7l0.1,0.1
			c0.8,1.2,2.1,2.3,3.8,3.4c1.7,1.1,3.8,1.6,6.2,1.6c3.3,0,6.1-1,8-3c2-2.1,3-4.7,3-8.1v-20.2h-5.5V214z M130.6,227.1
			c-1,1.1-2.2,1.6-3.8,1.6c-1.6,0-2.9-0.5-3.8-1.6c-1-1.1-1.5-2.6-1.5-4.4c0-1.8,0.5-3.3,1.5-4.4c1-1.1,2.2-1.6,3.8-1.6
			c1.6,0,2.9,0.5,3.8,1.7c1,1.1,1.5,2.6,1.5,4.4C132.1,224.5,131.6,226,130.6,227.1z"/>
		<rect id="XMLID_668_" x="142.4" y="212.1" class="st0" width="5.6" height="22.3"/>
		<path id="XMLID_660_" class="st0" d="M145.3,202.4c-1,0-1.8,0.4-2.4,1s-1,1.5-1,2.4c0,1,0.4,1.8,1,2.4s1.5,1,2.4,1
			c1,0,1.8-0.4,2.4-1c0.7-0.7,1-1.5,1-2.4c0-1-0.4-1.8-1-2.4C147,202.7,146.2,202.4,145.3,202.4z"/>
		<path id="XMLID_652_" class="st0" d="M160.3,206.1h-5.5v6h-3.2v5.1h3.2v9.2c0,2.9,0.6,4.9,1.7,6.1c1.1,1.2,3.2,1.8,6.1,1.8
			c0.9,0,1.8,0,2.7-0.1h0.2v-5.1l-1.9,0.1c-1.3,0-2.2-0.2-2.7-0.7c-0.4-0.4-0.7-1.5-0.7-3v-8.5h5.2V212h-5.2L160.3,206.1
			L160.3,206.1z"/>
		<rect id="XMLID_642_" x="191.8" y="202.8" class="st0" width="5.6" height="31.6"/>
		<path id="XMLID_448_" class="st0" d="M253.9,226.4c-1,1.1-2,2.1-2.8,2.6l0,0c-0.7,0.5-1.8,0.7-2.9,0.7c-1.6,0-3-0.6-4.1-1.8
			s-1.6-2.8-1.6-4.7s0.5-3.5,1.6-4.7c1-1.3,2.4-1.8,4.1-1.8c1.8,0,3.7,1.1,5.3,3l3.7-3.5l0,0c-2.4-3.2-5.5-4.6-9.2-4.6
			c-3.1,0-5.8,1.1-7.9,3.3c-2.1,2.2-3.2,5-3.2,8.3s1.1,6.1,3.2,8.3c2.1,2.2,4.9,3.3,7.9,3.3c4.1,0,7.3-1.8,9.5-4.9L253.9,226.4z"/>
		<path id="XMLID_445_" class="st0" d="M276.9,215.2c-0.8-1.1-1.8-2-3.2-2.7c-1.3-0.7-2.9-1-4.7-1c-3.1,0-5.7,1.2-7.6,3.4
			c-1.8,2.3-2.8,5.1-2.8,8.3c0,3.4,1,6.2,3.1,8.3c2.1,2.1,4.7,3.2,8.1,3.2c3.8,0,6.9-1.6,9.2-4.6l0.1-0.1l-3.7-3.5l0,0
			c-0.4,0.4-0.8,0.9-1.3,1.3c-0.5,0.5-1.1,1-1.6,1.2c-0.8,0.4-1.8,0.6-2.8,0.6c-1.6,0-2.8-0.4-3.8-1.3c-0.9-0.8-1.5-2-1.6-3.4h14.8
			l0.1-2.1c0-1.5-0.2-2.8-0.6-4.1C278.3,217.5,277.7,216.4,276.9,215.2z M264.7,220.5c0.3-1,0.7-1.9,1.5-2.7c0.7-0.7,1.8-1.1,3-1.1
			c1.3,0,2.4,0.4,3.1,1.2c0.7,0.7,1,1.6,1.1,2.6H264.7z"/>
		<path id="XMLID_442_" class="st0" d="M298.4,213.8L298.4,213.8c-1.7-1.5-4.1-2.2-6.9-2.2c-1.8,0-3.6,0.4-5.2,1.2
			c-1.5,0.7-2.9,2-3.8,3.5l0.1,0.1l3.6,3.5c1.5-2.4,3.1-3.2,5.3-3.2c1.2,0,2.1,0.3,2.9,1c0.7,0.6,1.1,1.4,1.1,2.4v1.1
			c-1.4-0.4-2.8-0.7-4.1-0.7c-2.8,0-5,0.7-6.7,1.9c-1.7,1.3-2.6,3.2-2.6,5.5c0,2.1,0.7,3.8,2.1,5c1.5,1.3,3.2,1.8,5.4,1.8
			s4.1-0.9,5.9-2.4v1.8h5.5v-14.3C301,217.4,300.1,215.2,298.4,213.8z M288.5,225.9c0.7-0.4,1.6-0.7,2.7-0.7c1.3,0,2.8,0.3,4.3,0.8
			v2.2c-1.2,1.1-2.9,1.7-4.9,1.7c-1,0-1.7-0.2-2.2-0.7c-0.5-0.4-0.7-1-0.7-1.6C287.6,226.9,287.9,226.3,288.5,225.9z"/>
		<path id="XMLID_393_" class="st0" d="M322.6,214.2c-1.6-1.8-3.8-2.7-6.5-2.7c-2.2,0-4.1,0.7-5.4,1.9v-1.4h-5.5v22.3h5.6v-12.3
			c0-1.7,0.4-3,1.2-4c0.8-1,1.8-1.4,3.3-1.4c1.3,0,2.2,0.4,3,1.3c0.7,0.9,1.1,2.1,1.1,3.5v12.9h5.6v-12.9
			C324.9,218.4,324.1,216,322.6,214.2z"/>
		<path id="XMLID_320_" class="st0" d="M184.7,213.8L184.7,213.8c-1.7-1.5-4.1-2.2-6.9-2.2c-1.8,0-3.6,0.4-5.2,1.2
			c-1.5,0.7-2.9,2-3.8,3.5l0.1,0.1l3.6,3.5c1.5-2.4,3.1-3.2,5.3-3.2c1.2,0,2.1,0.3,2.9,1c0.7,0.6,1.1,1.4,1.1,2.4v1.1
			c-1.4-0.4-2.8-0.7-4.1-0.7c-2.8,0-5,0.7-6.7,1.9c-1.7,1.3-2.6,3.2-2.6,5.5c0,2.1,0.7,3.8,2.1,5c1.5,1.3,3.2,1.8,5.4,1.8
			c2.1,0,4.1-0.9,5.9-2.4v1.8h5.5v-14.3C187.3,217.4,186.4,215.2,184.7,213.8z M174.8,225.9c0.7-0.4,1.6-0.7,2.7-0.7
			c1.3,0,2.8,0.3,4.3,0.8v2.2c-1.2,1.1-2.9,1.7-4.9,1.7c-1,0-1.7-0.2-2.2-0.7c-0.5-0.4-0.7-1-0.7-1.6
			C173.8,226.9,174.1,226.3,174.8,225.9z"/>
		<path id="XMLID_235_" class="st0" d="M217.7,234.9c-9,0-16.3-7.3-16.3-16.3c0-9,7.3-16.3,16.3-16.3s16.3,7.3,16.3,16.3
			C234,227.6,226.7,234.9,217.7,234.9z M217.7,208c-5.8,0-10.6,4.7-10.6,10.6s4.7,10.6,10.6,10.6s10.6-4.7,10.6-10.6
			S223.5,208,217.7,208z"/>
	</g>
</g>
</svg>
