<?xml version="1.0" encoding="utf-8"?>
<!-- Generator: Adobe Illustrator 23.0.4, SVG Export Plug-In . SVG Version: 6.00 Build 0)  -->
<svg version="1.1" id="Layer_1" xmlns="http://www.w3.org/2000/svg" xmlns:xlink="http://www.w3.org/1999/xlink" x="0px" y="0px"
	 viewBox="0 0 400 300" style="enable-background:new 0 0 400 300;" xml:space="preserve">
<style type="text/css">
	.st0{fill:#D74034;}
</style>
<g id="GUIDES">
</g>
<g>
	<path class="st0" d="M29,125.1h16c4.2,0,7.4,0.8,9.5,2.5c2.1,1.7,3.2,4.5,3.2,8.2c0,2.3-0.3,4.1-1,5.4c-0.7,1.3-1.8,2.5-3.5,3.6
		c1.8,0.8,3.1,1.9,4,3.3c0.9,1.4,1.3,3.4,1.3,6c0,4-1.2,6.9-3.5,8.8c-2.3,1.9-5.6,2.9-9.8,2.9H29V125.1z M44.6,132.1h-7.3v9.7h7.4
		c3.1,0,4.7-1.6,4.7-4.9S47.8,132.1,44.6,132.1z M44.9,148.8h-7.6v10h7.6c1.8,0,3.1-0.4,4-1.1c0.9-0.7,1.3-2,1.3-4
		C50.2,150.5,48.4,148.8,44.9,148.8z"/>
	<path class="st0" d="M64.9,165.9v-30h8v3.2c3.4-2,6.6-3.3,9.6-3.9v8.1c-3.2,0.7-6,1.4-8.3,2.1l-1.2,0.4v20.1H64.9z"/>
	<path class="st0" d="M95.2,158.3c0.9,0.8,2.3,1.2,4,1.2c3.7,0,7-0.1,10-0.4l1.7-0.2l0.1,5.9c-4.6,1.1-8.8,1.7-12.5,1.7
		c-4.5,0-7.8-1.2-9.8-3.6c-2-2.4-3.1-6.3-3.1-11.7c0-10.8,4.4-16.1,13.3-16.1c8.7,0,13.1,4.5,13.1,13.6l-0.6,5.6H93.8
		C93.8,156.1,94.3,157.5,95.2,158.3z M104.1,148.2c0-2.4-0.4-4.1-1.1-5c-0.8-0.9-2.1-1.4-4-1.4c-1.9,0-3.2,0.5-4,1.5
		c-0.8,1-1.2,2.6-1.2,5H104.1z"/>
	<path class="st0" d="M125.8,165.9h-8v-30h8v1.7c2.7-1.6,5.2-2.4,7.5-2.4c4,0,6.8,1.2,8.3,3.5c1.5,2.4,2.3,6,2.3,10.9v16.3h-8v-16
		c0-2.6-0.3-4.4-0.9-5.7c-0.6-1.2-1.8-1.8-3.6-1.8c-1.6,0-3.2,0.3-4.7,0.8l-0.7,0.2V165.9z"/>
	<path class="st0" d="M176.5,123.9v42h-8v-1.3c-2.8,1.3-5.2,2-7.3,2c-4.4,0-7.4-1.3-9.1-3.8c-1.7-2.5-2.6-6.5-2.6-12s1-9.4,3.1-11.9
		c2.1-2.5,5.2-3.8,9.3-3.8c1.3,0,3.1,0.2,5.3,0.6l1.1,0.2v-12.1H176.5z M167.6,158.7l0.8-0.2v-15.8c-2.2-0.4-4.2-0.6-5.9-0.6
		c-3.2,0-4.9,2.9-4.9,8.6c0,3.1,0.4,5.3,1.1,6.7c0.7,1.3,1.9,2,3.6,2C164,159.4,165.7,159.1,167.6,158.7z"/>
	<path class="st0" d="M206.9,145.2v12.5c0.1,1,0.2,1.6,0.5,2c0.2,0.4,0.7,0.7,1.5,0.8l-0.2,6.1c-2,0-3.7-0.1-4.9-0.4
		c-1.2-0.3-2.5-0.8-3.7-1.7c-2.9,1.4-5.8,2.1-8.8,2.1c-6.2,0-9.3-3.3-9.3-9.8c0-3.2,0.9-5.5,2.6-6.8c1.7-1.3,4.4-2.1,7.9-2.4
		l6.4-0.5v-1.9c0-1.2-0.3-2.1-0.8-2.5c-0.6-0.5-1.5-0.7-2.7-0.7l-11.3,0.5l-0.2-5.6c4.3-1.2,8.3-1.7,12.2-1.7s6.6,0.8,8.3,2.4
		C206,139.2,206.9,141.7,206.9,145.2z M193.4,153.1c-2.2,0.2-3.4,1.4-3.4,3.6c0,2.2,1,3.3,2.9,3.3c1.5,0,3.2-0.2,5-0.7l0.9-0.2v-6.4
		L193.4,153.1z"/>
	<path class="st0" d="M222.6,165.9h-8v-30h8v1.7c2.7-1.6,5.2-2.4,7.5-2.4c4,0,6.8,1.2,8.3,3.5c1.5,2.4,2.3,6,2.3,10.9v16.3h-8v-16
		c0-2.6-0.3-4.4-0.9-5.7c-0.6-1.2-1.8-1.8-3.6-1.8c-1.6,0-3.2,0.3-4.7,0.8l-0.7,0.2V165.9z"/>
	<path class="st0" d="M261.6,165.9v-40.8h8.3v40.8H261.6z"/>
	<path class="st0" d="M278.1,165.9v-30h8v3.2c3.4-2,6.6-3.3,9.6-3.9v8.1c-3.2,0.7-6,1.4-8.3,2.1l-1.2,0.4v20.1H278.1z"/>
	<path class="st0" d="M300.4,132v-8.2h8v8.2H300.4z M300.4,165.9v-30h8v30H300.4z"/>
	<path class="st0" d="M330.4,135.1c4.2,0,7.3,1.2,9.2,3.5c1.9,2.3,2.9,6.4,2.9,12.3c0,5.9-1.1,10-3.4,12.3
		c-2.2,2.3-6.1,3.4-11.6,3.4c-1.7,0-4.9-0.2-9.4-0.6l-2.3-0.2v-41.9h8v12.9C326.5,135.7,328.6,135.1,330.4,135.1z M327.6,159.4
		c2.7,0,4.5-0.6,5.4-2c0.9-1.3,1.4-3.6,1.4-7c0-5.4-1.7-8.1-5-8.1c-1.6,0-3.1,0.2-4.6,0.6l-0.8,0.2v16
		C325.8,159.3,327,159.4,327.6,159.4z"/>
	<path class="st0" d="M356.6,158.3c0.9,0.8,2.3,1.2,4,1.2c3.7,0,7-0.1,10-0.4l1.7-0.2l0.1,5.9c-4.6,1.1-8.8,1.7-12.5,1.7
		c-4.5,0-7.8-1.2-9.8-3.6c-2-2.4-3.1-6.3-3.1-11.7c0-10.8,4.4-16.1,13.3-16.1c8.7,0,13.1,4.5,13.1,13.6l-0.6,5.6h-17.6
		C355.2,156.1,355.7,157.5,356.6,158.3z M365.4,148.2c0-2.4-0.4-4.1-1.1-5c-0.8-0.9-2.1-1.4-4-1.4c-1.9,0-3.2,0.5-4,1.5
		c-0.8,1-1.2,2.6-1.2,5H365.4z"/>
</g>
</svg>
